M48
; DRILL file {KiCad (6.0.0)} date Wed Mar  2 09:47:47 2022
; FORMAT={-:-/ absolute / metric / decimal}
; #@! TF.CreationDate,2022-03-02T09:47:47+01:00
; #@! TF.GenerationSoftware,Kicad,Pcbnew,(6.0.0)
; #@! TF.FileFunction,Plated,1,2,PTH
FMAT,2
METRIC
; #@! TA.AperFunction,Plated,PTH,ComponentDrill
T1C2.200
%
G90
G05
T1
X107.156Y-133.35
X107.156Y-144.463
X107.156Y-172.244
X107.156Y-183.356
X129.381Y-215.9
X146.05Y-158.75
X146.05Y-254.0
X192.881Y-133.35
X192.881Y-144.463
X207.169Y-158.75
X246.062Y-172.244
X246.062Y-183.356
X259.556Y-273.05
X336.55Y-254.0
X370.681Y-158.75
X384.969Y-133.35
X384.969Y-144.463
X384.969Y-172.244
X384.969Y-183.356
X431.8Y-158.75
X436.562Y-215.9
X436.562Y-254.0
X455.612Y-177.8
X470.694Y-133.35
X470.694Y-144.463
T0
M30
