%TF.GenerationSoftware,KiCad,Pcbnew,(6.0.0)*%
%TF.CreationDate,2022-03-02T09:47:48+01:00*%
%TF.ProjectId,backplate,6261636b-706c-4617-9465-2e6b69636164,rev?*%
%TF.SameCoordinates,Original*%
%TF.FileFunction,Copper,L1,Top*%
%TF.FilePolarity,Positive*%
%FSLAX46Y46*%
G04 Gerber Fmt 4.6, Leading zero omitted, Abs format (unit mm)*
G04 Created by KiCad (PCBNEW (6.0.0)) date 2022-03-02 09:47:48*
%MOMM*%
%LPD*%
G01*
G04 APERTURE LIST*
%TA.AperFunction,ComponentPad*%
%ADD10C,3.500001*%
%TD*%
G04 APERTURE END LIST*
D10*
%TO.P,MH2,1*%
%TO.N,GND*%
X207168750Y-158750000D03*
%TD*%
%TO.P,MH2,1*%
%TO.N,GND*%
X246062500Y-183356250D03*
%TD*%
%TO.P,MH2,1*%
%TO.N,GND*%
X470693750Y-144462500D03*
%TD*%
%TO.P,MH2,1*%
%TO.N,GND*%
X107156250Y-183356250D03*
%TD*%
%TO.P,MH2,1*%
%TO.N,GND*%
X384968750Y-172243750D03*
%TD*%
%TO.P,H1,1,1*%
%TO.N,GND*%
X259556250Y-273050000D03*
%TD*%
%TO.P,MH2,1*%
%TO.N,GND*%
X107156250Y-133350000D03*
%TD*%
%TO.P,MH2,1*%
%TO.N,GND*%
X192881250Y-133350000D03*
%TD*%
%TO.P,MH2,1*%
%TO.N,GND*%
X436562500Y-215900000D03*
%TD*%
%TO.P,MH2,1*%
%TO.N,GND*%
X146050000Y-254000000D03*
%TD*%
%TO.P,MH2,1*%
%TO.N,GND*%
X146050000Y-158750000D03*
%TD*%
%TO.P,MH2,1*%
%TO.N,GND*%
X384968750Y-183356250D03*
%TD*%
%TO.P,MH2,1*%
%TO.N,GND*%
X107156250Y-172243750D03*
%TD*%
%TO.P,MH2,1*%
%TO.N,GND*%
X470693750Y-133350000D03*
%TD*%
%TO.P,MH2,1*%
%TO.N,GND*%
X384968750Y-133350000D03*
%TD*%
%TO.P,MH2,1*%
%TO.N,GND*%
X384968750Y-144462500D03*
%TD*%
%TO.P,MH2,1*%
%TO.N,GND*%
X455612500Y-177800000D03*
%TD*%
%TO.P,MH2,1*%
%TO.N,GND*%
X436562500Y-254000000D03*
%TD*%
%TO.P,MH2,1*%
%TO.N,GND*%
X370681250Y-158750000D03*
%TD*%
%TO.P,MH2,1*%
%TO.N,GND*%
X192881250Y-144462500D03*
%TD*%
%TO.P,MH2,1*%
%TO.N,GND*%
X336550000Y-254000000D03*
%TD*%
%TO.P,MH2,1*%
%TO.N,GND*%
X246062500Y-172243750D03*
%TD*%
%TO.P,MH2,1*%
%TO.N,GND*%
X129381250Y-215900000D03*
%TD*%
%TO.P,MH2,1*%
%TO.N,GND*%
X431800000Y-158750000D03*
%TD*%
%TO.P,MH2,1*%
%TO.N,GND*%
X107156250Y-144462500D03*
%TD*%
%TA.AperFunction,Conductor*%
%TO.N,GND*%
G36*
X474632557Y-127022000D02*
G01*
X474647358Y-127024305D01*
X474647361Y-127024305D01*
X474656230Y-127025686D01*
X474676126Y-127023084D01*
X474698284Y-127022154D01*
X475049238Y-127038380D01*
X475060827Y-127039454D01*
X475438498Y-127092137D01*
X475449938Y-127094276D01*
X475821138Y-127181581D01*
X475832314Y-127184761D01*
X476013101Y-127245355D01*
X476193879Y-127305946D01*
X476204731Y-127310150D01*
X476553569Y-127464177D01*
X476563974Y-127469357D01*
X476897129Y-127654923D01*
X476907006Y-127661039D01*
X477221603Y-127876544D01*
X477230891Y-127883558D01*
X477524263Y-128127171D01*
X477532863Y-128135012D01*
X477802488Y-128404637D01*
X477810329Y-128413237D01*
X478053942Y-128706609D01*
X478060956Y-128715897D01*
X478276461Y-129030494D01*
X478282577Y-129040371D01*
X478468143Y-129373526D01*
X478473323Y-129383931D01*
X478627350Y-129732769D01*
X478631554Y-129743621D01*
X478752736Y-130105177D01*
X478755921Y-130116371D01*
X478843224Y-130487562D01*
X478845363Y-130499002D01*
X478898046Y-130876673D01*
X478899120Y-130888262D01*
X478915003Y-131231816D01*
X478913638Y-131257015D01*
X478911814Y-131268730D01*
X478912978Y-131277632D01*
X478912978Y-131277635D01*
X478915936Y-131300251D01*
X478917000Y-131316589D01*
X478917000Y-287288172D01*
X478915500Y-287307556D01*
X478911814Y-287331230D01*
X478913638Y-287345178D01*
X478914416Y-287351126D01*
X478915346Y-287373284D01*
X478899120Y-287724238D01*
X478898046Y-287735827D01*
X478845363Y-288113498D01*
X478843224Y-288124938D01*
X478755921Y-288496129D01*
X478752736Y-288507323D01*
X478631554Y-288868879D01*
X478627350Y-288879731D01*
X478473323Y-289228569D01*
X478468143Y-289238974D01*
X478282577Y-289572129D01*
X478276461Y-289582006D01*
X478060956Y-289896603D01*
X478053942Y-289905891D01*
X477810329Y-290199263D01*
X477802488Y-290207863D01*
X477532863Y-290477488D01*
X477524263Y-290485329D01*
X477230891Y-290728942D01*
X477221603Y-290735956D01*
X476907006Y-290951461D01*
X476897129Y-290957577D01*
X476563974Y-291143143D01*
X476553569Y-291148323D01*
X476204731Y-291302350D01*
X476193879Y-291306554D01*
X476013101Y-291367145D01*
X475832314Y-291427739D01*
X475821138Y-291430919D01*
X475526482Y-291500221D01*
X475449938Y-291518224D01*
X475438498Y-291520363D01*
X475060827Y-291573046D01*
X475049238Y-291574120D01*
X474705684Y-291590003D01*
X474680485Y-291588638D01*
X474677642Y-291588195D01*
X474677640Y-291588195D01*
X474668770Y-291586814D01*
X474659868Y-291587978D01*
X474659865Y-291587978D01*
X474637249Y-291590936D01*
X474620911Y-291592000D01*
X103236828Y-291592000D01*
X103217443Y-291590500D01*
X103202642Y-291588195D01*
X103202639Y-291588195D01*
X103193770Y-291586814D01*
X103174605Y-291589320D01*
X103173874Y-291589416D01*
X103151716Y-291590346D01*
X102800762Y-291574120D01*
X102789173Y-291573046D01*
X102411502Y-291520363D01*
X102400062Y-291518224D01*
X102323518Y-291500221D01*
X102028862Y-291430919D01*
X102017686Y-291427739D01*
X101836899Y-291367145D01*
X101656121Y-291306554D01*
X101645269Y-291302350D01*
X101296431Y-291148323D01*
X101286026Y-291143143D01*
X100952871Y-290957577D01*
X100942994Y-290951461D01*
X100628397Y-290735956D01*
X100619109Y-290728942D01*
X100325737Y-290485329D01*
X100317137Y-290477488D01*
X100047512Y-290207863D01*
X100039671Y-290199263D01*
X99796058Y-289905891D01*
X99789044Y-289896603D01*
X99573539Y-289582006D01*
X99567423Y-289572129D01*
X99381857Y-289238974D01*
X99376677Y-289228569D01*
X99222650Y-288879731D01*
X99218446Y-288868879D01*
X99097264Y-288507323D01*
X99094079Y-288496129D01*
X99006776Y-288124938D01*
X99004637Y-288113498D01*
X98951954Y-287735827D01*
X98950880Y-287724238D01*
X98935170Y-287384426D01*
X98936781Y-287357709D01*
X98937264Y-287354838D01*
X98937264Y-287354833D01*
X98938071Y-287350039D01*
X98938224Y-287337500D01*
X98934273Y-287309912D01*
X98933000Y-287292049D01*
X98933000Y-274818856D01*
X258152851Y-274818856D01*
X258159309Y-274828216D01*
X258175611Y-274842512D01*
X258182151Y-274847530D01*
X258421394Y-275007387D01*
X258428531Y-275011508D01*
X258686599Y-275138772D01*
X258694203Y-275141922D01*
X258966670Y-275234412D01*
X258974633Y-275236546D01*
X259256850Y-275292683D01*
X259265001Y-275293756D01*
X259552131Y-275312575D01*
X259560369Y-275312575D01*
X259847499Y-275293756D01*
X259855650Y-275292683D01*
X260137867Y-275236546D01*
X260145830Y-275234412D01*
X260418297Y-275141922D01*
X260425901Y-275138772D01*
X260683969Y-275011508D01*
X260691106Y-275007387D01*
X260930349Y-274847530D01*
X260936889Y-274842512D01*
X260951324Y-274829853D01*
X260959722Y-274816614D01*
X260953888Y-274806849D01*
X259569060Y-273422020D01*
X259555119Y-273414408D01*
X259553284Y-273414539D01*
X259546670Y-273418790D01*
X258160366Y-274805095D01*
X258152851Y-274818856D01*
X98933000Y-274818856D01*
X98933000Y-273054119D01*
X257293675Y-273054119D01*
X257312494Y-273341249D01*
X257313567Y-273349400D01*
X257369704Y-273631617D01*
X257371838Y-273639580D01*
X257464328Y-273912047D01*
X257467478Y-273919651D01*
X257594742Y-274177718D01*
X257598863Y-274184855D01*
X257758720Y-274424099D01*
X257763738Y-274430639D01*
X257776397Y-274445074D01*
X257789636Y-274453472D01*
X257799401Y-274447638D01*
X259184230Y-273062810D01*
X259190607Y-273051131D01*
X259920658Y-273051131D01*
X259920789Y-273052966D01*
X259925040Y-273059580D01*
X261311345Y-274445884D01*
X261325106Y-274453399D01*
X261334466Y-274446941D01*
X261348762Y-274430639D01*
X261353780Y-274424099D01*
X261513637Y-274184855D01*
X261517758Y-274177718D01*
X261645022Y-273919651D01*
X261648172Y-273912047D01*
X261740662Y-273639580D01*
X261742796Y-273631617D01*
X261798933Y-273349400D01*
X261800006Y-273341249D01*
X261818825Y-273054119D01*
X261818825Y-273045881D01*
X261800006Y-272758751D01*
X261798933Y-272750600D01*
X261742796Y-272468383D01*
X261740662Y-272460420D01*
X261648172Y-272187953D01*
X261645022Y-272180349D01*
X261517758Y-271922282D01*
X261513637Y-271915145D01*
X261353780Y-271675901D01*
X261348762Y-271669361D01*
X261336103Y-271654926D01*
X261322864Y-271646528D01*
X261313099Y-271652362D01*
X259928270Y-273037190D01*
X259920658Y-273051131D01*
X259190607Y-273051131D01*
X259191842Y-273048869D01*
X259191711Y-273047034D01*
X259187460Y-273040420D01*
X257801155Y-271654116D01*
X257787394Y-271646601D01*
X257778034Y-271653059D01*
X257763738Y-271669361D01*
X257758720Y-271675901D01*
X257598863Y-271915145D01*
X257594742Y-271922282D01*
X257467478Y-272180349D01*
X257464328Y-272187953D01*
X257371838Y-272460420D01*
X257369704Y-272468383D01*
X257313567Y-272750600D01*
X257312494Y-272758751D01*
X257293675Y-273045881D01*
X257293675Y-273054119D01*
X98933000Y-273054119D01*
X98933000Y-271283386D01*
X258152778Y-271283386D01*
X258158612Y-271293151D01*
X259543440Y-272677980D01*
X259557381Y-272685592D01*
X259559216Y-272685461D01*
X259565830Y-272681210D01*
X260952134Y-271294905D01*
X260959649Y-271281144D01*
X260953191Y-271271784D01*
X260936889Y-271257488D01*
X260930349Y-271252470D01*
X260691106Y-271092613D01*
X260683969Y-271088492D01*
X260425901Y-270961228D01*
X260418297Y-270958078D01*
X260145830Y-270865588D01*
X260137867Y-270863454D01*
X259855650Y-270807317D01*
X259847499Y-270806244D01*
X259560369Y-270787425D01*
X259552131Y-270787425D01*
X259265001Y-270806244D01*
X259256850Y-270807317D01*
X258974633Y-270863454D01*
X258966670Y-270865588D01*
X258694203Y-270958078D01*
X258686599Y-270961228D01*
X258428532Y-271088492D01*
X258421395Y-271092613D01*
X258182151Y-271252470D01*
X258175611Y-271257488D01*
X258161176Y-271270147D01*
X258152778Y-271283386D01*
X98933000Y-271283386D01*
X98933000Y-255768856D01*
X144646601Y-255768856D01*
X144653059Y-255778216D01*
X144669361Y-255792512D01*
X144675901Y-255797530D01*
X144915144Y-255957387D01*
X144922281Y-255961508D01*
X145180349Y-256088772D01*
X145187953Y-256091922D01*
X145460420Y-256184412D01*
X145468383Y-256186546D01*
X145750600Y-256242683D01*
X145758751Y-256243756D01*
X146045881Y-256262575D01*
X146054119Y-256262575D01*
X146341249Y-256243756D01*
X146349400Y-256242683D01*
X146631617Y-256186546D01*
X146639580Y-256184412D01*
X146912047Y-256091922D01*
X146919651Y-256088772D01*
X147177719Y-255961508D01*
X147184856Y-255957387D01*
X147424099Y-255797530D01*
X147430639Y-255792512D01*
X147445074Y-255779853D01*
X147452050Y-255768856D01*
X335146601Y-255768856D01*
X335153059Y-255778216D01*
X335169361Y-255792512D01*
X335175901Y-255797530D01*
X335415144Y-255957387D01*
X335422281Y-255961508D01*
X335680349Y-256088772D01*
X335687953Y-256091922D01*
X335960420Y-256184412D01*
X335968383Y-256186546D01*
X336250600Y-256242683D01*
X336258751Y-256243756D01*
X336545881Y-256262575D01*
X336554119Y-256262575D01*
X336841249Y-256243756D01*
X336849400Y-256242683D01*
X337131617Y-256186546D01*
X337139580Y-256184412D01*
X337412047Y-256091922D01*
X337419651Y-256088772D01*
X337677719Y-255961508D01*
X337684856Y-255957387D01*
X337924099Y-255797530D01*
X337930639Y-255792512D01*
X337945074Y-255779853D01*
X337952050Y-255768856D01*
X435159101Y-255768856D01*
X435165559Y-255778216D01*
X435181861Y-255792512D01*
X435188401Y-255797530D01*
X435427644Y-255957387D01*
X435434781Y-255961508D01*
X435692849Y-256088772D01*
X435700453Y-256091922D01*
X435972920Y-256184412D01*
X435980883Y-256186546D01*
X436263100Y-256242683D01*
X436271251Y-256243756D01*
X436558381Y-256262575D01*
X436566619Y-256262575D01*
X436853749Y-256243756D01*
X436861900Y-256242683D01*
X437144117Y-256186546D01*
X437152080Y-256184412D01*
X437424547Y-256091922D01*
X437432151Y-256088772D01*
X437690219Y-255961508D01*
X437697356Y-255957387D01*
X437936599Y-255797530D01*
X437943139Y-255792512D01*
X437957574Y-255779853D01*
X437965972Y-255766614D01*
X437960138Y-255756849D01*
X436575310Y-254372020D01*
X436561369Y-254364408D01*
X436559534Y-254364539D01*
X436552920Y-254368790D01*
X435166616Y-255755095D01*
X435159101Y-255768856D01*
X337952050Y-255768856D01*
X337953472Y-255766614D01*
X337947638Y-255756849D01*
X336562810Y-254372020D01*
X336548869Y-254364408D01*
X336547034Y-254364539D01*
X336540420Y-254368790D01*
X335154116Y-255755095D01*
X335146601Y-255768856D01*
X147452050Y-255768856D01*
X147453472Y-255766614D01*
X147447638Y-255756849D01*
X146062810Y-254372020D01*
X146048869Y-254364408D01*
X146047034Y-254364539D01*
X146040420Y-254368790D01*
X144654116Y-255755095D01*
X144646601Y-255768856D01*
X98933000Y-255768856D01*
X98933000Y-254004119D01*
X143787425Y-254004119D01*
X143806244Y-254291249D01*
X143807317Y-254299400D01*
X143863454Y-254581617D01*
X143865588Y-254589580D01*
X143958078Y-254862047D01*
X143961228Y-254869651D01*
X144088492Y-255127718D01*
X144092613Y-255134855D01*
X144252470Y-255374099D01*
X144257488Y-255380639D01*
X144270147Y-255395074D01*
X144283386Y-255403472D01*
X144293151Y-255397638D01*
X145677980Y-254012810D01*
X145684357Y-254001131D01*
X146414408Y-254001131D01*
X146414539Y-254002966D01*
X146418790Y-254009580D01*
X147805095Y-255395884D01*
X147818856Y-255403399D01*
X147828216Y-255396941D01*
X147842512Y-255380639D01*
X147847530Y-255374099D01*
X148007387Y-255134855D01*
X148011508Y-255127718D01*
X148138772Y-254869651D01*
X148141922Y-254862047D01*
X148234412Y-254589580D01*
X148236546Y-254581617D01*
X148292683Y-254299400D01*
X148293756Y-254291249D01*
X148312575Y-254004119D01*
X334287425Y-254004119D01*
X334306244Y-254291249D01*
X334307317Y-254299400D01*
X334363454Y-254581617D01*
X334365588Y-254589580D01*
X334458078Y-254862047D01*
X334461228Y-254869651D01*
X334588492Y-255127718D01*
X334592613Y-255134855D01*
X334752470Y-255374099D01*
X334757488Y-255380639D01*
X334770147Y-255395074D01*
X334783386Y-255403472D01*
X334793151Y-255397638D01*
X336177980Y-254012810D01*
X336184357Y-254001131D01*
X336914408Y-254001131D01*
X336914539Y-254002966D01*
X336918790Y-254009580D01*
X338305095Y-255395884D01*
X338318856Y-255403399D01*
X338328216Y-255396941D01*
X338342512Y-255380639D01*
X338347530Y-255374099D01*
X338507387Y-255134855D01*
X338511508Y-255127718D01*
X338638772Y-254869651D01*
X338641922Y-254862047D01*
X338734412Y-254589580D01*
X338736546Y-254581617D01*
X338792683Y-254299400D01*
X338793756Y-254291249D01*
X338812575Y-254004119D01*
X434299925Y-254004119D01*
X434318744Y-254291249D01*
X434319817Y-254299400D01*
X434375954Y-254581617D01*
X434378088Y-254589580D01*
X434470578Y-254862047D01*
X434473728Y-254869651D01*
X434600992Y-255127718D01*
X434605113Y-255134855D01*
X434764970Y-255374099D01*
X434769988Y-255380639D01*
X434782647Y-255395074D01*
X434795886Y-255403472D01*
X434805651Y-255397638D01*
X436190480Y-254012810D01*
X436196857Y-254001131D01*
X436926908Y-254001131D01*
X436927039Y-254002966D01*
X436931290Y-254009580D01*
X438317595Y-255395884D01*
X438331356Y-255403399D01*
X438340716Y-255396941D01*
X438355012Y-255380639D01*
X438360030Y-255374099D01*
X438519887Y-255134855D01*
X438524008Y-255127718D01*
X438651272Y-254869651D01*
X438654422Y-254862047D01*
X438746912Y-254589580D01*
X438749046Y-254581617D01*
X438805183Y-254299400D01*
X438806256Y-254291249D01*
X438825075Y-254004119D01*
X438825075Y-253995881D01*
X438806256Y-253708751D01*
X438805183Y-253700600D01*
X438749046Y-253418383D01*
X438746912Y-253410420D01*
X438654422Y-253137953D01*
X438651272Y-253130349D01*
X438524008Y-252872282D01*
X438519887Y-252865145D01*
X438360030Y-252625901D01*
X438355012Y-252619361D01*
X438342353Y-252604926D01*
X438329114Y-252596528D01*
X438319349Y-252602362D01*
X436934520Y-253987190D01*
X436926908Y-254001131D01*
X436196857Y-254001131D01*
X436198092Y-253998869D01*
X436197961Y-253997034D01*
X436193710Y-253990420D01*
X434807405Y-252604116D01*
X434793644Y-252596601D01*
X434784284Y-252603059D01*
X434769988Y-252619361D01*
X434764970Y-252625901D01*
X434605113Y-252865145D01*
X434600992Y-252872282D01*
X434473728Y-253130349D01*
X434470578Y-253137953D01*
X434378088Y-253410420D01*
X434375954Y-253418383D01*
X434319817Y-253700600D01*
X434318744Y-253708751D01*
X434299925Y-253995881D01*
X434299925Y-254004119D01*
X338812575Y-254004119D01*
X338812575Y-253995881D01*
X338793756Y-253708751D01*
X338792683Y-253700600D01*
X338736546Y-253418383D01*
X338734412Y-253410420D01*
X338641922Y-253137953D01*
X338638772Y-253130349D01*
X338511508Y-252872282D01*
X338507387Y-252865145D01*
X338347530Y-252625901D01*
X338342512Y-252619361D01*
X338329853Y-252604926D01*
X338316614Y-252596528D01*
X338306849Y-252602362D01*
X336922020Y-253987190D01*
X336914408Y-254001131D01*
X336184357Y-254001131D01*
X336185592Y-253998869D01*
X336185461Y-253997034D01*
X336181210Y-253990420D01*
X334794905Y-252604116D01*
X334781144Y-252596601D01*
X334771784Y-252603059D01*
X334757488Y-252619361D01*
X334752470Y-252625901D01*
X334592613Y-252865145D01*
X334588492Y-252872282D01*
X334461228Y-253130349D01*
X334458078Y-253137953D01*
X334365588Y-253410420D01*
X334363454Y-253418383D01*
X334307317Y-253700600D01*
X334306244Y-253708751D01*
X334287425Y-253995881D01*
X334287425Y-254004119D01*
X148312575Y-254004119D01*
X148312575Y-253995881D01*
X148293756Y-253708751D01*
X148292683Y-253700600D01*
X148236546Y-253418383D01*
X148234412Y-253410420D01*
X148141922Y-253137953D01*
X148138772Y-253130349D01*
X148011508Y-252872282D01*
X148007387Y-252865145D01*
X147847530Y-252625901D01*
X147842512Y-252619361D01*
X147829853Y-252604926D01*
X147816614Y-252596528D01*
X147806849Y-252602362D01*
X146422020Y-253987190D01*
X146414408Y-254001131D01*
X145684357Y-254001131D01*
X145685592Y-253998869D01*
X145685461Y-253997034D01*
X145681210Y-253990420D01*
X144294905Y-252604116D01*
X144281144Y-252596601D01*
X144271784Y-252603059D01*
X144257488Y-252619361D01*
X144252470Y-252625901D01*
X144092613Y-252865145D01*
X144088492Y-252872282D01*
X143961228Y-253130349D01*
X143958078Y-253137953D01*
X143865588Y-253410420D01*
X143863454Y-253418383D01*
X143807317Y-253700600D01*
X143806244Y-253708751D01*
X143787425Y-253995881D01*
X143787425Y-254004119D01*
X98933000Y-254004119D01*
X98933000Y-252233386D01*
X144646528Y-252233386D01*
X144652362Y-252243151D01*
X146037190Y-253627980D01*
X146051131Y-253635592D01*
X146052966Y-253635461D01*
X146059580Y-253631210D01*
X147445884Y-252244905D01*
X147452175Y-252233386D01*
X335146528Y-252233386D01*
X335152362Y-252243151D01*
X336537190Y-253627980D01*
X336551131Y-253635592D01*
X336552966Y-253635461D01*
X336559580Y-253631210D01*
X337945884Y-252244905D01*
X337952175Y-252233386D01*
X435159028Y-252233386D01*
X435164862Y-252243151D01*
X436549690Y-253627980D01*
X436563631Y-253635592D01*
X436565466Y-253635461D01*
X436572080Y-253631210D01*
X437958384Y-252244905D01*
X437965899Y-252231144D01*
X437959441Y-252221784D01*
X437943139Y-252207488D01*
X437936599Y-252202470D01*
X437697356Y-252042613D01*
X437690219Y-252038492D01*
X437432151Y-251911228D01*
X437424547Y-251908078D01*
X437152080Y-251815588D01*
X437144117Y-251813454D01*
X436861900Y-251757317D01*
X436853749Y-251756244D01*
X436566619Y-251737425D01*
X436558381Y-251737425D01*
X436271251Y-251756244D01*
X436263100Y-251757317D01*
X435980883Y-251813454D01*
X435972920Y-251815588D01*
X435700453Y-251908078D01*
X435692849Y-251911228D01*
X435434782Y-252038492D01*
X435427645Y-252042613D01*
X435188401Y-252202470D01*
X435181861Y-252207488D01*
X435167426Y-252220147D01*
X435159028Y-252233386D01*
X337952175Y-252233386D01*
X337953399Y-252231144D01*
X337946941Y-252221784D01*
X337930639Y-252207488D01*
X337924099Y-252202470D01*
X337684856Y-252042613D01*
X337677719Y-252038492D01*
X337419651Y-251911228D01*
X337412047Y-251908078D01*
X337139580Y-251815588D01*
X337131617Y-251813454D01*
X336849400Y-251757317D01*
X336841249Y-251756244D01*
X336554119Y-251737425D01*
X336545881Y-251737425D01*
X336258751Y-251756244D01*
X336250600Y-251757317D01*
X335968383Y-251813454D01*
X335960420Y-251815588D01*
X335687953Y-251908078D01*
X335680349Y-251911228D01*
X335422282Y-252038492D01*
X335415145Y-252042613D01*
X335175901Y-252202470D01*
X335169361Y-252207488D01*
X335154926Y-252220147D01*
X335146528Y-252233386D01*
X147452175Y-252233386D01*
X147453399Y-252231144D01*
X147446941Y-252221784D01*
X147430639Y-252207488D01*
X147424099Y-252202470D01*
X147184856Y-252042613D01*
X147177719Y-252038492D01*
X146919651Y-251911228D01*
X146912047Y-251908078D01*
X146639580Y-251815588D01*
X146631617Y-251813454D01*
X146349400Y-251757317D01*
X146341249Y-251756244D01*
X146054119Y-251737425D01*
X146045881Y-251737425D01*
X145758751Y-251756244D01*
X145750600Y-251757317D01*
X145468383Y-251813454D01*
X145460420Y-251815588D01*
X145187953Y-251908078D01*
X145180349Y-251911228D01*
X144922282Y-252038492D01*
X144915145Y-252042613D01*
X144675901Y-252202470D01*
X144669361Y-252207488D01*
X144654926Y-252220147D01*
X144646528Y-252233386D01*
X98933000Y-252233386D01*
X98933000Y-217668856D01*
X127977851Y-217668856D01*
X127984309Y-217678216D01*
X128000611Y-217692512D01*
X128007151Y-217697530D01*
X128246394Y-217857387D01*
X128253531Y-217861508D01*
X128511599Y-217988772D01*
X128519203Y-217991922D01*
X128791670Y-218084412D01*
X128799633Y-218086546D01*
X129081850Y-218142683D01*
X129090001Y-218143756D01*
X129377131Y-218162575D01*
X129385369Y-218162575D01*
X129672499Y-218143756D01*
X129680650Y-218142683D01*
X129962867Y-218086546D01*
X129970830Y-218084412D01*
X130243297Y-217991922D01*
X130250901Y-217988772D01*
X130508969Y-217861508D01*
X130516106Y-217857387D01*
X130755349Y-217697530D01*
X130761889Y-217692512D01*
X130776324Y-217679853D01*
X130783300Y-217668856D01*
X435159101Y-217668856D01*
X435165559Y-217678216D01*
X435181861Y-217692512D01*
X435188401Y-217697530D01*
X435427644Y-217857387D01*
X435434781Y-217861508D01*
X435692849Y-217988772D01*
X435700453Y-217991922D01*
X435972920Y-218084412D01*
X435980883Y-218086546D01*
X436263100Y-218142683D01*
X436271251Y-218143756D01*
X436558381Y-218162575D01*
X436566619Y-218162575D01*
X436853749Y-218143756D01*
X436861900Y-218142683D01*
X437144117Y-218086546D01*
X437152080Y-218084412D01*
X437424547Y-217991922D01*
X437432151Y-217988772D01*
X437690219Y-217861508D01*
X437697356Y-217857387D01*
X437936599Y-217697530D01*
X437943139Y-217692512D01*
X437957574Y-217679853D01*
X437965972Y-217666614D01*
X437960138Y-217656849D01*
X436575310Y-216272020D01*
X436561369Y-216264408D01*
X436559534Y-216264539D01*
X436552920Y-216268790D01*
X435166616Y-217655095D01*
X435159101Y-217668856D01*
X130783300Y-217668856D01*
X130784722Y-217666614D01*
X130778888Y-217656849D01*
X129394060Y-216272020D01*
X129380119Y-216264408D01*
X129378284Y-216264539D01*
X129371670Y-216268790D01*
X127985366Y-217655095D01*
X127977851Y-217668856D01*
X98933000Y-217668856D01*
X98933000Y-215904119D01*
X127118675Y-215904119D01*
X127137494Y-216191249D01*
X127138567Y-216199400D01*
X127194704Y-216481617D01*
X127196838Y-216489580D01*
X127289328Y-216762047D01*
X127292478Y-216769651D01*
X127419742Y-217027718D01*
X127423863Y-217034855D01*
X127583720Y-217274099D01*
X127588738Y-217280639D01*
X127601397Y-217295074D01*
X127614636Y-217303472D01*
X127624401Y-217297638D01*
X129009230Y-215912810D01*
X129015607Y-215901131D01*
X129745658Y-215901131D01*
X129745789Y-215902966D01*
X129750040Y-215909580D01*
X131136345Y-217295884D01*
X131150106Y-217303399D01*
X131159466Y-217296941D01*
X131173762Y-217280639D01*
X131178780Y-217274099D01*
X131338637Y-217034855D01*
X131342758Y-217027718D01*
X131470022Y-216769651D01*
X131473172Y-216762047D01*
X131565662Y-216489580D01*
X131567796Y-216481617D01*
X131623933Y-216199400D01*
X131625006Y-216191249D01*
X131643825Y-215904119D01*
X434299925Y-215904119D01*
X434318744Y-216191249D01*
X434319817Y-216199400D01*
X434375954Y-216481617D01*
X434378088Y-216489580D01*
X434470578Y-216762047D01*
X434473728Y-216769651D01*
X434600992Y-217027718D01*
X434605113Y-217034855D01*
X434764970Y-217274099D01*
X434769988Y-217280639D01*
X434782647Y-217295074D01*
X434795886Y-217303472D01*
X434805651Y-217297638D01*
X436190480Y-215912810D01*
X436196857Y-215901131D01*
X436926908Y-215901131D01*
X436927039Y-215902966D01*
X436931290Y-215909580D01*
X438317595Y-217295884D01*
X438331356Y-217303399D01*
X438340716Y-217296941D01*
X438355012Y-217280639D01*
X438360030Y-217274099D01*
X438519887Y-217034855D01*
X438524008Y-217027718D01*
X438651272Y-216769651D01*
X438654422Y-216762047D01*
X438746912Y-216489580D01*
X438749046Y-216481617D01*
X438805183Y-216199400D01*
X438806256Y-216191249D01*
X438825075Y-215904119D01*
X438825075Y-215895881D01*
X438806256Y-215608751D01*
X438805183Y-215600600D01*
X438749046Y-215318383D01*
X438746912Y-215310420D01*
X438654422Y-215037953D01*
X438651272Y-215030349D01*
X438524008Y-214772282D01*
X438519887Y-214765145D01*
X438360030Y-214525901D01*
X438355012Y-214519361D01*
X438342353Y-214504926D01*
X438329114Y-214496528D01*
X438319349Y-214502362D01*
X436934520Y-215887190D01*
X436926908Y-215901131D01*
X436196857Y-215901131D01*
X436198092Y-215898869D01*
X436197961Y-215897034D01*
X436193710Y-215890420D01*
X434807405Y-214504116D01*
X434793644Y-214496601D01*
X434784284Y-214503059D01*
X434769988Y-214519361D01*
X434764970Y-214525901D01*
X434605113Y-214765145D01*
X434600992Y-214772282D01*
X434473728Y-215030349D01*
X434470578Y-215037953D01*
X434378088Y-215310420D01*
X434375954Y-215318383D01*
X434319817Y-215600600D01*
X434318744Y-215608751D01*
X434299925Y-215895881D01*
X434299925Y-215904119D01*
X131643825Y-215904119D01*
X131643825Y-215895881D01*
X131625006Y-215608751D01*
X131623933Y-215600600D01*
X131567796Y-215318383D01*
X131565662Y-215310420D01*
X131473172Y-215037953D01*
X131470022Y-215030349D01*
X131342758Y-214772282D01*
X131338637Y-214765145D01*
X131178780Y-214525901D01*
X131173762Y-214519361D01*
X131161103Y-214504926D01*
X131147864Y-214496528D01*
X131138099Y-214502362D01*
X129753270Y-215887190D01*
X129745658Y-215901131D01*
X129015607Y-215901131D01*
X129016842Y-215898869D01*
X129016711Y-215897034D01*
X129012460Y-215890420D01*
X127626155Y-214504116D01*
X127612394Y-214496601D01*
X127603034Y-214503059D01*
X127588738Y-214519361D01*
X127583720Y-214525901D01*
X127423863Y-214765145D01*
X127419742Y-214772282D01*
X127292478Y-215030349D01*
X127289328Y-215037953D01*
X127196838Y-215310420D01*
X127194704Y-215318383D01*
X127138567Y-215600600D01*
X127137494Y-215608751D01*
X127118675Y-215895881D01*
X127118675Y-215904119D01*
X98933000Y-215904119D01*
X98933000Y-214133386D01*
X127977778Y-214133386D01*
X127983612Y-214143151D01*
X129368440Y-215527980D01*
X129382381Y-215535592D01*
X129384216Y-215535461D01*
X129390830Y-215531210D01*
X130777134Y-214144905D01*
X130783425Y-214133386D01*
X435159028Y-214133386D01*
X435164862Y-214143151D01*
X436549690Y-215527980D01*
X436563631Y-215535592D01*
X436565466Y-215535461D01*
X436572080Y-215531210D01*
X437958384Y-214144905D01*
X437965899Y-214131144D01*
X437959441Y-214121784D01*
X437943139Y-214107488D01*
X437936599Y-214102470D01*
X437697356Y-213942613D01*
X437690219Y-213938492D01*
X437432151Y-213811228D01*
X437424547Y-213808078D01*
X437152080Y-213715588D01*
X437144117Y-213713454D01*
X436861900Y-213657317D01*
X436853749Y-213656244D01*
X436566619Y-213637425D01*
X436558381Y-213637425D01*
X436271251Y-213656244D01*
X436263100Y-213657317D01*
X435980883Y-213713454D01*
X435972920Y-213715588D01*
X435700453Y-213808078D01*
X435692849Y-213811228D01*
X435434782Y-213938492D01*
X435427645Y-213942613D01*
X435188401Y-214102470D01*
X435181861Y-214107488D01*
X435167426Y-214120147D01*
X435159028Y-214133386D01*
X130783425Y-214133386D01*
X130784649Y-214131144D01*
X130778191Y-214121784D01*
X130761889Y-214107488D01*
X130755349Y-214102470D01*
X130516106Y-213942613D01*
X130508969Y-213938492D01*
X130250901Y-213811228D01*
X130243297Y-213808078D01*
X129970830Y-213715588D01*
X129962867Y-213713454D01*
X129680650Y-213657317D01*
X129672499Y-213656244D01*
X129385369Y-213637425D01*
X129377131Y-213637425D01*
X129090001Y-213656244D01*
X129081850Y-213657317D01*
X128799633Y-213713454D01*
X128791670Y-213715588D01*
X128519203Y-213808078D01*
X128511599Y-213811228D01*
X128253532Y-213938492D01*
X128246395Y-213942613D01*
X128007151Y-214102470D01*
X128000611Y-214107488D01*
X127986176Y-214120147D01*
X127977778Y-214133386D01*
X98933000Y-214133386D01*
X98933000Y-185125106D01*
X105752851Y-185125106D01*
X105759309Y-185134466D01*
X105775611Y-185148762D01*
X105782151Y-185153780D01*
X106021394Y-185313637D01*
X106028531Y-185317758D01*
X106286599Y-185445022D01*
X106294203Y-185448172D01*
X106566670Y-185540662D01*
X106574633Y-185542796D01*
X106856850Y-185598933D01*
X106865001Y-185600006D01*
X107152131Y-185618825D01*
X107160369Y-185618825D01*
X107447499Y-185600006D01*
X107455650Y-185598933D01*
X107737867Y-185542796D01*
X107745830Y-185540662D01*
X108018297Y-185448172D01*
X108025901Y-185445022D01*
X108283969Y-185317758D01*
X108291106Y-185313637D01*
X108530349Y-185153780D01*
X108536889Y-185148762D01*
X108551324Y-185136103D01*
X108558300Y-185125106D01*
X244659101Y-185125106D01*
X244665559Y-185134466D01*
X244681861Y-185148762D01*
X244688401Y-185153780D01*
X244927644Y-185313637D01*
X244934781Y-185317758D01*
X245192849Y-185445022D01*
X245200453Y-185448172D01*
X245472920Y-185540662D01*
X245480883Y-185542796D01*
X245763100Y-185598933D01*
X245771251Y-185600006D01*
X246058381Y-185618825D01*
X246066619Y-185618825D01*
X246353749Y-185600006D01*
X246361900Y-185598933D01*
X246644117Y-185542796D01*
X246652080Y-185540662D01*
X246924547Y-185448172D01*
X246932151Y-185445022D01*
X247190219Y-185317758D01*
X247197356Y-185313637D01*
X247436599Y-185153780D01*
X247443139Y-185148762D01*
X247457574Y-185136103D01*
X247464550Y-185125106D01*
X383565351Y-185125106D01*
X383571809Y-185134466D01*
X383588111Y-185148762D01*
X383594651Y-185153780D01*
X383833894Y-185313637D01*
X383841031Y-185317758D01*
X384099099Y-185445022D01*
X384106703Y-185448172D01*
X384379170Y-185540662D01*
X384387133Y-185542796D01*
X384669350Y-185598933D01*
X384677501Y-185600006D01*
X384964631Y-185618825D01*
X384972869Y-185618825D01*
X385259999Y-185600006D01*
X385268150Y-185598933D01*
X385550367Y-185542796D01*
X385558330Y-185540662D01*
X385830797Y-185448172D01*
X385838401Y-185445022D01*
X386096469Y-185317758D01*
X386103606Y-185313637D01*
X386342849Y-185153780D01*
X386349389Y-185148762D01*
X386363824Y-185136103D01*
X386372222Y-185122864D01*
X386366388Y-185113099D01*
X384981560Y-183728270D01*
X384967619Y-183720658D01*
X384965784Y-183720789D01*
X384959170Y-183725040D01*
X383572866Y-185111345D01*
X383565351Y-185125106D01*
X247464550Y-185125106D01*
X247465972Y-185122864D01*
X247460138Y-185113099D01*
X246075310Y-183728270D01*
X246061369Y-183720658D01*
X246059534Y-183720789D01*
X246052920Y-183725040D01*
X244666616Y-185111345D01*
X244659101Y-185125106D01*
X108558300Y-185125106D01*
X108559722Y-185122864D01*
X108553888Y-185113099D01*
X107169060Y-183728270D01*
X107155119Y-183720658D01*
X107153284Y-183720789D01*
X107146670Y-183725040D01*
X105760366Y-185111345D01*
X105752851Y-185125106D01*
X98933000Y-185125106D01*
X98933000Y-183360369D01*
X104893675Y-183360369D01*
X104912494Y-183647499D01*
X104913567Y-183655650D01*
X104969704Y-183937867D01*
X104971838Y-183945830D01*
X105064328Y-184218297D01*
X105067478Y-184225901D01*
X105194742Y-184483968D01*
X105198863Y-184491105D01*
X105358720Y-184730349D01*
X105363738Y-184736889D01*
X105376397Y-184751324D01*
X105389636Y-184759722D01*
X105399401Y-184753888D01*
X106784230Y-183369060D01*
X106790607Y-183357381D01*
X107520658Y-183357381D01*
X107520789Y-183359216D01*
X107525040Y-183365830D01*
X108911345Y-184752134D01*
X108925106Y-184759649D01*
X108934466Y-184753191D01*
X108948762Y-184736889D01*
X108953780Y-184730349D01*
X109113637Y-184491105D01*
X109117758Y-184483968D01*
X109245022Y-184225901D01*
X109248172Y-184218297D01*
X109340662Y-183945830D01*
X109342796Y-183937867D01*
X109398933Y-183655650D01*
X109400006Y-183647499D01*
X109418825Y-183360369D01*
X243799925Y-183360369D01*
X243818744Y-183647499D01*
X243819817Y-183655650D01*
X243875954Y-183937867D01*
X243878088Y-183945830D01*
X243970578Y-184218297D01*
X243973728Y-184225901D01*
X244100992Y-184483968D01*
X244105113Y-184491105D01*
X244264970Y-184730349D01*
X244269988Y-184736889D01*
X244282647Y-184751324D01*
X244295886Y-184759722D01*
X244305651Y-184753888D01*
X245690480Y-183369060D01*
X245696857Y-183357381D01*
X246426908Y-183357381D01*
X246427039Y-183359216D01*
X246431290Y-183365830D01*
X247817595Y-184752134D01*
X247831356Y-184759649D01*
X247840716Y-184753191D01*
X247855012Y-184736889D01*
X247860030Y-184730349D01*
X248019887Y-184491105D01*
X248024008Y-184483968D01*
X248151272Y-184225901D01*
X248154422Y-184218297D01*
X248246912Y-183945830D01*
X248249046Y-183937867D01*
X248305183Y-183655650D01*
X248306256Y-183647499D01*
X248325075Y-183360369D01*
X382706175Y-183360369D01*
X382724994Y-183647499D01*
X382726067Y-183655650D01*
X382782204Y-183937867D01*
X382784338Y-183945830D01*
X382876828Y-184218297D01*
X382879978Y-184225901D01*
X383007242Y-184483968D01*
X383011363Y-184491105D01*
X383171220Y-184730349D01*
X383176238Y-184736889D01*
X383188897Y-184751324D01*
X383202136Y-184759722D01*
X383211901Y-184753888D01*
X384596730Y-183369060D01*
X384603107Y-183357381D01*
X385333158Y-183357381D01*
X385333289Y-183359216D01*
X385337540Y-183365830D01*
X386723845Y-184752134D01*
X386737606Y-184759649D01*
X386746966Y-184753191D01*
X386761262Y-184736889D01*
X386766280Y-184730349D01*
X386926137Y-184491105D01*
X386930258Y-184483968D01*
X387057522Y-184225901D01*
X387060672Y-184218297D01*
X387153162Y-183945830D01*
X387155296Y-183937867D01*
X387211433Y-183655650D01*
X387212506Y-183647499D01*
X387231325Y-183360369D01*
X387231325Y-183352131D01*
X387212506Y-183065001D01*
X387211433Y-183056850D01*
X387155296Y-182774633D01*
X387153162Y-182766670D01*
X387060672Y-182494203D01*
X387057522Y-182486599D01*
X386930258Y-182228532D01*
X386926137Y-182221395D01*
X386766280Y-181982151D01*
X386761262Y-181975611D01*
X386748603Y-181961176D01*
X386735364Y-181952778D01*
X386725599Y-181958612D01*
X385340770Y-183343440D01*
X385333158Y-183357381D01*
X384603107Y-183357381D01*
X384604342Y-183355119D01*
X384604211Y-183353284D01*
X384599960Y-183346670D01*
X383213655Y-181960366D01*
X383199894Y-181952851D01*
X383190534Y-181959309D01*
X383176238Y-181975611D01*
X383171220Y-181982151D01*
X383011363Y-182221395D01*
X383007242Y-182228532D01*
X382879978Y-182486599D01*
X382876828Y-182494203D01*
X382784338Y-182766670D01*
X382782204Y-182774633D01*
X382726067Y-183056850D01*
X382724994Y-183065001D01*
X382706175Y-183352131D01*
X382706175Y-183360369D01*
X248325075Y-183360369D01*
X248325075Y-183352131D01*
X248306256Y-183065001D01*
X248305183Y-183056850D01*
X248249046Y-182774633D01*
X248246912Y-182766670D01*
X248154422Y-182494203D01*
X248151272Y-182486599D01*
X248024008Y-182228532D01*
X248019887Y-182221395D01*
X247860030Y-181982151D01*
X247855012Y-181975611D01*
X247842353Y-181961176D01*
X247829114Y-181952778D01*
X247819349Y-181958612D01*
X246434520Y-183343440D01*
X246426908Y-183357381D01*
X245696857Y-183357381D01*
X245698092Y-183355119D01*
X245697961Y-183353284D01*
X245693710Y-183346670D01*
X244307405Y-181960366D01*
X244293644Y-181952851D01*
X244284284Y-181959309D01*
X244269988Y-181975611D01*
X244264970Y-181982151D01*
X244105113Y-182221395D01*
X244100992Y-182228532D01*
X243973728Y-182486599D01*
X243970578Y-182494203D01*
X243878088Y-182766670D01*
X243875954Y-182774633D01*
X243819817Y-183056850D01*
X243818744Y-183065001D01*
X243799925Y-183352131D01*
X243799925Y-183360369D01*
X109418825Y-183360369D01*
X109418825Y-183352131D01*
X109400006Y-183065001D01*
X109398933Y-183056850D01*
X109342796Y-182774633D01*
X109340662Y-182766670D01*
X109248172Y-182494203D01*
X109245022Y-182486599D01*
X109117758Y-182228532D01*
X109113637Y-182221395D01*
X108953780Y-181982151D01*
X108948762Y-181975611D01*
X108936103Y-181961176D01*
X108922864Y-181952778D01*
X108913099Y-181958612D01*
X107528270Y-183343440D01*
X107520658Y-183357381D01*
X106790607Y-183357381D01*
X106791842Y-183355119D01*
X106791711Y-183353284D01*
X106787460Y-183346670D01*
X105401155Y-181960366D01*
X105387394Y-181952851D01*
X105378034Y-181959309D01*
X105363738Y-181975611D01*
X105358720Y-181982151D01*
X105198863Y-182221395D01*
X105194742Y-182228532D01*
X105067478Y-182486599D01*
X105064328Y-182494203D01*
X104971838Y-182766670D01*
X104969704Y-182774633D01*
X104913567Y-183056850D01*
X104912494Y-183065001D01*
X104893675Y-183352131D01*
X104893675Y-183360369D01*
X98933000Y-183360369D01*
X98933000Y-181589636D01*
X105752778Y-181589636D01*
X105758612Y-181599401D01*
X107143440Y-182984230D01*
X107157381Y-182991842D01*
X107159216Y-182991711D01*
X107165830Y-182987460D01*
X108552134Y-181601155D01*
X108558425Y-181589636D01*
X244659028Y-181589636D01*
X244664862Y-181599401D01*
X246049690Y-182984230D01*
X246063631Y-182991842D01*
X246065466Y-182991711D01*
X246072080Y-182987460D01*
X247458384Y-181601155D01*
X247464675Y-181589636D01*
X383565278Y-181589636D01*
X383571112Y-181599401D01*
X384955940Y-182984230D01*
X384969881Y-182991842D01*
X384971716Y-182991711D01*
X384978330Y-182987460D01*
X386364634Y-181601155D01*
X386372149Y-181587394D01*
X386365691Y-181578034D01*
X386349389Y-181563738D01*
X386342849Y-181558720D01*
X386103606Y-181398863D01*
X386096469Y-181394742D01*
X385838401Y-181267478D01*
X385830797Y-181264328D01*
X385558330Y-181171838D01*
X385550367Y-181169704D01*
X385268150Y-181113567D01*
X385259999Y-181112494D01*
X384972869Y-181093675D01*
X384964631Y-181093675D01*
X384677501Y-181112494D01*
X384669350Y-181113567D01*
X384387133Y-181169704D01*
X384379170Y-181171838D01*
X384106703Y-181264328D01*
X384099099Y-181267478D01*
X383841032Y-181394742D01*
X383833895Y-181398863D01*
X383594651Y-181558720D01*
X383588111Y-181563738D01*
X383573676Y-181576397D01*
X383565278Y-181589636D01*
X247464675Y-181589636D01*
X247465899Y-181587394D01*
X247459441Y-181578034D01*
X247443139Y-181563738D01*
X247436599Y-181558720D01*
X247197356Y-181398863D01*
X247190219Y-181394742D01*
X246932151Y-181267478D01*
X246924547Y-181264328D01*
X246652080Y-181171838D01*
X246644117Y-181169704D01*
X246361900Y-181113567D01*
X246353749Y-181112494D01*
X246066619Y-181093675D01*
X246058381Y-181093675D01*
X245771251Y-181112494D01*
X245763100Y-181113567D01*
X245480883Y-181169704D01*
X245472920Y-181171838D01*
X245200453Y-181264328D01*
X245192849Y-181267478D01*
X244934782Y-181394742D01*
X244927645Y-181398863D01*
X244688401Y-181558720D01*
X244681861Y-181563738D01*
X244667426Y-181576397D01*
X244659028Y-181589636D01*
X108558425Y-181589636D01*
X108559649Y-181587394D01*
X108553191Y-181578034D01*
X108536889Y-181563738D01*
X108530349Y-181558720D01*
X108291106Y-181398863D01*
X108283969Y-181394742D01*
X108025901Y-181267478D01*
X108018297Y-181264328D01*
X107745830Y-181171838D01*
X107737867Y-181169704D01*
X107455650Y-181113567D01*
X107447499Y-181112494D01*
X107160369Y-181093675D01*
X107152131Y-181093675D01*
X106865001Y-181112494D01*
X106856850Y-181113567D01*
X106574633Y-181169704D01*
X106566670Y-181171838D01*
X106294203Y-181264328D01*
X106286599Y-181267478D01*
X106028532Y-181394742D01*
X106021395Y-181398863D01*
X105782151Y-181558720D01*
X105775611Y-181563738D01*
X105761176Y-181576397D01*
X105752778Y-181589636D01*
X98933000Y-181589636D01*
X98933000Y-179568856D01*
X454209101Y-179568856D01*
X454215559Y-179578216D01*
X454231861Y-179592512D01*
X454238401Y-179597530D01*
X454477644Y-179757387D01*
X454484781Y-179761508D01*
X454742849Y-179888772D01*
X454750453Y-179891922D01*
X455022920Y-179984412D01*
X455030883Y-179986546D01*
X455313100Y-180042683D01*
X455321251Y-180043756D01*
X455608381Y-180062575D01*
X455616619Y-180062575D01*
X455903749Y-180043756D01*
X455911900Y-180042683D01*
X456194117Y-179986546D01*
X456202080Y-179984412D01*
X456474547Y-179891922D01*
X456482151Y-179888772D01*
X456740219Y-179761508D01*
X456747356Y-179757387D01*
X456986599Y-179597530D01*
X456993139Y-179592512D01*
X457007574Y-179579853D01*
X457015972Y-179566614D01*
X457010138Y-179556849D01*
X455625310Y-178172020D01*
X455611369Y-178164408D01*
X455609534Y-178164539D01*
X455602920Y-178168790D01*
X454216616Y-179555095D01*
X454209101Y-179568856D01*
X98933000Y-179568856D01*
X98933000Y-177804119D01*
X453349925Y-177804119D01*
X453368744Y-178091249D01*
X453369817Y-178099400D01*
X453425954Y-178381617D01*
X453428088Y-178389580D01*
X453520578Y-178662047D01*
X453523728Y-178669651D01*
X453650992Y-178927718D01*
X453655113Y-178934855D01*
X453814970Y-179174099D01*
X453819988Y-179180639D01*
X453832647Y-179195074D01*
X453845886Y-179203472D01*
X453855651Y-179197638D01*
X455240480Y-177812810D01*
X455246857Y-177801131D01*
X455976908Y-177801131D01*
X455977039Y-177802966D01*
X455981290Y-177809580D01*
X457367595Y-179195884D01*
X457381356Y-179203399D01*
X457390716Y-179196941D01*
X457405012Y-179180639D01*
X457410030Y-179174099D01*
X457569887Y-178934855D01*
X457574008Y-178927718D01*
X457701272Y-178669651D01*
X457704422Y-178662047D01*
X457796912Y-178389580D01*
X457799046Y-178381617D01*
X457855183Y-178099400D01*
X457856256Y-178091249D01*
X457875075Y-177804119D01*
X457875075Y-177795881D01*
X457856256Y-177508751D01*
X457855183Y-177500600D01*
X457799046Y-177218383D01*
X457796912Y-177210420D01*
X457704422Y-176937953D01*
X457701272Y-176930349D01*
X457574008Y-176672282D01*
X457569887Y-176665145D01*
X457410030Y-176425901D01*
X457405012Y-176419361D01*
X457392353Y-176404926D01*
X457379114Y-176396528D01*
X457369349Y-176402362D01*
X455984520Y-177787190D01*
X455976908Y-177801131D01*
X455246857Y-177801131D01*
X455248092Y-177798869D01*
X455247961Y-177797034D01*
X455243710Y-177790420D01*
X453857405Y-176404116D01*
X453843644Y-176396601D01*
X453834284Y-176403059D01*
X453819988Y-176419361D01*
X453814970Y-176425901D01*
X453655113Y-176665145D01*
X453650992Y-176672282D01*
X453523728Y-176930349D01*
X453520578Y-176937953D01*
X453428088Y-177210420D01*
X453425954Y-177218383D01*
X453369817Y-177500600D01*
X453368744Y-177508751D01*
X453349925Y-177795881D01*
X453349925Y-177804119D01*
X98933000Y-177804119D01*
X98933000Y-176033386D01*
X454209028Y-176033386D01*
X454214862Y-176043151D01*
X455599690Y-177427980D01*
X455613631Y-177435592D01*
X455615466Y-177435461D01*
X455622080Y-177431210D01*
X457008384Y-176044905D01*
X457015899Y-176031144D01*
X457009441Y-176021784D01*
X456993139Y-176007488D01*
X456986599Y-176002470D01*
X456747356Y-175842613D01*
X456740219Y-175838492D01*
X456482151Y-175711228D01*
X456474547Y-175708078D01*
X456202080Y-175615588D01*
X456194117Y-175613454D01*
X455911900Y-175557317D01*
X455903749Y-175556244D01*
X455616619Y-175537425D01*
X455608381Y-175537425D01*
X455321251Y-175556244D01*
X455313100Y-175557317D01*
X455030883Y-175613454D01*
X455022920Y-175615588D01*
X454750453Y-175708078D01*
X454742849Y-175711228D01*
X454484782Y-175838492D01*
X454477645Y-175842613D01*
X454238401Y-176002470D01*
X454231861Y-176007488D01*
X454217426Y-176020147D01*
X454209028Y-176033386D01*
X98933000Y-176033386D01*
X98933000Y-174012606D01*
X105752851Y-174012606D01*
X105759309Y-174021966D01*
X105775611Y-174036262D01*
X105782151Y-174041280D01*
X106021394Y-174201137D01*
X106028531Y-174205258D01*
X106286599Y-174332522D01*
X106294203Y-174335672D01*
X106566670Y-174428162D01*
X106574633Y-174430296D01*
X106856850Y-174486433D01*
X106865001Y-174487506D01*
X107152131Y-174506325D01*
X107160369Y-174506325D01*
X107447499Y-174487506D01*
X107455650Y-174486433D01*
X107737867Y-174430296D01*
X107745830Y-174428162D01*
X108018297Y-174335672D01*
X108025901Y-174332522D01*
X108283969Y-174205258D01*
X108291106Y-174201137D01*
X108530349Y-174041280D01*
X108536889Y-174036262D01*
X108551324Y-174023603D01*
X108558300Y-174012606D01*
X244659101Y-174012606D01*
X244665559Y-174021966D01*
X244681861Y-174036262D01*
X244688401Y-174041280D01*
X244927644Y-174201137D01*
X244934781Y-174205258D01*
X245192849Y-174332522D01*
X245200453Y-174335672D01*
X245472920Y-174428162D01*
X245480883Y-174430296D01*
X245763100Y-174486433D01*
X245771251Y-174487506D01*
X246058381Y-174506325D01*
X246066619Y-174506325D01*
X246353749Y-174487506D01*
X246361900Y-174486433D01*
X246644117Y-174430296D01*
X246652080Y-174428162D01*
X246924547Y-174335672D01*
X246932151Y-174332522D01*
X247190219Y-174205258D01*
X247197356Y-174201137D01*
X247436599Y-174041280D01*
X247443139Y-174036262D01*
X247457574Y-174023603D01*
X247464550Y-174012606D01*
X383565351Y-174012606D01*
X383571809Y-174021966D01*
X383588111Y-174036262D01*
X383594651Y-174041280D01*
X383833894Y-174201137D01*
X383841031Y-174205258D01*
X384099099Y-174332522D01*
X384106703Y-174335672D01*
X384379170Y-174428162D01*
X384387133Y-174430296D01*
X384669350Y-174486433D01*
X384677501Y-174487506D01*
X384964631Y-174506325D01*
X384972869Y-174506325D01*
X385259999Y-174487506D01*
X385268150Y-174486433D01*
X385550367Y-174430296D01*
X385558330Y-174428162D01*
X385830797Y-174335672D01*
X385838401Y-174332522D01*
X386096469Y-174205258D01*
X386103606Y-174201137D01*
X386342849Y-174041280D01*
X386349389Y-174036262D01*
X386363824Y-174023603D01*
X386372222Y-174010364D01*
X386366388Y-174000599D01*
X384981560Y-172615770D01*
X384967619Y-172608158D01*
X384965784Y-172608289D01*
X384959170Y-172612540D01*
X383572866Y-173998845D01*
X383565351Y-174012606D01*
X247464550Y-174012606D01*
X247465972Y-174010364D01*
X247460138Y-174000599D01*
X246075310Y-172615770D01*
X246061369Y-172608158D01*
X246059534Y-172608289D01*
X246052920Y-172612540D01*
X244666616Y-173998845D01*
X244659101Y-174012606D01*
X108558300Y-174012606D01*
X108559722Y-174010364D01*
X108553888Y-174000599D01*
X107169060Y-172615770D01*
X107155119Y-172608158D01*
X107153284Y-172608289D01*
X107146670Y-172612540D01*
X105760366Y-173998845D01*
X105752851Y-174012606D01*
X98933000Y-174012606D01*
X98933000Y-172247869D01*
X104893675Y-172247869D01*
X104912494Y-172534999D01*
X104913567Y-172543150D01*
X104969704Y-172825367D01*
X104971838Y-172833330D01*
X105064328Y-173105797D01*
X105067478Y-173113401D01*
X105194742Y-173371468D01*
X105198863Y-173378605D01*
X105358720Y-173617849D01*
X105363738Y-173624389D01*
X105376397Y-173638824D01*
X105389636Y-173647222D01*
X105399401Y-173641388D01*
X106784230Y-172256560D01*
X106790607Y-172244881D01*
X107520658Y-172244881D01*
X107520789Y-172246716D01*
X107525040Y-172253330D01*
X108911345Y-173639634D01*
X108925106Y-173647149D01*
X108934466Y-173640691D01*
X108948762Y-173624389D01*
X108953780Y-173617849D01*
X109113637Y-173378605D01*
X109117758Y-173371468D01*
X109245022Y-173113401D01*
X109248172Y-173105797D01*
X109340662Y-172833330D01*
X109342796Y-172825367D01*
X109398933Y-172543150D01*
X109400006Y-172534999D01*
X109418825Y-172247869D01*
X243799925Y-172247869D01*
X243818744Y-172534999D01*
X243819817Y-172543150D01*
X243875954Y-172825367D01*
X243878088Y-172833330D01*
X243970578Y-173105797D01*
X243973728Y-173113401D01*
X244100992Y-173371468D01*
X244105113Y-173378605D01*
X244264970Y-173617849D01*
X244269988Y-173624389D01*
X244282647Y-173638824D01*
X244295886Y-173647222D01*
X244305651Y-173641388D01*
X245690480Y-172256560D01*
X245696857Y-172244881D01*
X246426908Y-172244881D01*
X246427039Y-172246716D01*
X246431290Y-172253330D01*
X247817595Y-173639634D01*
X247831356Y-173647149D01*
X247840716Y-173640691D01*
X247855012Y-173624389D01*
X247860030Y-173617849D01*
X248019887Y-173378605D01*
X248024008Y-173371468D01*
X248151272Y-173113401D01*
X248154422Y-173105797D01*
X248246912Y-172833330D01*
X248249046Y-172825367D01*
X248305183Y-172543150D01*
X248306256Y-172534999D01*
X248325075Y-172247869D01*
X382706175Y-172247869D01*
X382724994Y-172534999D01*
X382726067Y-172543150D01*
X382782204Y-172825367D01*
X382784338Y-172833330D01*
X382876828Y-173105797D01*
X382879978Y-173113401D01*
X383007242Y-173371468D01*
X383011363Y-173378605D01*
X383171220Y-173617849D01*
X383176238Y-173624389D01*
X383188897Y-173638824D01*
X383202136Y-173647222D01*
X383211901Y-173641388D01*
X384596730Y-172256560D01*
X384603107Y-172244881D01*
X385333158Y-172244881D01*
X385333289Y-172246716D01*
X385337540Y-172253330D01*
X386723845Y-173639634D01*
X386737606Y-173647149D01*
X386746966Y-173640691D01*
X386761262Y-173624389D01*
X386766280Y-173617849D01*
X386926137Y-173378605D01*
X386930258Y-173371468D01*
X387057522Y-173113401D01*
X387060672Y-173105797D01*
X387153162Y-172833330D01*
X387155296Y-172825367D01*
X387211433Y-172543150D01*
X387212506Y-172534999D01*
X387231325Y-172247869D01*
X387231325Y-172239631D01*
X387212506Y-171952501D01*
X387211433Y-171944350D01*
X387155296Y-171662133D01*
X387153162Y-171654170D01*
X387060672Y-171381703D01*
X387057522Y-171374099D01*
X386930258Y-171116032D01*
X386926137Y-171108895D01*
X386766280Y-170869651D01*
X386761262Y-170863111D01*
X386748603Y-170848676D01*
X386735364Y-170840278D01*
X386725599Y-170846112D01*
X385340770Y-172230940D01*
X385333158Y-172244881D01*
X384603107Y-172244881D01*
X384604342Y-172242619D01*
X384604211Y-172240784D01*
X384599960Y-172234170D01*
X383213655Y-170847866D01*
X383199894Y-170840351D01*
X383190534Y-170846809D01*
X383176238Y-170863111D01*
X383171220Y-170869651D01*
X383011363Y-171108895D01*
X383007242Y-171116032D01*
X382879978Y-171374099D01*
X382876828Y-171381703D01*
X382784338Y-171654170D01*
X382782204Y-171662133D01*
X382726067Y-171944350D01*
X382724994Y-171952501D01*
X382706175Y-172239631D01*
X382706175Y-172247869D01*
X248325075Y-172247869D01*
X248325075Y-172239631D01*
X248306256Y-171952501D01*
X248305183Y-171944350D01*
X248249046Y-171662133D01*
X248246912Y-171654170D01*
X248154422Y-171381703D01*
X248151272Y-171374099D01*
X248024008Y-171116032D01*
X248019887Y-171108895D01*
X247860030Y-170869651D01*
X247855012Y-170863111D01*
X247842353Y-170848676D01*
X247829114Y-170840278D01*
X247819349Y-170846112D01*
X246434520Y-172230940D01*
X246426908Y-172244881D01*
X245696857Y-172244881D01*
X245698092Y-172242619D01*
X245697961Y-172240784D01*
X245693710Y-172234170D01*
X244307405Y-170847866D01*
X244293644Y-170840351D01*
X244284284Y-170846809D01*
X244269988Y-170863111D01*
X244264970Y-170869651D01*
X244105113Y-171108895D01*
X244100992Y-171116032D01*
X243973728Y-171374099D01*
X243970578Y-171381703D01*
X243878088Y-171654170D01*
X243875954Y-171662133D01*
X243819817Y-171944350D01*
X243818744Y-171952501D01*
X243799925Y-172239631D01*
X243799925Y-172247869D01*
X109418825Y-172247869D01*
X109418825Y-172239631D01*
X109400006Y-171952501D01*
X109398933Y-171944350D01*
X109342796Y-171662133D01*
X109340662Y-171654170D01*
X109248172Y-171381703D01*
X109245022Y-171374099D01*
X109117758Y-171116032D01*
X109113637Y-171108895D01*
X108953780Y-170869651D01*
X108948762Y-170863111D01*
X108936103Y-170848676D01*
X108922864Y-170840278D01*
X108913099Y-170846112D01*
X107528270Y-172230940D01*
X107520658Y-172244881D01*
X106790607Y-172244881D01*
X106791842Y-172242619D01*
X106791711Y-172240784D01*
X106787460Y-172234170D01*
X105401155Y-170847866D01*
X105387394Y-170840351D01*
X105378034Y-170846809D01*
X105363738Y-170863111D01*
X105358720Y-170869651D01*
X105198863Y-171108895D01*
X105194742Y-171116032D01*
X105067478Y-171374099D01*
X105064328Y-171381703D01*
X104971838Y-171654170D01*
X104969704Y-171662133D01*
X104913567Y-171944350D01*
X104912494Y-171952501D01*
X104893675Y-172239631D01*
X104893675Y-172247869D01*
X98933000Y-172247869D01*
X98933000Y-170477136D01*
X105752778Y-170477136D01*
X105758612Y-170486901D01*
X107143440Y-171871730D01*
X107157381Y-171879342D01*
X107159216Y-171879211D01*
X107165830Y-171874960D01*
X108552134Y-170488655D01*
X108558425Y-170477136D01*
X244659028Y-170477136D01*
X244664862Y-170486901D01*
X246049690Y-171871730D01*
X246063631Y-171879342D01*
X246065466Y-171879211D01*
X246072080Y-171874960D01*
X247458384Y-170488655D01*
X247464675Y-170477136D01*
X383565278Y-170477136D01*
X383571112Y-170486901D01*
X384955940Y-171871730D01*
X384969881Y-171879342D01*
X384971716Y-171879211D01*
X384978330Y-171874960D01*
X386364634Y-170488655D01*
X386372149Y-170474894D01*
X386365691Y-170465534D01*
X386349389Y-170451238D01*
X386342849Y-170446220D01*
X386103606Y-170286363D01*
X386096469Y-170282242D01*
X385838401Y-170154978D01*
X385830797Y-170151828D01*
X385558330Y-170059338D01*
X385550367Y-170057204D01*
X385268150Y-170001067D01*
X385259999Y-169999994D01*
X384972869Y-169981175D01*
X384964631Y-169981175D01*
X384677501Y-169999994D01*
X384669350Y-170001067D01*
X384387133Y-170057204D01*
X384379170Y-170059338D01*
X384106703Y-170151828D01*
X384099099Y-170154978D01*
X383841032Y-170282242D01*
X383833895Y-170286363D01*
X383594651Y-170446220D01*
X383588111Y-170451238D01*
X383573676Y-170463897D01*
X383565278Y-170477136D01*
X247464675Y-170477136D01*
X247465899Y-170474894D01*
X247459441Y-170465534D01*
X247443139Y-170451238D01*
X247436599Y-170446220D01*
X247197356Y-170286363D01*
X247190219Y-170282242D01*
X246932151Y-170154978D01*
X246924547Y-170151828D01*
X246652080Y-170059338D01*
X246644117Y-170057204D01*
X246361900Y-170001067D01*
X246353749Y-169999994D01*
X246066619Y-169981175D01*
X246058381Y-169981175D01*
X245771251Y-169999994D01*
X245763100Y-170001067D01*
X245480883Y-170057204D01*
X245472920Y-170059338D01*
X245200453Y-170151828D01*
X245192849Y-170154978D01*
X244934782Y-170282242D01*
X244927645Y-170286363D01*
X244688401Y-170446220D01*
X244681861Y-170451238D01*
X244667426Y-170463897D01*
X244659028Y-170477136D01*
X108558425Y-170477136D01*
X108559649Y-170474894D01*
X108553191Y-170465534D01*
X108536889Y-170451238D01*
X108530349Y-170446220D01*
X108291106Y-170286363D01*
X108283969Y-170282242D01*
X108025901Y-170154978D01*
X108018297Y-170151828D01*
X107745830Y-170059338D01*
X107737867Y-170057204D01*
X107455650Y-170001067D01*
X107447499Y-169999994D01*
X107160369Y-169981175D01*
X107152131Y-169981175D01*
X106865001Y-169999994D01*
X106856850Y-170001067D01*
X106574633Y-170057204D01*
X106566670Y-170059338D01*
X106294203Y-170151828D01*
X106286599Y-170154978D01*
X106028532Y-170282242D01*
X106021395Y-170286363D01*
X105782151Y-170446220D01*
X105775611Y-170451238D01*
X105761176Y-170463897D01*
X105752778Y-170477136D01*
X98933000Y-170477136D01*
X98933000Y-160518856D01*
X144646601Y-160518856D01*
X144653059Y-160528216D01*
X144669361Y-160542512D01*
X144675901Y-160547530D01*
X144915144Y-160707387D01*
X144922281Y-160711508D01*
X145180349Y-160838772D01*
X145187953Y-160841922D01*
X145460420Y-160934412D01*
X145468383Y-160936546D01*
X145750600Y-160992683D01*
X145758751Y-160993756D01*
X146045881Y-161012575D01*
X146054119Y-161012575D01*
X146341249Y-160993756D01*
X146349400Y-160992683D01*
X146631617Y-160936546D01*
X146639580Y-160934412D01*
X146912047Y-160841922D01*
X146919651Y-160838772D01*
X147177719Y-160711508D01*
X147184856Y-160707387D01*
X147424099Y-160547530D01*
X147430639Y-160542512D01*
X147445074Y-160529853D01*
X147452050Y-160518856D01*
X205765351Y-160518856D01*
X205771809Y-160528216D01*
X205788111Y-160542512D01*
X205794651Y-160547530D01*
X206033894Y-160707387D01*
X206041031Y-160711508D01*
X206299099Y-160838772D01*
X206306703Y-160841922D01*
X206579170Y-160934412D01*
X206587133Y-160936546D01*
X206869350Y-160992683D01*
X206877501Y-160993756D01*
X207164631Y-161012575D01*
X207172869Y-161012575D01*
X207459999Y-160993756D01*
X207468150Y-160992683D01*
X207750367Y-160936546D01*
X207758330Y-160934412D01*
X208030797Y-160841922D01*
X208038401Y-160838772D01*
X208296469Y-160711508D01*
X208303606Y-160707387D01*
X208542849Y-160547530D01*
X208549389Y-160542512D01*
X208563824Y-160529853D01*
X208570800Y-160518856D01*
X369277851Y-160518856D01*
X369284309Y-160528216D01*
X369300611Y-160542512D01*
X369307151Y-160547530D01*
X369546394Y-160707387D01*
X369553531Y-160711508D01*
X369811599Y-160838772D01*
X369819203Y-160841922D01*
X370091670Y-160934412D01*
X370099633Y-160936546D01*
X370381850Y-160992683D01*
X370390001Y-160993756D01*
X370677131Y-161012575D01*
X370685369Y-161012575D01*
X370972499Y-160993756D01*
X370980650Y-160992683D01*
X371262867Y-160936546D01*
X371270830Y-160934412D01*
X371543297Y-160841922D01*
X371550901Y-160838772D01*
X371808969Y-160711508D01*
X371816106Y-160707387D01*
X372055349Y-160547530D01*
X372061889Y-160542512D01*
X372076324Y-160529853D01*
X372083300Y-160518856D01*
X430396601Y-160518856D01*
X430403059Y-160528216D01*
X430419361Y-160542512D01*
X430425901Y-160547530D01*
X430665144Y-160707387D01*
X430672281Y-160711508D01*
X430930349Y-160838772D01*
X430937953Y-160841922D01*
X431210420Y-160934412D01*
X431218383Y-160936546D01*
X431500600Y-160992683D01*
X431508751Y-160993756D01*
X431795881Y-161012575D01*
X431804119Y-161012575D01*
X432091249Y-160993756D01*
X432099400Y-160992683D01*
X432381617Y-160936546D01*
X432389580Y-160934412D01*
X432662047Y-160841922D01*
X432669651Y-160838772D01*
X432927719Y-160711508D01*
X432934856Y-160707387D01*
X433174099Y-160547530D01*
X433180639Y-160542512D01*
X433195074Y-160529853D01*
X433203472Y-160516614D01*
X433197638Y-160506849D01*
X431812810Y-159122020D01*
X431798869Y-159114408D01*
X431797034Y-159114539D01*
X431790420Y-159118790D01*
X430404116Y-160505095D01*
X430396601Y-160518856D01*
X372083300Y-160518856D01*
X372084722Y-160516614D01*
X372078888Y-160506849D01*
X370694060Y-159122020D01*
X370680119Y-159114408D01*
X370678284Y-159114539D01*
X370671670Y-159118790D01*
X369285366Y-160505095D01*
X369277851Y-160518856D01*
X208570800Y-160518856D01*
X208572222Y-160516614D01*
X208566388Y-160506849D01*
X207181560Y-159122020D01*
X207167619Y-159114408D01*
X207165784Y-159114539D01*
X207159170Y-159118790D01*
X205772866Y-160505095D01*
X205765351Y-160518856D01*
X147452050Y-160518856D01*
X147453472Y-160516614D01*
X147447638Y-160506849D01*
X146062810Y-159122020D01*
X146048869Y-159114408D01*
X146047034Y-159114539D01*
X146040420Y-159118790D01*
X144654116Y-160505095D01*
X144646601Y-160518856D01*
X98933000Y-160518856D01*
X98933000Y-158754119D01*
X143787425Y-158754119D01*
X143806244Y-159041249D01*
X143807317Y-159049400D01*
X143863454Y-159331617D01*
X143865588Y-159339580D01*
X143958078Y-159612047D01*
X143961228Y-159619651D01*
X144088492Y-159877718D01*
X144092613Y-159884855D01*
X144252470Y-160124099D01*
X144257488Y-160130639D01*
X144270147Y-160145074D01*
X144283386Y-160153472D01*
X144293151Y-160147638D01*
X145677980Y-158762810D01*
X145684357Y-158751131D01*
X146414408Y-158751131D01*
X146414539Y-158752966D01*
X146418790Y-158759580D01*
X147805095Y-160145884D01*
X147818856Y-160153399D01*
X147828216Y-160146941D01*
X147842512Y-160130639D01*
X147847530Y-160124099D01*
X148007387Y-159884855D01*
X148011508Y-159877718D01*
X148138772Y-159619651D01*
X148141922Y-159612047D01*
X148234412Y-159339580D01*
X148236546Y-159331617D01*
X148292683Y-159049400D01*
X148293756Y-159041249D01*
X148312575Y-158754119D01*
X204906175Y-158754119D01*
X204924994Y-159041249D01*
X204926067Y-159049400D01*
X204982204Y-159331617D01*
X204984338Y-159339580D01*
X205076828Y-159612047D01*
X205079978Y-159619651D01*
X205207242Y-159877718D01*
X205211363Y-159884855D01*
X205371220Y-160124099D01*
X205376238Y-160130639D01*
X205388897Y-160145074D01*
X205402136Y-160153472D01*
X205411901Y-160147638D01*
X206796730Y-158762810D01*
X206803107Y-158751131D01*
X207533158Y-158751131D01*
X207533289Y-158752966D01*
X207537540Y-158759580D01*
X208923845Y-160145884D01*
X208937606Y-160153399D01*
X208946966Y-160146941D01*
X208961262Y-160130639D01*
X208966280Y-160124099D01*
X209126137Y-159884855D01*
X209130258Y-159877718D01*
X209257522Y-159619651D01*
X209260672Y-159612047D01*
X209353162Y-159339580D01*
X209355296Y-159331617D01*
X209411433Y-159049400D01*
X209412506Y-159041249D01*
X209431325Y-158754119D01*
X368418675Y-158754119D01*
X368437494Y-159041249D01*
X368438567Y-159049400D01*
X368494704Y-159331617D01*
X368496838Y-159339580D01*
X368589328Y-159612047D01*
X368592478Y-159619651D01*
X368719742Y-159877718D01*
X368723863Y-159884855D01*
X368883720Y-160124099D01*
X368888738Y-160130639D01*
X368901397Y-160145074D01*
X368914636Y-160153472D01*
X368924401Y-160147638D01*
X370309230Y-158762810D01*
X370315607Y-158751131D01*
X371045658Y-158751131D01*
X371045789Y-158752966D01*
X371050040Y-158759580D01*
X372436345Y-160145884D01*
X372450106Y-160153399D01*
X372459466Y-160146941D01*
X372473762Y-160130639D01*
X372478780Y-160124099D01*
X372638637Y-159884855D01*
X372642758Y-159877718D01*
X372770022Y-159619651D01*
X372773172Y-159612047D01*
X372865662Y-159339580D01*
X372867796Y-159331617D01*
X372923933Y-159049400D01*
X372925006Y-159041249D01*
X372943825Y-158754119D01*
X429537425Y-158754119D01*
X429556244Y-159041249D01*
X429557317Y-159049400D01*
X429613454Y-159331617D01*
X429615588Y-159339580D01*
X429708078Y-159612047D01*
X429711228Y-159619651D01*
X429838492Y-159877718D01*
X429842613Y-159884855D01*
X430002470Y-160124099D01*
X430007488Y-160130639D01*
X430020147Y-160145074D01*
X430033386Y-160153472D01*
X430043151Y-160147638D01*
X431427980Y-158762810D01*
X431434357Y-158751131D01*
X432164408Y-158751131D01*
X432164539Y-158752966D01*
X432168790Y-158759580D01*
X433555095Y-160145884D01*
X433568856Y-160153399D01*
X433578216Y-160146941D01*
X433592512Y-160130639D01*
X433597530Y-160124099D01*
X433757387Y-159884855D01*
X433761508Y-159877718D01*
X433888772Y-159619651D01*
X433891922Y-159612047D01*
X433984412Y-159339580D01*
X433986546Y-159331617D01*
X434042683Y-159049400D01*
X434043756Y-159041249D01*
X434062575Y-158754119D01*
X434062575Y-158745881D01*
X434043756Y-158458751D01*
X434042683Y-158450600D01*
X433986546Y-158168383D01*
X433984412Y-158160420D01*
X433891922Y-157887953D01*
X433888772Y-157880349D01*
X433761508Y-157622282D01*
X433757387Y-157615145D01*
X433597530Y-157375901D01*
X433592512Y-157369361D01*
X433579853Y-157354926D01*
X433566614Y-157346528D01*
X433556849Y-157352362D01*
X432172020Y-158737190D01*
X432164408Y-158751131D01*
X431434357Y-158751131D01*
X431435592Y-158748869D01*
X431435461Y-158747034D01*
X431431210Y-158740420D01*
X430044905Y-157354116D01*
X430031144Y-157346601D01*
X430021784Y-157353059D01*
X430007488Y-157369361D01*
X430002470Y-157375901D01*
X429842613Y-157615145D01*
X429838492Y-157622282D01*
X429711228Y-157880349D01*
X429708078Y-157887953D01*
X429615588Y-158160420D01*
X429613454Y-158168383D01*
X429557317Y-158450600D01*
X429556244Y-158458751D01*
X429537425Y-158745881D01*
X429537425Y-158754119D01*
X372943825Y-158754119D01*
X372943825Y-158745881D01*
X372925006Y-158458751D01*
X372923933Y-158450600D01*
X372867796Y-158168383D01*
X372865662Y-158160420D01*
X372773172Y-157887953D01*
X372770022Y-157880349D01*
X372642758Y-157622282D01*
X372638637Y-157615145D01*
X372478780Y-157375901D01*
X372473762Y-157369361D01*
X372461103Y-157354926D01*
X372447864Y-157346528D01*
X372438099Y-157352362D01*
X371053270Y-158737190D01*
X371045658Y-158751131D01*
X370315607Y-158751131D01*
X370316842Y-158748869D01*
X370316711Y-158747034D01*
X370312460Y-158740420D01*
X368926155Y-157354116D01*
X368912394Y-157346601D01*
X368903034Y-157353059D01*
X368888738Y-157369361D01*
X368883720Y-157375901D01*
X368723863Y-157615145D01*
X368719742Y-157622282D01*
X368592478Y-157880349D01*
X368589328Y-157887953D01*
X368496838Y-158160420D01*
X368494704Y-158168383D01*
X368438567Y-158450600D01*
X368437494Y-158458751D01*
X368418675Y-158745881D01*
X368418675Y-158754119D01*
X209431325Y-158754119D01*
X209431325Y-158745881D01*
X209412506Y-158458751D01*
X209411433Y-158450600D01*
X209355296Y-158168383D01*
X209353162Y-158160420D01*
X209260672Y-157887953D01*
X209257522Y-157880349D01*
X209130258Y-157622282D01*
X209126137Y-157615145D01*
X208966280Y-157375901D01*
X208961262Y-157369361D01*
X208948603Y-157354926D01*
X208935364Y-157346528D01*
X208925599Y-157352362D01*
X207540770Y-158737190D01*
X207533158Y-158751131D01*
X206803107Y-158751131D01*
X206804342Y-158748869D01*
X206804211Y-158747034D01*
X206799960Y-158740420D01*
X205413655Y-157354116D01*
X205399894Y-157346601D01*
X205390534Y-157353059D01*
X205376238Y-157369361D01*
X205371220Y-157375901D01*
X205211363Y-157615145D01*
X205207242Y-157622282D01*
X205079978Y-157880349D01*
X205076828Y-157887953D01*
X204984338Y-158160420D01*
X204982204Y-158168383D01*
X204926067Y-158450600D01*
X204924994Y-158458751D01*
X204906175Y-158745881D01*
X204906175Y-158754119D01*
X148312575Y-158754119D01*
X148312575Y-158745881D01*
X148293756Y-158458751D01*
X148292683Y-158450600D01*
X148236546Y-158168383D01*
X148234412Y-158160420D01*
X148141922Y-157887953D01*
X148138772Y-157880349D01*
X148011508Y-157622282D01*
X148007387Y-157615145D01*
X147847530Y-157375901D01*
X147842512Y-157369361D01*
X147829853Y-157354926D01*
X147816614Y-157346528D01*
X147806849Y-157352362D01*
X146422020Y-158737190D01*
X146414408Y-158751131D01*
X145684357Y-158751131D01*
X145685592Y-158748869D01*
X145685461Y-158747034D01*
X145681210Y-158740420D01*
X144294905Y-157354116D01*
X144281144Y-157346601D01*
X144271784Y-157353059D01*
X144257488Y-157369361D01*
X144252470Y-157375901D01*
X144092613Y-157615145D01*
X144088492Y-157622282D01*
X143961228Y-157880349D01*
X143958078Y-157887953D01*
X143865588Y-158160420D01*
X143863454Y-158168383D01*
X143807317Y-158450600D01*
X143806244Y-158458751D01*
X143787425Y-158745881D01*
X143787425Y-158754119D01*
X98933000Y-158754119D01*
X98933000Y-156983386D01*
X144646528Y-156983386D01*
X144652362Y-156993151D01*
X146037190Y-158377980D01*
X146051131Y-158385592D01*
X146052966Y-158385461D01*
X146059580Y-158381210D01*
X147445884Y-156994905D01*
X147452175Y-156983386D01*
X205765278Y-156983386D01*
X205771112Y-156993151D01*
X207155940Y-158377980D01*
X207169881Y-158385592D01*
X207171716Y-158385461D01*
X207178330Y-158381210D01*
X208564634Y-156994905D01*
X208570925Y-156983386D01*
X369277778Y-156983386D01*
X369283612Y-156993151D01*
X370668440Y-158377980D01*
X370682381Y-158385592D01*
X370684216Y-158385461D01*
X370690830Y-158381210D01*
X372077134Y-156994905D01*
X372083425Y-156983386D01*
X430396528Y-156983386D01*
X430402362Y-156993151D01*
X431787190Y-158377980D01*
X431801131Y-158385592D01*
X431802966Y-158385461D01*
X431809580Y-158381210D01*
X433195884Y-156994905D01*
X433203399Y-156981144D01*
X433196941Y-156971784D01*
X433180639Y-156957488D01*
X433174099Y-156952470D01*
X432934856Y-156792613D01*
X432927719Y-156788492D01*
X432669651Y-156661228D01*
X432662047Y-156658078D01*
X432389580Y-156565588D01*
X432381617Y-156563454D01*
X432099400Y-156507317D01*
X432091249Y-156506244D01*
X431804119Y-156487425D01*
X431795881Y-156487425D01*
X431508751Y-156506244D01*
X431500600Y-156507317D01*
X431218383Y-156563454D01*
X431210420Y-156565588D01*
X430937953Y-156658078D01*
X430930349Y-156661228D01*
X430672282Y-156788492D01*
X430665145Y-156792613D01*
X430425901Y-156952470D01*
X430419361Y-156957488D01*
X430404926Y-156970147D01*
X430396528Y-156983386D01*
X372083425Y-156983386D01*
X372084649Y-156981144D01*
X372078191Y-156971784D01*
X372061889Y-156957488D01*
X372055349Y-156952470D01*
X371816106Y-156792613D01*
X371808969Y-156788492D01*
X371550901Y-156661228D01*
X371543297Y-156658078D01*
X371270830Y-156565588D01*
X371262867Y-156563454D01*
X370980650Y-156507317D01*
X370972499Y-156506244D01*
X370685369Y-156487425D01*
X370677131Y-156487425D01*
X370390001Y-156506244D01*
X370381850Y-156507317D01*
X370099633Y-156563454D01*
X370091670Y-156565588D01*
X369819203Y-156658078D01*
X369811599Y-156661228D01*
X369553532Y-156788492D01*
X369546395Y-156792613D01*
X369307151Y-156952470D01*
X369300611Y-156957488D01*
X369286176Y-156970147D01*
X369277778Y-156983386D01*
X208570925Y-156983386D01*
X208572149Y-156981144D01*
X208565691Y-156971784D01*
X208549389Y-156957488D01*
X208542849Y-156952470D01*
X208303606Y-156792613D01*
X208296469Y-156788492D01*
X208038401Y-156661228D01*
X208030797Y-156658078D01*
X207758330Y-156565588D01*
X207750367Y-156563454D01*
X207468150Y-156507317D01*
X207459999Y-156506244D01*
X207172869Y-156487425D01*
X207164631Y-156487425D01*
X206877501Y-156506244D01*
X206869350Y-156507317D01*
X206587133Y-156563454D01*
X206579170Y-156565588D01*
X206306703Y-156658078D01*
X206299099Y-156661228D01*
X206041032Y-156788492D01*
X206033895Y-156792613D01*
X205794651Y-156952470D01*
X205788111Y-156957488D01*
X205773676Y-156970147D01*
X205765278Y-156983386D01*
X147452175Y-156983386D01*
X147453399Y-156981144D01*
X147446941Y-156971784D01*
X147430639Y-156957488D01*
X147424099Y-156952470D01*
X147184856Y-156792613D01*
X147177719Y-156788492D01*
X146919651Y-156661228D01*
X146912047Y-156658078D01*
X146639580Y-156565588D01*
X146631617Y-156563454D01*
X146349400Y-156507317D01*
X146341249Y-156506244D01*
X146054119Y-156487425D01*
X146045881Y-156487425D01*
X145758751Y-156506244D01*
X145750600Y-156507317D01*
X145468383Y-156563454D01*
X145460420Y-156565588D01*
X145187953Y-156658078D01*
X145180349Y-156661228D01*
X144922282Y-156788492D01*
X144915145Y-156792613D01*
X144675901Y-156952470D01*
X144669361Y-156957488D01*
X144654926Y-156970147D01*
X144646528Y-156983386D01*
X98933000Y-156983386D01*
X98933000Y-146231356D01*
X105752851Y-146231356D01*
X105759309Y-146240716D01*
X105775611Y-146255012D01*
X105782151Y-146260030D01*
X106021394Y-146419887D01*
X106028531Y-146424008D01*
X106286599Y-146551272D01*
X106294203Y-146554422D01*
X106566670Y-146646912D01*
X106574633Y-146649046D01*
X106856850Y-146705183D01*
X106865001Y-146706256D01*
X107152131Y-146725075D01*
X107160369Y-146725075D01*
X107447499Y-146706256D01*
X107455650Y-146705183D01*
X107737867Y-146649046D01*
X107745830Y-146646912D01*
X108018297Y-146554422D01*
X108025901Y-146551272D01*
X108283969Y-146424008D01*
X108291106Y-146419887D01*
X108530349Y-146260030D01*
X108536889Y-146255012D01*
X108551324Y-146242353D01*
X108558300Y-146231356D01*
X191477851Y-146231356D01*
X191484309Y-146240716D01*
X191500611Y-146255012D01*
X191507151Y-146260030D01*
X191746394Y-146419887D01*
X191753531Y-146424008D01*
X192011599Y-146551272D01*
X192019203Y-146554422D01*
X192291670Y-146646912D01*
X192299633Y-146649046D01*
X192581850Y-146705183D01*
X192590001Y-146706256D01*
X192877131Y-146725075D01*
X192885369Y-146725075D01*
X193172499Y-146706256D01*
X193180650Y-146705183D01*
X193462867Y-146649046D01*
X193470830Y-146646912D01*
X193743297Y-146554422D01*
X193750901Y-146551272D01*
X194008969Y-146424008D01*
X194016106Y-146419887D01*
X194255349Y-146260030D01*
X194261889Y-146255012D01*
X194276324Y-146242353D01*
X194283300Y-146231356D01*
X383565351Y-146231356D01*
X383571809Y-146240716D01*
X383588111Y-146255012D01*
X383594651Y-146260030D01*
X383833894Y-146419887D01*
X383841031Y-146424008D01*
X384099099Y-146551272D01*
X384106703Y-146554422D01*
X384379170Y-146646912D01*
X384387133Y-146649046D01*
X384669350Y-146705183D01*
X384677501Y-146706256D01*
X384964631Y-146725075D01*
X384972869Y-146725075D01*
X385259999Y-146706256D01*
X385268150Y-146705183D01*
X385550367Y-146649046D01*
X385558330Y-146646912D01*
X385830797Y-146554422D01*
X385838401Y-146551272D01*
X386096469Y-146424008D01*
X386103606Y-146419887D01*
X386342849Y-146260030D01*
X386349389Y-146255012D01*
X386363824Y-146242353D01*
X386370800Y-146231356D01*
X469290351Y-146231356D01*
X469296809Y-146240716D01*
X469313111Y-146255012D01*
X469319651Y-146260030D01*
X469558894Y-146419887D01*
X469566031Y-146424008D01*
X469824099Y-146551272D01*
X469831703Y-146554422D01*
X470104170Y-146646912D01*
X470112133Y-146649046D01*
X470394350Y-146705183D01*
X470402501Y-146706256D01*
X470689631Y-146725075D01*
X470697869Y-146725075D01*
X470984999Y-146706256D01*
X470993150Y-146705183D01*
X471275367Y-146649046D01*
X471283330Y-146646912D01*
X471555797Y-146554422D01*
X471563401Y-146551272D01*
X471821469Y-146424008D01*
X471828606Y-146419887D01*
X472067849Y-146260030D01*
X472074389Y-146255012D01*
X472088824Y-146242353D01*
X472097222Y-146229114D01*
X472091388Y-146219349D01*
X470706560Y-144834520D01*
X470692619Y-144826908D01*
X470690784Y-144827039D01*
X470684170Y-144831290D01*
X469297866Y-146217595D01*
X469290351Y-146231356D01*
X386370800Y-146231356D01*
X386372222Y-146229114D01*
X386366388Y-146219349D01*
X384981560Y-144834520D01*
X384967619Y-144826908D01*
X384965784Y-144827039D01*
X384959170Y-144831290D01*
X383572866Y-146217595D01*
X383565351Y-146231356D01*
X194283300Y-146231356D01*
X194284722Y-146229114D01*
X194278888Y-146219349D01*
X192894060Y-144834520D01*
X192880119Y-144826908D01*
X192878284Y-144827039D01*
X192871670Y-144831290D01*
X191485366Y-146217595D01*
X191477851Y-146231356D01*
X108558300Y-146231356D01*
X108559722Y-146229114D01*
X108553888Y-146219349D01*
X107169060Y-144834520D01*
X107155119Y-144826908D01*
X107153284Y-144827039D01*
X107146670Y-144831290D01*
X105760366Y-146217595D01*
X105752851Y-146231356D01*
X98933000Y-146231356D01*
X98933000Y-144466619D01*
X104893675Y-144466619D01*
X104912494Y-144753749D01*
X104913567Y-144761900D01*
X104969704Y-145044117D01*
X104971838Y-145052080D01*
X105064328Y-145324547D01*
X105067478Y-145332151D01*
X105194742Y-145590218D01*
X105198863Y-145597355D01*
X105358720Y-145836599D01*
X105363738Y-145843139D01*
X105376397Y-145857574D01*
X105389636Y-145865972D01*
X105399401Y-145860138D01*
X106784230Y-144475310D01*
X106790607Y-144463631D01*
X107520658Y-144463631D01*
X107520789Y-144465466D01*
X107525040Y-144472080D01*
X108911345Y-145858384D01*
X108925106Y-145865899D01*
X108934466Y-145859441D01*
X108948762Y-145843139D01*
X108953780Y-145836599D01*
X109113637Y-145597355D01*
X109117758Y-145590218D01*
X109245022Y-145332151D01*
X109248172Y-145324547D01*
X109340662Y-145052080D01*
X109342796Y-145044117D01*
X109398933Y-144761900D01*
X109400006Y-144753749D01*
X109418825Y-144466619D01*
X190618675Y-144466619D01*
X190637494Y-144753749D01*
X190638567Y-144761900D01*
X190694704Y-145044117D01*
X190696838Y-145052080D01*
X190789328Y-145324547D01*
X190792478Y-145332151D01*
X190919742Y-145590218D01*
X190923863Y-145597355D01*
X191083720Y-145836599D01*
X191088738Y-145843139D01*
X191101397Y-145857574D01*
X191114636Y-145865972D01*
X191124401Y-145860138D01*
X192509230Y-144475310D01*
X192515607Y-144463631D01*
X193245658Y-144463631D01*
X193245789Y-144465466D01*
X193250040Y-144472080D01*
X194636345Y-145858384D01*
X194650106Y-145865899D01*
X194659466Y-145859441D01*
X194673762Y-145843139D01*
X194678780Y-145836599D01*
X194838637Y-145597355D01*
X194842758Y-145590218D01*
X194970022Y-145332151D01*
X194973172Y-145324547D01*
X195065662Y-145052080D01*
X195067796Y-145044117D01*
X195123933Y-144761900D01*
X195125006Y-144753749D01*
X195143825Y-144466619D01*
X382706175Y-144466619D01*
X382724994Y-144753749D01*
X382726067Y-144761900D01*
X382782204Y-145044117D01*
X382784338Y-145052080D01*
X382876828Y-145324547D01*
X382879978Y-145332151D01*
X383007242Y-145590218D01*
X383011363Y-145597355D01*
X383171220Y-145836599D01*
X383176238Y-145843139D01*
X383188897Y-145857574D01*
X383202136Y-145865972D01*
X383211901Y-145860138D01*
X384596730Y-144475310D01*
X384603107Y-144463631D01*
X385333158Y-144463631D01*
X385333289Y-144465466D01*
X385337540Y-144472080D01*
X386723845Y-145858384D01*
X386737606Y-145865899D01*
X386746966Y-145859441D01*
X386761262Y-145843139D01*
X386766280Y-145836599D01*
X386926137Y-145597355D01*
X386930258Y-145590218D01*
X387057522Y-145332151D01*
X387060672Y-145324547D01*
X387153162Y-145052080D01*
X387155296Y-145044117D01*
X387211433Y-144761900D01*
X387212506Y-144753749D01*
X387231325Y-144466619D01*
X468431175Y-144466619D01*
X468449994Y-144753749D01*
X468451067Y-144761900D01*
X468507204Y-145044117D01*
X468509338Y-145052080D01*
X468601828Y-145324547D01*
X468604978Y-145332151D01*
X468732242Y-145590218D01*
X468736363Y-145597355D01*
X468896220Y-145836599D01*
X468901238Y-145843139D01*
X468913897Y-145857574D01*
X468927136Y-145865972D01*
X468936901Y-145860138D01*
X470321730Y-144475310D01*
X470328107Y-144463631D01*
X471058158Y-144463631D01*
X471058289Y-144465466D01*
X471062540Y-144472080D01*
X472448845Y-145858384D01*
X472462606Y-145865899D01*
X472471966Y-145859441D01*
X472486262Y-145843139D01*
X472491280Y-145836599D01*
X472651137Y-145597355D01*
X472655258Y-145590218D01*
X472782522Y-145332151D01*
X472785672Y-145324547D01*
X472878162Y-145052080D01*
X472880296Y-145044117D01*
X472936433Y-144761900D01*
X472937506Y-144753749D01*
X472956325Y-144466619D01*
X472956325Y-144458381D01*
X472937506Y-144171251D01*
X472936433Y-144163100D01*
X472880296Y-143880883D01*
X472878162Y-143872920D01*
X472785672Y-143600453D01*
X472782522Y-143592849D01*
X472655258Y-143334782D01*
X472651137Y-143327645D01*
X472491280Y-143088401D01*
X472486262Y-143081861D01*
X472473603Y-143067426D01*
X472460364Y-143059028D01*
X472450599Y-143064862D01*
X471065770Y-144449690D01*
X471058158Y-144463631D01*
X470328107Y-144463631D01*
X470329342Y-144461369D01*
X470329211Y-144459534D01*
X470324960Y-144452920D01*
X468938655Y-143066616D01*
X468924894Y-143059101D01*
X468915534Y-143065559D01*
X468901238Y-143081861D01*
X468896220Y-143088401D01*
X468736363Y-143327645D01*
X468732242Y-143334782D01*
X468604978Y-143592849D01*
X468601828Y-143600453D01*
X468509338Y-143872920D01*
X468507204Y-143880883D01*
X468451067Y-144163100D01*
X468449994Y-144171251D01*
X468431175Y-144458381D01*
X468431175Y-144466619D01*
X387231325Y-144466619D01*
X387231325Y-144458381D01*
X387212506Y-144171251D01*
X387211433Y-144163100D01*
X387155296Y-143880883D01*
X387153162Y-143872920D01*
X387060672Y-143600453D01*
X387057522Y-143592849D01*
X386930258Y-143334782D01*
X386926137Y-143327645D01*
X386766280Y-143088401D01*
X386761262Y-143081861D01*
X386748603Y-143067426D01*
X386735364Y-143059028D01*
X386725599Y-143064862D01*
X385340770Y-144449690D01*
X385333158Y-144463631D01*
X384603107Y-144463631D01*
X384604342Y-144461369D01*
X384604211Y-144459534D01*
X384599960Y-144452920D01*
X383213655Y-143066616D01*
X383199894Y-143059101D01*
X383190534Y-143065559D01*
X383176238Y-143081861D01*
X383171220Y-143088401D01*
X383011363Y-143327645D01*
X383007242Y-143334782D01*
X382879978Y-143592849D01*
X382876828Y-143600453D01*
X382784338Y-143872920D01*
X382782204Y-143880883D01*
X382726067Y-144163100D01*
X382724994Y-144171251D01*
X382706175Y-144458381D01*
X382706175Y-144466619D01*
X195143825Y-144466619D01*
X195143825Y-144458381D01*
X195125006Y-144171251D01*
X195123933Y-144163100D01*
X195067796Y-143880883D01*
X195065662Y-143872920D01*
X194973172Y-143600453D01*
X194970022Y-143592849D01*
X194842758Y-143334782D01*
X194838637Y-143327645D01*
X194678780Y-143088401D01*
X194673762Y-143081861D01*
X194661103Y-143067426D01*
X194647864Y-143059028D01*
X194638099Y-143064862D01*
X193253270Y-144449690D01*
X193245658Y-144463631D01*
X192515607Y-144463631D01*
X192516842Y-144461369D01*
X192516711Y-144459534D01*
X192512460Y-144452920D01*
X191126155Y-143066616D01*
X191112394Y-143059101D01*
X191103034Y-143065559D01*
X191088738Y-143081861D01*
X191083720Y-143088401D01*
X190923863Y-143327645D01*
X190919742Y-143334782D01*
X190792478Y-143592849D01*
X190789328Y-143600453D01*
X190696838Y-143872920D01*
X190694704Y-143880883D01*
X190638567Y-144163100D01*
X190637494Y-144171251D01*
X190618675Y-144458381D01*
X190618675Y-144466619D01*
X109418825Y-144466619D01*
X109418825Y-144458381D01*
X109400006Y-144171251D01*
X109398933Y-144163100D01*
X109342796Y-143880883D01*
X109340662Y-143872920D01*
X109248172Y-143600453D01*
X109245022Y-143592849D01*
X109117758Y-143334782D01*
X109113637Y-143327645D01*
X108953780Y-143088401D01*
X108948762Y-143081861D01*
X108936103Y-143067426D01*
X108922864Y-143059028D01*
X108913099Y-143064862D01*
X107528270Y-144449690D01*
X107520658Y-144463631D01*
X106790607Y-144463631D01*
X106791842Y-144461369D01*
X106791711Y-144459534D01*
X106787460Y-144452920D01*
X105401155Y-143066616D01*
X105387394Y-143059101D01*
X105378034Y-143065559D01*
X105363738Y-143081861D01*
X105358720Y-143088401D01*
X105198863Y-143327645D01*
X105194742Y-143334782D01*
X105067478Y-143592849D01*
X105064328Y-143600453D01*
X104971838Y-143872920D01*
X104969704Y-143880883D01*
X104913567Y-144163100D01*
X104912494Y-144171251D01*
X104893675Y-144458381D01*
X104893675Y-144466619D01*
X98933000Y-144466619D01*
X98933000Y-142695886D01*
X105752778Y-142695886D01*
X105758612Y-142705651D01*
X107143440Y-144090480D01*
X107157381Y-144098092D01*
X107159216Y-144097961D01*
X107165830Y-144093710D01*
X108552134Y-142707405D01*
X108558425Y-142695886D01*
X191477778Y-142695886D01*
X191483612Y-142705651D01*
X192868440Y-144090480D01*
X192882381Y-144098092D01*
X192884216Y-144097961D01*
X192890830Y-144093710D01*
X194277134Y-142707405D01*
X194283425Y-142695886D01*
X383565278Y-142695886D01*
X383571112Y-142705651D01*
X384955940Y-144090480D01*
X384969881Y-144098092D01*
X384971716Y-144097961D01*
X384978330Y-144093710D01*
X386364634Y-142707405D01*
X386370925Y-142695886D01*
X469290278Y-142695886D01*
X469296112Y-142705651D01*
X470680940Y-144090480D01*
X470694881Y-144098092D01*
X470696716Y-144097961D01*
X470703330Y-144093710D01*
X472089634Y-142707405D01*
X472097149Y-142693644D01*
X472090691Y-142684284D01*
X472074389Y-142669988D01*
X472067849Y-142664970D01*
X471828606Y-142505113D01*
X471821469Y-142500992D01*
X471563401Y-142373728D01*
X471555797Y-142370578D01*
X471283330Y-142278088D01*
X471275367Y-142275954D01*
X470993150Y-142219817D01*
X470984999Y-142218744D01*
X470697869Y-142199925D01*
X470689631Y-142199925D01*
X470402501Y-142218744D01*
X470394350Y-142219817D01*
X470112133Y-142275954D01*
X470104170Y-142278088D01*
X469831703Y-142370578D01*
X469824099Y-142373728D01*
X469566032Y-142500992D01*
X469558895Y-142505113D01*
X469319651Y-142664970D01*
X469313111Y-142669988D01*
X469298676Y-142682647D01*
X469290278Y-142695886D01*
X386370925Y-142695886D01*
X386372149Y-142693644D01*
X386365691Y-142684284D01*
X386349389Y-142669988D01*
X386342849Y-142664970D01*
X386103606Y-142505113D01*
X386096469Y-142500992D01*
X385838401Y-142373728D01*
X385830797Y-142370578D01*
X385558330Y-142278088D01*
X385550367Y-142275954D01*
X385268150Y-142219817D01*
X385259999Y-142218744D01*
X384972869Y-142199925D01*
X384964631Y-142199925D01*
X384677501Y-142218744D01*
X384669350Y-142219817D01*
X384387133Y-142275954D01*
X384379170Y-142278088D01*
X384106703Y-142370578D01*
X384099099Y-142373728D01*
X383841032Y-142500992D01*
X383833895Y-142505113D01*
X383594651Y-142664970D01*
X383588111Y-142669988D01*
X383573676Y-142682647D01*
X383565278Y-142695886D01*
X194283425Y-142695886D01*
X194284649Y-142693644D01*
X194278191Y-142684284D01*
X194261889Y-142669988D01*
X194255349Y-142664970D01*
X194016106Y-142505113D01*
X194008969Y-142500992D01*
X193750901Y-142373728D01*
X193743297Y-142370578D01*
X193470830Y-142278088D01*
X193462867Y-142275954D01*
X193180650Y-142219817D01*
X193172499Y-142218744D01*
X192885369Y-142199925D01*
X192877131Y-142199925D01*
X192590001Y-142218744D01*
X192581850Y-142219817D01*
X192299633Y-142275954D01*
X192291670Y-142278088D01*
X192019203Y-142370578D01*
X192011599Y-142373728D01*
X191753532Y-142500992D01*
X191746395Y-142505113D01*
X191507151Y-142664970D01*
X191500611Y-142669988D01*
X191486176Y-142682647D01*
X191477778Y-142695886D01*
X108558425Y-142695886D01*
X108559649Y-142693644D01*
X108553191Y-142684284D01*
X108536889Y-142669988D01*
X108530349Y-142664970D01*
X108291106Y-142505113D01*
X108283969Y-142500992D01*
X108025901Y-142373728D01*
X108018297Y-142370578D01*
X107745830Y-142278088D01*
X107737867Y-142275954D01*
X107455650Y-142219817D01*
X107447499Y-142218744D01*
X107160369Y-142199925D01*
X107152131Y-142199925D01*
X106865001Y-142218744D01*
X106856850Y-142219817D01*
X106574633Y-142275954D01*
X106566670Y-142278088D01*
X106294203Y-142370578D01*
X106286599Y-142373728D01*
X106028532Y-142500992D01*
X106021395Y-142505113D01*
X105782151Y-142664970D01*
X105775611Y-142669988D01*
X105761176Y-142682647D01*
X105752778Y-142695886D01*
X98933000Y-142695886D01*
X98933000Y-135118856D01*
X105752851Y-135118856D01*
X105759309Y-135128216D01*
X105775611Y-135142512D01*
X105782151Y-135147530D01*
X106021394Y-135307387D01*
X106028531Y-135311508D01*
X106286599Y-135438772D01*
X106294203Y-135441922D01*
X106566670Y-135534412D01*
X106574633Y-135536546D01*
X106856850Y-135592683D01*
X106865001Y-135593756D01*
X107152131Y-135612575D01*
X107160369Y-135612575D01*
X107447499Y-135593756D01*
X107455650Y-135592683D01*
X107737867Y-135536546D01*
X107745830Y-135534412D01*
X108018297Y-135441922D01*
X108025901Y-135438772D01*
X108283969Y-135311508D01*
X108291106Y-135307387D01*
X108530349Y-135147530D01*
X108536889Y-135142512D01*
X108551324Y-135129853D01*
X108558300Y-135118856D01*
X191477851Y-135118856D01*
X191484309Y-135128216D01*
X191500611Y-135142512D01*
X191507151Y-135147530D01*
X191746394Y-135307387D01*
X191753531Y-135311508D01*
X192011599Y-135438772D01*
X192019203Y-135441922D01*
X192291670Y-135534412D01*
X192299633Y-135536546D01*
X192581850Y-135592683D01*
X192590001Y-135593756D01*
X192877131Y-135612575D01*
X192885369Y-135612575D01*
X193172499Y-135593756D01*
X193180650Y-135592683D01*
X193462867Y-135536546D01*
X193470830Y-135534412D01*
X193743297Y-135441922D01*
X193750901Y-135438772D01*
X194008969Y-135311508D01*
X194016106Y-135307387D01*
X194255349Y-135147530D01*
X194261889Y-135142512D01*
X194276324Y-135129853D01*
X194283300Y-135118856D01*
X383565351Y-135118856D01*
X383571809Y-135128216D01*
X383588111Y-135142512D01*
X383594651Y-135147530D01*
X383833894Y-135307387D01*
X383841031Y-135311508D01*
X384099099Y-135438772D01*
X384106703Y-135441922D01*
X384379170Y-135534412D01*
X384387133Y-135536546D01*
X384669350Y-135592683D01*
X384677501Y-135593756D01*
X384964631Y-135612575D01*
X384972869Y-135612575D01*
X385259999Y-135593756D01*
X385268150Y-135592683D01*
X385550367Y-135536546D01*
X385558330Y-135534412D01*
X385830797Y-135441922D01*
X385838401Y-135438772D01*
X386096469Y-135311508D01*
X386103606Y-135307387D01*
X386342849Y-135147530D01*
X386349389Y-135142512D01*
X386363824Y-135129853D01*
X386370800Y-135118856D01*
X469290351Y-135118856D01*
X469296809Y-135128216D01*
X469313111Y-135142512D01*
X469319651Y-135147530D01*
X469558894Y-135307387D01*
X469566031Y-135311508D01*
X469824099Y-135438772D01*
X469831703Y-135441922D01*
X470104170Y-135534412D01*
X470112133Y-135536546D01*
X470394350Y-135592683D01*
X470402501Y-135593756D01*
X470689631Y-135612575D01*
X470697869Y-135612575D01*
X470984999Y-135593756D01*
X470993150Y-135592683D01*
X471275367Y-135536546D01*
X471283330Y-135534412D01*
X471555797Y-135441922D01*
X471563401Y-135438772D01*
X471821469Y-135311508D01*
X471828606Y-135307387D01*
X472067849Y-135147530D01*
X472074389Y-135142512D01*
X472088824Y-135129853D01*
X472097222Y-135116614D01*
X472091388Y-135106849D01*
X470706560Y-133722020D01*
X470692619Y-133714408D01*
X470690784Y-133714539D01*
X470684170Y-133718790D01*
X469297866Y-135105095D01*
X469290351Y-135118856D01*
X386370800Y-135118856D01*
X386372222Y-135116614D01*
X386366388Y-135106849D01*
X384981560Y-133722020D01*
X384967619Y-133714408D01*
X384965784Y-133714539D01*
X384959170Y-133718790D01*
X383572866Y-135105095D01*
X383565351Y-135118856D01*
X194283300Y-135118856D01*
X194284722Y-135116614D01*
X194278888Y-135106849D01*
X192894060Y-133722020D01*
X192880119Y-133714408D01*
X192878284Y-133714539D01*
X192871670Y-133718790D01*
X191485366Y-135105095D01*
X191477851Y-135118856D01*
X108558300Y-135118856D01*
X108559722Y-135116614D01*
X108553888Y-135106849D01*
X107169060Y-133722020D01*
X107155119Y-133714408D01*
X107153284Y-133714539D01*
X107146670Y-133718790D01*
X105760366Y-135105095D01*
X105752851Y-135118856D01*
X98933000Y-135118856D01*
X98933000Y-133354119D01*
X104893675Y-133354119D01*
X104912494Y-133641249D01*
X104913567Y-133649400D01*
X104969704Y-133931617D01*
X104971838Y-133939580D01*
X105064328Y-134212047D01*
X105067478Y-134219651D01*
X105194742Y-134477718D01*
X105198863Y-134484855D01*
X105358720Y-134724099D01*
X105363738Y-134730639D01*
X105376397Y-134745074D01*
X105389636Y-134753472D01*
X105399401Y-134747638D01*
X106784230Y-133362810D01*
X106790607Y-133351131D01*
X107520658Y-133351131D01*
X107520789Y-133352966D01*
X107525040Y-133359580D01*
X108911345Y-134745884D01*
X108925106Y-134753399D01*
X108934466Y-134746941D01*
X108948762Y-134730639D01*
X108953780Y-134724099D01*
X109113637Y-134484855D01*
X109117758Y-134477718D01*
X109245022Y-134219651D01*
X109248172Y-134212047D01*
X109340662Y-133939580D01*
X109342796Y-133931617D01*
X109398933Y-133649400D01*
X109400006Y-133641249D01*
X109418825Y-133354119D01*
X190618675Y-133354119D01*
X190637494Y-133641249D01*
X190638567Y-133649400D01*
X190694704Y-133931617D01*
X190696838Y-133939580D01*
X190789328Y-134212047D01*
X190792478Y-134219651D01*
X190919742Y-134477718D01*
X190923863Y-134484855D01*
X191083720Y-134724099D01*
X191088738Y-134730639D01*
X191101397Y-134745074D01*
X191114636Y-134753472D01*
X191124401Y-134747638D01*
X192509230Y-133362810D01*
X192515607Y-133351131D01*
X193245658Y-133351131D01*
X193245789Y-133352966D01*
X193250040Y-133359580D01*
X194636345Y-134745884D01*
X194650106Y-134753399D01*
X194659466Y-134746941D01*
X194673762Y-134730639D01*
X194678780Y-134724099D01*
X194838637Y-134484855D01*
X194842758Y-134477718D01*
X194970022Y-134219651D01*
X194973172Y-134212047D01*
X195065662Y-133939580D01*
X195067796Y-133931617D01*
X195123933Y-133649400D01*
X195125006Y-133641249D01*
X195143825Y-133354119D01*
X382706175Y-133354119D01*
X382724994Y-133641249D01*
X382726067Y-133649400D01*
X382782204Y-133931617D01*
X382784338Y-133939580D01*
X382876828Y-134212047D01*
X382879978Y-134219651D01*
X383007242Y-134477718D01*
X383011363Y-134484855D01*
X383171220Y-134724099D01*
X383176238Y-134730639D01*
X383188897Y-134745074D01*
X383202136Y-134753472D01*
X383211901Y-134747638D01*
X384596730Y-133362810D01*
X384603107Y-133351131D01*
X385333158Y-133351131D01*
X385333289Y-133352966D01*
X385337540Y-133359580D01*
X386723845Y-134745884D01*
X386737606Y-134753399D01*
X386746966Y-134746941D01*
X386761262Y-134730639D01*
X386766280Y-134724099D01*
X386926137Y-134484855D01*
X386930258Y-134477718D01*
X387057522Y-134219651D01*
X387060672Y-134212047D01*
X387153162Y-133939580D01*
X387155296Y-133931617D01*
X387211433Y-133649400D01*
X387212506Y-133641249D01*
X387231325Y-133354119D01*
X468431175Y-133354119D01*
X468449994Y-133641249D01*
X468451067Y-133649400D01*
X468507204Y-133931617D01*
X468509338Y-133939580D01*
X468601828Y-134212047D01*
X468604978Y-134219651D01*
X468732242Y-134477718D01*
X468736363Y-134484855D01*
X468896220Y-134724099D01*
X468901238Y-134730639D01*
X468913897Y-134745074D01*
X468927136Y-134753472D01*
X468936901Y-134747638D01*
X470321730Y-133362810D01*
X470328107Y-133351131D01*
X471058158Y-133351131D01*
X471058289Y-133352966D01*
X471062540Y-133359580D01*
X472448845Y-134745884D01*
X472462606Y-134753399D01*
X472471966Y-134746941D01*
X472486262Y-134730639D01*
X472491280Y-134724099D01*
X472651137Y-134484855D01*
X472655258Y-134477718D01*
X472782522Y-134219651D01*
X472785672Y-134212047D01*
X472878162Y-133939580D01*
X472880296Y-133931617D01*
X472936433Y-133649400D01*
X472937506Y-133641249D01*
X472956325Y-133354119D01*
X472956325Y-133345881D01*
X472937506Y-133058751D01*
X472936433Y-133050600D01*
X472880296Y-132768383D01*
X472878162Y-132760420D01*
X472785672Y-132487953D01*
X472782522Y-132480349D01*
X472655258Y-132222282D01*
X472651137Y-132215145D01*
X472491280Y-131975901D01*
X472486262Y-131969361D01*
X472473603Y-131954926D01*
X472460364Y-131946528D01*
X472450599Y-131952362D01*
X471065770Y-133337190D01*
X471058158Y-133351131D01*
X470328107Y-133351131D01*
X470329342Y-133348869D01*
X470329211Y-133347034D01*
X470324960Y-133340420D01*
X468938655Y-131954116D01*
X468924894Y-131946601D01*
X468915534Y-131953059D01*
X468901238Y-131969361D01*
X468896220Y-131975901D01*
X468736363Y-132215145D01*
X468732242Y-132222282D01*
X468604978Y-132480349D01*
X468601828Y-132487953D01*
X468509338Y-132760420D01*
X468507204Y-132768383D01*
X468451067Y-133050600D01*
X468449994Y-133058751D01*
X468431175Y-133345881D01*
X468431175Y-133354119D01*
X387231325Y-133354119D01*
X387231325Y-133345881D01*
X387212506Y-133058751D01*
X387211433Y-133050600D01*
X387155296Y-132768383D01*
X387153162Y-132760420D01*
X387060672Y-132487953D01*
X387057522Y-132480349D01*
X386930258Y-132222282D01*
X386926137Y-132215145D01*
X386766280Y-131975901D01*
X386761262Y-131969361D01*
X386748603Y-131954926D01*
X386735364Y-131946528D01*
X386725599Y-131952362D01*
X385340770Y-133337190D01*
X385333158Y-133351131D01*
X384603107Y-133351131D01*
X384604342Y-133348869D01*
X384604211Y-133347034D01*
X384599960Y-133340420D01*
X383213655Y-131954116D01*
X383199894Y-131946601D01*
X383190534Y-131953059D01*
X383176238Y-131969361D01*
X383171220Y-131975901D01*
X383011363Y-132215145D01*
X383007242Y-132222282D01*
X382879978Y-132480349D01*
X382876828Y-132487953D01*
X382784338Y-132760420D01*
X382782204Y-132768383D01*
X382726067Y-133050600D01*
X382724994Y-133058751D01*
X382706175Y-133345881D01*
X382706175Y-133354119D01*
X195143825Y-133354119D01*
X195143825Y-133345881D01*
X195125006Y-133058751D01*
X195123933Y-133050600D01*
X195067796Y-132768383D01*
X195065662Y-132760420D01*
X194973172Y-132487953D01*
X194970022Y-132480349D01*
X194842758Y-132222282D01*
X194838637Y-132215145D01*
X194678780Y-131975901D01*
X194673762Y-131969361D01*
X194661103Y-131954926D01*
X194647864Y-131946528D01*
X194638099Y-131952362D01*
X193253270Y-133337190D01*
X193245658Y-133351131D01*
X192515607Y-133351131D01*
X192516842Y-133348869D01*
X192516711Y-133347034D01*
X192512460Y-133340420D01*
X191126155Y-131954116D01*
X191112394Y-131946601D01*
X191103034Y-131953059D01*
X191088738Y-131969361D01*
X191083720Y-131975901D01*
X190923863Y-132215145D01*
X190919742Y-132222282D01*
X190792478Y-132480349D01*
X190789328Y-132487953D01*
X190696838Y-132760420D01*
X190694704Y-132768383D01*
X190638567Y-133050600D01*
X190637494Y-133058751D01*
X190618675Y-133345881D01*
X190618675Y-133354119D01*
X109418825Y-133354119D01*
X109418825Y-133345881D01*
X109400006Y-133058751D01*
X109398933Y-133050600D01*
X109342796Y-132768383D01*
X109340662Y-132760420D01*
X109248172Y-132487953D01*
X109245022Y-132480349D01*
X109117758Y-132222282D01*
X109113637Y-132215145D01*
X108953780Y-131975901D01*
X108948762Y-131969361D01*
X108936103Y-131954926D01*
X108922864Y-131946528D01*
X108913099Y-131952362D01*
X107528270Y-133337190D01*
X107520658Y-133351131D01*
X106790607Y-133351131D01*
X106791842Y-133348869D01*
X106791711Y-133347034D01*
X106787460Y-133340420D01*
X105401155Y-131954116D01*
X105387394Y-131946601D01*
X105378034Y-131953059D01*
X105363738Y-131969361D01*
X105358720Y-131975901D01*
X105198863Y-132215145D01*
X105194742Y-132222282D01*
X105067478Y-132480349D01*
X105064328Y-132487953D01*
X104971838Y-132760420D01*
X104969704Y-132768383D01*
X104913567Y-133050600D01*
X104912494Y-133058751D01*
X104893675Y-133345881D01*
X104893675Y-133354119D01*
X98933000Y-133354119D01*
X98933000Y-131583386D01*
X105752778Y-131583386D01*
X105758612Y-131593151D01*
X107143440Y-132977980D01*
X107157381Y-132985592D01*
X107159216Y-132985461D01*
X107165830Y-132981210D01*
X108552134Y-131594905D01*
X108558425Y-131583386D01*
X191477778Y-131583386D01*
X191483612Y-131593151D01*
X192868440Y-132977980D01*
X192882381Y-132985592D01*
X192884216Y-132985461D01*
X192890830Y-132981210D01*
X194277134Y-131594905D01*
X194283425Y-131583386D01*
X383565278Y-131583386D01*
X383571112Y-131593151D01*
X384955940Y-132977980D01*
X384969881Y-132985592D01*
X384971716Y-132985461D01*
X384978330Y-132981210D01*
X386364634Y-131594905D01*
X386370925Y-131583386D01*
X469290278Y-131583386D01*
X469296112Y-131593151D01*
X470680940Y-132977980D01*
X470694881Y-132985592D01*
X470696716Y-132985461D01*
X470703330Y-132981210D01*
X472089634Y-131594905D01*
X472097149Y-131581144D01*
X472090691Y-131571784D01*
X472074389Y-131557488D01*
X472067849Y-131552470D01*
X471828606Y-131392613D01*
X471821469Y-131388492D01*
X471563401Y-131261228D01*
X471555797Y-131258078D01*
X471283330Y-131165588D01*
X471275367Y-131163454D01*
X470993150Y-131107317D01*
X470984999Y-131106244D01*
X470697869Y-131087425D01*
X470689631Y-131087425D01*
X470402501Y-131106244D01*
X470394350Y-131107317D01*
X470112133Y-131163454D01*
X470104170Y-131165588D01*
X469831703Y-131258078D01*
X469824099Y-131261228D01*
X469566032Y-131388492D01*
X469558895Y-131392613D01*
X469319651Y-131552470D01*
X469313111Y-131557488D01*
X469298676Y-131570147D01*
X469290278Y-131583386D01*
X386370925Y-131583386D01*
X386372149Y-131581144D01*
X386365691Y-131571784D01*
X386349389Y-131557488D01*
X386342849Y-131552470D01*
X386103606Y-131392613D01*
X386096469Y-131388492D01*
X385838401Y-131261228D01*
X385830797Y-131258078D01*
X385558330Y-131165588D01*
X385550367Y-131163454D01*
X385268150Y-131107317D01*
X385259999Y-131106244D01*
X384972869Y-131087425D01*
X384964631Y-131087425D01*
X384677501Y-131106244D01*
X384669350Y-131107317D01*
X384387133Y-131163454D01*
X384379170Y-131165588D01*
X384106703Y-131258078D01*
X384099099Y-131261228D01*
X383841032Y-131388492D01*
X383833895Y-131392613D01*
X383594651Y-131552470D01*
X383588111Y-131557488D01*
X383573676Y-131570147D01*
X383565278Y-131583386D01*
X194283425Y-131583386D01*
X194284649Y-131581144D01*
X194278191Y-131571784D01*
X194261889Y-131557488D01*
X194255349Y-131552470D01*
X194016106Y-131392613D01*
X194008969Y-131388492D01*
X193750901Y-131261228D01*
X193743297Y-131258078D01*
X193470830Y-131165588D01*
X193462867Y-131163454D01*
X193180650Y-131107317D01*
X193172499Y-131106244D01*
X192885369Y-131087425D01*
X192877131Y-131087425D01*
X192590001Y-131106244D01*
X192581850Y-131107317D01*
X192299633Y-131163454D01*
X192291670Y-131165588D01*
X192019203Y-131258078D01*
X192011599Y-131261228D01*
X191753532Y-131388492D01*
X191746395Y-131392613D01*
X191507151Y-131552470D01*
X191500611Y-131557488D01*
X191486176Y-131570147D01*
X191477778Y-131583386D01*
X108558425Y-131583386D01*
X108559649Y-131581144D01*
X108553191Y-131571784D01*
X108536889Y-131557488D01*
X108530349Y-131552470D01*
X108291106Y-131392613D01*
X108283969Y-131388492D01*
X108025901Y-131261228D01*
X108018297Y-131258078D01*
X107745830Y-131165588D01*
X107737867Y-131163454D01*
X107455650Y-131107317D01*
X107447499Y-131106244D01*
X107160369Y-131087425D01*
X107152131Y-131087425D01*
X106865001Y-131106244D01*
X106856850Y-131107317D01*
X106574633Y-131163454D01*
X106566670Y-131165588D01*
X106294203Y-131258078D01*
X106286599Y-131261228D01*
X106028532Y-131388492D01*
X106021395Y-131392613D01*
X105782151Y-131552470D01*
X105775611Y-131557488D01*
X105761176Y-131570147D01*
X105752778Y-131583386D01*
X98933000Y-131583386D01*
X98933000Y-131328207D01*
X98934746Y-131307303D01*
X98937264Y-131292335D01*
X98938071Y-131287539D01*
X98938224Y-131275000D01*
X98935963Y-131259210D01*
X98934825Y-131235536D01*
X98950880Y-130888262D01*
X98951954Y-130876673D01*
X99004637Y-130499002D01*
X99006776Y-130487562D01*
X99094079Y-130116371D01*
X99097264Y-130105177D01*
X99218446Y-129743621D01*
X99222650Y-129732769D01*
X99376677Y-129383931D01*
X99381857Y-129373526D01*
X99567423Y-129040371D01*
X99573539Y-129030494D01*
X99789044Y-128715897D01*
X99796058Y-128706609D01*
X100039671Y-128413237D01*
X100047512Y-128404637D01*
X100317137Y-128135012D01*
X100325737Y-128127171D01*
X100619109Y-127883558D01*
X100628397Y-127876544D01*
X100942994Y-127661039D01*
X100952871Y-127654923D01*
X101286026Y-127469357D01*
X101296431Y-127464177D01*
X101645269Y-127310150D01*
X101656121Y-127305946D01*
X101836899Y-127245355D01*
X102017686Y-127184761D01*
X102028862Y-127181581D01*
X102400062Y-127094276D01*
X102411502Y-127092137D01*
X102789173Y-127039454D01*
X102800762Y-127038380D01*
X103144316Y-127022497D01*
X103169515Y-127023862D01*
X103172358Y-127024305D01*
X103172360Y-127024305D01*
X103181230Y-127025686D01*
X103190132Y-127024522D01*
X103190135Y-127024522D01*
X103212751Y-127021564D01*
X103229089Y-127020500D01*
X474613172Y-127020500D01*
X474632557Y-127022000D01*
G37*
%TD.AperFunction*%
%TD*%
M02*
