%TF.GenerationSoftware,KiCad,Pcbnew,(6.0.0)*%
%TF.CreationDate,2022-04-22T09:20:41+02:00*%
%TF.ProjectId,pcb,7063622e-6b69-4636-9164-5f7063625858,rev?*%
%TF.SameCoordinates,Original*%
%TF.FileFunction,Soldermask,Top*%
%TF.FilePolarity,Negative*%
%FSLAX46Y46*%
G04 Gerber Fmt 4.6, Leading zero omitted, Abs format (unit mm)*
G04 Created by KiCad (PCBNEW (6.0.0)) date 2022-04-22 09:20:41*
%MOMM*%
%LPD*%
G01*
G04 APERTURE LIST*
%ADD10C,1.000000*%
%ADD11C,0.400000*%
%ADD12C,0.200000*%
%ADD13R,1.600000X1.600000*%
%ADD14O,1.600000X1.600000*%
%ADD15C,1.750000*%
%ADD16C,4.000000*%
%ADD17C,2.500000*%
%ADD18C,3.500001*%
%ADD19C,1.400000*%
%ADD20O,1.400000X1.400000*%
%ADD21C,3.987800*%
%ADD22C,3.048000*%
%ADD23C,1.500000*%
%ADD24C,2.000000*%
%ADD25R,1.700000X1.700000*%
%ADD26O,1.700000X1.700000*%
%ADD27C,1.600000*%
%ADD28R,2.200000X2.200000*%
%ADD29O,2.200000X2.200000*%
%ADD30C,0.700000*%
%ADD31O,0.900000X1.700000*%
%ADD32O,0.900000X2.400000*%
%ADD33C,1.200000*%
G04 APERTURE END LIST*
D10*
X467518750Y-144462500D02*
X388143750Y-144462500D01*
X254793750Y-142875000D02*
X197643750Y-142875000D01*
X388143750Y-129381250D02*
X467518750Y-129381250D01*
X388143750Y-132556250D02*
X467518750Y-132556250D01*
X254793750Y-130968750D02*
X197643750Y-130968750D01*
X465931250Y-130968750D02*
X389731250Y-130968750D01*
X196056250Y-132556250D02*
X256381250Y-132556250D01*
X465931250Y-142875000D02*
X389731250Y-142875000D01*
X188118750Y-130968750D02*
X111918750Y-130968750D01*
X110331250Y-129381250D02*
X189706250Y-129381250D01*
X388143750Y-141287500D02*
X467518750Y-141287500D01*
X189706250Y-144462500D02*
X110331250Y-144462500D01*
X196056250Y-144462500D02*
X256381250Y-144462500D01*
X110331250Y-132556250D02*
X189706250Y-132556250D01*
X256381250Y-141287500D02*
X196056250Y-141287500D01*
X256381250Y-129381250D02*
X196056250Y-129381250D01*
X188118750Y-142875000D02*
X111918750Y-142875000D01*
X110331250Y-141287500D02*
X189706250Y-141287500D01*
D11*
X188632619Y-269573511D02*
X188632619Y-271002083D01*
X188537380Y-271287797D01*
X188346904Y-271478273D01*
X188061190Y-271573511D01*
X187870714Y-271573511D01*
X190442142Y-270240178D02*
X190442142Y-271573511D01*
X189585000Y-270240178D02*
X189585000Y-271287797D01*
X189680238Y-271478273D01*
X189870714Y-271573511D01*
X190156428Y-271573511D01*
X190346904Y-271478273D01*
X190442142Y-271383035D01*
X191394523Y-270240178D02*
X191394523Y-272240178D01*
X191394523Y-270335416D02*
X191585000Y-270240178D01*
X191965952Y-270240178D01*
X192156428Y-270335416D01*
X192251666Y-270430654D01*
X192346904Y-270621130D01*
X192346904Y-271192559D01*
X192251666Y-271383035D01*
X192156428Y-271478273D01*
X191965952Y-271573511D01*
X191585000Y-271573511D01*
X191394523Y-271478273D01*
X193204047Y-271573511D02*
X193204047Y-270240178D01*
X193204047Y-269573511D02*
X193108809Y-269668750D01*
X193204047Y-269763988D01*
X193299285Y-269668750D01*
X193204047Y-269573511D01*
X193204047Y-269763988D01*
X193870714Y-270240178D02*
X194632619Y-270240178D01*
X194156428Y-269573511D02*
X194156428Y-271287797D01*
X194251666Y-271478273D01*
X194442142Y-271573511D01*
X194632619Y-271573511D01*
X196061190Y-271478273D02*
X195870714Y-271573511D01*
X195489761Y-271573511D01*
X195299285Y-271478273D01*
X195204047Y-271287797D01*
X195204047Y-270525892D01*
X195299285Y-270335416D01*
X195489761Y-270240178D01*
X195870714Y-270240178D01*
X196061190Y-270335416D01*
X196156428Y-270525892D01*
X196156428Y-270716369D01*
X195204047Y-270906845D01*
X197013571Y-271573511D02*
X197013571Y-270240178D01*
X197013571Y-270621130D02*
X197108809Y-270430654D01*
X197204047Y-270335416D01*
X197394523Y-270240178D01*
X197585000Y-270240178D01*
X200346904Y-272240178D02*
X199870714Y-272240178D01*
X199870714Y-269383035D01*
X200346904Y-269383035D01*
X201108809Y-270240178D02*
X201108809Y-272240178D01*
X201108809Y-270335416D02*
X201299285Y-270240178D01*
X201680238Y-270240178D01*
X201870714Y-270335416D01*
X201965952Y-270430654D01*
X202061190Y-270621130D01*
X202061190Y-271192559D01*
X201965952Y-271383035D01*
X201870714Y-271478273D01*
X201680238Y-271573511D01*
X201299285Y-271573511D01*
X201108809Y-271478273D01*
X202918333Y-271573511D02*
X202918333Y-270240178D01*
X202918333Y-270621130D02*
X203013571Y-270430654D01*
X203108809Y-270335416D01*
X203299285Y-270240178D01*
X203489761Y-270240178D01*
X204442142Y-271573511D02*
X204251666Y-271478273D01*
X204156428Y-271383035D01*
X204061190Y-271192559D01*
X204061190Y-270621130D01*
X204156428Y-270430654D01*
X204251666Y-270335416D01*
X204442142Y-270240178D01*
X204727857Y-270240178D01*
X204918333Y-270335416D01*
X205013571Y-270430654D01*
X205108809Y-270621130D01*
X205108809Y-271192559D01*
X205013571Y-271383035D01*
X204918333Y-271478273D01*
X204727857Y-271573511D01*
X204442142Y-271573511D01*
X205680238Y-270240178D02*
X206442142Y-270240178D01*
X205965952Y-269573511D02*
X205965952Y-271287797D01*
X206061190Y-271478273D01*
X206251666Y-271573511D01*
X206442142Y-271573511D01*
X207394523Y-271573511D02*
X207204047Y-271478273D01*
X207108809Y-271383035D01*
X207013571Y-271192559D01*
X207013571Y-270621130D01*
X207108809Y-270430654D01*
X207204047Y-270335416D01*
X207394523Y-270240178D01*
X207680238Y-270240178D01*
X207870714Y-270335416D01*
X207965952Y-270430654D01*
X208061190Y-270621130D01*
X208061190Y-271192559D01*
X207965952Y-271383035D01*
X207870714Y-271478273D01*
X207680238Y-271573511D01*
X207394523Y-271573511D01*
X208632619Y-270240178D02*
X209394523Y-270240178D01*
X208918333Y-269573511D02*
X208918333Y-271287797D01*
X209013571Y-271478273D01*
X209204047Y-271573511D01*
X209394523Y-271573511D01*
X209870714Y-270240178D02*
X210346904Y-271573511D01*
X210823095Y-270240178D02*
X210346904Y-271573511D01*
X210156428Y-272049702D01*
X210061190Y-272144940D01*
X209870714Y-272240178D01*
X211585000Y-270240178D02*
X211585000Y-272240178D01*
X211585000Y-270335416D02*
X211775476Y-270240178D01*
X212156428Y-270240178D01*
X212346904Y-270335416D01*
X212442142Y-270430654D01*
X212537380Y-270621130D01*
X212537380Y-271192559D01*
X212442142Y-271383035D01*
X212346904Y-271478273D01*
X212156428Y-271573511D01*
X211775476Y-271573511D01*
X211585000Y-271478273D01*
X214156428Y-271478273D02*
X213965952Y-271573511D01*
X213585000Y-271573511D01*
X213394523Y-271478273D01*
X213299285Y-271287797D01*
X213299285Y-270525892D01*
X213394523Y-270335416D01*
X213585000Y-270240178D01*
X213965952Y-270240178D01*
X214156428Y-270335416D01*
X214251666Y-270525892D01*
X214251666Y-270716369D01*
X213299285Y-270906845D01*
X214918333Y-272240178D02*
X215394523Y-272240178D01*
X215394523Y-269383035D01*
X214918333Y-269383035D01*
D12*
X189384166Y-274143833D02*
X189559166Y-272743833D01*
X189892500Y-272743833D01*
X190084166Y-272810500D01*
X190200833Y-272943833D01*
X190250833Y-273077166D01*
X190284166Y-273343833D01*
X190259166Y-273543833D01*
X190159166Y-273810500D01*
X190075833Y-273943833D01*
X189925833Y-274077166D01*
X189717500Y-274143833D01*
X189384166Y-274143833D01*
X191325833Y-274077166D02*
X191184166Y-274143833D01*
X190917500Y-274143833D01*
X190792500Y-274077166D01*
X190742500Y-273943833D01*
X190809166Y-273410500D01*
X190892500Y-273277166D01*
X191034166Y-273210500D01*
X191300833Y-273210500D01*
X191425833Y-273277166D01*
X191475833Y-273410500D01*
X191459166Y-273543833D01*
X190775833Y-273677166D01*
X191925833Y-274077166D02*
X192050833Y-274143833D01*
X192317500Y-274143833D01*
X192459166Y-274077166D01*
X192542500Y-273943833D01*
X192550833Y-273877166D01*
X192500833Y-273743833D01*
X192375833Y-273677166D01*
X192175833Y-273677166D01*
X192050833Y-273610500D01*
X192000833Y-273477166D01*
X192009166Y-273410500D01*
X192092500Y-273277166D01*
X192234166Y-273210500D01*
X192434166Y-273210500D01*
X192559166Y-273277166D01*
X193117500Y-274143833D02*
X193234166Y-273210500D01*
X193292500Y-272743833D02*
X193217500Y-272810500D01*
X193275833Y-272877166D01*
X193350833Y-272810500D01*
X193292500Y-272743833D01*
X193275833Y-272877166D01*
X194500833Y-273210500D02*
X194359166Y-274343833D01*
X194275833Y-274477166D01*
X194200833Y-274543833D01*
X194059166Y-274610500D01*
X193859166Y-274610500D01*
X193734166Y-274543833D01*
X194392500Y-274077166D02*
X194250833Y-274143833D01*
X193984166Y-274143833D01*
X193859166Y-274077166D01*
X193800833Y-274010500D01*
X193750833Y-273877166D01*
X193800833Y-273477166D01*
X193884166Y-273343833D01*
X193959166Y-273277166D01*
X194100833Y-273210500D01*
X194367500Y-273210500D01*
X194492500Y-273277166D01*
X195167500Y-273210500D02*
X195050833Y-274143833D01*
X195150833Y-273343833D02*
X195225833Y-273277166D01*
X195367500Y-273210500D01*
X195567500Y-273210500D01*
X195692500Y-273277166D01*
X195742500Y-273410500D01*
X195650833Y-274143833D01*
X196859166Y-274077166D02*
X196717500Y-274143833D01*
X196450833Y-274143833D01*
X196325833Y-274077166D01*
X196275833Y-273943833D01*
X196342500Y-273410500D01*
X196425833Y-273277166D01*
X196567500Y-273210500D01*
X196834166Y-273210500D01*
X196959166Y-273277166D01*
X197009166Y-273410500D01*
X196992500Y-273543833D01*
X196309166Y-273677166D01*
X198117500Y-274143833D02*
X198292500Y-272743833D01*
X198125833Y-274077166D02*
X197984166Y-274143833D01*
X197717500Y-274143833D01*
X197592500Y-274077166D01*
X197534166Y-274010500D01*
X197484166Y-273877166D01*
X197534166Y-273477166D01*
X197617500Y-273343833D01*
X197692500Y-273277166D01*
X197834166Y-273210500D01*
X198100833Y-273210500D01*
X198225833Y-273277166D01*
X199850833Y-274143833D02*
X200025833Y-272743833D01*
X199959166Y-273277166D02*
X200100833Y-273210500D01*
X200367500Y-273210500D01*
X200492500Y-273277166D01*
X200550833Y-273343833D01*
X200600833Y-273477166D01*
X200550833Y-273877166D01*
X200467500Y-274010500D01*
X200392500Y-274077166D01*
X200250833Y-274143833D01*
X199984166Y-274143833D01*
X199859166Y-274077166D01*
X201100833Y-273210500D02*
X201317500Y-274143833D01*
X201767500Y-273210500D02*
X201317500Y-274143833D01*
X201142500Y-274477166D01*
X201067500Y-274543833D01*
X200925833Y-274610500D01*
X189384166Y-276397833D02*
X189559166Y-274997833D01*
X189967500Y-275464500D02*
X190500833Y-275464500D01*
X190225833Y-274997833D02*
X190075833Y-276197833D01*
X190125833Y-276331166D01*
X190250833Y-276397833D01*
X190384166Y-276397833D01*
X190792500Y-276331166D02*
X190917500Y-276397833D01*
X191184166Y-276397833D01*
X191325833Y-276331166D01*
X191409166Y-276197833D01*
X191417500Y-276131166D01*
X191367500Y-275997833D01*
X191242500Y-275931166D01*
X191042500Y-275931166D01*
X190917500Y-275864500D01*
X190867500Y-275731166D01*
X190875833Y-275664500D01*
X190959166Y-275531166D01*
X191100833Y-275464500D01*
X191300833Y-275464500D01*
X191425833Y-275531166D01*
X192542500Y-275664500D02*
X192075833Y-275664500D01*
X191984166Y-276397833D02*
X192159166Y-274997833D01*
X192825833Y-274997833D01*
X193184166Y-276397833D02*
X193300833Y-275464500D01*
X193359166Y-274997833D02*
X193284166Y-275064500D01*
X193342500Y-275131166D01*
X193417500Y-275064500D01*
X193359166Y-274997833D01*
X193342500Y-275131166D01*
X193850833Y-276397833D02*
X193967500Y-275464500D01*
X193934166Y-275731166D02*
X194017500Y-275597833D01*
X194092500Y-275531166D01*
X194234166Y-275464500D01*
X194367500Y-275464500D01*
X195259166Y-276331166D02*
X195117500Y-276397833D01*
X194850833Y-276397833D01*
X194725833Y-276331166D01*
X194675833Y-276197833D01*
X194742500Y-275664500D01*
X194825833Y-275531166D01*
X194967500Y-275464500D01*
X195234166Y-275464500D01*
X195359166Y-275531166D01*
X195409166Y-275664500D01*
X195392500Y-275797833D01*
X194709166Y-275931166D01*
X195917500Y-276397833D02*
X196034166Y-275464500D01*
X196017500Y-275597833D02*
X196092500Y-275531166D01*
X196234166Y-275464500D01*
X196434166Y-275464500D01*
X196559166Y-275531166D01*
X196609166Y-275664500D01*
X196517500Y-276397833D01*
X196609166Y-275664500D02*
X196692500Y-275531166D01*
X196834166Y-275464500D01*
X197034166Y-275464500D01*
X197159166Y-275531166D01*
X197209166Y-275664500D01*
X197117500Y-276397833D01*
X198384166Y-276397833D02*
X198475833Y-275664500D01*
X198425833Y-275531166D01*
X198300833Y-275464500D01*
X198034166Y-275464500D01*
X197892500Y-275531166D01*
X198392500Y-276331166D02*
X198250833Y-276397833D01*
X197917500Y-276397833D01*
X197792500Y-276331166D01*
X197742500Y-276197833D01*
X197759166Y-276064500D01*
X197842500Y-275931166D01*
X197984166Y-275864500D01*
X198317500Y-275864500D01*
X198459166Y-275797833D01*
X199167500Y-275464500D02*
X199050833Y-276397833D01*
X199150833Y-275597833D02*
X199225833Y-275531166D01*
X199367500Y-275464500D01*
X199567500Y-275464500D01*
X199692500Y-275531166D01*
X199742500Y-275664500D01*
X199650833Y-276397833D01*
X200259166Y-276331166D02*
X200450833Y-276397833D01*
X200784166Y-276397833D01*
X200925833Y-276331166D01*
X201000833Y-276264500D01*
X201084166Y-276131166D01*
X201100833Y-275997833D01*
X201050833Y-275864500D01*
X200992500Y-275797833D01*
X200867500Y-275731166D01*
X200609166Y-275664500D01*
X200484166Y-275597833D01*
X200425833Y-275531166D01*
X200375833Y-275397833D01*
X200392500Y-275264500D01*
X200475833Y-275131166D01*
X200550833Y-275064500D01*
X200692500Y-274997833D01*
X201025833Y-274997833D01*
X201217500Y-275064500D01*
X202250833Y-276397833D02*
X202342500Y-275664500D01*
X202292500Y-275531166D01*
X202167500Y-275464500D01*
X201900833Y-275464500D01*
X201759166Y-275531166D01*
X202259166Y-276331166D02*
X202117500Y-276397833D01*
X201784166Y-276397833D01*
X201659166Y-276331166D01*
X201609166Y-276197833D01*
X201625833Y-276064500D01*
X201709166Y-275931166D01*
X201850833Y-275864500D01*
X202184166Y-275864500D01*
X202325833Y-275797833D01*
X202917500Y-276397833D02*
X203034166Y-275464500D01*
X203017500Y-275597833D02*
X203092500Y-275531166D01*
X203234166Y-275464500D01*
X203434166Y-275464500D01*
X203559166Y-275531166D01*
X203609166Y-275664500D01*
X203517500Y-276397833D01*
X203609166Y-275664500D02*
X203692500Y-275531166D01*
X203834166Y-275464500D01*
X204034166Y-275464500D01*
X204159166Y-275531166D01*
X204209166Y-275664500D01*
X204117500Y-276397833D01*
D13*
%TO.C,D104*%
X289560000Y-182562500D03*
D14*
X281940000Y-182562500D03*
%TD*%
D15*
%TO.C,SW22*%
X460057500Y-177800000D03*
D16*
X465137500Y-177800000D03*
D15*
X470217500Y-177800000D03*
D17*
X461327500Y-175260000D03*
X467677500Y-172720000D03*
%TD*%
D18*
%TO.C,MH2*%
X259556250Y-273050000D03*
%TD*%
D15*
%TO.C,SW106*%
X308292500Y-273050000D03*
X298132500Y-273050000D03*
D16*
X303212500Y-273050000D03*
D17*
X299402500Y-270510000D03*
X305752500Y-267970000D03*
%TD*%
D16*
%TO.C,SW122*%
X236537500Y-273050000D03*
D15*
X231457500Y-273050000D03*
X241617500Y-273050000D03*
D17*
X232727500Y-270510000D03*
X239077500Y-267970000D03*
%TD*%
D13*
%TO.C,D14*%
X121602500Y-184943750D03*
D14*
X129222500Y-184943750D03*
%TD*%
D13*
%TO.C,D79*%
X262572500Y-182562500D03*
D14*
X254952500Y-182562500D03*
%TD*%
D13*
%TO.C,D75*%
X347821250Y-180181250D03*
D14*
X355441250Y-180181250D03*
%TD*%
D13*
%TO.C,D62*%
X225266250Y-182562500D03*
D14*
X217646250Y-182562500D03*
%TD*%
D15*
%TO.C,SW48*%
X212407500Y-215900000D03*
X222567500Y-215900000D03*
D16*
X217487500Y-215900000D03*
D17*
X213677500Y-213360000D03*
X220027500Y-210820000D03*
%TD*%
D18*
%TO.C,MH2*%
X246062500Y-183356250D03*
%TD*%
D13*
%TO.C,D30*%
X148590000Y-175418750D03*
D14*
X156210000Y-175418750D03*
%TD*%
D13*
%TO.C,D22*%
X316547500Y-184943750D03*
D14*
X308927500Y-184943750D03*
%TD*%
D18*
%TO.C,MH2*%
X470693750Y-142875000D03*
%TD*%
D13*
%TO.C,D31*%
X171291250Y-175418750D03*
D14*
X163671250Y-175418750D03*
%TD*%
D18*
%TO.C,MH2*%
X107156250Y-183356250D03*
%TD*%
D15*
%TO.C,SW82*%
X119538750Y-254000000D03*
D16*
X124618750Y-254000000D03*
D15*
X129698750Y-254000000D03*
D17*
X120808750Y-251460000D03*
X127158750Y-248920000D03*
%TD*%
D15*
%TO.C,SW47*%
X203517500Y-215900000D03*
X193357500Y-215900000D03*
D16*
X198437500Y-215900000D03*
D17*
X194627500Y-213360000D03*
X200977500Y-210820000D03*
%TD*%
D19*
%TO.C,R5*%
X297815000Y-130968750D03*
D20*
X305435000Y-130968750D03*
%TD*%
D15*
%TO.C,SW49*%
X241617500Y-215900000D03*
X231457500Y-215900000D03*
D16*
X236537500Y-215900000D03*
D17*
X232727500Y-213360000D03*
X239077500Y-210820000D03*
%TD*%
D21*
%TO.C,REF\u002A\u002A*%
X456882500Y-237363000D03*
D22*
X472122500Y-237363000D03*
X472122500Y-213487000D03*
D21*
X456882500Y-213487000D03*
%TD*%
D18*
%TO.C,MH2*%
X384968750Y-172243750D03*
%TD*%
D13*
%TO.C,D102*%
X289560000Y-180181250D03*
D14*
X281940000Y-180181250D03*
%TD*%
D16*
%TO.C,SW108*%
X341312500Y-273050000D03*
D15*
X336232500Y-273050000D03*
X346392500Y-273050000D03*
D17*
X337502500Y-270510000D03*
X343852500Y-267970000D03*
%TD*%
D15*
%TO.C,SW7*%
X241617500Y-158750000D03*
D16*
X236537500Y-158750000D03*
D15*
X231457500Y-158750000D03*
D17*
X232727500Y-156210000D03*
X239077500Y-153670000D03*
%TD*%
D15*
%TO.C,SW102*%
X120173750Y-273050000D03*
D16*
X115093750Y-273050000D03*
D15*
X110013750Y-273050000D03*
D17*
X111283750Y-270510000D03*
X117633750Y-267970000D03*
%TD*%
D13*
%TO.C,D72*%
X225266250Y-170656250D03*
D14*
X217646250Y-170656250D03*
%TD*%
D13*
%TO.C,D27*%
X171291250Y-180181250D03*
D14*
X163671250Y-180181250D03*
%TD*%
D13*
%TO.C,D1*%
X144303750Y-170656250D03*
D14*
X136683750Y-170656250D03*
%TD*%
D15*
%TO.C,SW58*%
X432117500Y-215900000D03*
X421957500Y-215900000D03*
D16*
X427037500Y-215900000D03*
D17*
X423227500Y-213360000D03*
X429577500Y-210820000D03*
%TD*%
D13*
%TO.C,D84*%
X229552500Y-184943750D03*
D14*
X237172500Y-184943750D03*
%TD*%
D16*
%TO.C,SW113*%
X446087500Y-273050000D03*
D15*
X451167500Y-273050000D03*
X441007500Y-273050000D03*
D17*
X442277500Y-270510000D03*
X448627500Y-267970000D03*
%TD*%
D21*
%TO.C,REF\u002A\u002A*%
X284162500Y-264795000D03*
D22*
X188912500Y-280035000D03*
X284162500Y-280035000D03*
D21*
X188912500Y-264795000D03*
%TD*%
D13*
%TO.C,D107*%
X289560000Y-173037500D03*
D14*
X281940000Y-173037500D03*
%TD*%
D15*
%TO.C,SW61*%
X465137500Y-230505000D03*
X465137500Y-220345000D03*
D16*
X465137500Y-225425000D03*
D17*
X462597500Y-229235000D03*
X460057500Y-222885000D03*
%TD*%
D16*
%TO.C,SW5*%
X193675000Y-158750000D03*
D15*
X198755000Y-158750000D03*
X188595000Y-158750000D03*
D17*
X189865000Y-156210000D03*
X196215000Y-153670000D03*
%TD*%
D13*
%TO.C,D3*%
X144303750Y-184943750D03*
D14*
X136683750Y-184943750D03*
%TD*%
D15*
%TO.C,SW111*%
X398145000Y-277812500D03*
X408305000Y-277812500D03*
D16*
X403225000Y-277812500D03*
D17*
X399415000Y-275272500D03*
X405765000Y-272732500D03*
%TD*%
D21*
%TO.C,REF\u002A\u002A*%
X184156250Y-264795000D03*
D22*
X284156250Y-280035000D03*
X184156250Y-280035000D03*
D21*
X284156250Y-264795000D03*
%TD*%
D13*
%TO.C,D32*%
X148590000Y-177800000D03*
D14*
X156210000Y-177800000D03*
%TD*%
D15*
%TO.C,SW38*%
X374332500Y-196850000D03*
X384492500Y-196850000D03*
D16*
X379412500Y-196850000D03*
D17*
X375602500Y-194310000D03*
X381952500Y-191770000D03*
%TD*%
D15*
%TO.C,SW87*%
X207645000Y-254000000D03*
D16*
X212725000Y-254000000D03*
D15*
X217805000Y-254000000D03*
D17*
X208915000Y-251460000D03*
X215265000Y-248920000D03*
%TD*%
D15*
%TO.C,SW78*%
X451167500Y-234950000D03*
X441007500Y-234950000D03*
D16*
X446087500Y-234950000D03*
D17*
X442277500Y-232410000D03*
X448627500Y-229870000D03*
%TD*%
D15*
%TO.C,SW97*%
X432117500Y-254000000D03*
X421957500Y-254000000D03*
D16*
X427037500Y-254000000D03*
D17*
X423227500Y-251460000D03*
X429577500Y-248920000D03*
%TD*%
D19*
%TO.C,R3*%
X280987500Y-136366250D03*
D20*
X280987500Y-128746250D03*
%TD*%
D18*
%TO.C,MH2*%
X107156250Y-130968750D03*
%TD*%
D13*
%TO.C,D57*%
X343535000Y-180181250D03*
D14*
X335915000Y-180181250D03*
%TD*%
D13*
%TO.C,D103*%
X266858750Y-177800000D03*
D14*
X274478750Y-177800000D03*
%TD*%
D23*
%TO.C,Y1*%
X368756250Y-140562500D03*
X368756250Y-135682500D03*
%TD*%
D15*
%TO.C,SW32*%
X260032500Y-196850000D03*
X270192500Y-196850000D03*
D16*
X265112500Y-196850000D03*
D17*
X261302500Y-194310000D03*
X267652500Y-191770000D03*
%TD*%
D15*
%TO.C,SW86*%
X198755000Y-254000000D03*
X188595000Y-254000000D03*
D16*
X193675000Y-254000000D03*
D17*
X189865000Y-251460000D03*
X196215000Y-248920000D03*
%TD*%
D13*
%TO.C,D91*%
X370522500Y-177800000D03*
D14*
X362902500Y-177800000D03*
%TD*%
D16*
%TO.C,SW34*%
X303212500Y-196850000D03*
D15*
X298132500Y-196850000D03*
X308292500Y-196850000D03*
D17*
X299402500Y-194310000D03*
X305752500Y-191770000D03*
%TD*%
D15*
%TO.C,SW52*%
X288607500Y-215900000D03*
D16*
X293687500Y-215900000D03*
D15*
X298767500Y-215900000D03*
D17*
X289877500Y-213360000D03*
X296227500Y-210820000D03*
%TD*%
D16*
%TO.C,SW54*%
X331787500Y-215900000D03*
D15*
X326707500Y-215900000D03*
X336867500Y-215900000D03*
D17*
X327977500Y-213360000D03*
X334327500Y-210820000D03*
%TD*%
D13*
%TO.C,D82*%
X229552500Y-182562500D03*
D14*
X237172500Y-182562500D03*
%TD*%
D15*
%TO.C,SW20*%
X421957500Y-177800000D03*
D16*
X427037500Y-177800000D03*
D15*
X432117500Y-177800000D03*
D17*
X423227500Y-175260000D03*
X429577500Y-172720000D03*
%TD*%
D15*
%TO.C,SW15*%
X413067500Y-158750000D03*
X402907500Y-158750000D03*
D16*
X407987500Y-158750000D03*
D17*
X404177500Y-156210000D03*
X410527500Y-153670000D03*
%TD*%
D13*
%TO.C,D12*%
X121602500Y-182562500D03*
D14*
X129222500Y-182562500D03*
%TD*%
D16*
%TO.C,SW37*%
X369887500Y-196850000D03*
D15*
X364807500Y-196850000D03*
X374967500Y-196850000D03*
D17*
X366077500Y-194310000D03*
X372427500Y-191770000D03*
%TD*%
D13*
%TO.C,D93*%
X370522500Y-182562500D03*
D14*
X362902500Y-182562500D03*
%TD*%
D24*
%TO.C,SW124*%
X265981250Y-134012500D03*
X259481250Y-134012500D03*
X265981250Y-129512500D03*
X259481250Y-129512500D03*
%TD*%
D15*
%TO.C,SW3*%
X160655000Y-158750000D03*
D16*
X155575000Y-158750000D03*
D15*
X150495000Y-158750000D03*
D17*
X151765000Y-156210000D03*
X158115000Y-153670000D03*
%TD*%
D13*
%TO.C,D63*%
X202565000Y-182562500D03*
D14*
X210185000Y-182562500D03*
%TD*%
D13*
%TO.C,D86*%
X229552500Y-173037500D03*
D14*
X237172500Y-173037500D03*
%TD*%
D16*
%TO.C,SW30*%
X227012500Y-196850000D03*
D15*
X221932500Y-196850000D03*
X232092500Y-196850000D03*
D17*
X223202500Y-194310000D03*
X229552500Y-191770000D03*
%TD*%
D13*
%TO.C,D36*%
X148590000Y-182562500D03*
D14*
X156210000Y-182562500D03*
%TD*%
D16*
%TO.C,SW31*%
X246062500Y-196850000D03*
D15*
X251142500Y-196850000D03*
X240982500Y-196850000D03*
D17*
X242252500Y-194310000D03*
X248602500Y-191770000D03*
%TD*%
D13*
%TO.C,D8*%
X121602500Y-177800000D03*
D14*
X129222500Y-177800000D03*
%TD*%
D15*
%TO.C,SW69*%
X236220000Y-234950000D03*
D16*
X241300000Y-234950000D03*
D15*
X246380000Y-234950000D03*
D17*
X237490000Y-232410000D03*
X243840000Y-229870000D03*
%TD*%
D13*
%TO.C,D21*%
X316547500Y-182562500D03*
D14*
X308927500Y-182562500D03*
%TD*%
D13*
%TO.C,D80*%
X229552500Y-180181250D03*
D14*
X237172500Y-180181250D03*
%TD*%
D13*
%TO.C,D78*%
X229552500Y-177800000D03*
D14*
X237172500Y-177800000D03*
%TD*%
D16*
%TO.C,SW94*%
X353218750Y-254000000D03*
D15*
X348138750Y-254000000D03*
X358298750Y-254000000D03*
D17*
X349408750Y-251460000D03*
X355758750Y-248920000D03*
%TD*%
D15*
%TO.C,SW11*%
X322580000Y-158750000D03*
D16*
X317500000Y-158750000D03*
D15*
X312420000Y-158750000D03*
D17*
X313690000Y-156210000D03*
X320040000Y-153670000D03*
%TD*%
D16*
%TO.C,SW107*%
X322262500Y-273050000D03*
D15*
X327342500Y-273050000D03*
X317182500Y-273050000D03*
D17*
X318452500Y-270510000D03*
X324802500Y-267970000D03*
%TD*%
D13*
%TO.C,D96*%
X289560000Y-184943750D03*
D14*
X281940000Y-184943750D03*
%TD*%
D16*
%TO.C,SW116*%
X141287500Y-273050000D03*
D15*
X136207500Y-273050000D03*
X146367500Y-273050000D03*
D17*
X137477500Y-270510000D03*
X143827500Y-267970000D03*
%TD*%
D15*
%TO.C,SW95*%
X389255000Y-258762500D03*
D16*
X384175000Y-258762500D03*
D15*
X379095000Y-258762500D03*
D17*
X380365000Y-256222500D03*
X386715000Y-253682500D03*
%TD*%
D16*
%TO.C,SW51*%
X274637500Y-215900000D03*
D15*
X279717500Y-215900000D03*
X269557500Y-215900000D03*
D17*
X270827500Y-213360000D03*
X277177500Y-210820000D03*
%TD*%
D16*
%TO.C,SW45*%
X160337500Y-215900000D03*
D15*
X165417500Y-215900000D03*
X155257500Y-215900000D03*
D17*
X156527500Y-213360000D03*
X162877500Y-210820000D03*
%TD*%
D18*
%TO.C,MH2*%
X192881250Y-130968750D03*
%TD*%
D13*
%TO.C,D73*%
X347821250Y-184943750D03*
D14*
X355441250Y-184943750D03*
%TD*%
D18*
%TO.C,MH2*%
X436562500Y-215900000D03*
%TD*%
D16*
%TO.C,SW14*%
X379412500Y-158750000D03*
D15*
X384492500Y-158750000D03*
X374332500Y-158750000D03*
D17*
X375602500Y-156210000D03*
X381952500Y-153670000D03*
%TD*%
D13*
%TO.C,D88*%
X229552500Y-175418750D03*
D14*
X237172500Y-175418750D03*
%TD*%
D15*
%TO.C,SW35*%
X317182500Y-196850000D03*
X327342500Y-196850000D03*
D16*
X322262500Y-196850000D03*
D17*
X318452500Y-194310000D03*
X324802500Y-191770000D03*
%TD*%
D16*
%TO.C,SW41*%
X446087500Y-196850000D03*
D15*
X441007500Y-196850000D03*
X451167500Y-196850000D03*
D17*
X442277500Y-194310000D03*
X448627500Y-191770000D03*
%TD*%
D13*
%TO.C,D50*%
X198278750Y-175418750D03*
D14*
X190658750Y-175418750D03*
%TD*%
D16*
%TO.C,SW39*%
X407987500Y-196850000D03*
D15*
X402907500Y-196850000D03*
X413067500Y-196850000D03*
D17*
X404177500Y-194310000D03*
X410527500Y-191770000D03*
%TD*%
D25*
%TO.C,J2*%
X377656250Y-135587500D03*
D26*
X380196250Y-135587500D03*
X377656250Y-138127500D03*
X380196250Y-138127500D03*
X377656250Y-140667500D03*
X380196250Y-140667500D03*
%TD*%
D15*
%TO.C,SW85*%
X169545000Y-254000000D03*
D16*
X174625000Y-254000000D03*
D15*
X179705000Y-254000000D03*
D17*
X170815000Y-251460000D03*
X177165000Y-248920000D03*
%TD*%
D13*
%TO.C,D83*%
X262572500Y-177800000D03*
D14*
X254952500Y-177800000D03*
%TD*%
D16*
%TO.C,SW21*%
X446087500Y-177800000D03*
D15*
X451167500Y-177800000D03*
X441007500Y-177800000D03*
D17*
X442277500Y-175260000D03*
X448627500Y-172720000D03*
%TD*%
D13*
%TO.C,D9*%
X144303750Y-177800000D03*
D14*
X136683750Y-177800000D03*
%TD*%
D16*
%TO.C,SW93*%
X327025000Y-254000000D03*
D15*
X321945000Y-254000000D03*
X332105000Y-254000000D03*
D17*
X323215000Y-251460000D03*
X329565000Y-248920000D03*
%TD*%
D15*
%TO.C,SW71*%
X274320000Y-234950000D03*
D16*
X279400000Y-234950000D03*
D15*
X284480000Y-234950000D03*
D17*
X275590000Y-232410000D03*
X281940000Y-229870000D03*
%TD*%
D13*
%TO.C,D47*%
X175577500Y-170656250D03*
D14*
X183197500Y-170656250D03*
%TD*%
D15*
%TO.C,SW121*%
X140970000Y-273050000D03*
X151130000Y-273050000D03*
D16*
X146050000Y-273050000D03*
D17*
X142240000Y-270510000D03*
X148590000Y-267970000D03*
%TD*%
D15*
%TO.C,SW6*%
X222567500Y-158750000D03*
D16*
X217487500Y-158750000D03*
D15*
X212407500Y-158750000D03*
D17*
X213677500Y-156210000D03*
X220027500Y-153670000D03*
%TD*%
D15*
%TO.C,SW33*%
X289242500Y-196850000D03*
D16*
X284162500Y-196850000D03*
D15*
X279082500Y-196850000D03*
D17*
X280352500Y-194310000D03*
X286702500Y-191770000D03*
%TD*%
D27*
%TO.C,C4*%
X373062500Y-142537500D03*
X373062500Y-140037500D03*
%TD*%
D13*
%TO.C,U1*%
X363056250Y-130487500D03*
D14*
X360516250Y-130487500D03*
X357976250Y-130487500D03*
X355436250Y-130487500D03*
X352896250Y-130487500D03*
X350356250Y-130487500D03*
X347816250Y-130487500D03*
X345276250Y-130487500D03*
X342736250Y-130487500D03*
X340196250Y-130487500D03*
X337656250Y-130487500D03*
X335116250Y-130487500D03*
X332576250Y-130487500D03*
X330036250Y-130487500D03*
X327496250Y-130487500D03*
X324956250Y-130487500D03*
X322416250Y-130487500D03*
X319876250Y-130487500D03*
X317336250Y-130487500D03*
X314796250Y-130487500D03*
X314796250Y-145727500D03*
X317336250Y-145727500D03*
X319876250Y-145727500D03*
X322416250Y-145727500D03*
X324956250Y-145727500D03*
X327496250Y-145727500D03*
X330036250Y-145727500D03*
X332576250Y-145727500D03*
X335116250Y-145727500D03*
X337656250Y-145727500D03*
X340196250Y-145727500D03*
X342736250Y-145727500D03*
X345276250Y-145727500D03*
X347816250Y-145727500D03*
X350356250Y-145727500D03*
X352896250Y-145727500D03*
X355436250Y-145727500D03*
X357976250Y-145727500D03*
X360516250Y-145727500D03*
X363056250Y-145727500D03*
%TD*%
D16*
%TO.C,SW88*%
X231775000Y-254000000D03*
D15*
X236855000Y-254000000D03*
X226695000Y-254000000D03*
D17*
X227965000Y-251460000D03*
X234315000Y-248920000D03*
%TD*%
D13*
%TO.C,D74*%
X347821250Y-182562500D03*
D14*
X355441250Y-182562500D03*
%TD*%
D13*
%TO.C,D4*%
X121602500Y-173037500D03*
D14*
X129222500Y-173037500D03*
%TD*%
D15*
%TO.C,SW120*%
X341630000Y-273050000D03*
X331470000Y-273050000D03*
D16*
X336550000Y-273050000D03*
D17*
X332740000Y-270510000D03*
X339090000Y-267970000D03*
%TD*%
D16*
%TO.C,SW105*%
X234156250Y-273050000D03*
D15*
X229076250Y-273050000D03*
X239236250Y-273050000D03*
D17*
X230346250Y-270510000D03*
X236696250Y-267970000D03*
%TD*%
D15*
%TO.C,SW64*%
X151130000Y-234950000D03*
D16*
X146050000Y-234950000D03*
D15*
X140970000Y-234950000D03*
D17*
X142240000Y-232410000D03*
X148590000Y-229870000D03*
%TD*%
D16*
%TO.C,SW70*%
X260350000Y-234950000D03*
D15*
X265430000Y-234950000D03*
X255270000Y-234950000D03*
D17*
X256540000Y-232410000D03*
X262890000Y-229870000D03*
%TD*%
D13*
%TO.C,D100*%
X289560000Y-177800000D03*
D14*
X281940000Y-177800000D03*
%TD*%
D13*
%TO.C,D65*%
X202565000Y-184943750D03*
D14*
X210185000Y-184943750D03*
%TD*%
D15*
%TO.C,SW59*%
X441007500Y-215900000D03*
D16*
X446087500Y-215900000D03*
D15*
X451167500Y-215900000D03*
D17*
X442277500Y-213360000D03*
X448627500Y-210820000D03*
%TD*%
D15*
%TO.C,SW8*%
X260667500Y-158750000D03*
X250507500Y-158750000D03*
D16*
X255587500Y-158750000D03*
D17*
X251777500Y-156210000D03*
X258127500Y-153670000D03*
%TD*%
D18*
%TO.C,MH2*%
X146050000Y-254000000D03*
%TD*%
D15*
%TO.C,SW68*%
X227330000Y-234950000D03*
X217170000Y-234950000D03*
D16*
X222250000Y-234950000D03*
D17*
X218440000Y-232410000D03*
X224790000Y-229870000D03*
%TD*%
D13*
%TO.C,D70*%
X225266250Y-173037500D03*
D14*
X217646250Y-173037500D03*
%TD*%
D15*
%TO.C,SW73*%
X322580000Y-234950000D03*
X312420000Y-234950000D03*
D16*
X317500000Y-234950000D03*
D17*
X313690000Y-232410000D03*
X320040000Y-229870000D03*
%TD*%
D28*
%TO.C,D109*%
X291941250Y-137318750D03*
D29*
X284321250Y-137318750D03*
%TD*%
D15*
%TO.C,SW110*%
X379095000Y-277812500D03*
X389255000Y-277812500D03*
D16*
X384175000Y-277812500D03*
D17*
X380365000Y-275272500D03*
X386715000Y-272732500D03*
%TD*%
D19*
%TO.C,R4*%
X297815000Y-134143750D03*
D20*
X305435000Y-134143750D03*
%TD*%
D13*
%TO.C,D28*%
X148590000Y-173037500D03*
D14*
X156210000Y-173037500D03*
%TD*%
D15*
%TO.C,SW119*%
X302895000Y-273050000D03*
D16*
X307975000Y-273050000D03*
D15*
X313055000Y-273050000D03*
D17*
X304165000Y-270510000D03*
X310515000Y-267970000D03*
%TD*%
D15*
%TO.C,SW66*%
X179070000Y-234950000D03*
X189230000Y-234950000D03*
D16*
X184150000Y-234950000D03*
D17*
X180340000Y-232410000D03*
X186690000Y-229870000D03*
%TD*%
D13*
%TO.C,D71*%
X202565000Y-177800000D03*
D14*
X210185000Y-177800000D03*
%TD*%
D15*
%TO.C,SW53*%
X317817500Y-215900000D03*
D16*
X312737500Y-215900000D03*
D15*
X307657500Y-215900000D03*
D17*
X308927500Y-213360000D03*
X315277500Y-210820000D03*
%TD*%
D16*
%TO.C,SW80*%
X115093750Y-234950000D03*
D15*
X110013750Y-234950000D03*
X120173750Y-234950000D03*
D17*
X111283750Y-232410000D03*
X117633750Y-229870000D03*
%TD*%
D27*
%TO.C,C3*%
X299125000Y-138112500D03*
X304125000Y-138112500D03*
%TD*%
D16*
%TO.C,SW42*%
X465137500Y-196850000D03*
D15*
X460057500Y-196850000D03*
X470217500Y-196850000D03*
D17*
X461327500Y-194310000D03*
X467677500Y-191770000D03*
%TD*%
D13*
%TO.C,D77*%
X262572500Y-184943750D03*
D14*
X254952500Y-184943750D03*
%TD*%
D21*
%TO.C,REF\u002A\u002A*%
X456882500Y-275463000D03*
D22*
X472122500Y-275463000D03*
X472122500Y-251587000D03*
D21*
X456882500Y-251587000D03*
%TD*%
D15*
%TO.C,SW18*%
X460057500Y-158750000D03*
D16*
X465137500Y-158750000D03*
D15*
X470217500Y-158750000D03*
D17*
X461327500Y-156210000D03*
X467677500Y-153670000D03*
%TD*%
D13*
%TO.C,D40*%
X320833750Y-180181250D03*
D14*
X328453750Y-180181250D03*
%TD*%
D15*
%TO.C,SW98*%
X451167500Y-254000000D03*
D16*
X446087500Y-254000000D03*
D15*
X441007500Y-254000000D03*
D17*
X442277500Y-251460000D03*
X448627500Y-248920000D03*
%TD*%
D30*
%TO.C,J1*%
X291106250Y-132612500D03*
X290256250Y-132612500D03*
X289406250Y-132612500D03*
X288556250Y-132612500D03*
X287706250Y-132612500D03*
X286856250Y-132612500D03*
X286006250Y-132612500D03*
X285156250Y-132612500D03*
X285156250Y-131262500D03*
X286006250Y-131262500D03*
X286856250Y-131262500D03*
X287706250Y-131262500D03*
X288556250Y-131262500D03*
X289406250Y-131262500D03*
X290256250Y-131262500D03*
X291106250Y-131262500D03*
D31*
X283806250Y-128252500D03*
D32*
X283806250Y-131632500D03*
X292456250Y-131632500D03*
D31*
X292456250Y-128252500D03*
%TD*%
D16*
%TO.C,SW77*%
X427037500Y-234950000D03*
D15*
X432117500Y-234950000D03*
X421957500Y-234950000D03*
D17*
X423227500Y-232410000D03*
X429577500Y-229870000D03*
%TD*%
D15*
%TO.C,SW76*%
X413067500Y-234950000D03*
X402907500Y-234950000D03*
D16*
X407987500Y-234950000D03*
D17*
X404177500Y-232410000D03*
X410527500Y-229870000D03*
%TD*%
D13*
%TO.C,D5*%
X144303750Y-182562500D03*
D14*
X136683750Y-182562500D03*
%TD*%
D15*
%TO.C,SW81*%
X360680000Y-234950000D03*
X350520000Y-234950000D03*
D16*
X355600000Y-234950000D03*
D17*
X351790000Y-232410000D03*
X358140000Y-229870000D03*
%TD*%
D18*
%TO.C,MH2*%
X384968750Y-183356250D03*
%TD*%
D15*
%TO.C,SW103*%
X143986250Y-273050000D03*
X133826250Y-273050000D03*
D16*
X138906250Y-273050000D03*
D17*
X135096250Y-270510000D03*
X141446250Y-267970000D03*
%TD*%
D13*
%TO.C,D48*%
X198278750Y-177800000D03*
D14*
X190658750Y-177800000D03*
%TD*%
D18*
%TO.C,MH2*%
X107156250Y-172243750D03*
%TD*%
D15*
%TO.C,SW27*%
X174942500Y-196850000D03*
D16*
X169862500Y-196850000D03*
D15*
X164782500Y-196850000D03*
D17*
X166052500Y-194310000D03*
X172402500Y-191770000D03*
%TD*%
D15*
%TO.C,SW13*%
X360680000Y-158750000D03*
X350520000Y-158750000D03*
D16*
X355600000Y-158750000D03*
D17*
X351790000Y-156210000D03*
X358140000Y-153670000D03*
%TD*%
D15*
%TO.C,SW60*%
X460057500Y-215900000D03*
X470217500Y-215900000D03*
D16*
X465137500Y-215900000D03*
D17*
X461327500Y-213360000D03*
X467677500Y-210820000D03*
%TD*%
D13*
%TO.C,D6*%
X121602500Y-175418750D03*
D14*
X129222500Y-175418750D03*
%TD*%
D13*
%TO.C,D25*%
X171291250Y-182562500D03*
D14*
X163671250Y-182562500D03*
%TD*%
D13*
%TO.C,D26*%
X148590000Y-170656250D03*
D14*
X156210000Y-170656250D03*
%TD*%
D16*
%TO.C,SW79*%
X465137500Y-234950000D03*
D15*
X470217500Y-234950000D03*
X460057500Y-234950000D03*
D17*
X461327500Y-232410000D03*
X467677500Y-229870000D03*
%TD*%
D15*
%TO.C,SW40*%
X432117500Y-196850000D03*
D16*
X427037500Y-196850000D03*
D15*
X421957500Y-196850000D03*
D17*
X423227500Y-194310000D03*
X429577500Y-191770000D03*
%TD*%
D13*
%TO.C,D56*%
X343535000Y-177800000D03*
D14*
X335915000Y-177800000D03*
%TD*%
D15*
%TO.C,SW92*%
X302895000Y-254000000D03*
X313055000Y-254000000D03*
D16*
X307975000Y-254000000D03*
D17*
X304165000Y-251460000D03*
X310515000Y-248920000D03*
%TD*%
D15*
%TO.C,SW83*%
X131445000Y-254000000D03*
X141605000Y-254000000D03*
D16*
X136525000Y-254000000D03*
D17*
X132715000Y-251460000D03*
X139065000Y-248920000D03*
%TD*%
D15*
%TO.C,SW36*%
X346392500Y-196850000D03*
D16*
X341312500Y-196850000D03*
D15*
X336232500Y-196850000D03*
D17*
X337502500Y-194310000D03*
X343852500Y-191770000D03*
%TD*%
D15*
%TO.C,SW1*%
X107632500Y-158750000D03*
X117792500Y-158750000D03*
D16*
X112712500Y-158750000D03*
D17*
X108902500Y-156210000D03*
X115252500Y-153670000D03*
%TD*%
D15*
%TO.C,SW10*%
X293370000Y-158750000D03*
D16*
X298450000Y-158750000D03*
D15*
X303530000Y-158750000D03*
D17*
X294640000Y-156210000D03*
X300990000Y-153670000D03*
%TD*%
D19*
%TO.C,R1*%
X295275000Y-128746250D03*
D20*
X295275000Y-136366250D03*
%TD*%
D13*
%TO.C,D87*%
X262572500Y-173037500D03*
D14*
X254952500Y-173037500D03*
%TD*%
D19*
%TO.C,R6*%
X270827500Y-130968750D03*
D20*
X278447500Y-130968750D03*
%TD*%
D13*
%TO.C,D11*%
X144303750Y-175418750D03*
D14*
X136683750Y-175418750D03*
%TD*%
D15*
%TO.C,SW2*%
X141605000Y-158750000D03*
X131445000Y-158750000D03*
D16*
X136525000Y-158750000D03*
D17*
X132715000Y-156210000D03*
X139065000Y-153670000D03*
%TD*%
D13*
%TO.C,D29*%
X171291250Y-177800000D03*
D14*
X163671250Y-177800000D03*
%TD*%
D24*
%TO.C,SW123*%
X259481250Y-141950000D03*
X265981250Y-141950000D03*
X259481250Y-137450000D03*
X265981250Y-137450000D03*
%TD*%
D13*
%TO.C,D92*%
X370522500Y-180181250D03*
D14*
X362902500Y-180181250D03*
%TD*%
D15*
%TO.C,SW74*%
X331470000Y-234950000D03*
X341630000Y-234950000D03*
D16*
X336550000Y-234950000D03*
D17*
X332740000Y-232410000D03*
X339090000Y-229870000D03*
%TD*%
D13*
%TO.C,D33*%
X171291250Y-173037500D03*
D14*
X163671250Y-173037500D03*
%TD*%
D13*
%TO.C,D81*%
X262572500Y-180181250D03*
D14*
X254952500Y-180181250D03*
%TD*%
D13*
%TO.C,D46*%
X198278750Y-180181250D03*
D14*
X190658750Y-180181250D03*
%TD*%
D16*
%TO.C,SW62*%
X377031250Y-225425000D03*
D15*
X377031250Y-220345000D03*
X377031250Y-230505000D03*
D17*
X379571250Y-221615000D03*
X382111250Y-227965000D03*
%TD*%
D15*
%TO.C,SW28*%
X183832500Y-196850000D03*
D16*
X188912500Y-196850000D03*
D15*
X193992500Y-196850000D03*
D17*
X185102500Y-194310000D03*
X191452500Y-191770000D03*
%TD*%
D18*
%TO.C,MH2*%
X470693750Y-130968750D03*
%TD*%
D13*
%TO.C,D97*%
X266858750Y-182562500D03*
D14*
X274478750Y-182562500D03*
%TD*%
D15*
%TO.C,SW115*%
X122555000Y-273050000D03*
X112395000Y-273050000D03*
D16*
X117475000Y-273050000D03*
D17*
X113665000Y-270510000D03*
X120015000Y-267970000D03*
%TD*%
D15*
%TO.C,SW12*%
X331470000Y-158750000D03*
D16*
X336550000Y-158750000D03*
D15*
X341630000Y-158750000D03*
D17*
X332740000Y-156210000D03*
X339090000Y-153670000D03*
%TD*%
D15*
%TO.C,SW104*%
X157638750Y-273050000D03*
X167798750Y-273050000D03*
D16*
X162718750Y-273050000D03*
D17*
X158908750Y-270510000D03*
X165258750Y-267970000D03*
%TD*%
D19*
%TO.C,F1*%
X277187500Y-139012500D03*
X272087500Y-137212500D03*
%TD*%
D27*
%TO.C,C2*%
X299125000Y-141287500D03*
X304125000Y-141287500D03*
%TD*%
D13*
%TO.C,D17*%
X293846250Y-182562500D03*
D14*
X301466250Y-182562500D03*
%TD*%
D21*
%TO.C,REF\u002A\u002A*%
X112680750Y-245745000D03*
D22*
X112680750Y-260985000D03*
X136556750Y-260985000D03*
D21*
X136556750Y-245745000D03*
%TD*%
D15*
%TO.C,SW43*%
X112395000Y-215900000D03*
D16*
X117475000Y-215900000D03*
D15*
X122555000Y-215900000D03*
D17*
X113665000Y-213360000D03*
X120015000Y-210820000D03*
%TD*%
D15*
%TO.C,SW101*%
X465137500Y-268605000D03*
X465137500Y-258445000D03*
D16*
X465137500Y-263525000D03*
D17*
X462597500Y-267335000D03*
X460057500Y-260985000D03*
%TD*%
D13*
%TO.C,D98*%
X266858750Y-180181250D03*
D14*
X274478750Y-180181250D03*
%TD*%
D13*
%TO.C,D15*%
X293846250Y-177800000D03*
D14*
X301466250Y-177800000D03*
%TD*%
D16*
%TO.C,SW44*%
X141287500Y-215900000D03*
D15*
X136207500Y-215900000D03*
X146367500Y-215900000D03*
D17*
X137477500Y-213360000D03*
X143827500Y-210820000D03*
%TD*%
D15*
%TO.C,SW24*%
X107632500Y-196850000D03*
X117792500Y-196850000D03*
D16*
X112712500Y-196850000D03*
D17*
X108902500Y-194310000D03*
X115252500Y-191770000D03*
%TD*%
D16*
%TO.C,SW117*%
X165100000Y-273050000D03*
D15*
X160020000Y-273050000D03*
X170180000Y-273050000D03*
D17*
X161290000Y-270510000D03*
X167640000Y-267970000D03*
%TD*%
D18*
%TO.C,MH2*%
X384968750Y-130968750D03*
%TD*%
%TO.C,MH2*%
X384968750Y-142875000D03*
%TD*%
D13*
%TO.C,D54*%
X198278750Y-170656250D03*
D14*
X190658750Y-170656250D03*
%TD*%
D15*
%TO.C,SW89*%
X245745000Y-254000000D03*
X255905000Y-254000000D03*
D16*
X250825000Y-254000000D03*
D17*
X247015000Y-251460000D03*
X253365000Y-248920000D03*
%TD*%
D16*
%TO.C,SW67*%
X203200000Y-234950000D03*
D15*
X208280000Y-234950000D03*
X198120000Y-234950000D03*
D17*
X199390000Y-232410000D03*
X205740000Y-229870000D03*
%TD*%
D21*
%TO.C,REF\u002A\u002A*%
X368776250Y-237363000D03*
D22*
X384016250Y-237363000D03*
X384016250Y-213487000D03*
D21*
X368776250Y-213487000D03*
%TD*%
D22*
%TO.C,REF\u002A\u002A*%
X169862500Y-280035000D03*
D21*
X169862500Y-264795000D03*
X284162500Y-264795000D03*
D22*
X284162500Y-280035000D03*
%TD*%
D16*
%TO.C,SW17*%
X446087500Y-158750000D03*
D15*
X451167500Y-158750000D03*
X441007500Y-158750000D03*
D17*
X442277500Y-156210000D03*
X448627500Y-153670000D03*
%TD*%
D13*
%TO.C,D51*%
X175577500Y-175418750D03*
D14*
X183197500Y-175418750D03*
%TD*%
D15*
%TO.C,SW26*%
X145732500Y-196850000D03*
D16*
X150812500Y-196850000D03*
D15*
X155892500Y-196850000D03*
D17*
X147002500Y-194310000D03*
X153352500Y-191770000D03*
%TD*%
D13*
%TO.C,D68*%
X225266250Y-175418750D03*
D14*
X217646250Y-175418750D03*
%TD*%
D16*
%TO.C,SW56*%
X374650000Y-215900000D03*
D15*
X369570000Y-215900000D03*
X379730000Y-215900000D03*
D17*
X370840000Y-213360000D03*
X377190000Y-210820000D03*
%TD*%
D13*
%TO.C,D99*%
X266858750Y-173037500D03*
D14*
X274478750Y-173037500D03*
%TD*%
D13*
%TO.C,D90*%
X229552500Y-170656250D03*
D14*
X237172500Y-170656250D03*
%TD*%
D18*
%TO.C,MH2*%
X455612500Y-177800000D03*
%TD*%
D13*
%TO.C,D94*%
X370522500Y-184943750D03*
D14*
X362902500Y-184943750D03*
%TD*%
D15*
%TO.C,SW90*%
X264795000Y-254000000D03*
D16*
X269875000Y-254000000D03*
D15*
X274955000Y-254000000D03*
D17*
X266065000Y-251460000D03*
X272415000Y-248920000D03*
%TD*%
D15*
%TO.C,SW63*%
X124936250Y-234950000D03*
X114776250Y-234950000D03*
D16*
X119856250Y-234950000D03*
D17*
X116046250Y-232410000D03*
X122396250Y-229870000D03*
%TD*%
D13*
%TO.C,D19*%
X316547500Y-177800000D03*
D14*
X308927500Y-177800000D03*
%TD*%
D16*
%TO.C,SW19*%
X407987500Y-177800000D03*
D15*
X413067500Y-177800000D03*
X402907500Y-177800000D03*
D17*
X404177500Y-175260000D03*
X410527500Y-172720000D03*
%TD*%
D13*
%TO.C,D95*%
X266858750Y-184943750D03*
D14*
X274478750Y-184943750D03*
%TD*%
D15*
%TO.C,SW50*%
X260667500Y-215900000D03*
D16*
X255587500Y-215900000D03*
D15*
X250507500Y-215900000D03*
D17*
X251777500Y-213360000D03*
X258127500Y-210820000D03*
%TD*%
D18*
%TO.C,MH2*%
X436562500Y-254000000D03*
%TD*%
D13*
%TO.C,D69*%
X202565000Y-175418750D03*
D14*
X210185000Y-175418750D03*
%TD*%
D13*
%TO.C,D23*%
X171291250Y-184943750D03*
D14*
X163671250Y-184943750D03*
%TD*%
D15*
%TO.C,SW25*%
X136842500Y-196850000D03*
D16*
X131762500Y-196850000D03*
D15*
X126682500Y-196850000D03*
D17*
X127952500Y-194310000D03*
X134302500Y-191770000D03*
%TD*%
D16*
%TO.C,SW57*%
X407987500Y-215900000D03*
D15*
X402907500Y-215900000D03*
X413067500Y-215900000D03*
D17*
X404177500Y-213360000D03*
X410527500Y-210820000D03*
%TD*%
D13*
%TO.C,D16*%
X293846250Y-180181250D03*
D14*
X301466250Y-180181250D03*
%TD*%
D13*
%TO.C,D35*%
X171291250Y-170656250D03*
D14*
X163671250Y-170656250D03*
%TD*%
D13*
%TO.C,D64*%
X225266250Y-180181250D03*
D14*
X217646250Y-180181250D03*
%TD*%
D13*
%TO.C,D66*%
X225266250Y-177800000D03*
D14*
X217646250Y-177800000D03*
%TD*%
D13*
%TO.C,D105*%
X289560000Y-175418750D03*
D14*
X281940000Y-175418750D03*
%TD*%
D15*
%TO.C,SW75*%
X372586250Y-234950000D03*
D16*
X367506250Y-234950000D03*
D15*
X362426250Y-234950000D03*
D17*
X363696250Y-232410000D03*
X370046250Y-229870000D03*
%TD*%
D15*
%TO.C,SW100*%
X120173750Y-254000000D03*
D16*
X115093750Y-254000000D03*
D15*
X110013750Y-254000000D03*
D17*
X111283750Y-251460000D03*
X117633750Y-248920000D03*
%TD*%
D13*
%TO.C,D49*%
X175577500Y-173037500D03*
D14*
X183197500Y-173037500D03*
%TD*%
D13*
%TO.C,D43*%
X175577500Y-184943750D03*
D14*
X183197500Y-184943750D03*
%TD*%
D13*
%TO.C,D58*%
X343535000Y-182562500D03*
D14*
X335915000Y-182562500D03*
%TD*%
D28*
%TO.C,D108*%
X291941250Y-141287500D03*
D29*
X284321250Y-141287500D03*
%TD*%
D18*
%TO.C,MH2*%
X192881250Y-142875000D03*
%TD*%
D21*
%TO.C,REF\u002A\u002A*%
X381825500Y-205105000D03*
D22*
X381825500Y-189865000D03*
X357949500Y-189865000D03*
D21*
X357949500Y-205105000D03*
%TD*%
D13*
%TO.C,D7*%
X144303750Y-180181250D03*
D14*
X136683750Y-180181250D03*
%TD*%
D13*
%TO.C,D45*%
X175577500Y-182562500D03*
D14*
X183197500Y-182562500D03*
%TD*%
D13*
%TO.C,D42*%
X198278750Y-182562500D03*
D14*
X190658750Y-182562500D03*
%TD*%
D21*
%TO.C,REF\u002A\u002A*%
X355568250Y-226695000D03*
D22*
X355568250Y-241935000D03*
X379444250Y-241935000D03*
D21*
X379444250Y-226695000D03*
%TD*%
D13*
%TO.C,D38*%
X320833750Y-184943750D03*
D14*
X328453750Y-184943750D03*
%TD*%
D13*
%TO.C,D59*%
X343535000Y-184943750D03*
D14*
X335915000Y-184943750D03*
%TD*%
D16*
%TO.C,SW118*%
X227012500Y-273050000D03*
D15*
X232092500Y-273050000D03*
X221932500Y-273050000D03*
D17*
X223202500Y-270510000D03*
X229552500Y-267970000D03*
%TD*%
D13*
%TO.C,D55*%
X175577500Y-180181250D03*
D14*
X183197500Y-180181250D03*
%TD*%
D16*
%TO.C,SW16*%
X427037500Y-158750000D03*
D15*
X421957500Y-158750000D03*
X432117500Y-158750000D03*
D17*
X423227500Y-156210000D03*
X429577500Y-153670000D03*
%TD*%
D15*
%TO.C,SW4*%
X169545000Y-158750000D03*
X179705000Y-158750000D03*
D16*
X174625000Y-158750000D03*
D17*
X170815000Y-156210000D03*
X177165000Y-153670000D03*
%TD*%
D15*
%TO.C,SW91*%
X294005000Y-254000000D03*
X283845000Y-254000000D03*
D16*
X288925000Y-254000000D03*
D17*
X285115000Y-251460000D03*
X291465000Y-248920000D03*
%TD*%
D18*
%TO.C,MH2*%
X336550000Y-254000000D03*
%TD*%
D16*
%TO.C,SW65*%
X165100000Y-234950000D03*
D15*
X170180000Y-234950000D03*
X160020000Y-234950000D03*
D17*
X161290000Y-232410000D03*
X167640000Y-229870000D03*
%TD*%
D18*
%TO.C,MH2*%
X246062500Y-172243750D03*
%TD*%
D13*
%TO.C,D10*%
X121602500Y-180181250D03*
D14*
X129222500Y-180181250D03*
%TD*%
D18*
%TO.C,MH2*%
X129381250Y-215900000D03*
%TD*%
D13*
%TO.C,D101*%
X266858750Y-175418750D03*
D14*
X274478750Y-175418750D03*
%TD*%
D16*
%TO.C,SW112*%
X427037500Y-273050000D03*
D15*
X432117500Y-273050000D03*
X421957500Y-273050000D03*
D17*
X423227500Y-270510000D03*
X429577500Y-267970000D03*
%TD*%
D16*
%TO.C,SW46*%
X179387500Y-215900000D03*
D15*
X184467500Y-215900000D03*
X174307500Y-215900000D03*
D17*
X175577500Y-213360000D03*
X181927500Y-210820000D03*
%TD*%
D16*
%TO.C,SW114*%
X465137500Y-273050000D03*
D15*
X460057500Y-273050000D03*
X470217500Y-273050000D03*
D17*
X461327500Y-270510000D03*
X467677500Y-267970000D03*
%TD*%
D15*
%TO.C,SW72*%
X303530000Y-234950000D03*
X293370000Y-234950000D03*
D16*
X298450000Y-234950000D03*
D17*
X294640000Y-232410000D03*
X300990000Y-229870000D03*
%TD*%
D13*
%TO.C,D52*%
X198278750Y-173037500D03*
D14*
X190658750Y-173037500D03*
%TD*%
D15*
%TO.C,SW9*%
X279717500Y-158750000D03*
X269557500Y-158750000D03*
D16*
X274637500Y-158750000D03*
D17*
X270827500Y-156210000D03*
X277177500Y-153670000D03*
%TD*%
D13*
%TO.C,D20*%
X316547500Y-180181250D03*
D14*
X308927500Y-180181250D03*
%TD*%
D13*
%TO.C,D53*%
X175577500Y-177800000D03*
D14*
X183197500Y-177800000D03*
%TD*%
D13*
%TO.C,D106*%
X266858750Y-170656250D03*
D14*
X274478750Y-170656250D03*
%TD*%
D13*
%TO.C,D34*%
X148590000Y-180181250D03*
D14*
X156210000Y-180181250D03*
%TD*%
D27*
%TO.C,C5*%
X373062500Y-133687500D03*
X373062500Y-136187500D03*
%TD*%
D13*
%TO.C,D60*%
X225266250Y-184943750D03*
D14*
X217646250Y-184943750D03*
%TD*%
D13*
%TO.C,D18*%
X293846250Y-184943750D03*
D14*
X301466250Y-184943750D03*
%TD*%
D15*
%TO.C,SW23*%
X365442500Y-196850000D03*
X355282500Y-196850000D03*
D16*
X360362500Y-196850000D03*
D17*
X356552500Y-194310000D03*
X362902500Y-191770000D03*
%TD*%
D13*
%TO.C,D76*%
X347821250Y-177800000D03*
D14*
X355441250Y-177800000D03*
%TD*%
D13*
%TO.C,D24*%
X148590000Y-184943750D03*
D14*
X156210000Y-184943750D03*
%TD*%
D33*
%TO.C,C1*%
X295275000Y-143668750D03*
X296775000Y-143668750D03*
%TD*%
D13*
%TO.C,D41*%
X320833750Y-177800000D03*
D14*
X328453750Y-177800000D03*
%TD*%
D13*
%TO.C,D39*%
X320833750Y-182562500D03*
D14*
X328453750Y-182562500D03*
%TD*%
D15*
%TO.C,SW109*%
X370205000Y-277812500D03*
D16*
X365125000Y-277812500D03*
D15*
X360045000Y-277812500D03*
D17*
X361315000Y-275272500D03*
X367665000Y-272732500D03*
%TD*%
D13*
%TO.C,D44*%
X198278750Y-184943750D03*
D14*
X190658750Y-184943750D03*
%TD*%
D19*
%TO.C,R2*%
X270827500Y-134143750D03*
D20*
X278447500Y-134143750D03*
%TD*%
D16*
%TO.C,SW55*%
X350837500Y-215900000D03*
D15*
X355917500Y-215900000D03*
X345757500Y-215900000D03*
D17*
X347027500Y-213360000D03*
X353377500Y-210820000D03*
%TD*%
D18*
%TO.C,MH2*%
X107156250Y-142875000D03*
%TD*%
D13*
%TO.C,D2*%
X121602500Y-170656250D03*
D14*
X129222500Y-170656250D03*
%TD*%
D13*
%TO.C,D85*%
X262572500Y-175418750D03*
D14*
X254952500Y-175418750D03*
%TD*%
D15*
%TO.C,SW96*%
X413067500Y-254000000D03*
X402907500Y-254000000D03*
D16*
X407987500Y-254000000D03*
D17*
X404177500Y-251460000D03*
X410527500Y-248920000D03*
%TD*%
D16*
%TO.C,SW29*%
X207962500Y-196850000D03*
D15*
X213042500Y-196850000D03*
X202882500Y-196850000D03*
D17*
X204152500Y-194310000D03*
X210502500Y-191770000D03*
%TD*%
D13*
%TO.C,D89*%
X262572500Y-170656250D03*
D14*
X254952500Y-170656250D03*
%TD*%
D15*
%TO.C,SW99*%
X460057500Y-254000000D03*
X470217500Y-254000000D03*
D16*
X465137500Y-254000000D03*
D17*
X461327500Y-251460000D03*
X467677500Y-248920000D03*
%TD*%
D13*
%TO.C,D37*%
X202565000Y-170656250D03*
D14*
X210185000Y-170656250D03*
%TD*%
D13*
%TO.C,D61*%
X202565000Y-180181250D03*
D14*
X210185000Y-180181250D03*
%TD*%
D15*
%TO.C,SW84*%
X160655000Y-254000000D03*
D16*
X155575000Y-254000000D03*
D15*
X150495000Y-254000000D03*
D17*
X151765000Y-251460000D03*
X158115000Y-248920000D03*
%TD*%
D13*
%TO.C,D13*%
X144303750Y-173037500D03*
D14*
X136683750Y-173037500D03*
%TD*%
D13*
%TO.C,D67*%
X202565000Y-173037500D03*
D14*
X210185000Y-173037500D03*
%TD*%
M02*
