M48
; DRILL file {KiCad (6.0.0)} date Tue Mar 15 20:55:24 2022
; FORMAT={-:-/ absolute / metric / decimal}
; #@! TF.CreationDate,2022-03-15T20:55:24+01:00
; #@! TF.GenerationSoftware,Kicad,Pcbnew,(6.0.0)
; #@! TF.FileFunction,NonPlated,1,2,NPTH
FMAT,2
METRIC
; #@! TA.AperFunction,NonPlated,NPTH,ComponentDrill
T1C1.750
; #@! TA.AperFunction,NonPlated,NPTH,ComponentDrill
T2C3.048
; #@! TA.AperFunction,NonPlated,NPTH,ComponentDrill
T3C3.988
%
G90
G05
T1
X107.632Y-158.75
X107.632Y-196.85
X110.014Y-234.95
X110.014Y-254.0
X110.014Y-273.05
X112.395Y-215.9
X112.395Y-273.05
X114.776Y-234.95
X117.792Y-158.75
X117.792Y-196.85
X119.539Y-254.0
X120.174Y-234.95
X120.174Y-254.0
X120.174Y-273.05
X122.555Y-215.9
X122.555Y-273.05
X124.936Y-234.95
X126.682Y-196.85
X129.699Y-254.0
X131.445Y-158.75
X131.445Y-254.0
X133.826Y-273.05
X136.207Y-215.9
X136.207Y-273.05
X136.843Y-196.85
X140.97Y-234.95
X140.97Y-273.05
X141.605Y-158.75
X141.605Y-254.0
X143.986Y-273.05
X145.732Y-196.85
X146.368Y-215.9
X146.368Y-273.05
X150.495Y-158.75
X150.495Y-254.0
X151.13Y-234.95
X151.13Y-273.05
X155.257Y-215.9
X155.892Y-196.85
X157.639Y-273.05
X160.02Y-234.95
X160.02Y-273.05
X160.655Y-158.75
X160.655Y-254.0
X164.782Y-196.85
X165.417Y-215.9
X167.799Y-273.05
X169.545Y-158.75
X169.545Y-254.0
X170.18Y-234.95
X170.18Y-273.05
X174.308Y-215.9
X174.942Y-196.85
X179.07Y-234.95
X179.705Y-158.75
X179.705Y-254.0
X183.832Y-196.85
X184.468Y-215.9
X188.595Y-158.75
X188.595Y-254.0
X189.23Y-234.95
X193.357Y-215.9
X193.992Y-196.85
X198.12Y-234.95
X198.755Y-158.75
X198.755Y-254.0
X202.882Y-196.85
X203.517Y-215.9
X207.645Y-254.0
X208.28Y-234.95
X212.407Y-158.75
X212.407Y-215.9
X213.042Y-196.85
X217.17Y-234.95
X217.805Y-254.0
X221.932Y-196.85
X221.932Y-273.05
X222.567Y-158.75
X222.567Y-215.9
X226.695Y-254.0
X227.33Y-234.95
X229.076Y-273.05
X231.457Y-158.75
X231.457Y-215.9
X231.457Y-273.05
X232.093Y-196.85
X232.093Y-273.05
X236.22Y-234.95
X236.855Y-254.0
X239.236Y-273.05
X240.982Y-196.85
X241.617Y-158.75
X241.617Y-215.9
X241.617Y-273.05
X245.745Y-254.0
X246.38Y-234.95
X250.507Y-158.75
X250.507Y-215.9
X251.142Y-196.85
X255.27Y-234.95
X255.905Y-254.0
X260.032Y-196.85
X260.667Y-158.75
X260.667Y-215.9
X264.795Y-254.0
X265.43Y-234.95
X269.558Y-158.75
X269.558Y-215.9
X270.192Y-196.85
X274.32Y-234.95
X274.955Y-254.0
X279.082Y-196.85
X279.717Y-158.75
X279.717Y-215.9
X283.845Y-254.0
X284.48Y-234.95
X288.607Y-215.9
X289.243Y-196.85
X293.37Y-158.75
X293.37Y-234.95
X294.005Y-254.0
X298.132Y-196.85
X298.132Y-273.05
X298.767Y-215.9
X302.895Y-254.0
X302.895Y-273.05
X303.53Y-158.75
X303.53Y-234.95
X307.657Y-215.9
X308.292Y-196.85
X308.292Y-273.05
X312.42Y-158.75
X312.42Y-234.95
X313.055Y-254.0
X313.055Y-273.05
X317.183Y-196.85
X317.183Y-273.05
X317.817Y-215.9
X321.945Y-254.0
X322.58Y-158.75
X322.58Y-234.95
X326.707Y-215.9
X327.342Y-196.85
X327.342Y-273.05
X331.47Y-158.75
X331.47Y-234.95
X331.47Y-273.05
X332.105Y-254.0
X336.232Y-196.85
X336.232Y-273.05
X336.868Y-215.9
X341.63Y-158.75
X341.63Y-234.95
X341.63Y-273.05
X345.757Y-215.9
X346.392Y-196.85
X346.392Y-273.05
X348.139Y-254.0
X350.52Y-158.75
X350.52Y-234.95
X355.282Y-196.85
X355.917Y-215.9
X358.299Y-254.0
X360.045Y-277.812
X360.68Y-158.75
X360.68Y-234.95
X362.426Y-234.95
X364.808Y-196.85
X365.442Y-196.85
X369.57Y-215.9
X370.205Y-277.812
X371.951Y-225.425
X372.586Y-234.95
X374.332Y-158.75
X374.332Y-196.85
X374.967Y-196.85
X379.095Y-258.762
X379.095Y-277.812
X379.73Y-215.9
X382.111Y-225.425
X384.493Y-158.75
X384.493Y-196.85
X389.255Y-258.762
X389.255Y-277.812
X398.145Y-277.812
X402.907Y-158.75
X402.907Y-177.8
X402.907Y-196.85
X402.907Y-215.9
X402.907Y-234.95
X402.907Y-254.0
X408.305Y-277.812
X413.067Y-158.75
X413.067Y-177.8
X413.067Y-196.85
X413.067Y-215.9
X413.067Y-234.95
X413.067Y-254.0
X421.957Y-158.75
X421.957Y-177.8
X421.957Y-196.85
X421.957Y-215.9
X421.957Y-234.95
X421.957Y-254.0
X421.957Y-273.05
X432.118Y-158.75
X432.118Y-177.8
X432.118Y-196.85
X432.118Y-215.9
X432.118Y-234.95
X432.118Y-254.0
X432.118Y-273.05
X441.007Y-158.75
X441.007Y-177.8
X441.007Y-196.85
X441.007Y-215.9
X441.007Y-234.95
X441.007Y-254.0
X441.007Y-273.05
X451.167Y-158.75
X451.167Y-177.8
X451.167Y-196.85
X451.167Y-215.9
X451.167Y-234.95
X451.167Y-254.0
X451.167Y-273.05
X460.058Y-158.75
X460.058Y-177.8
X460.058Y-196.85
X460.058Y-215.9
X460.058Y-225.425
X460.058Y-234.95
X460.058Y-254.0
X460.058Y-263.525
X460.058Y-273.05
X470.217Y-158.75
X470.217Y-177.8
X470.217Y-196.85
X470.217Y-215.9
X470.217Y-225.425
X470.217Y-234.95
X470.217Y-254.0
X470.217Y-263.525
X470.217Y-273.05
T2
X112.712Y-260.985
X136.525Y-260.985
X169.862Y-280.035
X184.156Y-280.035
X188.912Y-280.035
X284.156Y-280.035
X284.162Y-280.035
X284.162Y-280.035
X355.6Y-241.935
X357.981Y-189.865
X379.412Y-241.935
X381.794Y-189.865
X384.016Y-213.487
X384.016Y-237.363
X472.123Y-213.487
X472.123Y-237.363
X472.123Y-251.587
X472.123Y-275.463
T3
X112.712Y-158.75
X112.712Y-196.85
X112.712Y-245.745
X115.094Y-234.95
X115.094Y-254.0
X115.094Y-273.05
X117.475Y-215.9
X117.475Y-273.05
X119.856Y-234.95
X124.619Y-254.0
X131.762Y-196.85
X136.525Y-158.75
X136.525Y-245.745
X136.525Y-254.0
X138.906Y-273.05
X141.287Y-215.9
X141.287Y-273.05
X146.05Y-234.95
X146.05Y-273.05
X150.812Y-196.85
X155.575Y-158.75
X155.575Y-254.0
X160.338Y-215.9
X162.719Y-273.05
X165.1Y-234.95
X165.1Y-273.05
X169.862Y-196.85
X169.862Y-264.795
X174.625Y-158.75
X174.625Y-254.0
X179.387Y-215.9
X184.15Y-234.95
X184.156Y-264.795
X188.912Y-196.85
X188.912Y-264.795
X193.675Y-158.75
X193.675Y-254.0
X198.438Y-215.9
X203.2Y-234.95
X207.962Y-196.85
X212.725Y-254.0
X217.487Y-158.75
X217.487Y-215.9
X222.25Y-234.95
X227.012Y-196.85
X227.012Y-273.05
X231.775Y-254.0
X234.156Y-273.05
X236.537Y-158.75
X236.537Y-215.9
X236.537Y-273.05
X241.3Y-234.95
X246.062Y-196.85
X250.825Y-254.0
X255.587Y-158.75
X255.587Y-215.9
X260.35Y-234.95
X265.113Y-196.85
X269.875Y-254.0
X274.637Y-158.75
X274.637Y-215.9
X279.4Y-234.95
X284.156Y-264.795
X284.162Y-196.85
X284.162Y-264.795
X284.162Y-264.795
X288.925Y-254.0
X293.688Y-215.9
X298.45Y-158.75
X298.45Y-234.95
X303.212Y-196.85
X303.212Y-273.05
X307.975Y-254.0
X307.975Y-273.05
X312.738Y-215.9
X317.5Y-158.75
X317.5Y-234.95
X322.262Y-196.85
X322.262Y-273.05
X327.025Y-254.0
X331.787Y-215.9
X336.55Y-158.75
X336.55Y-234.95
X336.55Y-273.05
X341.312Y-196.85
X341.312Y-273.05
X350.837Y-215.9
X353.219Y-254.0
X355.6Y-158.75
X355.6Y-226.695
X355.6Y-234.95
X357.981Y-205.105
X360.363Y-196.85
X365.125Y-277.812
X367.506Y-234.95
X368.776Y-213.487
X368.776Y-237.363
X369.887Y-196.85
X374.65Y-215.9
X377.031Y-225.425
X379.412Y-158.75
X379.412Y-196.85
X379.412Y-226.695
X381.794Y-205.105
X384.175Y-258.762
X384.175Y-277.812
X403.225Y-277.812
X407.987Y-158.75
X407.987Y-177.8
X407.987Y-196.85
X407.987Y-215.9
X407.987Y-234.95
X407.987Y-254.0
X427.037Y-158.75
X427.037Y-177.8
X427.037Y-196.85
X427.037Y-215.9
X427.037Y-234.95
X427.037Y-254.0
X427.037Y-273.05
X446.087Y-158.75
X446.087Y-177.8
X446.087Y-196.85
X446.087Y-215.9
X446.087Y-234.95
X446.087Y-254.0
X446.087Y-273.05
X456.882Y-213.487
X456.882Y-237.363
X456.882Y-251.587
X456.882Y-275.463
X465.137Y-158.75
X465.137Y-177.8
X465.137Y-196.85
X465.137Y-215.9
X465.137Y-225.425
X465.137Y-234.95
X465.137Y-254.0
X465.137Y-263.525
X465.137Y-273.05
T0
M30
