%TF.GenerationSoftware,KiCad,Pcbnew,(6.0.0)*%
%TF.CreationDate,2022-03-15T20:57:22+01:00*%
%TF.ProjectId,pcb,7063622e-6b69-4636-9164-5f7063625858,rev?*%
%TF.SameCoordinates,Original*%
%TF.FileFunction,Legend,Top*%
%TF.FilePolarity,Positive*%
%FSLAX46Y46*%
G04 Gerber Fmt 4.6, Leading zero omitted, Abs format (unit mm)*
G04 Created by KiCad (PCBNEW (6.0.0)) date 2022-03-15 20:57:22*
%MOMM*%
%LPD*%
G01*
G04 APERTURE LIST*
%ADD10C,0.120000*%
%ADD11C,0.150000*%
G04 APERTURE END LIST*
D10*
%TO.C,D104*%
X284097619Y-182924404D02*
X284097619Y-182124404D01*
X284288095Y-182124404D01*
X284402380Y-182162500D01*
X284478571Y-182238690D01*
X284516666Y-182314880D01*
X284554761Y-182467261D01*
X284554761Y-182581547D01*
X284516666Y-182733928D01*
X284478571Y-182810119D01*
X284402380Y-182886309D01*
X284288095Y-182924404D01*
X284097619Y-182924404D01*
X285316666Y-182924404D02*
X284859523Y-182924404D01*
X285088095Y-182924404D02*
X285088095Y-182124404D01*
X285011904Y-182238690D01*
X284935714Y-182314880D01*
X284859523Y-182352976D01*
X285811904Y-182124404D02*
X285888095Y-182124404D01*
X285964285Y-182162500D01*
X286002380Y-182200595D01*
X286040476Y-182276785D01*
X286078571Y-182429166D01*
X286078571Y-182619642D01*
X286040476Y-182772023D01*
X286002380Y-182848214D01*
X285964285Y-182886309D01*
X285888095Y-182924404D01*
X285811904Y-182924404D01*
X285735714Y-182886309D01*
X285697619Y-182848214D01*
X285659523Y-182772023D01*
X285621428Y-182619642D01*
X285621428Y-182429166D01*
X285659523Y-182276785D01*
X285697619Y-182200595D01*
X285735714Y-182162500D01*
X285811904Y-182124404D01*
X286764285Y-182391071D02*
X286764285Y-182924404D01*
X286573809Y-182086309D02*
X286383333Y-182657738D01*
X286878571Y-182657738D01*
%TO.C,D14*%
X124741071Y-185305654D02*
X124741071Y-184505654D01*
X124931547Y-184505654D01*
X125045833Y-184543750D01*
X125122023Y-184619940D01*
X125160119Y-184696130D01*
X125198214Y-184848511D01*
X125198214Y-184962797D01*
X125160119Y-185115178D01*
X125122023Y-185191369D01*
X125045833Y-185267559D01*
X124931547Y-185305654D01*
X124741071Y-185305654D01*
X125960119Y-185305654D02*
X125502976Y-185305654D01*
X125731547Y-185305654D02*
X125731547Y-184505654D01*
X125655357Y-184619940D01*
X125579166Y-184696130D01*
X125502976Y-184734226D01*
X126645833Y-184772321D02*
X126645833Y-185305654D01*
X126455357Y-184467559D02*
X126264880Y-185038988D01*
X126760119Y-185038988D01*
%TO.C,D79*%
X257491071Y-182924404D02*
X257491071Y-182124404D01*
X257681547Y-182124404D01*
X257795833Y-182162500D01*
X257872023Y-182238690D01*
X257910119Y-182314880D01*
X257948214Y-182467261D01*
X257948214Y-182581547D01*
X257910119Y-182733928D01*
X257872023Y-182810119D01*
X257795833Y-182886309D01*
X257681547Y-182924404D01*
X257491071Y-182924404D01*
X258214880Y-182124404D02*
X258748214Y-182124404D01*
X258405357Y-182924404D01*
X259091071Y-182924404D02*
X259243452Y-182924404D01*
X259319642Y-182886309D01*
X259357738Y-182848214D01*
X259433928Y-182733928D01*
X259472023Y-182581547D01*
X259472023Y-182276785D01*
X259433928Y-182200595D01*
X259395833Y-182162500D01*
X259319642Y-182124404D01*
X259167261Y-182124404D01*
X259091071Y-182162500D01*
X259052976Y-182200595D01*
X259014880Y-182276785D01*
X259014880Y-182467261D01*
X259052976Y-182543452D01*
X259091071Y-182581547D01*
X259167261Y-182619642D01*
X259319642Y-182619642D01*
X259395833Y-182581547D01*
X259433928Y-182543452D01*
X259472023Y-182467261D01*
%TO.C,D75*%
X350959821Y-180543154D02*
X350959821Y-179743154D01*
X351150297Y-179743154D01*
X351264583Y-179781250D01*
X351340773Y-179857440D01*
X351378869Y-179933630D01*
X351416964Y-180086011D01*
X351416964Y-180200297D01*
X351378869Y-180352678D01*
X351340773Y-180428869D01*
X351264583Y-180505059D01*
X351150297Y-180543154D01*
X350959821Y-180543154D01*
X351683630Y-179743154D02*
X352216964Y-179743154D01*
X351874107Y-180543154D01*
X352902678Y-179743154D02*
X352521726Y-179743154D01*
X352483630Y-180124107D01*
X352521726Y-180086011D01*
X352597916Y-180047916D01*
X352788392Y-180047916D01*
X352864583Y-180086011D01*
X352902678Y-180124107D01*
X352940773Y-180200297D01*
X352940773Y-180390773D01*
X352902678Y-180466964D01*
X352864583Y-180505059D01*
X352788392Y-180543154D01*
X352597916Y-180543154D01*
X352521726Y-180505059D01*
X352483630Y-180466964D01*
%TO.C,D62*%
X220184821Y-182924404D02*
X220184821Y-182124404D01*
X220375297Y-182124404D01*
X220489583Y-182162500D01*
X220565773Y-182238690D01*
X220603869Y-182314880D01*
X220641964Y-182467261D01*
X220641964Y-182581547D01*
X220603869Y-182733928D01*
X220565773Y-182810119D01*
X220489583Y-182886309D01*
X220375297Y-182924404D01*
X220184821Y-182924404D01*
X221327678Y-182124404D02*
X221175297Y-182124404D01*
X221099107Y-182162500D01*
X221061011Y-182200595D01*
X220984821Y-182314880D01*
X220946726Y-182467261D01*
X220946726Y-182772023D01*
X220984821Y-182848214D01*
X221022916Y-182886309D01*
X221099107Y-182924404D01*
X221251488Y-182924404D01*
X221327678Y-182886309D01*
X221365773Y-182848214D01*
X221403869Y-182772023D01*
X221403869Y-182581547D01*
X221365773Y-182505357D01*
X221327678Y-182467261D01*
X221251488Y-182429166D01*
X221099107Y-182429166D01*
X221022916Y-182467261D01*
X220984821Y-182505357D01*
X220946726Y-182581547D01*
X221708630Y-182200595D02*
X221746726Y-182162500D01*
X221822916Y-182124404D01*
X222013392Y-182124404D01*
X222089583Y-182162500D01*
X222127678Y-182200595D01*
X222165773Y-182276785D01*
X222165773Y-182352976D01*
X222127678Y-182467261D01*
X221670535Y-182924404D01*
X222165773Y-182924404D01*
%TO.C,D30*%
X151728571Y-175780654D02*
X151728571Y-174980654D01*
X151919047Y-174980654D01*
X152033333Y-175018750D01*
X152109523Y-175094940D01*
X152147619Y-175171130D01*
X152185714Y-175323511D01*
X152185714Y-175437797D01*
X152147619Y-175590178D01*
X152109523Y-175666369D01*
X152033333Y-175742559D01*
X151919047Y-175780654D01*
X151728571Y-175780654D01*
X152452380Y-174980654D02*
X152947619Y-174980654D01*
X152680952Y-175285416D01*
X152795238Y-175285416D01*
X152871428Y-175323511D01*
X152909523Y-175361607D01*
X152947619Y-175437797D01*
X152947619Y-175628273D01*
X152909523Y-175704464D01*
X152871428Y-175742559D01*
X152795238Y-175780654D01*
X152566666Y-175780654D01*
X152490476Y-175742559D01*
X152452380Y-175704464D01*
X153442857Y-174980654D02*
X153519047Y-174980654D01*
X153595238Y-175018750D01*
X153633333Y-175056845D01*
X153671428Y-175133035D01*
X153709523Y-175285416D01*
X153709523Y-175475892D01*
X153671428Y-175628273D01*
X153633333Y-175704464D01*
X153595238Y-175742559D01*
X153519047Y-175780654D01*
X153442857Y-175780654D01*
X153366666Y-175742559D01*
X153328571Y-175704464D01*
X153290476Y-175628273D01*
X153252380Y-175475892D01*
X153252380Y-175285416D01*
X153290476Y-175133035D01*
X153328571Y-175056845D01*
X153366666Y-175018750D01*
X153442857Y-174980654D01*
%TO.C,D22*%
X311466071Y-185305654D02*
X311466071Y-184505654D01*
X311656547Y-184505654D01*
X311770833Y-184543750D01*
X311847023Y-184619940D01*
X311885119Y-184696130D01*
X311923214Y-184848511D01*
X311923214Y-184962797D01*
X311885119Y-185115178D01*
X311847023Y-185191369D01*
X311770833Y-185267559D01*
X311656547Y-185305654D01*
X311466071Y-185305654D01*
X312227976Y-184581845D02*
X312266071Y-184543750D01*
X312342261Y-184505654D01*
X312532738Y-184505654D01*
X312608928Y-184543750D01*
X312647023Y-184581845D01*
X312685119Y-184658035D01*
X312685119Y-184734226D01*
X312647023Y-184848511D01*
X312189880Y-185305654D01*
X312685119Y-185305654D01*
X312989880Y-184581845D02*
X313027976Y-184543750D01*
X313104166Y-184505654D01*
X313294642Y-184505654D01*
X313370833Y-184543750D01*
X313408928Y-184581845D01*
X313447023Y-184658035D01*
X313447023Y-184734226D01*
X313408928Y-184848511D01*
X312951785Y-185305654D01*
X313447023Y-185305654D01*
%TO.C,D31*%
X166209821Y-175780654D02*
X166209821Y-174980654D01*
X166400297Y-174980654D01*
X166514583Y-175018750D01*
X166590773Y-175094940D01*
X166628869Y-175171130D01*
X166666964Y-175323511D01*
X166666964Y-175437797D01*
X166628869Y-175590178D01*
X166590773Y-175666369D01*
X166514583Y-175742559D01*
X166400297Y-175780654D01*
X166209821Y-175780654D01*
X166933630Y-174980654D02*
X167428869Y-174980654D01*
X167162202Y-175285416D01*
X167276488Y-175285416D01*
X167352678Y-175323511D01*
X167390773Y-175361607D01*
X167428869Y-175437797D01*
X167428869Y-175628273D01*
X167390773Y-175704464D01*
X167352678Y-175742559D01*
X167276488Y-175780654D01*
X167047916Y-175780654D01*
X166971726Y-175742559D01*
X166933630Y-175704464D01*
X168190773Y-175780654D02*
X167733630Y-175780654D01*
X167962202Y-175780654D02*
X167962202Y-174980654D01*
X167886011Y-175094940D01*
X167809821Y-175171130D01*
X167733630Y-175209226D01*
D11*
%TO.C,R5*%
X300815476Y-130421130D02*
X301482142Y-130421130D01*
X301053571Y-131421130D01*
X302339285Y-130421130D02*
X301863095Y-130421130D01*
X301815476Y-130897321D01*
X301863095Y-130849702D01*
X301958333Y-130802083D01*
X302196428Y-130802083D01*
X302291666Y-130849702D01*
X302339285Y-130897321D01*
X302386904Y-130992559D01*
X302386904Y-131230654D01*
X302339285Y-131325892D01*
X302291666Y-131373511D01*
X302196428Y-131421130D01*
X301958333Y-131421130D01*
X301863095Y-131373511D01*
X301815476Y-131325892D01*
D10*
%TO.C,D102*%
X284097619Y-180543154D02*
X284097619Y-179743154D01*
X284288095Y-179743154D01*
X284402380Y-179781250D01*
X284478571Y-179857440D01*
X284516666Y-179933630D01*
X284554761Y-180086011D01*
X284554761Y-180200297D01*
X284516666Y-180352678D01*
X284478571Y-180428869D01*
X284402380Y-180505059D01*
X284288095Y-180543154D01*
X284097619Y-180543154D01*
X285316666Y-180543154D02*
X284859523Y-180543154D01*
X285088095Y-180543154D02*
X285088095Y-179743154D01*
X285011904Y-179857440D01*
X284935714Y-179933630D01*
X284859523Y-179971726D01*
X285811904Y-179743154D02*
X285888095Y-179743154D01*
X285964285Y-179781250D01*
X286002380Y-179819345D01*
X286040476Y-179895535D01*
X286078571Y-180047916D01*
X286078571Y-180238392D01*
X286040476Y-180390773D01*
X286002380Y-180466964D01*
X285964285Y-180505059D01*
X285888095Y-180543154D01*
X285811904Y-180543154D01*
X285735714Y-180505059D01*
X285697619Y-180466964D01*
X285659523Y-180390773D01*
X285621428Y-180238392D01*
X285621428Y-180047916D01*
X285659523Y-179895535D01*
X285697619Y-179819345D01*
X285735714Y-179781250D01*
X285811904Y-179743154D01*
X286383333Y-179819345D02*
X286421428Y-179781250D01*
X286497619Y-179743154D01*
X286688095Y-179743154D01*
X286764285Y-179781250D01*
X286802380Y-179819345D01*
X286840476Y-179895535D01*
X286840476Y-179971726D01*
X286802380Y-180086011D01*
X286345238Y-180543154D01*
X286840476Y-180543154D01*
%TO.C,D72*%
X220184821Y-171018154D02*
X220184821Y-170218154D01*
X220375297Y-170218154D01*
X220489583Y-170256250D01*
X220565773Y-170332440D01*
X220603869Y-170408630D01*
X220641964Y-170561011D01*
X220641964Y-170675297D01*
X220603869Y-170827678D01*
X220565773Y-170903869D01*
X220489583Y-170980059D01*
X220375297Y-171018154D01*
X220184821Y-171018154D01*
X220908630Y-170218154D02*
X221441964Y-170218154D01*
X221099107Y-171018154D01*
X221708630Y-170294345D02*
X221746726Y-170256250D01*
X221822916Y-170218154D01*
X222013392Y-170218154D01*
X222089583Y-170256250D01*
X222127678Y-170294345D01*
X222165773Y-170370535D01*
X222165773Y-170446726D01*
X222127678Y-170561011D01*
X221670535Y-171018154D01*
X222165773Y-171018154D01*
%TO.C,D27*%
X166209821Y-180543154D02*
X166209821Y-179743154D01*
X166400297Y-179743154D01*
X166514583Y-179781250D01*
X166590773Y-179857440D01*
X166628869Y-179933630D01*
X166666964Y-180086011D01*
X166666964Y-180200297D01*
X166628869Y-180352678D01*
X166590773Y-180428869D01*
X166514583Y-180505059D01*
X166400297Y-180543154D01*
X166209821Y-180543154D01*
X166971726Y-179819345D02*
X167009821Y-179781250D01*
X167086011Y-179743154D01*
X167276488Y-179743154D01*
X167352678Y-179781250D01*
X167390773Y-179819345D01*
X167428869Y-179895535D01*
X167428869Y-179971726D01*
X167390773Y-180086011D01*
X166933630Y-180543154D01*
X167428869Y-180543154D01*
X167695535Y-179743154D02*
X168228869Y-179743154D01*
X167886011Y-180543154D01*
%TO.C,D1*%
X139603273Y-171018154D02*
X139603273Y-170218154D01*
X139793750Y-170218154D01*
X139908035Y-170256250D01*
X139984226Y-170332440D01*
X140022321Y-170408630D01*
X140060416Y-170561011D01*
X140060416Y-170675297D01*
X140022321Y-170827678D01*
X139984226Y-170903869D01*
X139908035Y-170980059D01*
X139793750Y-171018154D01*
X139603273Y-171018154D01*
X140822321Y-171018154D02*
X140365178Y-171018154D01*
X140593750Y-171018154D02*
X140593750Y-170218154D01*
X140517559Y-170332440D01*
X140441369Y-170408630D01*
X140365178Y-170446726D01*
%TO.C,D84*%
X232691071Y-185305654D02*
X232691071Y-184505654D01*
X232881547Y-184505654D01*
X232995833Y-184543750D01*
X233072023Y-184619940D01*
X233110119Y-184696130D01*
X233148214Y-184848511D01*
X233148214Y-184962797D01*
X233110119Y-185115178D01*
X233072023Y-185191369D01*
X232995833Y-185267559D01*
X232881547Y-185305654D01*
X232691071Y-185305654D01*
X233605357Y-184848511D02*
X233529166Y-184810416D01*
X233491071Y-184772321D01*
X233452976Y-184696130D01*
X233452976Y-184658035D01*
X233491071Y-184581845D01*
X233529166Y-184543750D01*
X233605357Y-184505654D01*
X233757738Y-184505654D01*
X233833928Y-184543750D01*
X233872023Y-184581845D01*
X233910119Y-184658035D01*
X233910119Y-184696130D01*
X233872023Y-184772321D01*
X233833928Y-184810416D01*
X233757738Y-184848511D01*
X233605357Y-184848511D01*
X233529166Y-184886607D01*
X233491071Y-184924702D01*
X233452976Y-185000892D01*
X233452976Y-185153273D01*
X233491071Y-185229464D01*
X233529166Y-185267559D01*
X233605357Y-185305654D01*
X233757738Y-185305654D01*
X233833928Y-185267559D01*
X233872023Y-185229464D01*
X233910119Y-185153273D01*
X233910119Y-185000892D01*
X233872023Y-184924702D01*
X233833928Y-184886607D01*
X233757738Y-184848511D01*
X234595833Y-184772321D02*
X234595833Y-185305654D01*
X234405357Y-184467559D02*
X234214880Y-185038988D01*
X234710119Y-185038988D01*
%TO.C,D107*%
X284097619Y-173399404D02*
X284097619Y-172599404D01*
X284288095Y-172599404D01*
X284402380Y-172637500D01*
X284478571Y-172713690D01*
X284516666Y-172789880D01*
X284554761Y-172942261D01*
X284554761Y-173056547D01*
X284516666Y-173208928D01*
X284478571Y-173285119D01*
X284402380Y-173361309D01*
X284288095Y-173399404D01*
X284097619Y-173399404D01*
X285316666Y-173399404D02*
X284859523Y-173399404D01*
X285088095Y-173399404D02*
X285088095Y-172599404D01*
X285011904Y-172713690D01*
X284935714Y-172789880D01*
X284859523Y-172827976D01*
X285811904Y-172599404D02*
X285888095Y-172599404D01*
X285964285Y-172637500D01*
X286002380Y-172675595D01*
X286040476Y-172751785D01*
X286078571Y-172904166D01*
X286078571Y-173094642D01*
X286040476Y-173247023D01*
X286002380Y-173323214D01*
X285964285Y-173361309D01*
X285888095Y-173399404D01*
X285811904Y-173399404D01*
X285735714Y-173361309D01*
X285697619Y-173323214D01*
X285659523Y-173247023D01*
X285621428Y-173094642D01*
X285621428Y-172904166D01*
X285659523Y-172751785D01*
X285697619Y-172675595D01*
X285735714Y-172637500D01*
X285811904Y-172599404D01*
X286345238Y-172599404D02*
X286878571Y-172599404D01*
X286535714Y-173399404D01*
%TO.C,D3*%
X139603273Y-185305654D02*
X139603273Y-184505654D01*
X139793750Y-184505654D01*
X139908035Y-184543750D01*
X139984226Y-184619940D01*
X140022321Y-184696130D01*
X140060416Y-184848511D01*
X140060416Y-184962797D01*
X140022321Y-185115178D01*
X139984226Y-185191369D01*
X139908035Y-185267559D01*
X139793750Y-185305654D01*
X139603273Y-185305654D01*
X140327083Y-184505654D02*
X140822321Y-184505654D01*
X140555654Y-184810416D01*
X140669940Y-184810416D01*
X140746130Y-184848511D01*
X140784226Y-184886607D01*
X140822321Y-184962797D01*
X140822321Y-185153273D01*
X140784226Y-185229464D01*
X140746130Y-185267559D01*
X140669940Y-185305654D01*
X140441369Y-185305654D01*
X140365178Y-185267559D01*
X140327083Y-185229464D01*
%TO.C,D32*%
X151728571Y-178161904D02*
X151728571Y-177361904D01*
X151919047Y-177361904D01*
X152033333Y-177400000D01*
X152109523Y-177476190D01*
X152147619Y-177552380D01*
X152185714Y-177704761D01*
X152185714Y-177819047D01*
X152147619Y-177971428D01*
X152109523Y-178047619D01*
X152033333Y-178123809D01*
X151919047Y-178161904D01*
X151728571Y-178161904D01*
X152452380Y-177361904D02*
X152947619Y-177361904D01*
X152680952Y-177666666D01*
X152795238Y-177666666D01*
X152871428Y-177704761D01*
X152909523Y-177742857D01*
X152947619Y-177819047D01*
X152947619Y-178009523D01*
X152909523Y-178085714D01*
X152871428Y-178123809D01*
X152795238Y-178161904D01*
X152566666Y-178161904D01*
X152490476Y-178123809D01*
X152452380Y-178085714D01*
X153252380Y-177438095D02*
X153290476Y-177400000D01*
X153366666Y-177361904D01*
X153557142Y-177361904D01*
X153633333Y-177400000D01*
X153671428Y-177438095D01*
X153709523Y-177514285D01*
X153709523Y-177590476D01*
X153671428Y-177704761D01*
X153214285Y-178161904D01*
X153709523Y-178161904D01*
D11*
%TO.C,R3*%
X280439880Y-133532440D02*
X280439880Y-134008630D01*
X280916071Y-134056250D01*
X280868452Y-134008630D01*
X280820833Y-133913392D01*
X280820833Y-133675297D01*
X280868452Y-133580059D01*
X280916071Y-133532440D01*
X281011309Y-133484821D01*
X281249404Y-133484821D01*
X281344642Y-133532440D01*
X281392261Y-133580059D01*
X281439880Y-133675297D01*
X281439880Y-133913392D01*
X281392261Y-134008630D01*
X281344642Y-134056250D01*
X281344642Y-133056250D02*
X281392261Y-133008630D01*
X281439880Y-133056250D01*
X281392261Y-133103869D01*
X281344642Y-133056250D01*
X281439880Y-133056250D01*
X281439880Y-132056250D02*
X281439880Y-132627678D01*
X281439880Y-132341964D02*
X280439880Y-132341964D01*
X280582738Y-132437202D01*
X280677976Y-132532440D01*
X280725595Y-132627678D01*
X281439880Y-131627678D02*
X280439880Y-131627678D01*
X281439880Y-131056250D02*
X280868452Y-131484821D01*
X280439880Y-131056250D02*
X281011309Y-131627678D01*
D10*
%TO.C,D57*%
X338453571Y-180543154D02*
X338453571Y-179743154D01*
X338644047Y-179743154D01*
X338758333Y-179781250D01*
X338834523Y-179857440D01*
X338872619Y-179933630D01*
X338910714Y-180086011D01*
X338910714Y-180200297D01*
X338872619Y-180352678D01*
X338834523Y-180428869D01*
X338758333Y-180505059D01*
X338644047Y-180543154D01*
X338453571Y-180543154D01*
X339634523Y-179743154D02*
X339253571Y-179743154D01*
X339215476Y-180124107D01*
X339253571Y-180086011D01*
X339329761Y-180047916D01*
X339520238Y-180047916D01*
X339596428Y-180086011D01*
X339634523Y-180124107D01*
X339672619Y-180200297D01*
X339672619Y-180390773D01*
X339634523Y-180466964D01*
X339596428Y-180505059D01*
X339520238Y-180543154D01*
X339329761Y-180543154D01*
X339253571Y-180505059D01*
X339215476Y-180466964D01*
X339939285Y-179743154D02*
X340472619Y-179743154D01*
X340129761Y-180543154D01*
%TO.C,D103*%
X269616369Y-178161904D02*
X269616369Y-177361904D01*
X269806845Y-177361904D01*
X269921130Y-177400000D01*
X269997321Y-177476190D01*
X270035416Y-177552380D01*
X270073511Y-177704761D01*
X270073511Y-177819047D01*
X270035416Y-177971428D01*
X269997321Y-178047619D01*
X269921130Y-178123809D01*
X269806845Y-178161904D01*
X269616369Y-178161904D01*
X270835416Y-178161904D02*
X270378273Y-178161904D01*
X270606845Y-178161904D02*
X270606845Y-177361904D01*
X270530654Y-177476190D01*
X270454464Y-177552380D01*
X270378273Y-177590476D01*
X271330654Y-177361904D02*
X271406845Y-177361904D01*
X271483035Y-177400000D01*
X271521130Y-177438095D01*
X271559226Y-177514285D01*
X271597321Y-177666666D01*
X271597321Y-177857142D01*
X271559226Y-178009523D01*
X271521130Y-178085714D01*
X271483035Y-178123809D01*
X271406845Y-178161904D01*
X271330654Y-178161904D01*
X271254464Y-178123809D01*
X271216369Y-178085714D01*
X271178273Y-178009523D01*
X271140178Y-177857142D01*
X271140178Y-177666666D01*
X271178273Y-177514285D01*
X271216369Y-177438095D01*
X271254464Y-177400000D01*
X271330654Y-177361904D01*
X271863988Y-177361904D02*
X272359226Y-177361904D01*
X272092559Y-177666666D01*
X272206845Y-177666666D01*
X272283035Y-177704761D01*
X272321130Y-177742857D01*
X272359226Y-177819047D01*
X272359226Y-178009523D01*
X272321130Y-178085714D01*
X272283035Y-178123809D01*
X272206845Y-178161904D01*
X271978273Y-178161904D01*
X271902083Y-178123809D01*
X271863988Y-178085714D01*
D11*
%TO.C,Y1*%
X368732440Y-138598690D02*
X369208630Y-138598690D01*
X368208630Y-138932023D02*
X368732440Y-138598690D01*
X368208630Y-138265357D01*
X369208630Y-137408214D02*
X369208630Y-137979642D01*
X369208630Y-137693928D02*
X368208630Y-137693928D01*
X368351488Y-137789166D01*
X368446726Y-137884404D01*
X368494345Y-137979642D01*
D10*
%TO.C,D91*%
X365441071Y-178161904D02*
X365441071Y-177361904D01*
X365631547Y-177361904D01*
X365745833Y-177400000D01*
X365822023Y-177476190D01*
X365860119Y-177552380D01*
X365898214Y-177704761D01*
X365898214Y-177819047D01*
X365860119Y-177971428D01*
X365822023Y-178047619D01*
X365745833Y-178123809D01*
X365631547Y-178161904D01*
X365441071Y-178161904D01*
X366279166Y-178161904D02*
X366431547Y-178161904D01*
X366507738Y-178123809D01*
X366545833Y-178085714D01*
X366622023Y-177971428D01*
X366660119Y-177819047D01*
X366660119Y-177514285D01*
X366622023Y-177438095D01*
X366583928Y-177400000D01*
X366507738Y-177361904D01*
X366355357Y-177361904D01*
X366279166Y-177400000D01*
X366241071Y-177438095D01*
X366202976Y-177514285D01*
X366202976Y-177704761D01*
X366241071Y-177780952D01*
X366279166Y-177819047D01*
X366355357Y-177857142D01*
X366507738Y-177857142D01*
X366583928Y-177819047D01*
X366622023Y-177780952D01*
X366660119Y-177704761D01*
X367422023Y-178161904D02*
X366964880Y-178161904D01*
X367193452Y-178161904D02*
X367193452Y-177361904D01*
X367117261Y-177476190D01*
X367041071Y-177552380D01*
X366964880Y-177590476D01*
%TO.C,D82*%
X232691071Y-182924404D02*
X232691071Y-182124404D01*
X232881547Y-182124404D01*
X232995833Y-182162500D01*
X233072023Y-182238690D01*
X233110119Y-182314880D01*
X233148214Y-182467261D01*
X233148214Y-182581547D01*
X233110119Y-182733928D01*
X233072023Y-182810119D01*
X232995833Y-182886309D01*
X232881547Y-182924404D01*
X232691071Y-182924404D01*
X233605357Y-182467261D02*
X233529166Y-182429166D01*
X233491071Y-182391071D01*
X233452976Y-182314880D01*
X233452976Y-182276785D01*
X233491071Y-182200595D01*
X233529166Y-182162500D01*
X233605357Y-182124404D01*
X233757738Y-182124404D01*
X233833928Y-182162500D01*
X233872023Y-182200595D01*
X233910119Y-182276785D01*
X233910119Y-182314880D01*
X233872023Y-182391071D01*
X233833928Y-182429166D01*
X233757738Y-182467261D01*
X233605357Y-182467261D01*
X233529166Y-182505357D01*
X233491071Y-182543452D01*
X233452976Y-182619642D01*
X233452976Y-182772023D01*
X233491071Y-182848214D01*
X233529166Y-182886309D01*
X233605357Y-182924404D01*
X233757738Y-182924404D01*
X233833928Y-182886309D01*
X233872023Y-182848214D01*
X233910119Y-182772023D01*
X233910119Y-182619642D01*
X233872023Y-182543452D01*
X233833928Y-182505357D01*
X233757738Y-182467261D01*
X234214880Y-182200595D02*
X234252976Y-182162500D01*
X234329166Y-182124404D01*
X234519642Y-182124404D01*
X234595833Y-182162500D01*
X234633928Y-182200595D01*
X234672023Y-182276785D01*
X234672023Y-182352976D01*
X234633928Y-182467261D01*
X234176785Y-182924404D01*
X234672023Y-182924404D01*
%TO.C,D12*%
X124741071Y-182924404D02*
X124741071Y-182124404D01*
X124931547Y-182124404D01*
X125045833Y-182162500D01*
X125122023Y-182238690D01*
X125160119Y-182314880D01*
X125198214Y-182467261D01*
X125198214Y-182581547D01*
X125160119Y-182733928D01*
X125122023Y-182810119D01*
X125045833Y-182886309D01*
X124931547Y-182924404D01*
X124741071Y-182924404D01*
X125960119Y-182924404D02*
X125502976Y-182924404D01*
X125731547Y-182924404D02*
X125731547Y-182124404D01*
X125655357Y-182238690D01*
X125579166Y-182314880D01*
X125502976Y-182352976D01*
X126264880Y-182200595D02*
X126302976Y-182162500D01*
X126379166Y-182124404D01*
X126569642Y-182124404D01*
X126645833Y-182162500D01*
X126683928Y-182200595D01*
X126722023Y-182276785D01*
X126722023Y-182352976D01*
X126683928Y-182467261D01*
X126226785Y-182924404D01*
X126722023Y-182924404D01*
%TO.C,D93*%
X365441071Y-182924404D02*
X365441071Y-182124404D01*
X365631547Y-182124404D01*
X365745833Y-182162500D01*
X365822023Y-182238690D01*
X365860119Y-182314880D01*
X365898214Y-182467261D01*
X365898214Y-182581547D01*
X365860119Y-182733928D01*
X365822023Y-182810119D01*
X365745833Y-182886309D01*
X365631547Y-182924404D01*
X365441071Y-182924404D01*
X366279166Y-182924404D02*
X366431547Y-182924404D01*
X366507738Y-182886309D01*
X366545833Y-182848214D01*
X366622023Y-182733928D01*
X366660119Y-182581547D01*
X366660119Y-182276785D01*
X366622023Y-182200595D01*
X366583928Y-182162500D01*
X366507738Y-182124404D01*
X366355357Y-182124404D01*
X366279166Y-182162500D01*
X366241071Y-182200595D01*
X366202976Y-182276785D01*
X366202976Y-182467261D01*
X366241071Y-182543452D01*
X366279166Y-182581547D01*
X366355357Y-182619642D01*
X366507738Y-182619642D01*
X366583928Y-182581547D01*
X366622023Y-182543452D01*
X366660119Y-182467261D01*
X366926785Y-182124404D02*
X367422023Y-182124404D01*
X367155357Y-182429166D01*
X367269642Y-182429166D01*
X367345833Y-182467261D01*
X367383928Y-182505357D01*
X367422023Y-182581547D01*
X367422023Y-182772023D01*
X367383928Y-182848214D01*
X367345833Y-182886309D01*
X367269642Y-182924404D01*
X367041071Y-182924404D01*
X366964880Y-182886309D01*
X366926785Y-182848214D01*
D11*
%TO.C,SW124*%
X261278869Y-132214880D02*
X260945535Y-131738690D01*
X260707440Y-132214880D02*
X260707440Y-131214880D01*
X261088392Y-131214880D01*
X261183630Y-131262500D01*
X261231250Y-131310119D01*
X261278869Y-131405357D01*
X261278869Y-131548214D01*
X261231250Y-131643452D01*
X261183630Y-131691071D01*
X261088392Y-131738690D01*
X260707440Y-131738690D01*
X261707440Y-131691071D02*
X262040773Y-131691071D01*
X262183630Y-132214880D02*
X261707440Y-132214880D01*
X261707440Y-131214880D01*
X262183630Y-131214880D01*
X262564583Y-132167261D02*
X262707440Y-132214880D01*
X262945535Y-132214880D01*
X263040773Y-132167261D01*
X263088392Y-132119642D01*
X263136011Y-132024404D01*
X263136011Y-131929166D01*
X263088392Y-131833928D01*
X263040773Y-131786309D01*
X262945535Y-131738690D01*
X262755059Y-131691071D01*
X262659821Y-131643452D01*
X262612202Y-131595833D01*
X262564583Y-131500595D01*
X262564583Y-131405357D01*
X262612202Y-131310119D01*
X262659821Y-131262500D01*
X262755059Y-131214880D01*
X262993154Y-131214880D01*
X263136011Y-131262500D01*
X263564583Y-131691071D02*
X263897916Y-131691071D01*
X264040773Y-132214880D02*
X263564583Y-132214880D01*
X263564583Y-131214880D01*
X264040773Y-131214880D01*
X264326488Y-131214880D02*
X264897916Y-131214880D01*
X264612202Y-132214880D02*
X264612202Y-131214880D01*
D10*
%TO.C,D63*%
X205703571Y-182924404D02*
X205703571Y-182124404D01*
X205894047Y-182124404D01*
X206008333Y-182162500D01*
X206084523Y-182238690D01*
X206122619Y-182314880D01*
X206160714Y-182467261D01*
X206160714Y-182581547D01*
X206122619Y-182733928D01*
X206084523Y-182810119D01*
X206008333Y-182886309D01*
X205894047Y-182924404D01*
X205703571Y-182924404D01*
X206846428Y-182124404D02*
X206694047Y-182124404D01*
X206617857Y-182162500D01*
X206579761Y-182200595D01*
X206503571Y-182314880D01*
X206465476Y-182467261D01*
X206465476Y-182772023D01*
X206503571Y-182848214D01*
X206541666Y-182886309D01*
X206617857Y-182924404D01*
X206770238Y-182924404D01*
X206846428Y-182886309D01*
X206884523Y-182848214D01*
X206922619Y-182772023D01*
X206922619Y-182581547D01*
X206884523Y-182505357D01*
X206846428Y-182467261D01*
X206770238Y-182429166D01*
X206617857Y-182429166D01*
X206541666Y-182467261D01*
X206503571Y-182505357D01*
X206465476Y-182581547D01*
X207189285Y-182124404D02*
X207684523Y-182124404D01*
X207417857Y-182429166D01*
X207532142Y-182429166D01*
X207608333Y-182467261D01*
X207646428Y-182505357D01*
X207684523Y-182581547D01*
X207684523Y-182772023D01*
X207646428Y-182848214D01*
X207608333Y-182886309D01*
X207532142Y-182924404D01*
X207303571Y-182924404D01*
X207227380Y-182886309D01*
X207189285Y-182848214D01*
%TO.C,D86*%
X232691071Y-173399404D02*
X232691071Y-172599404D01*
X232881547Y-172599404D01*
X232995833Y-172637500D01*
X233072023Y-172713690D01*
X233110119Y-172789880D01*
X233148214Y-172942261D01*
X233148214Y-173056547D01*
X233110119Y-173208928D01*
X233072023Y-173285119D01*
X232995833Y-173361309D01*
X232881547Y-173399404D01*
X232691071Y-173399404D01*
X233605357Y-172942261D02*
X233529166Y-172904166D01*
X233491071Y-172866071D01*
X233452976Y-172789880D01*
X233452976Y-172751785D01*
X233491071Y-172675595D01*
X233529166Y-172637500D01*
X233605357Y-172599404D01*
X233757738Y-172599404D01*
X233833928Y-172637500D01*
X233872023Y-172675595D01*
X233910119Y-172751785D01*
X233910119Y-172789880D01*
X233872023Y-172866071D01*
X233833928Y-172904166D01*
X233757738Y-172942261D01*
X233605357Y-172942261D01*
X233529166Y-172980357D01*
X233491071Y-173018452D01*
X233452976Y-173094642D01*
X233452976Y-173247023D01*
X233491071Y-173323214D01*
X233529166Y-173361309D01*
X233605357Y-173399404D01*
X233757738Y-173399404D01*
X233833928Y-173361309D01*
X233872023Y-173323214D01*
X233910119Y-173247023D01*
X233910119Y-173094642D01*
X233872023Y-173018452D01*
X233833928Y-172980357D01*
X233757738Y-172942261D01*
X234595833Y-172599404D02*
X234443452Y-172599404D01*
X234367261Y-172637500D01*
X234329166Y-172675595D01*
X234252976Y-172789880D01*
X234214880Y-172942261D01*
X234214880Y-173247023D01*
X234252976Y-173323214D01*
X234291071Y-173361309D01*
X234367261Y-173399404D01*
X234519642Y-173399404D01*
X234595833Y-173361309D01*
X234633928Y-173323214D01*
X234672023Y-173247023D01*
X234672023Y-173056547D01*
X234633928Y-172980357D01*
X234595833Y-172942261D01*
X234519642Y-172904166D01*
X234367261Y-172904166D01*
X234291071Y-172942261D01*
X234252976Y-172980357D01*
X234214880Y-173056547D01*
%TO.C,D36*%
X151728571Y-182924404D02*
X151728571Y-182124404D01*
X151919047Y-182124404D01*
X152033333Y-182162500D01*
X152109523Y-182238690D01*
X152147619Y-182314880D01*
X152185714Y-182467261D01*
X152185714Y-182581547D01*
X152147619Y-182733928D01*
X152109523Y-182810119D01*
X152033333Y-182886309D01*
X151919047Y-182924404D01*
X151728571Y-182924404D01*
X152452380Y-182124404D02*
X152947619Y-182124404D01*
X152680952Y-182429166D01*
X152795238Y-182429166D01*
X152871428Y-182467261D01*
X152909523Y-182505357D01*
X152947619Y-182581547D01*
X152947619Y-182772023D01*
X152909523Y-182848214D01*
X152871428Y-182886309D01*
X152795238Y-182924404D01*
X152566666Y-182924404D01*
X152490476Y-182886309D01*
X152452380Y-182848214D01*
X153633333Y-182124404D02*
X153480952Y-182124404D01*
X153404761Y-182162500D01*
X153366666Y-182200595D01*
X153290476Y-182314880D01*
X153252380Y-182467261D01*
X153252380Y-182772023D01*
X153290476Y-182848214D01*
X153328571Y-182886309D01*
X153404761Y-182924404D01*
X153557142Y-182924404D01*
X153633333Y-182886309D01*
X153671428Y-182848214D01*
X153709523Y-182772023D01*
X153709523Y-182581547D01*
X153671428Y-182505357D01*
X153633333Y-182467261D01*
X153557142Y-182429166D01*
X153404761Y-182429166D01*
X153328571Y-182467261D01*
X153290476Y-182505357D01*
X153252380Y-182581547D01*
%TO.C,D8*%
X125122023Y-178161904D02*
X125122023Y-177361904D01*
X125312500Y-177361904D01*
X125426785Y-177400000D01*
X125502976Y-177476190D01*
X125541071Y-177552380D01*
X125579166Y-177704761D01*
X125579166Y-177819047D01*
X125541071Y-177971428D01*
X125502976Y-178047619D01*
X125426785Y-178123809D01*
X125312500Y-178161904D01*
X125122023Y-178161904D01*
X126036309Y-177704761D02*
X125960119Y-177666666D01*
X125922023Y-177628571D01*
X125883928Y-177552380D01*
X125883928Y-177514285D01*
X125922023Y-177438095D01*
X125960119Y-177400000D01*
X126036309Y-177361904D01*
X126188690Y-177361904D01*
X126264880Y-177400000D01*
X126302976Y-177438095D01*
X126341071Y-177514285D01*
X126341071Y-177552380D01*
X126302976Y-177628571D01*
X126264880Y-177666666D01*
X126188690Y-177704761D01*
X126036309Y-177704761D01*
X125960119Y-177742857D01*
X125922023Y-177780952D01*
X125883928Y-177857142D01*
X125883928Y-178009523D01*
X125922023Y-178085714D01*
X125960119Y-178123809D01*
X126036309Y-178161904D01*
X126188690Y-178161904D01*
X126264880Y-178123809D01*
X126302976Y-178085714D01*
X126341071Y-178009523D01*
X126341071Y-177857142D01*
X126302976Y-177780952D01*
X126264880Y-177742857D01*
X126188690Y-177704761D01*
%TO.C,D21*%
X311466071Y-182924404D02*
X311466071Y-182124404D01*
X311656547Y-182124404D01*
X311770833Y-182162500D01*
X311847023Y-182238690D01*
X311885119Y-182314880D01*
X311923214Y-182467261D01*
X311923214Y-182581547D01*
X311885119Y-182733928D01*
X311847023Y-182810119D01*
X311770833Y-182886309D01*
X311656547Y-182924404D01*
X311466071Y-182924404D01*
X312227976Y-182200595D02*
X312266071Y-182162500D01*
X312342261Y-182124404D01*
X312532738Y-182124404D01*
X312608928Y-182162500D01*
X312647023Y-182200595D01*
X312685119Y-182276785D01*
X312685119Y-182352976D01*
X312647023Y-182467261D01*
X312189880Y-182924404D01*
X312685119Y-182924404D01*
X313447023Y-182924404D02*
X312989880Y-182924404D01*
X313218452Y-182924404D02*
X313218452Y-182124404D01*
X313142261Y-182238690D01*
X313066071Y-182314880D01*
X312989880Y-182352976D01*
%TO.C,D80*%
X232691071Y-180543154D02*
X232691071Y-179743154D01*
X232881547Y-179743154D01*
X232995833Y-179781250D01*
X233072023Y-179857440D01*
X233110119Y-179933630D01*
X233148214Y-180086011D01*
X233148214Y-180200297D01*
X233110119Y-180352678D01*
X233072023Y-180428869D01*
X232995833Y-180505059D01*
X232881547Y-180543154D01*
X232691071Y-180543154D01*
X233605357Y-180086011D02*
X233529166Y-180047916D01*
X233491071Y-180009821D01*
X233452976Y-179933630D01*
X233452976Y-179895535D01*
X233491071Y-179819345D01*
X233529166Y-179781250D01*
X233605357Y-179743154D01*
X233757738Y-179743154D01*
X233833928Y-179781250D01*
X233872023Y-179819345D01*
X233910119Y-179895535D01*
X233910119Y-179933630D01*
X233872023Y-180009821D01*
X233833928Y-180047916D01*
X233757738Y-180086011D01*
X233605357Y-180086011D01*
X233529166Y-180124107D01*
X233491071Y-180162202D01*
X233452976Y-180238392D01*
X233452976Y-180390773D01*
X233491071Y-180466964D01*
X233529166Y-180505059D01*
X233605357Y-180543154D01*
X233757738Y-180543154D01*
X233833928Y-180505059D01*
X233872023Y-180466964D01*
X233910119Y-180390773D01*
X233910119Y-180238392D01*
X233872023Y-180162202D01*
X233833928Y-180124107D01*
X233757738Y-180086011D01*
X234405357Y-179743154D02*
X234481547Y-179743154D01*
X234557738Y-179781250D01*
X234595833Y-179819345D01*
X234633928Y-179895535D01*
X234672023Y-180047916D01*
X234672023Y-180238392D01*
X234633928Y-180390773D01*
X234595833Y-180466964D01*
X234557738Y-180505059D01*
X234481547Y-180543154D01*
X234405357Y-180543154D01*
X234329166Y-180505059D01*
X234291071Y-180466964D01*
X234252976Y-180390773D01*
X234214880Y-180238392D01*
X234214880Y-180047916D01*
X234252976Y-179895535D01*
X234291071Y-179819345D01*
X234329166Y-179781250D01*
X234405357Y-179743154D01*
%TO.C,D78*%
X232691071Y-178161904D02*
X232691071Y-177361904D01*
X232881547Y-177361904D01*
X232995833Y-177400000D01*
X233072023Y-177476190D01*
X233110119Y-177552380D01*
X233148214Y-177704761D01*
X233148214Y-177819047D01*
X233110119Y-177971428D01*
X233072023Y-178047619D01*
X232995833Y-178123809D01*
X232881547Y-178161904D01*
X232691071Y-178161904D01*
X233414880Y-177361904D02*
X233948214Y-177361904D01*
X233605357Y-178161904D01*
X234367261Y-177704761D02*
X234291071Y-177666666D01*
X234252976Y-177628571D01*
X234214880Y-177552380D01*
X234214880Y-177514285D01*
X234252976Y-177438095D01*
X234291071Y-177400000D01*
X234367261Y-177361904D01*
X234519642Y-177361904D01*
X234595833Y-177400000D01*
X234633928Y-177438095D01*
X234672023Y-177514285D01*
X234672023Y-177552380D01*
X234633928Y-177628571D01*
X234595833Y-177666666D01*
X234519642Y-177704761D01*
X234367261Y-177704761D01*
X234291071Y-177742857D01*
X234252976Y-177780952D01*
X234214880Y-177857142D01*
X234214880Y-178009523D01*
X234252976Y-178085714D01*
X234291071Y-178123809D01*
X234367261Y-178161904D01*
X234519642Y-178161904D01*
X234595833Y-178123809D01*
X234633928Y-178085714D01*
X234672023Y-178009523D01*
X234672023Y-177857142D01*
X234633928Y-177780952D01*
X234595833Y-177742857D01*
X234519642Y-177704761D01*
%TO.C,D96*%
X284778571Y-185305654D02*
X284778571Y-184505654D01*
X284969047Y-184505654D01*
X285083333Y-184543750D01*
X285159523Y-184619940D01*
X285197619Y-184696130D01*
X285235714Y-184848511D01*
X285235714Y-184962797D01*
X285197619Y-185115178D01*
X285159523Y-185191369D01*
X285083333Y-185267559D01*
X284969047Y-185305654D01*
X284778571Y-185305654D01*
X285616666Y-185305654D02*
X285769047Y-185305654D01*
X285845238Y-185267559D01*
X285883333Y-185229464D01*
X285959523Y-185115178D01*
X285997619Y-184962797D01*
X285997619Y-184658035D01*
X285959523Y-184581845D01*
X285921428Y-184543750D01*
X285845238Y-184505654D01*
X285692857Y-184505654D01*
X285616666Y-184543750D01*
X285578571Y-184581845D01*
X285540476Y-184658035D01*
X285540476Y-184848511D01*
X285578571Y-184924702D01*
X285616666Y-184962797D01*
X285692857Y-185000892D01*
X285845238Y-185000892D01*
X285921428Y-184962797D01*
X285959523Y-184924702D01*
X285997619Y-184848511D01*
X286683333Y-184505654D02*
X286530952Y-184505654D01*
X286454761Y-184543750D01*
X286416666Y-184581845D01*
X286340476Y-184696130D01*
X286302380Y-184848511D01*
X286302380Y-185153273D01*
X286340476Y-185229464D01*
X286378571Y-185267559D01*
X286454761Y-185305654D01*
X286607142Y-185305654D01*
X286683333Y-185267559D01*
X286721428Y-185229464D01*
X286759523Y-185153273D01*
X286759523Y-184962797D01*
X286721428Y-184886607D01*
X286683333Y-184848511D01*
X286607142Y-184810416D01*
X286454761Y-184810416D01*
X286378571Y-184848511D01*
X286340476Y-184886607D01*
X286302380Y-184962797D01*
%TO.C,D73*%
X350959821Y-185305654D02*
X350959821Y-184505654D01*
X351150297Y-184505654D01*
X351264583Y-184543750D01*
X351340773Y-184619940D01*
X351378869Y-184696130D01*
X351416964Y-184848511D01*
X351416964Y-184962797D01*
X351378869Y-185115178D01*
X351340773Y-185191369D01*
X351264583Y-185267559D01*
X351150297Y-185305654D01*
X350959821Y-185305654D01*
X351683630Y-184505654D02*
X352216964Y-184505654D01*
X351874107Y-185305654D01*
X352445535Y-184505654D02*
X352940773Y-184505654D01*
X352674107Y-184810416D01*
X352788392Y-184810416D01*
X352864583Y-184848511D01*
X352902678Y-184886607D01*
X352940773Y-184962797D01*
X352940773Y-185153273D01*
X352902678Y-185229464D01*
X352864583Y-185267559D01*
X352788392Y-185305654D01*
X352559821Y-185305654D01*
X352483630Y-185267559D01*
X352445535Y-185229464D01*
%TO.C,D88*%
X232691071Y-175780654D02*
X232691071Y-174980654D01*
X232881547Y-174980654D01*
X232995833Y-175018750D01*
X233072023Y-175094940D01*
X233110119Y-175171130D01*
X233148214Y-175323511D01*
X233148214Y-175437797D01*
X233110119Y-175590178D01*
X233072023Y-175666369D01*
X232995833Y-175742559D01*
X232881547Y-175780654D01*
X232691071Y-175780654D01*
X233605357Y-175323511D02*
X233529166Y-175285416D01*
X233491071Y-175247321D01*
X233452976Y-175171130D01*
X233452976Y-175133035D01*
X233491071Y-175056845D01*
X233529166Y-175018750D01*
X233605357Y-174980654D01*
X233757738Y-174980654D01*
X233833928Y-175018750D01*
X233872023Y-175056845D01*
X233910119Y-175133035D01*
X233910119Y-175171130D01*
X233872023Y-175247321D01*
X233833928Y-175285416D01*
X233757738Y-175323511D01*
X233605357Y-175323511D01*
X233529166Y-175361607D01*
X233491071Y-175399702D01*
X233452976Y-175475892D01*
X233452976Y-175628273D01*
X233491071Y-175704464D01*
X233529166Y-175742559D01*
X233605357Y-175780654D01*
X233757738Y-175780654D01*
X233833928Y-175742559D01*
X233872023Y-175704464D01*
X233910119Y-175628273D01*
X233910119Y-175475892D01*
X233872023Y-175399702D01*
X233833928Y-175361607D01*
X233757738Y-175323511D01*
X234367261Y-175323511D02*
X234291071Y-175285416D01*
X234252976Y-175247321D01*
X234214880Y-175171130D01*
X234214880Y-175133035D01*
X234252976Y-175056845D01*
X234291071Y-175018750D01*
X234367261Y-174980654D01*
X234519642Y-174980654D01*
X234595833Y-175018750D01*
X234633928Y-175056845D01*
X234672023Y-175133035D01*
X234672023Y-175171130D01*
X234633928Y-175247321D01*
X234595833Y-175285416D01*
X234519642Y-175323511D01*
X234367261Y-175323511D01*
X234291071Y-175361607D01*
X234252976Y-175399702D01*
X234214880Y-175475892D01*
X234214880Y-175628273D01*
X234252976Y-175704464D01*
X234291071Y-175742559D01*
X234367261Y-175780654D01*
X234519642Y-175780654D01*
X234595833Y-175742559D01*
X234633928Y-175704464D01*
X234672023Y-175628273D01*
X234672023Y-175475892D01*
X234633928Y-175399702D01*
X234595833Y-175361607D01*
X234519642Y-175323511D01*
%TO.C,D50*%
X193197321Y-175780654D02*
X193197321Y-174980654D01*
X193387797Y-174980654D01*
X193502083Y-175018750D01*
X193578273Y-175094940D01*
X193616369Y-175171130D01*
X193654464Y-175323511D01*
X193654464Y-175437797D01*
X193616369Y-175590178D01*
X193578273Y-175666369D01*
X193502083Y-175742559D01*
X193387797Y-175780654D01*
X193197321Y-175780654D01*
X194378273Y-174980654D02*
X193997321Y-174980654D01*
X193959226Y-175361607D01*
X193997321Y-175323511D01*
X194073511Y-175285416D01*
X194263988Y-175285416D01*
X194340178Y-175323511D01*
X194378273Y-175361607D01*
X194416369Y-175437797D01*
X194416369Y-175628273D01*
X194378273Y-175704464D01*
X194340178Y-175742559D01*
X194263988Y-175780654D01*
X194073511Y-175780654D01*
X193997321Y-175742559D01*
X193959226Y-175704464D01*
X194911607Y-174980654D02*
X194987797Y-174980654D01*
X195063988Y-175018750D01*
X195102083Y-175056845D01*
X195140178Y-175133035D01*
X195178273Y-175285416D01*
X195178273Y-175475892D01*
X195140178Y-175628273D01*
X195102083Y-175704464D01*
X195063988Y-175742559D01*
X194987797Y-175780654D01*
X194911607Y-175780654D01*
X194835416Y-175742559D01*
X194797321Y-175704464D01*
X194759226Y-175628273D01*
X194721130Y-175475892D01*
X194721130Y-175285416D01*
X194759226Y-175133035D01*
X194797321Y-175056845D01*
X194835416Y-175018750D01*
X194911607Y-174980654D01*
%TO.C,D83*%
X257491071Y-178161904D02*
X257491071Y-177361904D01*
X257681547Y-177361904D01*
X257795833Y-177400000D01*
X257872023Y-177476190D01*
X257910119Y-177552380D01*
X257948214Y-177704761D01*
X257948214Y-177819047D01*
X257910119Y-177971428D01*
X257872023Y-178047619D01*
X257795833Y-178123809D01*
X257681547Y-178161904D01*
X257491071Y-178161904D01*
X258405357Y-177704761D02*
X258329166Y-177666666D01*
X258291071Y-177628571D01*
X258252976Y-177552380D01*
X258252976Y-177514285D01*
X258291071Y-177438095D01*
X258329166Y-177400000D01*
X258405357Y-177361904D01*
X258557738Y-177361904D01*
X258633928Y-177400000D01*
X258672023Y-177438095D01*
X258710119Y-177514285D01*
X258710119Y-177552380D01*
X258672023Y-177628571D01*
X258633928Y-177666666D01*
X258557738Y-177704761D01*
X258405357Y-177704761D01*
X258329166Y-177742857D01*
X258291071Y-177780952D01*
X258252976Y-177857142D01*
X258252976Y-178009523D01*
X258291071Y-178085714D01*
X258329166Y-178123809D01*
X258405357Y-178161904D01*
X258557738Y-178161904D01*
X258633928Y-178123809D01*
X258672023Y-178085714D01*
X258710119Y-178009523D01*
X258710119Y-177857142D01*
X258672023Y-177780952D01*
X258633928Y-177742857D01*
X258557738Y-177704761D01*
X258976785Y-177361904D02*
X259472023Y-177361904D01*
X259205357Y-177666666D01*
X259319642Y-177666666D01*
X259395833Y-177704761D01*
X259433928Y-177742857D01*
X259472023Y-177819047D01*
X259472023Y-178009523D01*
X259433928Y-178085714D01*
X259395833Y-178123809D01*
X259319642Y-178161904D01*
X259091071Y-178161904D01*
X259014880Y-178123809D01*
X258976785Y-178085714D01*
%TO.C,D9*%
X139603273Y-178161904D02*
X139603273Y-177361904D01*
X139793750Y-177361904D01*
X139908035Y-177400000D01*
X139984226Y-177476190D01*
X140022321Y-177552380D01*
X140060416Y-177704761D01*
X140060416Y-177819047D01*
X140022321Y-177971428D01*
X139984226Y-178047619D01*
X139908035Y-178123809D01*
X139793750Y-178161904D01*
X139603273Y-178161904D01*
X140441369Y-178161904D02*
X140593750Y-178161904D01*
X140669940Y-178123809D01*
X140708035Y-178085714D01*
X140784226Y-177971428D01*
X140822321Y-177819047D01*
X140822321Y-177514285D01*
X140784226Y-177438095D01*
X140746130Y-177400000D01*
X140669940Y-177361904D01*
X140517559Y-177361904D01*
X140441369Y-177400000D01*
X140403273Y-177438095D01*
X140365178Y-177514285D01*
X140365178Y-177704761D01*
X140403273Y-177780952D01*
X140441369Y-177819047D01*
X140517559Y-177857142D01*
X140669940Y-177857142D01*
X140746130Y-177819047D01*
X140784226Y-177780952D01*
X140822321Y-177704761D01*
%TO.C,D47*%
X178716071Y-171018154D02*
X178716071Y-170218154D01*
X178906547Y-170218154D01*
X179020833Y-170256250D01*
X179097023Y-170332440D01*
X179135119Y-170408630D01*
X179173214Y-170561011D01*
X179173214Y-170675297D01*
X179135119Y-170827678D01*
X179097023Y-170903869D01*
X179020833Y-170980059D01*
X178906547Y-171018154D01*
X178716071Y-171018154D01*
X179858928Y-170484821D02*
X179858928Y-171018154D01*
X179668452Y-170180059D02*
X179477976Y-170751488D01*
X179973214Y-170751488D01*
X180201785Y-170218154D02*
X180735119Y-170218154D01*
X180392261Y-171018154D01*
D11*
%TO.C,U1*%
X338378630Y-138869404D02*
X339188154Y-138869404D01*
X339283392Y-138821785D01*
X339331011Y-138774166D01*
X339378630Y-138678928D01*
X339378630Y-138488452D01*
X339331011Y-138393214D01*
X339283392Y-138345595D01*
X339188154Y-138297976D01*
X338378630Y-138297976D01*
X339378630Y-137297976D02*
X339378630Y-137869404D01*
X339378630Y-137583690D02*
X338378630Y-137583690D01*
X338521488Y-137678928D01*
X338616726Y-137774166D01*
X338664345Y-137869404D01*
D10*
%TO.C,D74*%
X350959821Y-182924404D02*
X350959821Y-182124404D01*
X351150297Y-182124404D01*
X351264583Y-182162500D01*
X351340773Y-182238690D01*
X351378869Y-182314880D01*
X351416964Y-182467261D01*
X351416964Y-182581547D01*
X351378869Y-182733928D01*
X351340773Y-182810119D01*
X351264583Y-182886309D01*
X351150297Y-182924404D01*
X350959821Y-182924404D01*
X351683630Y-182124404D02*
X352216964Y-182124404D01*
X351874107Y-182924404D01*
X352864583Y-182391071D02*
X352864583Y-182924404D01*
X352674107Y-182086309D02*
X352483630Y-182657738D01*
X352978869Y-182657738D01*
%TO.C,D4*%
X125122023Y-173399404D02*
X125122023Y-172599404D01*
X125312500Y-172599404D01*
X125426785Y-172637500D01*
X125502976Y-172713690D01*
X125541071Y-172789880D01*
X125579166Y-172942261D01*
X125579166Y-173056547D01*
X125541071Y-173208928D01*
X125502976Y-173285119D01*
X125426785Y-173361309D01*
X125312500Y-173399404D01*
X125122023Y-173399404D01*
X126264880Y-172866071D02*
X126264880Y-173399404D01*
X126074404Y-172561309D02*
X125883928Y-173132738D01*
X126379166Y-173132738D01*
%TO.C,D100*%
X284097619Y-178161904D02*
X284097619Y-177361904D01*
X284288095Y-177361904D01*
X284402380Y-177400000D01*
X284478571Y-177476190D01*
X284516666Y-177552380D01*
X284554761Y-177704761D01*
X284554761Y-177819047D01*
X284516666Y-177971428D01*
X284478571Y-178047619D01*
X284402380Y-178123809D01*
X284288095Y-178161904D01*
X284097619Y-178161904D01*
X285316666Y-178161904D02*
X284859523Y-178161904D01*
X285088095Y-178161904D02*
X285088095Y-177361904D01*
X285011904Y-177476190D01*
X284935714Y-177552380D01*
X284859523Y-177590476D01*
X285811904Y-177361904D02*
X285888095Y-177361904D01*
X285964285Y-177400000D01*
X286002380Y-177438095D01*
X286040476Y-177514285D01*
X286078571Y-177666666D01*
X286078571Y-177857142D01*
X286040476Y-178009523D01*
X286002380Y-178085714D01*
X285964285Y-178123809D01*
X285888095Y-178161904D01*
X285811904Y-178161904D01*
X285735714Y-178123809D01*
X285697619Y-178085714D01*
X285659523Y-178009523D01*
X285621428Y-177857142D01*
X285621428Y-177666666D01*
X285659523Y-177514285D01*
X285697619Y-177438095D01*
X285735714Y-177400000D01*
X285811904Y-177361904D01*
X286573809Y-177361904D02*
X286650000Y-177361904D01*
X286726190Y-177400000D01*
X286764285Y-177438095D01*
X286802380Y-177514285D01*
X286840476Y-177666666D01*
X286840476Y-177857142D01*
X286802380Y-178009523D01*
X286764285Y-178085714D01*
X286726190Y-178123809D01*
X286650000Y-178161904D01*
X286573809Y-178161904D01*
X286497619Y-178123809D01*
X286459523Y-178085714D01*
X286421428Y-178009523D01*
X286383333Y-177857142D01*
X286383333Y-177666666D01*
X286421428Y-177514285D01*
X286459523Y-177438095D01*
X286497619Y-177400000D01*
X286573809Y-177361904D01*
%TO.C,D65*%
X205703571Y-185305654D02*
X205703571Y-184505654D01*
X205894047Y-184505654D01*
X206008333Y-184543750D01*
X206084523Y-184619940D01*
X206122619Y-184696130D01*
X206160714Y-184848511D01*
X206160714Y-184962797D01*
X206122619Y-185115178D01*
X206084523Y-185191369D01*
X206008333Y-185267559D01*
X205894047Y-185305654D01*
X205703571Y-185305654D01*
X206846428Y-184505654D02*
X206694047Y-184505654D01*
X206617857Y-184543750D01*
X206579761Y-184581845D01*
X206503571Y-184696130D01*
X206465476Y-184848511D01*
X206465476Y-185153273D01*
X206503571Y-185229464D01*
X206541666Y-185267559D01*
X206617857Y-185305654D01*
X206770238Y-185305654D01*
X206846428Y-185267559D01*
X206884523Y-185229464D01*
X206922619Y-185153273D01*
X206922619Y-184962797D01*
X206884523Y-184886607D01*
X206846428Y-184848511D01*
X206770238Y-184810416D01*
X206617857Y-184810416D01*
X206541666Y-184848511D01*
X206503571Y-184886607D01*
X206465476Y-184962797D01*
X207646428Y-184505654D02*
X207265476Y-184505654D01*
X207227380Y-184886607D01*
X207265476Y-184848511D01*
X207341666Y-184810416D01*
X207532142Y-184810416D01*
X207608333Y-184848511D01*
X207646428Y-184886607D01*
X207684523Y-184962797D01*
X207684523Y-185153273D01*
X207646428Y-185229464D01*
X207608333Y-185267559D01*
X207532142Y-185305654D01*
X207341666Y-185305654D01*
X207265476Y-185267559D01*
X207227380Y-185229464D01*
%TO.C,D70*%
X220184821Y-173399404D02*
X220184821Y-172599404D01*
X220375297Y-172599404D01*
X220489583Y-172637500D01*
X220565773Y-172713690D01*
X220603869Y-172789880D01*
X220641964Y-172942261D01*
X220641964Y-173056547D01*
X220603869Y-173208928D01*
X220565773Y-173285119D01*
X220489583Y-173361309D01*
X220375297Y-173399404D01*
X220184821Y-173399404D01*
X220908630Y-172599404D02*
X221441964Y-172599404D01*
X221099107Y-173399404D01*
X221899107Y-172599404D02*
X221975297Y-172599404D01*
X222051488Y-172637500D01*
X222089583Y-172675595D01*
X222127678Y-172751785D01*
X222165773Y-172904166D01*
X222165773Y-173094642D01*
X222127678Y-173247023D01*
X222089583Y-173323214D01*
X222051488Y-173361309D01*
X221975297Y-173399404D01*
X221899107Y-173399404D01*
X221822916Y-173361309D01*
X221784821Y-173323214D01*
X221746726Y-173247023D01*
X221708630Y-173094642D01*
X221708630Y-172904166D01*
X221746726Y-172751785D01*
X221784821Y-172675595D01*
X221822916Y-172637500D01*
X221899107Y-172599404D01*
D11*
%TO.C,D109*%
X286295681Y-136758570D02*
X286914729Y-136758570D01*
X286581395Y-137139523D01*
X286724252Y-137139523D01*
X286819491Y-137187142D01*
X286867110Y-137234761D01*
X286914729Y-137329999D01*
X286914729Y-137568094D01*
X286867110Y-137663332D01*
X286819491Y-137710951D01*
X286724252Y-137758570D01*
X286438538Y-137758570D01*
X286343300Y-137710951D01*
X286295681Y-137663332D01*
X287343300Y-137663332D02*
X287390919Y-137710951D01*
X287343300Y-137758570D01*
X287295681Y-137710951D01*
X287343300Y-137663332D01*
X287343300Y-137758570D01*
X288248062Y-136758570D02*
X288057586Y-136758570D01*
X287962348Y-136806190D01*
X287914729Y-136853809D01*
X287819491Y-136996666D01*
X287771872Y-137187142D01*
X287771872Y-137568094D01*
X287819491Y-137663332D01*
X287867110Y-137710951D01*
X287962348Y-137758570D01*
X288152824Y-137758570D01*
X288248062Y-137710951D01*
X288295681Y-137663332D01*
X288343300Y-137568094D01*
X288343300Y-137329999D01*
X288295681Y-137234761D01*
X288248062Y-137187142D01*
X288152824Y-137139523D01*
X287962348Y-137139523D01*
X287867110Y-137187142D01*
X287819491Y-137234761D01*
X287771872Y-137329999D01*
X288629014Y-136758570D02*
X288962348Y-137758570D01*
X289295681Y-136758570D01*
%TO.C,R4*%
X300815476Y-133596130D02*
X301482142Y-133596130D01*
X301053571Y-134596130D01*
X302339285Y-133596130D02*
X301863095Y-133596130D01*
X301815476Y-134072321D01*
X301863095Y-134024702D01*
X301958333Y-133977083D01*
X302196428Y-133977083D01*
X302291666Y-134024702D01*
X302339285Y-134072321D01*
X302386904Y-134167559D01*
X302386904Y-134405654D01*
X302339285Y-134500892D01*
X302291666Y-134548511D01*
X302196428Y-134596130D01*
X301958333Y-134596130D01*
X301863095Y-134548511D01*
X301815476Y-134500892D01*
D10*
%TO.C,D28*%
X151728571Y-173399404D02*
X151728571Y-172599404D01*
X151919047Y-172599404D01*
X152033333Y-172637500D01*
X152109523Y-172713690D01*
X152147619Y-172789880D01*
X152185714Y-172942261D01*
X152185714Y-173056547D01*
X152147619Y-173208928D01*
X152109523Y-173285119D01*
X152033333Y-173361309D01*
X151919047Y-173399404D01*
X151728571Y-173399404D01*
X152490476Y-172675595D02*
X152528571Y-172637500D01*
X152604761Y-172599404D01*
X152795238Y-172599404D01*
X152871428Y-172637500D01*
X152909523Y-172675595D01*
X152947619Y-172751785D01*
X152947619Y-172827976D01*
X152909523Y-172942261D01*
X152452380Y-173399404D01*
X152947619Y-173399404D01*
X153404761Y-172942261D02*
X153328571Y-172904166D01*
X153290476Y-172866071D01*
X153252380Y-172789880D01*
X153252380Y-172751785D01*
X153290476Y-172675595D01*
X153328571Y-172637500D01*
X153404761Y-172599404D01*
X153557142Y-172599404D01*
X153633333Y-172637500D01*
X153671428Y-172675595D01*
X153709523Y-172751785D01*
X153709523Y-172789880D01*
X153671428Y-172866071D01*
X153633333Y-172904166D01*
X153557142Y-172942261D01*
X153404761Y-172942261D01*
X153328571Y-172980357D01*
X153290476Y-173018452D01*
X153252380Y-173094642D01*
X153252380Y-173247023D01*
X153290476Y-173323214D01*
X153328571Y-173361309D01*
X153404761Y-173399404D01*
X153557142Y-173399404D01*
X153633333Y-173361309D01*
X153671428Y-173323214D01*
X153709523Y-173247023D01*
X153709523Y-173094642D01*
X153671428Y-173018452D01*
X153633333Y-172980357D01*
X153557142Y-172942261D01*
%TO.C,D71*%
X205703571Y-178161904D02*
X205703571Y-177361904D01*
X205894047Y-177361904D01*
X206008333Y-177400000D01*
X206084523Y-177476190D01*
X206122619Y-177552380D01*
X206160714Y-177704761D01*
X206160714Y-177819047D01*
X206122619Y-177971428D01*
X206084523Y-178047619D01*
X206008333Y-178123809D01*
X205894047Y-178161904D01*
X205703571Y-178161904D01*
X206427380Y-177361904D02*
X206960714Y-177361904D01*
X206617857Y-178161904D01*
X207684523Y-178161904D02*
X207227380Y-178161904D01*
X207455952Y-178161904D02*
X207455952Y-177361904D01*
X207379761Y-177476190D01*
X207303571Y-177552380D01*
X207227380Y-177590476D01*
%TO.C,D77*%
X257491071Y-185305654D02*
X257491071Y-184505654D01*
X257681547Y-184505654D01*
X257795833Y-184543750D01*
X257872023Y-184619940D01*
X257910119Y-184696130D01*
X257948214Y-184848511D01*
X257948214Y-184962797D01*
X257910119Y-185115178D01*
X257872023Y-185191369D01*
X257795833Y-185267559D01*
X257681547Y-185305654D01*
X257491071Y-185305654D01*
X258214880Y-184505654D02*
X258748214Y-184505654D01*
X258405357Y-185305654D01*
X258976785Y-184505654D02*
X259510119Y-184505654D01*
X259167261Y-185305654D01*
%TO.C,D40*%
X323972321Y-180543154D02*
X323972321Y-179743154D01*
X324162797Y-179743154D01*
X324277083Y-179781250D01*
X324353273Y-179857440D01*
X324391369Y-179933630D01*
X324429464Y-180086011D01*
X324429464Y-180200297D01*
X324391369Y-180352678D01*
X324353273Y-180428869D01*
X324277083Y-180505059D01*
X324162797Y-180543154D01*
X323972321Y-180543154D01*
X325115178Y-180009821D02*
X325115178Y-180543154D01*
X324924702Y-179705059D02*
X324734226Y-180276488D01*
X325229464Y-180276488D01*
X325686607Y-179743154D02*
X325762797Y-179743154D01*
X325838988Y-179781250D01*
X325877083Y-179819345D01*
X325915178Y-179895535D01*
X325953273Y-180047916D01*
X325953273Y-180238392D01*
X325915178Y-180390773D01*
X325877083Y-180466964D01*
X325838988Y-180505059D01*
X325762797Y-180543154D01*
X325686607Y-180543154D01*
X325610416Y-180505059D01*
X325572321Y-180466964D01*
X325534226Y-180390773D01*
X325496130Y-180238392D01*
X325496130Y-180047916D01*
X325534226Y-179895535D01*
X325572321Y-179819345D01*
X325610416Y-179781250D01*
X325686607Y-179743154D01*
%TO.C,D5*%
X139603273Y-182924404D02*
X139603273Y-182124404D01*
X139793750Y-182124404D01*
X139908035Y-182162500D01*
X139984226Y-182238690D01*
X140022321Y-182314880D01*
X140060416Y-182467261D01*
X140060416Y-182581547D01*
X140022321Y-182733928D01*
X139984226Y-182810119D01*
X139908035Y-182886309D01*
X139793750Y-182924404D01*
X139603273Y-182924404D01*
X140784226Y-182124404D02*
X140403273Y-182124404D01*
X140365178Y-182505357D01*
X140403273Y-182467261D01*
X140479464Y-182429166D01*
X140669940Y-182429166D01*
X140746130Y-182467261D01*
X140784226Y-182505357D01*
X140822321Y-182581547D01*
X140822321Y-182772023D01*
X140784226Y-182848214D01*
X140746130Y-182886309D01*
X140669940Y-182924404D01*
X140479464Y-182924404D01*
X140403273Y-182886309D01*
X140365178Y-182848214D01*
%TO.C,D48*%
X193197321Y-178161904D02*
X193197321Y-177361904D01*
X193387797Y-177361904D01*
X193502083Y-177400000D01*
X193578273Y-177476190D01*
X193616369Y-177552380D01*
X193654464Y-177704761D01*
X193654464Y-177819047D01*
X193616369Y-177971428D01*
X193578273Y-178047619D01*
X193502083Y-178123809D01*
X193387797Y-178161904D01*
X193197321Y-178161904D01*
X194340178Y-177628571D02*
X194340178Y-178161904D01*
X194149702Y-177323809D02*
X193959226Y-177895238D01*
X194454464Y-177895238D01*
X194873511Y-177704761D02*
X194797321Y-177666666D01*
X194759226Y-177628571D01*
X194721130Y-177552380D01*
X194721130Y-177514285D01*
X194759226Y-177438095D01*
X194797321Y-177400000D01*
X194873511Y-177361904D01*
X195025892Y-177361904D01*
X195102083Y-177400000D01*
X195140178Y-177438095D01*
X195178273Y-177514285D01*
X195178273Y-177552380D01*
X195140178Y-177628571D01*
X195102083Y-177666666D01*
X195025892Y-177704761D01*
X194873511Y-177704761D01*
X194797321Y-177742857D01*
X194759226Y-177780952D01*
X194721130Y-177857142D01*
X194721130Y-178009523D01*
X194759226Y-178085714D01*
X194797321Y-178123809D01*
X194873511Y-178161904D01*
X195025892Y-178161904D01*
X195102083Y-178123809D01*
X195140178Y-178085714D01*
X195178273Y-178009523D01*
X195178273Y-177857142D01*
X195140178Y-177780952D01*
X195102083Y-177742857D01*
X195025892Y-177704761D01*
%TO.C,D6*%
X125122023Y-175780654D02*
X125122023Y-174980654D01*
X125312500Y-174980654D01*
X125426785Y-175018750D01*
X125502976Y-175094940D01*
X125541071Y-175171130D01*
X125579166Y-175323511D01*
X125579166Y-175437797D01*
X125541071Y-175590178D01*
X125502976Y-175666369D01*
X125426785Y-175742559D01*
X125312500Y-175780654D01*
X125122023Y-175780654D01*
X126264880Y-174980654D02*
X126112500Y-174980654D01*
X126036309Y-175018750D01*
X125998214Y-175056845D01*
X125922023Y-175171130D01*
X125883928Y-175323511D01*
X125883928Y-175628273D01*
X125922023Y-175704464D01*
X125960119Y-175742559D01*
X126036309Y-175780654D01*
X126188690Y-175780654D01*
X126264880Y-175742559D01*
X126302976Y-175704464D01*
X126341071Y-175628273D01*
X126341071Y-175437797D01*
X126302976Y-175361607D01*
X126264880Y-175323511D01*
X126188690Y-175285416D01*
X126036309Y-175285416D01*
X125960119Y-175323511D01*
X125922023Y-175361607D01*
X125883928Y-175437797D01*
%TO.C,D25*%
X166209821Y-182924404D02*
X166209821Y-182124404D01*
X166400297Y-182124404D01*
X166514583Y-182162500D01*
X166590773Y-182238690D01*
X166628869Y-182314880D01*
X166666964Y-182467261D01*
X166666964Y-182581547D01*
X166628869Y-182733928D01*
X166590773Y-182810119D01*
X166514583Y-182886309D01*
X166400297Y-182924404D01*
X166209821Y-182924404D01*
X166971726Y-182200595D02*
X167009821Y-182162500D01*
X167086011Y-182124404D01*
X167276488Y-182124404D01*
X167352678Y-182162500D01*
X167390773Y-182200595D01*
X167428869Y-182276785D01*
X167428869Y-182352976D01*
X167390773Y-182467261D01*
X166933630Y-182924404D01*
X167428869Y-182924404D01*
X168152678Y-182124404D02*
X167771726Y-182124404D01*
X167733630Y-182505357D01*
X167771726Y-182467261D01*
X167847916Y-182429166D01*
X168038392Y-182429166D01*
X168114583Y-182467261D01*
X168152678Y-182505357D01*
X168190773Y-182581547D01*
X168190773Y-182772023D01*
X168152678Y-182848214D01*
X168114583Y-182886309D01*
X168038392Y-182924404D01*
X167847916Y-182924404D01*
X167771726Y-182886309D01*
X167733630Y-182848214D01*
%TO.C,D26*%
X151728571Y-171018154D02*
X151728571Y-170218154D01*
X151919047Y-170218154D01*
X152033333Y-170256250D01*
X152109523Y-170332440D01*
X152147619Y-170408630D01*
X152185714Y-170561011D01*
X152185714Y-170675297D01*
X152147619Y-170827678D01*
X152109523Y-170903869D01*
X152033333Y-170980059D01*
X151919047Y-171018154D01*
X151728571Y-171018154D01*
X152490476Y-170294345D02*
X152528571Y-170256250D01*
X152604761Y-170218154D01*
X152795238Y-170218154D01*
X152871428Y-170256250D01*
X152909523Y-170294345D01*
X152947619Y-170370535D01*
X152947619Y-170446726D01*
X152909523Y-170561011D01*
X152452380Y-171018154D01*
X152947619Y-171018154D01*
X153633333Y-170218154D02*
X153480952Y-170218154D01*
X153404761Y-170256250D01*
X153366666Y-170294345D01*
X153290476Y-170408630D01*
X153252380Y-170561011D01*
X153252380Y-170865773D01*
X153290476Y-170941964D01*
X153328571Y-170980059D01*
X153404761Y-171018154D01*
X153557142Y-171018154D01*
X153633333Y-170980059D01*
X153671428Y-170941964D01*
X153709523Y-170865773D01*
X153709523Y-170675297D01*
X153671428Y-170599107D01*
X153633333Y-170561011D01*
X153557142Y-170522916D01*
X153404761Y-170522916D01*
X153328571Y-170561011D01*
X153290476Y-170599107D01*
X153252380Y-170675297D01*
%TO.C,D56*%
X338453571Y-178161904D02*
X338453571Y-177361904D01*
X338644047Y-177361904D01*
X338758333Y-177400000D01*
X338834523Y-177476190D01*
X338872619Y-177552380D01*
X338910714Y-177704761D01*
X338910714Y-177819047D01*
X338872619Y-177971428D01*
X338834523Y-178047619D01*
X338758333Y-178123809D01*
X338644047Y-178161904D01*
X338453571Y-178161904D01*
X339634523Y-177361904D02*
X339253571Y-177361904D01*
X339215476Y-177742857D01*
X339253571Y-177704761D01*
X339329761Y-177666666D01*
X339520238Y-177666666D01*
X339596428Y-177704761D01*
X339634523Y-177742857D01*
X339672619Y-177819047D01*
X339672619Y-178009523D01*
X339634523Y-178085714D01*
X339596428Y-178123809D01*
X339520238Y-178161904D01*
X339329761Y-178161904D01*
X339253571Y-178123809D01*
X339215476Y-178085714D01*
X340358333Y-177361904D02*
X340205952Y-177361904D01*
X340129761Y-177400000D01*
X340091666Y-177438095D01*
X340015476Y-177552380D01*
X339977380Y-177704761D01*
X339977380Y-178009523D01*
X340015476Y-178085714D01*
X340053571Y-178123809D01*
X340129761Y-178161904D01*
X340282142Y-178161904D01*
X340358333Y-178123809D01*
X340396428Y-178085714D01*
X340434523Y-178009523D01*
X340434523Y-177819047D01*
X340396428Y-177742857D01*
X340358333Y-177704761D01*
X340282142Y-177666666D01*
X340129761Y-177666666D01*
X340053571Y-177704761D01*
X340015476Y-177742857D01*
X339977380Y-177819047D01*
D11*
%TO.C,R1*%
X294727380Y-133532440D02*
X294727380Y-134008630D01*
X295203571Y-134056250D01*
X295155952Y-134008630D01*
X295108333Y-133913392D01*
X295108333Y-133675297D01*
X295155952Y-133580059D01*
X295203571Y-133532440D01*
X295298809Y-133484821D01*
X295536904Y-133484821D01*
X295632142Y-133532440D01*
X295679761Y-133580059D01*
X295727380Y-133675297D01*
X295727380Y-133913392D01*
X295679761Y-134008630D01*
X295632142Y-134056250D01*
X295632142Y-133056250D02*
X295679761Y-133008630D01*
X295727380Y-133056250D01*
X295679761Y-133103869D01*
X295632142Y-133056250D01*
X295727380Y-133056250D01*
X295727380Y-132056250D02*
X295727380Y-132627678D01*
X295727380Y-132341964D02*
X294727380Y-132341964D01*
X294870238Y-132437202D01*
X294965476Y-132532440D01*
X295013095Y-132627678D01*
X295727380Y-131627678D02*
X294727380Y-131627678D01*
X295727380Y-131056250D02*
X295155952Y-131484821D01*
X294727380Y-131056250D02*
X295298809Y-131627678D01*
D10*
%TO.C,D87*%
X257491071Y-173399404D02*
X257491071Y-172599404D01*
X257681547Y-172599404D01*
X257795833Y-172637500D01*
X257872023Y-172713690D01*
X257910119Y-172789880D01*
X257948214Y-172942261D01*
X257948214Y-173056547D01*
X257910119Y-173208928D01*
X257872023Y-173285119D01*
X257795833Y-173361309D01*
X257681547Y-173399404D01*
X257491071Y-173399404D01*
X258405357Y-172942261D02*
X258329166Y-172904166D01*
X258291071Y-172866071D01*
X258252976Y-172789880D01*
X258252976Y-172751785D01*
X258291071Y-172675595D01*
X258329166Y-172637500D01*
X258405357Y-172599404D01*
X258557738Y-172599404D01*
X258633928Y-172637500D01*
X258672023Y-172675595D01*
X258710119Y-172751785D01*
X258710119Y-172789880D01*
X258672023Y-172866071D01*
X258633928Y-172904166D01*
X258557738Y-172942261D01*
X258405357Y-172942261D01*
X258329166Y-172980357D01*
X258291071Y-173018452D01*
X258252976Y-173094642D01*
X258252976Y-173247023D01*
X258291071Y-173323214D01*
X258329166Y-173361309D01*
X258405357Y-173399404D01*
X258557738Y-173399404D01*
X258633928Y-173361309D01*
X258672023Y-173323214D01*
X258710119Y-173247023D01*
X258710119Y-173094642D01*
X258672023Y-173018452D01*
X258633928Y-172980357D01*
X258557738Y-172942261D01*
X258976785Y-172599404D02*
X259510119Y-172599404D01*
X259167261Y-173399404D01*
D11*
%TO.C,R6*%
X274042261Y-131421130D02*
X273470833Y-131421130D01*
X273756547Y-131421130D02*
X273756547Y-130421130D01*
X273661309Y-130563988D01*
X273566071Y-130659226D01*
X273470833Y-130706845D01*
X274661309Y-130421130D02*
X274756547Y-130421130D01*
X274851785Y-130468750D01*
X274899404Y-130516369D01*
X274947023Y-130611607D01*
X274994642Y-130802083D01*
X274994642Y-131040178D01*
X274947023Y-131230654D01*
X274899404Y-131325892D01*
X274851785Y-131373511D01*
X274756547Y-131421130D01*
X274661309Y-131421130D01*
X274566071Y-131373511D01*
X274518452Y-131325892D01*
X274470833Y-131230654D01*
X274423214Y-131040178D01*
X274423214Y-130802083D01*
X274470833Y-130611607D01*
X274518452Y-130516369D01*
X274566071Y-130468750D01*
X274661309Y-130421130D01*
X275423214Y-131421130D02*
X275423214Y-130421130D01*
X275518452Y-131040178D02*
X275804166Y-131421130D01*
X275804166Y-130754464D02*
X275423214Y-131135416D01*
D10*
%TO.C,D11*%
X139222321Y-175780654D02*
X139222321Y-174980654D01*
X139412797Y-174980654D01*
X139527083Y-175018750D01*
X139603273Y-175094940D01*
X139641369Y-175171130D01*
X139679464Y-175323511D01*
X139679464Y-175437797D01*
X139641369Y-175590178D01*
X139603273Y-175666369D01*
X139527083Y-175742559D01*
X139412797Y-175780654D01*
X139222321Y-175780654D01*
X140441369Y-175780654D02*
X139984226Y-175780654D01*
X140212797Y-175780654D02*
X140212797Y-174980654D01*
X140136607Y-175094940D01*
X140060416Y-175171130D01*
X139984226Y-175209226D01*
X141203273Y-175780654D02*
X140746130Y-175780654D01*
X140974702Y-175780654D02*
X140974702Y-174980654D01*
X140898511Y-175094940D01*
X140822321Y-175171130D01*
X140746130Y-175209226D01*
%TO.C,D29*%
X166209821Y-178161904D02*
X166209821Y-177361904D01*
X166400297Y-177361904D01*
X166514583Y-177400000D01*
X166590773Y-177476190D01*
X166628869Y-177552380D01*
X166666964Y-177704761D01*
X166666964Y-177819047D01*
X166628869Y-177971428D01*
X166590773Y-178047619D01*
X166514583Y-178123809D01*
X166400297Y-178161904D01*
X166209821Y-178161904D01*
X166971726Y-177438095D02*
X167009821Y-177400000D01*
X167086011Y-177361904D01*
X167276488Y-177361904D01*
X167352678Y-177400000D01*
X167390773Y-177438095D01*
X167428869Y-177514285D01*
X167428869Y-177590476D01*
X167390773Y-177704761D01*
X166933630Y-178161904D01*
X167428869Y-178161904D01*
X167809821Y-178161904D02*
X167962202Y-178161904D01*
X168038392Y-178123809D01*
X168076488Y-178085714D01*
X168152678Y-177971428D01*
X168190773Y-177819047D01*
X168190773Y-177514285D01*
X168152678Y-177438095D01*
X168114583Y-177400000D01*
X168038392Y-177361904D01*
X167886011Y-177361904D01*
X167809821Y-177400000D01*
X167771726Y-177438095D01*
X167733630Y-177514285D01*
X167733630Y-177704761D01*
X167771726Y-177780952D01*
X167809821Y-177819047D01*
X167886011Y-177857142D01*
X168038392Y-177857142D01*
X168114583Y-177819047D01*
X168152678Y-177780952D01*
X168190773Y-177704761D01*
D11*
%TO.C,SW123*%
X261374107Y-139628571D02*
X261516964Y-139676190D01*
X261564583Y-139723809D01*
X261612202Y-139819047D01*
X261612202Y-139961904D01*
X261564583Y-140057142D01*
X261516964Y-140104761D01*
X261421726Y-140152380D01*
X261040773Y-140152380D01*
X261040773Y-139152380D01*
X261374107Y-139152380D01*
X261469345Y-139200000D01*
X261516964Y-139247619D01*
X261564583Y-139342857D01*
X261564583Y-139438095D01*
X261516964Y-139533333D01*
X261469345Y-139580952D01*
X261374107Y-139628571D01*
X261040773Y-139628571D01*
X262231250Y-139152380D02*
X262421726Y-139152380D01*
X262516964Y-139200000D01*
X262612202Y-139295238D01*
X262659821Y-139485714D01*
X262659821Y-139819047D01*
X262612202Y-140009523D01*
X262516964Y-140104761D01*
X262421726Y-140152380D01*
X262231250Y-140152380D01*
X262136011Y-140104761D01*
X262040773Y-140009523D01*
X261993154Y-139819047D01*
X261993154Y-139485714D01*
X262040773Y-139295238D01*
X262136011Y-139200000D01*
X262231250Y-139152380D01*
X263278869Y-139152380D02*
X263469345Y-139152380D01*
X263564583Y-139200000D01*
X263659821Y-139295238D01*
X263707440Y-139485714D01*
X263707440Y-139819047D01*
X263659821Y-140009523D01*
X263564583Y-140104761D01*
X263469345Y-140152380D01*
X263278869Y-140152380D01*
X263183630Y-140104761D01*
X263088392Y-140009523D01*
X263040773Y-139819047D01*
X263040773Y-139485714D01*
X263088392Y-139295238D01*
X263183630Y-139200000D01*
X263278869Y-139152380D01*
X263993154Y-139152380D02*
X264564583Y-139152380D01*
X264278869Y-140152380D02*
X264278869Y-139152380D01*
D10*
%TO.C,D92*%
X365441071Y-180543154D02*
X365441071Y-179743154D01*
X365631547Y-179743154D01*
X365745833Y-179781250D01*
X365822023Y-179857440D01*
X365860119Y-179933630D01*
X365898214Y-180086011D01*
X365898214Y-180200297D01*
X365860119Y-180352678D01*
X365822023Y-180428869D01*
X365745833Y-180505059D01*
X365631547Y-180543154D01*
X365441071Y-180543154D01*
X366279166Y-180543154D02*
X366431547Y-180543154D01*
X366507738Y-180505059D01*
X366545833Y-180466964D01*
X366622023Y-180352678D01*
X366660119Y-180200297D01*
X366660119Y-179895535D01*
X366622023Y-179819345D01*
X366583928Y-179781250D01*
X366507738Y-179743154D01*
X366355357Y-179743154D01*
X366279166Y-179781250D01*
X366241071Y-179819345D01*
X366202976Y-179895535D01*
X366202976Y-180086011D01*
X366241071Y-180162202D01*
X366279166Y-180200297D01*
X366355357Y-180238392D01*
X366507738Y-180238392D01*
X366583928Y-180200297D01*
X366622023Y-180162202D01*
X366660119Y-180086011D01*
X366964880Y-179819345D02*
X367002976Y-179781250D01*
X367079166Y-179743154D01*
X367269642Y-179743154D01*
X367345833Y-179781250D01*
X367383928Y-179819345D01*
X367422023Y-179895535D01*
X367422023Y-179971726D01*
X367383928Y-180086011D01*
X366926785Y-180543154D01*
X367422023Y-180543154D01*
%TO.C,D33*%
X166209821Y-173399404D02*
X166209821Y-172599404D01*
X166400297Y-172599404D01*
X166514583Y-172637500D01*
X166590773Y-172713690D01*
X166628869Y-172789880D01*
X166666964Y-172942261D01*
X166666964Y-173056547D01*
X166628869Y-173208928D01*
X166590773Y-173285119D01*
X166514583Y-173361309D01*
X166400297Y-173399404D01*
X166209821Y-173399404D01*
X166933630Y-172599404D02*
X167428869Y-172599404D01*
X167162202Y-172904166D01*
X167276488Y-172904166D01*
X167352678Y-172942261D01*
X167390773Y-172980357D01*
X167428869Y-173056547D01*
X167428869Y-173247023D01*
X167390773Y-173323214D01*
X167352678Y-173361309D01*
X167276488Y-173399404D01*
X167047916Y-173399404D01*
X166971726Y-173361309D01*
X166933630Y-173323214D01*
X167695535Y-172599404D02*
X168190773Y-172599404D01*
X167924107Y-172904166D01*
X168038392Y-172904166D01*
X168114583Y-172942261D01*
X168152678Y-172980357D01*
X168190773Y-173056547D01*
X168190773Y-173247023D01*
X168152678Y-173323214D01*
X168114583Y-173361309D01*
X168038392Y-173399404D01*
X167809821Y-173399404D01*
X167733630Y-173361309D01*
X167695535Y-173323214D01*
%TO.C,D81*%
X257491071Y-180543154D02*
X257491071Y-179743154D01*
X257681547Y-179743154D01*
X257795833Y-179781250D01*
X257872023Y-179857440D01*
X257910119Y-179933630D01*
X257948214Y-180086011D01*
X257948214Y-180200297D01*
X257910119Y-180352678D01*
X257872023Y-180428869D01*
X257795833Y-180505059D01*
X257681547Y-180543154D01*
X257491071Y-180543154D01*
X258405357Y-180086011D02*
X258329166Y-180047916D01*
X258291071Y-180009821D01*
X258252976Y-179933630D01*
X258252976Y-179895535D01*
X258291071Y-179819345D01*
X258329166Y-179781250D01*
X258405357Y-179743154D01*
X258557738Y-179743154D01*
X258633928Y-179781250D01*
X258672023Y-179819345D01*
X258710119Y-179895535D01*
X258710119Y-179933630D01*
X258672023Y-180009821D01*
X258633928Y-180047916D01*
X258557738Y-180086011D01*
X258405357Y-180086011D01*
X258329166Y-180124107D01*
X258291071Y-180162202D01*
X258252976Y-180238392D01*
X258252976Y-180390773D01*
X258291071Y-180466964D01*
X258329166Y-180505059D01*
X258405357Y-180543154D01*
X258557738Y-180543154D01*
X258633928Y-180505059D01*
X258672023Y-180466964D01*
X258710119Y-180390773D01*
X258710119Y-180238392D01*
X258672023Y-180162202D01*
X258633928Y-180124107D01*
X258557738Y-180086011D01*
X259472023Y-180543154D02*
X259014880Y-180543154D01*
X259243452Y-180543154D02*
X259243452Y-179743154D01*
X259167261Y-179857440D01*
X259091071Y-179933630D01*
X259014880Y-179971726D01*
%TO.C,D46*%
X193197321Y-180543154D02*
X193197321Y-179743154D01*
X193387797Y-179743154D01*
X193502083Y-179781250D01*
X193578273Y-179857440D01*
X193616369Y-179933630D01*
X193654464Y-180086011D01*
X193654464Y-180200297D01*
X193616369Y-180352678D01*
X193578273Y-180428869D01*
X193502083Y-180505059D01*
X193387797Y-180543154D01*
X193197321Y-180543154D01*
X194340178Y-180009821D02*
X194340178Y-180543154D01*
X194149702Y-179705059D02*
X193959226Y-180276488D01*
X194454464Y-180276488D01*
X195102083Y-179743154D02*
X194949702Y-179743154D01*
X194873511Y-179781250D01*
X194835416Y-179819345D01*
X194759226Y-179933630D01*
X194721130Y-180086011D01*
X194721130Y-180390773D01*
X194759226Y-180466964D01*
X194797321Y-180505059D01*
X194873511Y-180543154D01*
X195025892Y-180543154D01*
X195102083Y-180505059D01*
X195140178Y-180466964D01*
X195178273Y-180390773D01*
X195178273Y-180200297D01*
X195140178Y-180124107D01*
X195102083Y-180086011D01*
X195025892Y-180047916D01*
X194873511Y-180047916D01*
X194797321Y-180086011D01*
X194759226Y-180124107D01*
X194721130Y-180200297D01*
%TO.C,D97*%
X269997321Y-182924404D02*
X269997321Y-182124404D01*
X270187797Y-182124404D01*
X270302083Y-182162500D01*
X270378273Y-182238690D01*
X270416369Y-182314880D01*
X270454464Y-182467261D01*
X270454464Y-182581547D01*
X270416369Y-182733928D01*
X270378273Y-182810119D01*
X270302083Y-182886309D01*
X270187797Y-182924404D01*
X269997321Y-182924404D01*
X270835416Y-182924404D02*
X270987797Y-182924404D01*
X271063988Y-182886309D01*
X271102083Y-182848214D01*
X271178273Y-182733928D01*
X271216369Y-182581547D01*
X271216369Y-182276785D01*
X271178273Y-182200595D01*
X271140178Y-182162500D01*
X271063988Y-182124404D01*
X270911607Y-182124404D01*
X270835416Y-182162500D01*
X270797321Y-182200595D01*
X270759226Y-182276785D01*
X270759226Y-182467261D01*
X270797321Y-182543452D01*
X270835416Y-182581547D01*
X270911607Y-182619642D01*
X271063988Y-182619642D01*
X271140178Y-182581547D01*
X271178273Y-182543452D01*
X271216369Y-182467261D01*
X271483035Y-182124404D02*
X272016369Y-182124404D01*
X271673511Y-182924404D01*
%TO.C,D17*%
X296984821Y-182924404D02*
X296984821Y-182124404D01*
X297175297Y-182124404D01*
X297289583Y-182162500D01*
X297365773Y-182238690D01*
X297403869Y-182314880D01*
X297441964Y-182467261D01*
X297441964Y-182581547D01*
X297403869Y-182733928D01*
X297365773Y-182810119D01*
X297289583Y-182886309D01*
X297175297Y-182924404D01*
X296984821Y-182924404D01*
X298203869Y-182924404D02*
X297746726Y-182924404D01*
X297975297Y-182924404D02*
X297975297Y-182124404D01*
X297899107Y-182238690D01*
X297822916Y-182314880D01*
X297746726Y-182352976D01*
X298470535Y-182124404D02*
X299003869Y-182124404D01*
X298661011Y-182924404D01*
%TO.C,D98*%
X269997321Y-180543154D02*
X269997321Y-179743154D01*
X270187797Y-179743154D01*
X270302083Y-179781250D01*
X270378273Y-179857440D01*
X270416369Y-179933630D01*
X270454464Y-180086011D01*
X270454464Y-180200297D01*
X270416369Y-180352678D01*
X270378273Y-180428869D01*
X270302083Y-180505059D01*
X270187797Y-180543154D01*
X269997321Y-180543154D01*
X270835416Y-180543154D02*
X270987797Y-180543154D01*
X271063988Y-180505059D01*
X271102083Y-180466964D01*
X271178273Y-180352678D01*
X271216369Y-180200297D01*
X271216369Y-179895535D01*
X271178273Y-179819345D01*
X271140178Y-179781250D01*
X271063988Y-179743154D01*
X270911607Y-179743154D01*
X270835416Y-179781250D01*
X270797321Y-179819345D01*
X270759226Y-179895535D01*
X270759226Y-180086011D01*
X270797321Y-180162202D01*
X270835416Y-180200297D01*
X270911607Y-180238392D01*
X271063988Y-180238392D01*
X271140178Y-180200297D01*
X271178273Y-180162202D01*
X271216369Y-180086011D01*
X271673511Y-180086011D02*
X271597321Y-180047916D01*
X271559226Y-180009821D01*
X271521130Y-179933630D01*
X271521130Y-179895535D01*
X271559226Y-179819345D01*
X271597321Y-179781250D01*
X271673511Y-179743154D01*
X271825892Y-179743154D01*
X271902083Y-179781250D01*
X271940178Y-179819345D01*
X271978273Y-179895535D01*
X271978273Y-179933630D01*
X271940178Y-180009821D01*
X271902083Y-180047916D01*
X271825892Y-180086011D01*
X271673511Y-180086011D01*
X271597321Y-180124107D01*
X271559226Y-180162202D01*
X271521130Y-180238392D01*
X271521130Y-180390773D01*
X271559226Y-180466964D01*
X271597321Y-180505059D01*
X271673511Y-180543154D01*
X271825892Y-180543154D01*
X271902083Y-180505059D01*
X271940178Y-180466964D01*
X271978273Y-180390773D01*
X271978273Y-180238392D01*
X271940178Y-180162202D01*
X271902083Y-180124107D01*
X271825892Y-180086011D01*
%TO.C,D15*%
X296984821Y-178161904D02*
X296984821Y-177361904D01*
X297175297Y-177361904D01*
X297289583Y-177400000D01*
X297365773Y-177476190D01*
X297403869Y-177552380D01*
X297441964Y-177704761D01*
X297441964Y-177819047D01*
X297403869Y-177971428D01*
X297365773Y-178047619D01*
X297289583Y-178123809D01*
X297175297Y-178161904D01*
X296984821Y-178161904D01*
X298203869Y-178161904D02*
X297746726Y-178161904D01*
X297975297Y-178161904D02*
X297975297Y-177361904D01*
X297899107Y-177476190D01*
X297822916Y-177552380D01*
X297746726Y-177590476D01*
X298927678Y-177361904D02*
X298546726Y-177361904D01*
X298508630Y-177742857D01*
X298546726Y-177704761D01*
X298622916Y-177666666D01*
X298813392Y-177666666D01*
X298889583Y-177704761D01*
X298927678Y-177742857D01*
X298965773Y-177819047D01*
X298965773Y-178009523D01*
X298927678Y-178085714D01*
X298889583Y-178123809D01*
X298813392Y-178161904D01*
X298622916Y-178161904D01*
X298546726Y-178123809D01*
X298508630Y-178085714D01*
%TO.C,D54*%
X193197321Y-171018154D02*
X193197321Y-170218154D01*
X193387797Y-170218154D01*
X193502083Y-170256250D01*
X193578273Y-170332440D01*
X193616369Y-170408630D01*
X193654464Y-170561011D01*
X193654464Y-170675297D01*
X193616369Y-170827678D01*
X193578273Y-170903869D01*
X193502083Y-170980059D01*
X193387797Y-171018154D01*
X193197321Y-171018154D01*
X194378273Y-170218154D02*
X193997321Y-170218154D01*
X193959226Y-170599107D01*
X193997321Y-170561011D01*
X194073511Y-170522916D01*
X194263988Y-170522916D01*
X194340178Y-170561011D01*
X194378273Y-170599107D01*
X194416369Y-170675297D01*
X194416369Y-170865773D01*
X194378273Y-170941964D01*
X194340178Y-170980059D01*
X194263988Y-171018154D01*
X194073511Y-171018154D01*
X193997321Y-170980059D01*
X193959226Y-170941964D01*
X195102083Y-170484821D02*
X195102083Y-171018154D01*
X194911607Y-170180059D02*
X194721130Y-170751488D01*
X195216369Y-170751488D01*
%TO.C,D51*%
X178716071Y-175780654D02*
X178716071Y-174980654D01*
X178906547Y-174980654D01*
X179020833Y-175018750D01*
X179097023Y-175094940D01*
X179135119Y-175171130D01*
X179173214Y-175323511D01*
X179173214Y-175437797D01*
X179135119Y-175590178D01*
X179097023Y-175666369D01*
X179020833Y-175742559D01*
X178906547Y-175780654D01*
X178716071Y-175780654D01*
X179897023Y-174980654D02*
X179516071Y-174980654D01*
X179477976Y-175361607D01*
X179516071Y-175323511D01*
X179592261Y-175285416D01*
X179782738Y-175285416D01*
X179858928Y-175323511D01*
X179897023Y-175361607D01*
X179935119Y-175437797D01*
X179935119Y-175628273D01*
X179897023Y-175704464D01*
X179858928Y-175742559D01*
X179782738Y-175780654D01*
X179592261Y-175780654D01*
X179516071Y-175742559D01*
X179477976Y-175704464D01*
X180697023Y-175780654D02*
X180239880Y-175780654D01*
X180468452Y-175780654D02*
X180468452Y-174980654D01*
X180392261Y-175094940D01*
X180316071Y-175171130D01*
X180239880Y-175209226D01*
%TO.C,D68*%
X220184821Y-175780654D02*
X220184821Y-174980654D01*
X220375297Y-174980654D01*
X220489583Y-175018750D01*
X220565773Y-175094940D01*
X220603869Y-175171130D01*
X220641964Y-175323511D01*
X220641964Y-175437797D01*
X220603869Y-175590178D01*
X220565773Y-175666369D01*
X220489583Y-175742559D01*
X220375297Y-175780654D01*
X220184821Y-175780654D01*
X221327678Y-174980654D02*
X221175297Y-174980654D01*
X221099107Y-175018750D01*
X221061011Y-175056845D01*
X220984821Y-175171130D01*
X220946726Y-175323511D01*
X220946726Y-175628273D01*
X220984821Y-175704464D01*
X221022916Y-175742559D01*
X221099107Y-175780654D01*
X221251488Y-175780654D01*
X221327678Y-175742559D01*
X221365773Y-175704464D01*
X221403869Y-175628273D01*
X221403869Y-175437797D01*
X221365773Y-175361607D01*
X221327678Y-175323511D01*
X221251488Y-175285416D01*
X221099107Y-175285416D01*
X221022916Y-175323511D01*
X220984821Y-175361607D01*
X220946726Y-175437797D01*
X221861011Y-175323511D02*
X221784821Y-175285416D01*
X221746726Y-175247321D01*
X221708630Y-175171130D01*
X221708630Y-175133035D01*
X221746726Y-175056845D01*
X221784821Y-175018750D01*
X221861011Y-174980654D01*
X222013392Y-174980654D01*
X222089583Y-175018750D01*
X222127678Y-175056845D01*
X222165773Y-175133035D01*
X222165773Y-175171130D01*
X222127678Y-175247321D01*
X222089583Y-175285416D01*
X222013392Y-175323511D01*
X221861011Y-175323511D01*
X221784821Y-175361607D01*
X221746726Y-175399702D01*
X221708630Y-175475892D01*
X221708630Y-175628273D01*
X221746726Y-175704464D01*
X221784821Y-175742559D01*
X221861011Y-175780654D01*
X222013392Y-175780654D01*
X222089583Y-175742559D01*
X222127678Y-175704464D01*
X222165773Y-175628273D01*
X222165773Y-175475892D01*
X222127678Y-175399702D01*
X222089583Y-175361607D01*
X222013392Y-175323511D01*
%TO.C,D99*%
X269997321Y-173399404D02*
X269997321Y-172599404D01*
X270187797Y-172599404D01*
X270302083Y-172637500D01*
X270378273Y-172713690D01*
X270416369Y-172789880D01*
X270454464Y-172942261D01*
X270454464Y-173056547D01*
X270416369Y-173208928D01*
X270378273Y-173285119D01*
X270302083Y-173361309D01*
X270187797Y-173399404D01*
X269997321Y-173399404D01*
X270835416Y-173399404D02*
X270987797Y-173399404D01*
X271063988Y-173361309D01*
X271102083Y-173323214D01*
X271178273Y-173208928D01*
X271216369Y-173056547D01*
X271216369Y-172751785D01*
X271178273Y-172675595D01*
X271140178Y-172637500D01*
X271063988Y-172599404D01*
X270911607Y-172599404D01*
X270835416Y-172637500D01*
X270797321Y-172675595D01*
X270759226Y-172751785D01*
X270759226Y-172942261D01*
X270797321Y-173018452D01*
X270835416Y-173056547D01*
X270911607Y-173094642D01*
X271063988Y-173094642D01*
X271140178Y-173056547D01*
X271178273Y-173018452D01*
X271216369Y-172942261D01*
X271597321Y-173399404D02*
X271749702Y-173399404D01*
X271825892Y-173361309D01*
X271863988Y-173323214D01*
X271940178Y-173208928D01*
X271978273Y-173056547D01*
X271978273Y-172751785D01*
X271940178Y-172675595D01*
X271902083Y-172637500D01*
X271825892Y-172599404D01*
X271673511Y-172599404D01*
X271597321Y-172637500D01*
X271559226Y-172675595D01*
X271521130Y-172751785D01*
X271521130Y-172942261D01*
X271559226Y-173018452D01*
X271597321Y-173056547D01*
X271673511Y-173094642D01*
X271825892Y-173094642D01*
X271902083Y-173056547D01*
X271940178Y-173018452D01*
X271978273Y-172942261D01*
%TO.C,D90*%
X232691071Y-171018154D02*
X232691071Y-170218154D01*
X232881547Y-170218154D01*
X232995833Y-170256250D01*
X233072023Y-170332440D01*
X233110119Y-170408630D01*
X233148214Y-170561011D01*
X233148214Y-170675297D01*
X233110119Y-170827678D01*
X233072023Y-170903869D01*
X232995833Y-170980059D01*
X232881547Y-171018154D01*
X232691071Y-171018154D01*
X233529166Y-171018154D02*
X233681547Y-171018154D01*
X233757738Y-170980059D01*
X233795833Y-170941964D01*
X233872023Y-170827678D01*
X233910119Y-170675297D01*
X233910119Y-170370535D01*
X233872023Y-170294345D01*
X233833928Y-170256250D01*
X233757738Y-170218154D01*
X233605357Y-170218154D01*
X233529166Y-170256250D01*
X233491071Y-170294345D01*
X233452976Y-170370535D01*
X233452976Y-170561011D01*
X233491071Y-170637202D01*
X233529166Y-170675297D01*
X233605357Y-170713392D01*
X233757738Y-170713392D01*
X233833928Y-170675297D01*
X233872023Y-170637202D01*
X233910119Y-170561011D01*
X234405357Y-170218154D02*
X234481547Y-170218154D01*
X234557738Y-170256250D01*
X234595833Y-170294345D01*
X234633928Y-170370535D01*
X234672023Y-170522916D01*
X234672023Y-170713392D01*
X234633928Y-170865773D01*
X234595833Y-170941964D01*
X234557738Y-170980059D01*
X234481547Y-171018154D01*
X234405357Y-171018154D01*
X234329166Y-170980059D01*
X234291071Y-170941964D01*
X234252976Y-170865773D01*
X234214880Y-170713392D01*
X234214880Y-170522916D01*
X234252976Y-170370535D01*
X234291071Y-170294345D01*
X234329166Y-170256250D01*
X234405357Y-170218154D01*
%TO.C,D94*%
X365441071Y-185305654D02*
X365441071Y-184505654D01*
X365631547Y-184505654D01*
X365745833Y-184543750D01*
X365822023Y-184619940D01*
X365860119Y-184696130D01*
X365898214Y-184848511D01*
X365898214Y-184962797D01*
X365860119Y-185115178D01*
X365822023Y-185191369D01*
X365745833Y-185267559D01*
X365631547Y-185305654D01*
X365441071Y-185305654D01*
X366279166Y-185305654D02*
X366431547Y-185305654D01*
X366507738Y-185267559D01*
X366545833Y-185229464D01*
X366622023Y-185115178D01*
X366660119Y-184962797D01*
X366660119Y-184658035D01*
X366622023Y-184581845D01*
X366583928Y-184543750D01*
X366507738Y-184505654D01*
X366355357Y-184505654D01*
X366279166Y-184543750D01*
X366241071Y-184581845D01*
X366202976Y-184658035D01*
X366202976Y-184848511D01*
X366241071Y-184924702D01*
X366279166Y-184962797D01*
X366355357Y-185000892D01*
X366507738Y-185000892D01*
X366583928Y-184962797D01*
X366622023Y-184924702D01*
X366660119Y-184848511D01*
X367345833Y-184772321D02*
X367345833Y-185305654D01*
X367155357Y-184467559D02*
X366964880Y-185038988D01*
X367460119Y-185038988D01*
%TO.C,D19*%
X311466071Y-178161904D02*
X311466071Y-177361904D01*
X311656547Y-177361904D01*
X311770833Y-177400000D01*
X311847023Y-177476190D01*
X311885119Y-177552380D01*
X311923214Y-177704761D01*
X311923214Y-177819047D01*
X311885119Y-177971428D01*
X311847023Y-178047619D01*
X311770833Y-178123809D01*
X311656547Y-178161904D01*
X311466071Y-178161904D01*
X312685119Y-178161904D02*
X312227976Y-178161904D01*
X312456547Y-178161904D02*
X312456547Y-177361904D01*
X312380357Y-177476190D01*
X312304166Y-177552380D01*
X312227976Y-177590476D01*
X313066071Y-178161904D02*
X313218452Y-178161904D01*
X313294642Y-178123809D01*
X313332738Y-178085714D01*
X313408928Y-177971428D01*
X313447023Y-177819047D01*
X313447023Y-177514285D01*
X313408928Y-177438095D01*
X313370833Y-177400000D01*
X313294642Y-177361904D01*
X313142261Y-177361904D01*
X313066071Y-177400000D01*
X313027976Y-177438095D01*
X312989880Y-177514285D01*
X312989880Y-177704761D01*
X313027976Y-177780952D01*
X313066071Y-177819047D01*
X313142261Y-177857142D01*
X313294642Y-177857142D01*
X313370833Y-177819047D01*
X313408928Y-177780952D01*
X313447023Y-177704761D01*
%TO.C,D95*%
X269997321Y-185305654D02*
X269997321Y-184505654D01*
X270187797Y-184505654D01*
X270302083Y-184543750D01*
X270378273Y-184619940D01*
X270416369Y-184696130D01*
X270454464Y-184848511D01*
X270454464Y-184962797D01*
X270416369Y-185115178D01*
X270378273Y-185191369D01*
X270302083Y-185267559D01*
X270187797Y-185305654D01*
X269997321Y-185305654D01*
X270835416Y-185305654D02*
X270987797Y-185305654D01*
X271063988Y-185267559D01*
X271102083Y-185229464D01*
X271178273Y-185115178D01*
X271216369Y-184962797D01*
X271216369Y-184658035D01*
X271178273Y-184581845D01*
X271140178Y-184543750D01*
X271063988Y-184505654D01*
X270911607Y-184505654D01*
X270835416Y-184543750D01*
X270797321Y-184581845D01*
X270759226Y-184658035D01*
X270759226Y-184848511D01*
X270797321Y-184924702D01*
X270835416Y-184962797D01*
X270911607Y-185000892D01*
X271063988Y-185000892D01*
X271140178Y-184962797D01*
X271178273Y-184924702D01*
X271216369Y-184848511D01*
X271940178Y-184505654D02*
X271559226Y-184505654D01*
X271521130Y-184886607D01*
X271559226Y-184848511D01*
X271635416Y-184810416D01*
X271825892Y-184810416D01*
X271902083Y-184848511D01*
X271940178Y-184886607D01*
X271978273Y-184962797D01*
X271978273Y-185153273D01*
X271940178Y-185229464D01*
X271902083Y-185267559D01*
X271825892Y-185305654D01*
X271635416Y-185305654D01*
X271559226Y-185267559D01*
X271521130Y-185229464D01*
%TO.C,D69*%
X205703571Y-175780654D02*
X205703571Y-174980654D01*
X205894047Y-174980654D01*
X206008333Y-175018750D01*
X206084523Y-175094940D01*
X206122619Y-175171130D01*
X206160714Y-175323511D01*
X206160714Y-175437797D01*
X206122619Y-175590178D01*
X206084523Y-175666369D01*
X206008333Y-175742559D01*
X205894047Y-175780654D01*
X205703571Y-175780654D01*
X206846428Y-174980654D02*
X206694047Y-174980654D01*
X206617857Y-175018750D01*
X206579761Y-175056845D01*
X206503571Y-175171130D01*
X206465476Y-175323511D01*
X206465476Y-175628273D01*
X206503571Y-175704464D01*
X206541666Y-175742559D01*
X206617857Y-175780654D01*
X206770238Y-175780654D01*
X206846428Y-175742559D01*
X206884523Y-175704464D01*
X206922619Y-175628273D01*
X206922619Y-175437797D01*
X206884523Y-175361607D01*
X206846428Y-175323511D01*
X206770238Y-175285416D01*
X206617857Y-175285416D01*
X206541666Y-175323511D01*
X206503571Y-175361607D01*
X206465476Y-175437797D01*
X207303571Y-175780654D02*
X207455952Y-175780654D01*
X207532142Y-175742559D01*
X207570238Y-175704464D01*
X207646428Y-175590178D01*
X207684523Y-175437797D01*
X207684523Y-175133035D01*
X207646428Y-175056845D01*
X207608333Y-175018750D01*
X207532142Y-174980654D01*
X207379761Y-174980654D01*
X207303571Y-175018750D01*
X207265476Y-175056845D01*
X207227380Y-175133035D01*
X207227380Y-175323511D01*
X207265476Y-175399702D01*
X207303571Y-175437797D01*
X207379761Y-175475892D01*
X207532142Y-175475892D01*
X207608333Y-175437797D01*
X207646428Y-175399702D01*
X207684523Y-175323511D01*
%TO.C,D23*%
X166209821Y-185305654D02*
X166209821Y-184505654D01*
X166400297Y-184505654D01*
X166514583Y-184543750D01*
X166590773Y-184619940D01*
X166628869Y-184696130D01*
X166666964Y-184848511D01*
X166666964Y-184962797D01*
X166628869Y-185115178D01*
X166590773Y-185191369D01*
X166514583Y-185267559D01*
X166400297Y-185305654D01*
X166209821Y-185305654D01*
X166971726Y-184581845D02*
X167009821Y-184543750D01*
X167086011Y-184505654D01*
X167276488Y-184505654D01*
X167352678Y-184543750D01*
X167390773Y-184581845D01*
X167428869Y-184658035D01*
X167428869Y-184734226D01*
X167390773Y-184848511D01*
X166933630Y-185305654D01*
X167428869Y-185305654D01*
X167695535Y-184505654D02*
X168190773Y-184505654D01*
X167924107Y-184810416D01*
X168038392Y-184810416D01*
X168114583Y-184848511D01*
X168152678Y-184886607D01*
X168190773Y-184962797D01*
X168190773Y-185153273D01*
X168152678Y-185229464D01*
X168114583Y-185267559D01*
X168038392Y-185305654D01*
X167809821Y-185305654D01*
X167733630Y-185267559D01*
X167695535Y-185229464D01*
%TO.C,D16*%
X296984821Y-180543154D02*
X296984821Y-179743154D01*
X297175297Y-179743154D01*
X297289583Y-179781250D01*
X297365773Y-179857440D01*
X297403869Y-179933630D01*
X297441964Y-180086011D01*
X297441964Y-180200297D01*
X297403869Y-180352678D01*
X297365773Y-180428869D01*
X297289583Y-180505059D01*
X297175297Y-180543154D01*
X296984821Y-180543154D01*
X298203869Y-180543154D02*
X297746726Y-180543154D01*
X297975297Y-180543154D02*
X297975297Y-179743154D01*
X297899107Y-179857440D01*
X297822916Y-179933630D01*
X297746726Y-179971726D01*
X298889583Y-179743154D02*
X298737202Y-179743154D01*
X298661011Y-179781250D01*
X298622916Y-179819345D01*
X298546726Y-179933630D01*
X298508630Y-180086011D01*
X298508630Y-180390773D01*
X298546726Y-180466964D01*
X298584821Y-180505059D01*
X298661011Y-180543154D01*
X298813392Y-180543154D01*
X298889583Y-180505059D01*
X298927678Y-180466964D01*
X298965773Y-180390773D01*
X298965773Y-180200297D01*
X298927678Y-180124107D01*
X298889583Y-180086011D01*
X298813392Y-180047916D01*
X298661011Y-180047916D01*
X298584821Y-180086011D01*
X298546726Y-180124107D01*
X298508630Y-180200297D01*
%TO.C,D35*%
X166209821Y-171018154D02*
X166209821Y-170218154D01*
X166400297Y-170218154D01*
X166514583Y-170256250D01*
X166590773Y-170332440D01*
X166628869Y-170408630D01*
X166666964Y-170561011D01*
X166666964Y-170675297D01*
X166628869Y-170827678D01*
X166590773Y-170903869D01*
X166514583Y-170980059D01*
X166400297Y-171018154D01*
X166209821Y-171018154D01*
X166933630Y-170218154D02*
X167428869Y-170218154D01*
X167162202Y-170522916D01*
X167276488Y-170522916D01*
X167352678Y-170561011D01*
X167390773Y-170599107D01*
X167428869Y-170675297D01*
X167428869Y-170865773D01*
X167390773Y-170941964D01*
X167352678Y-170980059D01*
X167276488Y-171018154D01*
X167047916Y-171018154D01*
X166971726Y-170980059D01*
X166933630Y-170941964D01*
X168152678Y-170218154D02*
X167771726Y-170218154D01*
X167733630Y-170599107D01*
X167771726Y-170561011D01*
X167847916Y-170522916D01*
X168038392Y-170522916D01*
X168114583Y-170561011D01*
X168152678Y-170599107D01*
X168190773Y-170675297D01*
X168190773Y-170865773D01*
X168152678Y-170941964D01*
X168114583Y-170980059D01*
X168038392Y-171018154D01*
X167847916Y-171018154D01*
X167771726Y-170980059D01*
X167733630Y-170941964D01*
%TO.C,D64*%
X220184821Y-180543154D02*
X220184821Y-179743154D01*
X220375297Y-179743154D01*
X220489583Y-179781250D01*
X220565773Y-179857440D01*
X220603869Y-179933630D01*
X220641964Y-180086011D01*
X220641964Y-180200297D01*
X220603869Y-180352678D01*
X220565773Y-180428869D01*
X220489583Y-180505059D01*
X220375297Y-180543154D01*
X220184821Y-180543154D01*
X221327678Y-179743154D02*
X221175297Y-179743154D01*
X221099107Y-179781250D01*
X221061011Y-179819345D01*
X220984821Y-179933630D01*
X220946726Y-180086011D01*
X220946726Y-180390773D01*
X220984821Y-180466964D01*
X221022916Y-180505059D01*
X221099107Y-180543154D01*
X221251488Y-180543154D01*
X221327678Y-180505059D01*
X221365773Y-180466964D01*
X221403869Y-180390773D01*
X221403869Y-180200297D01*
X221365773Y-180124107D01*
X221327678Y-180086011D01*
X221251488Y-180047916D01*
X221099107Y-180047916D01*
X221022916Y-180086011D01*
X220984821Y-180124107D01*
X220946726Y-180200297D01*
X222089583Y-180009821D02*
X222089583Y-180543154D01*
X221899107Y-179705059D02*
X221708630Y-180276488D01*
X222203869Y-180276488D01*
%TO.C,D66*%
X220184821Y-178161904D02*
X220184821Y-177361904D01*
X220375297Y-177361904D01*
X220489583Y-177400000D01*
X220565773Y-177476190D01*
X220603869Y-177552380D01*
X220641964Y-177704761D01*
X220641964Y-177819047D01*
X220603869Y-177971428D01*
X220565773Y-178047619D01*
X220489583Y-178123809D01*
X220375297Y-178161904D01*
X220184821Y-178161904D01*
X221327678Y-177361904D02*
X221175297Y-177361904D01*
X221099107Y-177400000D01*
X221061011Y-177438095D01*
X220984821Y-177552380D01*
X220946726Y-177704761D01*
X220946726Y-178009523D01*
X220984821Y-178085714D01*
X221022916Y-178123809D01*
X221099107Y-178161904D01*
X221251488Y-178161904D01*
X221327678Y-178123809D01*
X221365773Y-178085714D01*
X221403869Y-178009523D01*
X221403869Y-177819047D01*
X221365773Y-177742857D01*
X221327678Y-177704761D01*
X221251488Y-177666666D01*
X221099107Y-177666666D01*
X221022916Y-177704761D01*
X220984821Y-177742857D01*
X220946726Y-177819047D01*
X222089583Y-177361904D02*
X221937202Y-177361904D01*
X221861011Y-177400000D01*
X221822916Y-177438095D01*
X221746726Y-177552380D01*
X221708630Y-177704761D01*
X221708630Y-178009523D01*
X221746726Y-178085714D01*
X221784821Y-178123809D01*
X221861011Y-178161904D01*
X222013392Y-178161904D01*
X222089583Y-178123809D01*
X222127678Y-178085714D01*
X222165773Y-178009523D01*
X222165773Y-177819047D01*
X222127678Y-177742857D01*
X222089583Y-177704761D01*
X222013392Y-177666666D01*
X221861011Y-177666666D01*
X221784821Y-177704761D01*
X221746726Y-177742857D01*
X221708630Y-177819047D01*
%TO.C,D105*%
X284097619Y-175780654D02*
X284097619Y-174980654D01*
X284288095Y-174980654D01*
X284402380Y-175018750D01*
X284478571Y-175094940D01*
X284516666Y-175171130D01*
X284554761Y-175323511D01*
X284554761Y-175437797D01*
X284516666Y-175590178D01*
X284478571Y-175666369D01*
X284402380Y-175742559D01*
X284288095Y-175780654D01*
X284097619Y-175780654D01*
X285316666Y-175780654D02*
X284859523Y-175780654D01*
X285088095Y-175780654D02*
X285088095Y-174980654D01*
X285011904Y-175094940D01*
X284935714Y-175171130D01*
X284859523Y-175209226D01*
X285811904Y-174980654D02*
X285888095Y-174980654D01*
X285964285Y-175018750D01*
X286002380Y-175056845D01*
X286040476Y-175133035D01*
X286078571Y-175285416D01*
X286078571Y-175475892D01*
X286040476Y-175628273D01*
X286002380Y-175704464D01*
X285964285Y-175742559D01*
X285888095Y-175780654D01*
X285811904Y-175780654D01*
X285735714Y-175742559D01*
X285697619Y-175704464D01*
X285659523Y-175628273D01*
X285621428Y-175475892D01*
X285621428Y-175285416D01*
X285659523Y-175133035D01*
X285697619Y-175056845D01*
X285735714Y-175018750D01*
X285811904Y-174980654D01*
X286802380Y-174980654D02*
X286421428Y-174980654D01*
X286383333Y-175361607D01*
X286421428Y-175323511D01*
X286497619Y-175285416D01*
X286688095Y-175285416D01*
X286764285Y-175323511D01*
X286802380Y-175361607D01*
X286840476Y-175437797D01*
X286840476Y-175628273D01*
X286802380Y-175704464D01*
X286764285Y-175742559D01*
X286688095Y-175780654D01*
X286497619Y-175780654D01*
X286421428Y-175742559D01*
X286383333Y-175704464D01*
%TO.C,D49*%
X178716071Y-173399404D02*
X178716071Y-172599404D01*
X178906547Y-172599404D01*
X179020833Y-172637500D01*
X179097023Y-172713690D01*
X179135119Y-172789880D01*
X179173214Y-172942261D01*
X179173214Y-173056547D01*
X179135119Y-173208928D01*
X179097023Y-173285119D01*
X179020833Y-173361309D01*
X178906547Y-173399404D01*
X178716071Y-173399404D01*
X179858928Y-172866071D02*
X179858928Y-173399404D01*
X179668452Y-172561309D02*
X179477976Y-173132738D01*
X179973214Y-173132738D01*
X180316071Y-173399404D02*
X180468452Y-173399404D01*
X180544642Y-173361309D01*
X180582738Y-173323214D01*
X180658928Y-173208928D01*
X180697023Y-173056547D01*
X180697023Y-172751785D01*
X180658928Y-172675595D01*
X180620833Y-172637500D01*
X180544642Y-172599404D01*
X180392261Y-172599404D01*
X180316071Y-172637500D01*
X180277976Y-172675595D01*
X180239880Y-172751785D01*
X180239880Y-172942261D01*
X180277976Y-173018452D01*
X180316071Y-173056547D01*
X180392261Y-173094642D01*
X180544642Y-173094642D01*
X180620833Y-173056547D01*
X180658928Y-173018452D01*
X180697023Y-172942261D01*
%TO.C,D43*%
X178716071Y-185305654D02*
X178716071Y-184505654D01*
X178906547Y-184505654D01*
X179020833Y-184543750D01*
X179097023Y-184619940D01*
X179135119Y-184696130D01*
X179173214Y-184848511D01*
X179173214Y-184962797D01*
X179135119Y-185115178D01*
X179097023Y-185191369D01*
X179020833Y-185267559D01*
X178906547Y-185305654D01*
X178716071Y-185305654D01*
X179858928Y-184772321D02*
X179858928Y-185305654D01*
X179668452Y-184467559D02*
X179477976Y-185038988D01*
X179973214Y-185038988D01*
X180201785Y-184505654D02*
X180697023Y-184505654D01*
X180430357Y-184810416D01*
X180544642Y-184810416D01*
X180620833Y-184848511D01*
X180658928Y-184886607D01*
X180697023Y-184962797D01*
X180697023Y-185153273D01*
X180658928Y-185229464D01*
X180620833Y-185267559D01*
X180544642Y-185305654D01*
X180316071Y-185305654D01*
X180239880Y-185267559D01*
X180201785Y-185229464D01*
%TO.C,D58*%
X338453571Y-182924404D02*
X338453571Y-182124404D01*
X338644047Y-182124404D01*
X338758333Y-182162500D01*
X338834523Y-182238690D01*
X338872619Y-182314880D01*
X338910714Y-182467261D01*
X338910714Y-182581547D01*
X338872619Y-182733928D01*
X338834523Y-182810119D01*
X338758333Y-182886309D01*
X338644047Y-182924404D01*
X338453571Y-182924404D01*
X339634523Y-182124404D02*
X339253571Y-182124404D01*
X339215476Y-182505357D01*
X339253571Y-182467261D01*
X339329761Y-182429166D01*
X339520238Y-182429166D01*
X339596428Y-182467261D01*
X339634523Y-182505357D01*
X339672619Y-182581547D01*
X339672619Y-182772023D01*
X339634523Y-182848214D01*
X339596428Y-182886309D01*
X339520238Y-182924404D01*
X339329761Y-182924404D01*
X339253571Y-182886309D01*
X339215476Y-182848214D01*
X340129761Y-182467261D02*
X340053571Y-182429166D01*
X340015476Y-182391071D01*
X339977380Y-182314880D01*
X339977380Y-182276785D01*
X340015476Y-182200595D01*
X340053571Y-182162500D01*
X340129761Y-182124404D01*
X340282142Y-182124404D01*
X340358333Y-182162500D01*
X340396428Y-182200595D01*
X340434523Y-182276785D01*
X340434523Y-182314880D01*
X340396428Y-182391071D01*
X340358333Y-182429166D01*
X340282142Y-182467261D01*
X340129761Y-182467261D01*
X340053571Y-182505357D01*
X340015476Y-182543452D01*
X339977380Y-182619642D01*
X339977380Y-182772023D01*
X340015476Y-182848214D01*
X340053571Y-182886309D01*
X340129761Y-182924404D01*
X340282142Y-182924404D01*
X340358333Y-182886309D01*
X340396428Y-182848214D01*
X340434523Y-182772023D01*
X340434523Y-182619642D01*
X340396428Y-182543452D01*
X340358333Y-182505357D01*
X340282142Y-182467261D01*
D11*
%TO.C,D108*%
X286329725Y-140741697D02*
X286948773Y-140741697D01*
X286615439Y-141122650D01*
X286758296Y-141122650D01*
X286853535Y-141170269D01*
X286901154Y-141217888D01*
X286948773Y-141313126D01*
X286948773Y-141551221D01*
X286901154Y-141646459D01*
X286853535Y-141694078D01*
X286758296Y-141741697D01*
X286472582Y-141741697D01*
X286377344Y-141694078D01*
X286329725Y-141646459D01*
X287377344Y-141646459D02*
X287424963Y-141694078D01*
X287377344Y-141741697D01*
X287329725Y-141694078D01*
X287377344Y-141646459D01*
X287377344Y-141741697D01*
X288282106Y-140741697D02*
X288091630Y-140741697D01*
X287996392Y-140789317D01*
X287948773Y-140836936D01*
X287853535Y-140979793D01*
X287805916Y-141170269D01*
X287805916Y-141551221D01*
X287853535Y-141646459D01*
X287901154Y-141694078D01*
X287996392Y-141741697D01*
X288186868Y-141741697D01*
X288282106Y-141694078D01*
X288329725Y-141646459D01*
X288377344Y-141551221D01*
X288377344Y-141313126D01*
X288329725Y-141217888D01*
X288282106Y-141170269D01*
X288186868Y-141122650D01*
X287996392Y-141122650D01*
X287901154Y-141170269D01*
X287853535Y-141217888D01*
X287805916Y-141313126D01*
X288663058Y-140741697D02*
X288996392Y-141741697D01*
X289329725Y-140741697D01*
D10*
%TO.C,D7*%
X139603273Y-180543154D02*
X139603273Y-179743154D01*
X139793750Y-179743154D01*
X139908035Y-179781250D01*
X139984226Y-179857440D01*
X140022321Y-179933630D01*
X140060416Y-180086011D01*
X140060416Y-180200297D01*
X140022321Y-180352678D01*
X139984226Y-180428869D01*
X139908035Y-180505059D01*
X139793750Y-180543154D01*
X139603273Y-180543154D01*
X140327083Y-179743154D02*
X140860416Y-179743154D01*
X140517559Y-180543154D01*
%TO.C,D45*%
X178716071Y-182924404D02*
X178716071Y-182124404D01*
X178906547Y-182124404D01*
X179020833Y-182162500D01*
X179097023Y-182238690D01*
X179135119Y-182314880D01*
X179173214Y-182467261D01*
X179173214Y-182581547D01*
X179135119Y-182733928D01*
X179097023Y-182810119D01*
X179020833Y-182886309D01*
X178906547Y-182924404D01*
X178716071Y-182924404D01*
X179858928Y-182391071D02*
X179858928Y-182924404D01*
X179668452Y-182086309D02*
X179477976Y-182657738D01*
X179973214Y-182657738D01*
X180658928Y-182124404D02*
X180277976Y-182124404D01*
X180239880Y-182505357D01*
X180277976Y-182467261D01*
X180354166Y-182429166D01*
X180544642Y-182429166D01*
X180620833Y-182467261D01*
X180658928Y-182505357D01*
X180697023Y-182581547D01*
X180697023Y-182772023D01*
X180658928Y-182848214D01*
X180620833Y-182886309D01*
X180544642Y-182924404D01*
X180354166Y-182924404D01*
X180277976Y-182886309D01*
X180239880Y-182848214D01*
%TO.C,D42*%
X193197321Y-182924404D02*
X193197321Y-182124404D01*
X193387797Y-182124404D01*
X193502083Y-182162500D01*
X193578273Y-182238690D01*
X193616369Y-182314880D01*
X193654464Y-182467261D01*
X193654464Y-182581547D01*
X193616369Y-182733928D01*
X193578273Y-182810119D01*
X193502083Y-182886309D01*
X193387797Y-182924404D01*
X193197321Y-182924404D01*
X194340178Y-182391071D02*
X194340178Y-182924404D01*
X194149702Y-182086309D02*
X193959226Y-182657738D01*
X194454464Y-182657738D01*
X194721130Y-182200595D02*
X194759226Y-182162500D01*
X194835416Y-182124404D01*
X195025892Y-182124404D01*
X195102083Y-182162500D01*
X195140178Y-182200595D01*
X195178273Y-182276785D01*
X195178273Y-182352976D01*
X195140178Y-182467261D01*
X194683035Y-182924404D01*
X195178273Y-182924404D01*
%TO.C,D38*%
X323972321Y-185305654D02*
X323972321Y-184505654D01*
X324162797Y-184505654D01*
X324277083Y-184543750D01*
X324353273Y-184619940D01*
X324391369Y-184696130D01*
X324429464Y-184848511D01*
X324429464Y-184962797D01*
X324391369Y-185115178D01*
X324353273Y-185191369D01*
X324277083Y-185267559D01*
X324162797Y-185305654D01*
X323972321Y-185305654D01*
X324696130Y-184505654D02*
X325191369Y-184505654D01*
X324924702Y-184810416D01*
X325038988Y-184810416D01*
X325115178Y-184848511D01*
X325153273Y-184886607D01*
X325191369Y-184962797D01*
X325191369Y-185153273D01*
X325153273Y-185229464D01*
X325115178Y-185267559D01*
X325038988Y-185305654D01*
X324810416Y-185305654D01*
X324734226Y-185267559D01*
X324696130Y-185229464D01*
X325648511Y-184848511D02*
X325572321Y-184810416D01*
X325534226Y-184772321D01*
X325496130Y-184696130D01*
X325496130Y-184658035D01*
X325534226Y-184581845D01*
X325572321Y-184543750D01*
X325648511Y-184505654D01*
X325800892Y-184505654D01*
X325877083Y-184543750D01*
X325915178Y-184581845D01*
X325953273Y-184658035D01*
X325953273Y-184696130D01*
X325915178Y-184772321D01*
X325877083Y-184810416D01*
X325800892Y-184848511D01*
X325648511Y-184848511D01*
X325572321Y-184886607D01*
X325534226Y-184924702D01*
X325496130Y-185000892D01*
X325496130Y-185153273D01*
X325534226Y-185229464D01*
X325572321Y-185267559D01*
X325648511Y-185305654D01*
X325800892Y-185305654D01*
X325877083Y-185267559D01*
X325915178Y-185229464D01*
X325953273Y-185153273D01*
X325953273Y-185000892D01*
X325915178Y-184924702D01*
X325877083Y-184886607D01*
X325800892Y-184848511D01*
%TO.C,D59*%
X338453571Y-185305654D02*
X338453571Y-184505654D01*
X338644047Y-184505654D01*
X338758333Y-184543750D01*
X338834523Y-184619940D01*
X338872619Y-184696130D01*
X338910714Y-184848511D01*
X338910714Y-184962797D01*
X338872619Y-185115178D01*
X338834523Y-185191369D01*
X338758333Y-185267559D01*
X338644047Y-185305654D01*
X338453571Y-185305654D01*
X339634523Y-184505654D02*
X339253571Y-184505654D01*
X339215476Y-184886607D01*
X339253571Y-184848511D01*
X339329761Y-184810416D01*
X339520238Y-184810416D01*
X339596428Y-184848511D01*
X339634523Y-184886607D01*
X339672619Y-184962797D01*
X339672619Y-185153273D01*
X339634523Y-185229464D01*
X339596428Y-185267559D01*
X339520238Y-185305654D01*
X339329761Y-185305654D01*
X339253571Y-185267559D01*
X339215476Y-185229464D01*
X340053571Y-185305654D02*
X340205952Y-185305654D01*
X340282142Y-185267559D01*
X340320238Y-185229464D01*
X340396428Y-185115178D01*
X340434523Y-184962797D01*
X340434523Y-184658035D01*
X340396428Y-184581845D01*
X340358333Y-184543750D01*
X340282142Y-184505654D01*
X340129761Y-184505654D01*
X340053571Y-184543750D01*
X340015476Y-184581845D01*
X339977380Y-184658035D01*
X339977380Y-184848511D01*
X340015476Y-184924702D01*
X340053571Y-184962797D01*
X340129761Y-185000892D01*
X340282142Y-185000892D01*
X340358333Y-184962797D01*
X340396428Y-184924702D01*
X340434523Y-184848511D01*
%TO.C,D55*%
X178716071Y-180543154D02*
X178716071Y-179743154D01*
X178906547Y-179743154D01*
X179020833Y-179781250D01*
X179097023Y-179857440D01*
X179135119Y-179933630D01*
X179173214Y-180086011D01*
X179173214Y-180200297D01*
X179135119Y-180352678D01*
X179097023Y-180428869D01*
X179020833Y-180505059D01*
X178906547Y-180543154D01*
X178716071Y-180543154D01*
X179897023Y-179743154D02*
X179516071Y-179743154D01*
X179477976Y-180124107D01*
X179516071Y-180086011D01*
X179592261Y-180047916D01*
X179782738Y-180047916D01*
X179858928Y-180086011D01*
X179897023Y-180124107D01*
X179935119Y-180200297D01*
X179935119Y-180390773D01*
X179897023Y-180466964D01*
X179858928Y-180505059D01*
X179782738Y-180543154D01*
X179592261Y-180543154D01*
X179516071Y-180505059D01*
X179477976Y-180466964D01*
X180658928Y-179743154D02*
X180277976Y-179743154D01*
X180239880Y-180124107D01*
X180277976Y-180086011D01*
X180354166Y-180047916D01*
X180544642Y-180047916D01*
X180620833Y-180086011D01*
X180658928Y-180124107D01*
X180697023Y-180200297D01*
X180697023Y-180390773D01*
X180658928Y-180466964D01*
X180620833Y-180505059D01*
X180544642Y-180543154D01*
X180354166Y-180543154D01*
X180277976Y-180505059D01*
X180239880Y-180466964D01*
%TO.C,D10*%
X124741071Y-180543154D02*
X124741071Y-179743154D01*
X124931547Y-179743154D01*
X125045833Y-179781250D01*
X125122023Y-179857440D01*
X125160119Y-179933630D01*
X125198214Y-180086011D01*
X125198214Y-180200297D01*
X125160119Y-180352678D01*
X125122023Y-180428869D01*
X125045833Y-180505059D01*
X124931547Y-180543154D01*
X124741071Y-180543154D01*
X125960119Y-180543154D02*
X125502976Y-180543154D01*
X125731547Y-180543154D02*
X125731547Y-179743154D01*
X125655357Y-179857440D01*
X125579166Y-179933630D01*
X125502976Y-179971726D01*
X126455357Y-179743154D02*
X126531547Y-179743154D01*
X126607738Y-179781250D01*
X126645833Y-179819345D01*
X126683928Y-179895535D01*
X126722023Y-180047916D01*
X126722023Y-180238392D01*
X126683928Y-180390773D01*
X126645833Y-180466964D01*
X126607738Y-180505059D01*
X126531547Y-180543154D01*
X126455357Y-180543154D01*
X126379166Y-180505059D01*
X126341071Y-180466964D01*
X126302976Y-180390773D01*
X126264880Y-180238392D01*
X126264880Y-180047916D01*
X126302976Y-179895535D01*
X126341071Y-179819345D01*
X126379166Y-179781250D01*
X126455357Y-179743154D01*
%TO.C,D101*%
X269616369Y-175780654D02*
X269616369Y-174980654D01*
X269806845Y-174980654D01*
X269921130Y-175018750D01*
X269997321Y-175094940D01*
X270035416Y-175171130D01*
X270073511Y-175323511D01*
X270073511Y-175437797D01*
X270035416Y-175590178D01*
X269997321Y-175666369D01*
X269921130Y-175742559D01*
X269806845Y-175780654D01*
X269616369Y-175780654D01*
X270835416Y-175780654D02*
X270378273Y-175780654D01*
X270606845Y-175780654D02*
X270606845Y-174980654D01*
X270530654Y-175094940D01*
X270454464Y-175171130D01*
X270378273Y-175209226D01*
X271330654Y-174980654D02*
X271406845Y-174980654D01*
X271483035Y-175018750D01*
X271521130Y-175056845D01*
X271559226Y-175133035D01*
X271597321Y-175285416D01*
X271597321Y-175475892D01*
X271559226Y-175628273D01*
X271521130Y-175704464D01*
X271483035Y-175742559D01*
X271406845Y-175780654D01*
X271330654Y-175780654D01*
X271254464Y-175742559D01*
X271216369Y-175704464D01*
X271178273Y-175628273D01*
X271140178Y-175475892D01*
X271140178Y-175285416D01*
X271178273Y-175133035D01*
X271216369Y-175056845D01*
X271254464Y-175018750D01*
X271330654Y-174980654D01*
X272359226Y-175780654D02*
X271902083Y-175780654D01*
X272130654Y-175780654D02*
X272130654Y-174980654D01*
X272054464Y-175094940D01*
X271978273Y-175171130D01*
X271902083Y-175209226D01*
%TO.C,D52*%
X193197321Y-173399404D02*
X193197321Y-172599404D01*
X193387797Y-172599404D01*
X193502083Y-172637500D01*
X193578273Y-172713690D01*
X193616369Y-172789880D01*
X193654464Y-172942261D01*
X193654464Y-173056547D01*
X193616369Y-173208928D01*
X193578273Y-173285119D01*
X193502083Y-173361309D01*
X193387797Y-173399404D01*
X193197321Y-173399404D01*
X194378273Y-172599404D02*
X193997321Y-172599404D01*
X193959226Y-172980357D01*
X193997321Y-172942261D01*
X194073511Y-172904166D01*
X194263988Y-172904166D01*
X194340178Y-172942261D01*
X194378273Y-172980357D01*
X194416369Y-173056547D01*
X194416369Y-173247023D01*
X194378273Y-173323214D01*
X194340178Y-173361309D01*
X194263988Y-173399404D01*
X194073511Y-173399404D01*
X193997321Y-173361309D01*
X193959226Y-173323214D01*
X194721130Y-172675595D02*
X194759226Y-172637500D01*
X194835416Y-172599404D01*
X195025892Y-172599404D01*
X195102083Y-172637500D01*
X195140178Y-172675595D01*
X195178273Y-172751785D01*
X195178273Y-172827976D01*
X195140178Y-172942261D01*
X194683035Y-173399404D01*
X195178273Y-173399404D01*
%TO.C,D20*%
X311466071Y-180543154D02*
X311466071Y-179743154D01*
X311656547Y-179743154D01*
X311770833Y-179781250D01*
X311847023Y-179857440D01*
X311885119Y-179933630D01*
X311923214Y-180086011D01*
X311923214Y-180200297D01*
X311885119Y-180352678D01*
X311847023Y-180428869D01*
X311770833Y-180505059D01*
X311656547Y-180543154D01*
X311466071Y-180543154D01*
X312227976Y-179819345D02*
X312266071Y-179781250D01*
X312342261Y-179743154D01*
X312532738Y-179743154D01*
X312608928Y-179781250D01*
X312647023Y-179819345D01*
X312685119Y-179895535D01*
X312685119Y-179971726D01*
X312647023Y-180086011D01*
X312189880Y-180543154D01*
X312685119Y-180543154D01*
X313180357Y-179743154D02*
X313256547Y-179743154D01*
X313332738Y-179781250D01*
X313370833Y-179819345D01*
X313408928Y-179895535D01*
X313447023Y-180047916D01*
X313447023Y-180238392D01*
X313408928Y-180390773D01*
X313370833Y-180466964D01*
X313332738Y-180505059D01*
X313256547Y-180543154D01*
X313180357Y-180543154D01*
X313104166Y-180505059D01*
X313066071Y-180466964D01*
X313027976Y-180390773D01*
X312989880Y-180238392D01*
X312989880Y-180047916D01*
X313027976Y-179895535D01*
X313066071Y-179819345D01*
X313104166Y-179781250D01*
X313180357Y-179743154D01*
%TO.C,D53*%
X178716071Y-178161904D02*
X178716071Y-177361904D01*
X178906547Y-177361904D01*
X179020833Y-177400000D01*
X179097023Y-177476190D01*
X179135119Y-177552380D01*
X179173214Y-177704761D01*
X179173214Y-177819047D01*
X179135119Y-177971428D01*
X179097023Y-178047619D01*
X179020833Y-178123809D01*
X178906547Y-178161904D01*
X178716071Y-178161904D01*
X179897023Y-177361904D02*
X179516071Y-177361904D01*
X179477976Y-177742857D01*
X179516071Y-177704761D01*
X179592261Y-177666666D01*
X179782738Y-177666666D01*
X179858928Y-177704761D01*
X179897023Y-177742857D01*
X179935119Y-177819047D01*
X179935119Y-178009523D01*
X179897023Y-178085714D01*
X179858928Y-178123809D01*
X179782738Y-178161904D01*
X179592261Y-178161904D01*
X179516071Y-178123809D01*
X179477976Y-178085714D01*
X180201785Y-177361904D02*
X180697023Y-177361904D01*
X180430357Y-177666666D01*
X180544642Y-177666666D01*
X180620833Y-177704761D01*
X180658928Y-177742857D01*
X180697023Y-177819047D01*
X180697023Y-178009523D01*
X180658928Y-178085714D01*
X180620833Y-178123809D01*
X180544642Y-178161904D01*
X180316071Y-178161904D01*
X180239880Y-178123809D01*
X180201785Y-178085714D01*
%TO.C,D106*%
X269616369Y-171018154D02*
X269616369Y-170218154D01*
X269806845Y-170218154D01*
X269921130Y-170256250D01*
X269997321Y-170332440D01*
X270035416Y-170408630D01*
X270073511Y-170561011D01*
X270073511Y-170675297D01*
X270035416Y-170827678D01*
X269997321Y-170903869D01*
X269921130Y-170980059D01*
X269806845Y-171018154D01*
X269616369Y-171018154D01*
X270835416Y-171018154D02*
X270378273Y-171018154D01*
X270606845Y-171018154D02*
X270606845Y-170218154D01*
X270530654Y-170332440D01*
X270454464Y-170408630D01*
X270378273Y-170446726D01*
X271330654Y-170218154D02*
X271406845Y-170218154D01*
X271483035Y-170256250D01*
X271521130Y-170294345D01*
X271559226Y-170370535D01*
X271597321Y-170522916D01*
X271597321Y-170713392D01*
X271559226Y-170865773D01*
X271521130Y-170941964D01*
X271483035Y-170980059D01*
X271406845Y-171018154D01*
X271330654Y-171018154D01*
X271254464Y-170980059D01*
X271216369Y-170941964D01*
X271178273Y-170865773D01*
X271140178Y-170713392D01*
X271140178Y-170522916D01*
X271178273Y-170370535D01*
X271216369Y-170294345D01*
X271254464Y-170256250D01*
X271330654Y-170218154D01*
X272283035Y-170218154D02*
X272130654Y-170218154D01*
X272054464Y-170256250D01*
X272016369Y-170294345D01*
X271940178Y-170408630D01*
X271902083Y-170561011D01*
X271902083Y-170865773D01*
X271940178Y-170941964D01*
X271978273Y-170980059D01*
X272054464Y-171018154D01*
X272206845Y-171018154D01*
X272283035Y-170980059D01*
X272321130Y-170941964D01*
X272359226Y-170865773D01*
X272359226Y-170675297D01*
X272321130Y-170599107D01*
X272283035Y-170561011D01*
X272206845Y-170522916D01*
X272054464Y-170522916D01*
X271978273Y-170561011D01*
X271940178Y-170599107D01*
X271902083Y-170675297D01*
%TO.C,D34*%
X151728571Y-180543154D02*
X151728571Y-179743154D01*
X151919047Y-179743154D01*
X152033333Y-179781250D01*
X152109523Y-179857440D01*
X152147619Y-179933630D01*
X152185714Y-180086011D01*
X152185714Y-180200297D01*
X152147619Y-180352678D01*
X152109523Y-180428869D01*
X152033333Y-180505059D01*
X151919047Y-180543154D01*
X151728571Y-180543154D01*
X152452380Y-179743154D02*
X152947619Y-179743154D01*
X152680952Y-180047916D01*
X152795238Y-180047916D01*
X152871428Y-180086011D01*
X152909523Y-180124107D01*
X152947619Y-180200297D01*
X152947619Y-180390773D01*
X152909523Y-180466964D01*
X152871428Y-180505059D01*
X152795238Y-180543154D01*
X152566666Y-180543154D01*
X152490476Y-180505059D01*
X152452380Y-180466964D01*
X153633333Y-180009821D02*
X153633333Y-180543154D01*
X153442857Y-179705059D02*
X153252380Y-180276488D01*
X153747619Y-180276488D01*
%TO.C,D60*%
X220184821Y-185305654D02*
X220184821Y-184505654D01*
X220375297Y-184505654D01*
X220489583Y-184543750D01*
X220565773Y-184619940D01*
X220603869Y-184696130D01*
X220641964Y-184848511D01*
X220641964Y-184962797D01*
X220603869Y-185115178D01*
X220565773Y-185191369D01*
X220489583Y-185267559D01*
X220375297Y-185305654D01*
X220184821Y-185305654D01*
X221327678Y-184505654D02*
X221175297Y-184505654D01*
X221099107Y-184543750D01*
X221061011Y-184581845D01*
X220984821Y-184696130D01*
X220946726Y-184848511D01*
X220946726Y-185153273D01*
X220984821Y-185229464D01*
X221022916Y-185267559D01*
X221099107Y-185305654D01*
X221251488Y-185305654D01*
X221327678Y-185267559D01*
X221365773Y-185229464D01*
X221403869Y-185153273D01*
X221403869Y-184962797D01*
X221365773Y-184886607D01*
X221327678Y-184848511D01*
X221251488Y-184810416D01*
X221099107Y-184810416D01*
X221022916Y-184848511D01*
X220984821Y-184886607D01*
X220946726Y-184962797D01*
X221899107Y-184505654D02*
X221975297Y-184505654D01*
X222051488Y-184543750D01*
X222089583Y-184581845D01*
X222127678Y-184658035D01*
X222165773Y-184810416D01*
X222165773Y-185000892D01*
X222127678Y-185153273D01*
X222089583Y-185229464D01*
X222051488Y-185267559D01*
X221975297Y-185305654D01*
X221899107Y-185305654D01*
X221822916Y-185267559D01*
X221784821Y-185229464D01*
X221746726Y-185153273D01*
X221708630Y-185000892D01*
X221708630Y-184810416D01*
X221746726Y-184658035D01*
X221784821Y-184581845D01*
X221822916Y-184543750D01*
X221899107Y-184505654D01*
%TO.C,D18*%
X296984821Y-185305654D02*
X296984821Y-184505654D01*
X297175297Y-184505654D01*
X297289583Y-184543750D01*
X297365773Y-184619940D01*
X297403869Y-184696130D01*
X297441964Y-184848511D01*
X297441964Y-184962797D01*
X297403869Y-185115178D01*
X297365773Y-185191369D01*
X297289583Y-185267559D01*
X297175297Y-185305654D01*
X296984821Y-185305654D01*
X298203869Y-185305654D02*
X297746726Y-185305654D01*
X297975297Y-185305654D02*
X297975297Y-184505654D01*
X297899107Y-184619940D01*
X297822916Y-184696130D01*
X297746726Y-184734226D01*
X298661011Y-184848511D02*
X298584821Y-184810416D01*
X298546726Y-184772321D01*
X298508630Y-184696130D01*
X298508630Y-184658035D01*
X298546726Y-184581845D01*
X298584821Y-184543750D01*
X298661011Y-184505654D01*
X298813392Y-184505654D01*
X298889583Y-184543750D01*
X298927678Y-184581845D01*
X298965773Y-184658035D01*
X298965773Y-184696130D01*
X298927678Y-184772321D01*
X298889583Y-184810416D01*
X298813392Y-184848511D01*
X298661011Y-184848511D01*
X298584821Y-184886607D01*
X298546726Y-184924702D01*
X298508630Y-185000892D01*
X298508630Y-185153273D01*
X298546726Y-185229464D01*
X298584821Y-185267559D01*
X298661011Y-185305654D01*
X298813392Y-185305654D01*
X298889583Y-185267559D01*
X298927678Y-185229464D01*
X298965773Y-185153273D01*
X298965773Y-185000892D01*
X298927678Y-184924702D01*
X298889583Y-184886607D01*
X298813392Y-184848511D01*
%TO.C,D76*%
X350959821Y-178161904D02*
X350959821Y-177361904D01*
X351150297Y-177361904D01*
X351264583Y-177400000D01*
X351340773Y-177476190D01*
X351378869Y-177552380D01*
X351416964Y-177704761D01*
X351416964Y-177819047D01*
X351378869Y-177971428D01*
X351340773Y-178047619D01*
X351264583Y-178123809D01*
X351150297Y-178161904D01*
X350959821Y-178161904D01*
X351683630Y-177361904D02*
X352216964Y-177361904D01*
X351874107Y-178161904D01*
X352864583Y-177361904D02*
X352712202Y-177361904D01*
X352636011Y-177400000D01*
X352597916Y-177438095D01*
X352521726Y-177552380D01*
X352483630Y-177704761D01*
X352483630Y-178009523D01*
X352521726Y-178085714D01*
X352559821Y-178123809D01*
X352636011Y-178161904D01*
X352788392Y-178161904D01*
X352864583Y-178123809D01*
X352902678Y-178085714D01*
X352940773Y-178009523D01*
X352940773Y-177819047D01*
X352902678Y-177742857D01*
X352864583Y-177704761D01*
X352788392Y-177666666D01*
X352636011Y-177666666D01*
X352559821Y-177704761D01*
X352521726Y-177742857D01*
X352483630Y-177819047D01*
%TO.C,D24*%
X151728571Y-185305654D02*
X151728571Y-184505654D01*
X151919047Y-184505654D01*
X152033333Y-184543750D01*
X152109523Y-184619940D01*
X152147619Y-184696130D01*
X152185714Y-184848511D01*
X152185714Y-184962797D01*
X152147619Y-185115178D01*
X152109523Y-185191369D01*
X152033333Y-185267559D01*
X151919047Y-185305654D01*
X151728571Y-185305654D01*
X152490476Y-184581845D02*
X152528571Y-184543750D01*
X152604761Y-184505654D01*
X152795238Y-184505654D01*
X152871428Y-184543750D01*
X152909523Y-184581845D01*
X152947619Y-184658035D01*
X152947619Y-184734226D01*
X152909523Y-184848511D01*
X152452380Y-185305654D01*
X152947619Y-185305654D01*
X153633333Y-184772321D02*
X153633333Y-185305654D01*
X153442857Y-184467559D02*
X153252380Y-185038988D01*
X153747619Y-185038988D01*
%TO.C,D41*%
X323972321Y-178161904D02*
X323972321Y-177361904D01*
X324162797Y-177361904D01*
X324277083Y-177400000D01*
X324353273Y-177476190D01*
X324391369Y-177552380D01*
X324429464Y-177704761D01*
X324429464Y-177819047D01*
X324391369Y-177971428D01*
X324353273Y-178047619D01*
X324277083Y-178123809D01*
X324162797Y-178161904D01*
X323972321Y-178161904D01*
X325115178Y-177628571D02*
X325115178Y-178161904D01*
X324924702Y-177323809D02*
X324734226Y-177895238D01*
X325229464Y-177895238D01*
X325953273Y-178161904D02*
X325496130Y-178161904D01*
X325724702Y-178161904D02*
X325724702Y-177361904D01*
X325648511Y-177476190D01*
X325572321Y-177552380D01*
X325496130Y-177590476D01*
%TO.C,D39*%
X323972321Y-182924404D02*
X323972321Y-182124404D01*
X324162797Y-182124404D01*
X324277083Y-182162500D01*
X324353273Y-182238690D01*
X324391369Y-182314880D01*
X324429464Y-182467261D01*
X324429464Y-182581547D01*
X324391369Y-182733928D01*
X324353273Y-182810119D01*
X324277083Y-182886309D01*
X324162797Y-182924404D01*
X323972321Y-182924404D01*
X324696130Y-182124404D02*
X325191369Y-182124404D01*
X324924702Y-182429166D01*
X325038988Y-182429166D01*
X325115178Y-182467261D01*
X325153273Y-182505357D01*
X325191369Y-182581547D01*
X325191369Y-182772023D01*
X325153273Y-182848214D01*
X325115178Y-182886309D01*
X325038988Y-182924404D01*
X324810416Y-182924404D01*
X324734226Y-182886309D01*
X324696130Y-182848214D01*
X325572321Y-182924404D02*
X325724702Y-182924404D01*
X325800892Y-182886309D01*
X325838988Y-182848214D01*
X325915178Y-182733928D01*
X325953273Y-182581547D01*
X325953273Y-182276785D01*
X325915178Y-182200595D01*
X325877083Y-182162500D01*
X325800892Y-182124404D01*
X325648511Y-182124404D01*
X325572321Y-182162500D01*
X325534226Y-182200595D01*
X325496130Y-182276785D01*
X325496130Y-182467261D01*
X325534226Y-182543452D01*
X325572321Y-182581547D01*
X325648511Y-182619642D01*
X325800892Y-182619642D01*
X325877083Y-182581547D01*
X325915178Y-182543452D01*
X325953273Y-182467261D01*
%TO.C,D44*%
X193197321Y-185305654D02*
X193197321Y-184505654D01*
X193387797Y-184505654D01*
X193502083Y-184543750D01*
X193578273Y-184619940D01*
X193616369Y-184696130D01*
X193654464Y-184848511D01*
X193654464Y-184962797D01*
X193616369Y-185115178D01*
X193578273Y-185191369D01*
X193502083Y-185267559D01*
X193387797Y-185305654D01*
X193197321Y-185305654D01*
X194340178Y-184772321D02*
X194340178Y-185305654D01*
X194149702Y-184467559D02*
X193959226Y-185038988D01*
X194454464Y-185038988D01*
X195102083Y-184772321D02*
X195102083Y-185305654D01*
X194911607Y-184467559D02*
X194721130Y-185038988D01*
X195216369Y-185038988D01*
D11*
%TO.C,R2*%
X273708928Y-134596130D02*
X273137500Y-134596130D01*
X273423214Y-134596130D02*
X273423214Y-133596130D01*
X273327976Y-133738988D01*
X273232738Y-133834226D01*
X273137500Y-133881845D01*
X274137500Y-134500892D02*
X274185119Y-134548511D01*
X274137500Y-134596130D01*
X274089880Y-134548511D01*
X274137500Y-134500892D01*
X274137500Y-134596130D01*
X275089880Y-133596130D02*
X274613690Y-133596130D01*
X274566071Y-134072321D01*
X274613690Y-134024702D01*
X274708928Y-133977083D01*
X274947023Y-133977083D01*
X275042261Y-134024702D01*
X275089880Y-134072321D01*
X275137500Y-134167559D01*
X275137500Y-134405654D01*
X275089880Y-134500892D01*
X275042261Y-134548511D01*
X274947023Y-134596130D01*
X274708928Y-134596130D01*
X274613690Y-134548511D01*
X274566071Y-134500892D01*
X275566071Y-134596130D02*
X275566071Y-133596130D01*
X276137500Y-134596130D02*
X275708928Y-134024702D01*
X276137500Y-133596130D02*
X275566071Y-134167559D01*
D10*
%TO.C,D2*%
X125122023Y-171018154D02*
X125122023Y-170218154D01*
X125312500Y-170218154D01*
X125426785Y-170256250D01*
X125502976Y-170332440D01*
X125541071Y-170408630D01*
X125579166Y-170561011D01*
X125579166Y-170675297D01*
X125541071Y-170827678D01*
X125502976Y-170903869D01*
X125426785Y-170980059D01*
X125312500Y-171018154D01*
X125122023Y-171018154D01*
X125883928Y-170294345D02*
X125922023Y-170256250D01*
X125998214Y-170218154D01*
X126188690Y-170218154D01*
X126264880Y-170256250D01*
X126302976Y-170294345D01*
X126341071Y-170370535D01*
X126341071Y-170446726D01*
X126302976Y-170561011D01*
X125845833Y-171018154D01*
X126341071Y-171018154D01*
%TO.C,D85*%
X257491071Y-175780654D02*
X257491071Y-174980654D01*
X257681547Y-174980654D01*
X257795833Y-175018750D01*
X257872023Y-175094940D01*
X257910119Y-175171130D01*
X257948214Y-175323511D01*
X257948214Y-175437797D01*
X257910119Y-175590178D01*
X257872023Y-175666369D01*
X257795833Y-175742559D01*
X257681547Y-175780654D01*
X257491071Y-175780654D01*
X258405357Y-175323511D02*
X258329166Y-175285416D01*
X258291071Y-175247321D01*
X258252976Y-175171130D01*
X258252976Y-175133035D01*
X258291071Y-175056845D01*
X258329166Y-175018750D01*
X258405357Y-174980654D01*
X258557738Y-174980654D01*
X258633928Y-175018750D01*
X258672023Y-175056845D01*
X258710119Y-175133035D01*
X258710119Y-175171130D01*
X258672023Y-175247321D01*
X258633928Y-175285416D01*
X258557738Y-175323511D01*
X258405357Y-175323511D01*
X258329166Y-175361607D01*
X258291071Y-175399702D01*
X258252976Y-175475892D01*
X258252976Y-175628273D01*
X258291071Y-175704464D01*
X258329166Y-175742559D01*
X258405357Y-175780654D01*
X258557738Y-175780654D01*
X258633928Y-175742559D01*
X258672023Y-175704464D01*
X258710119Y-175628273D01*
X258710119Y-175475892D01*
X258672023Y-175399702D01*
X258633928Y-175361607D01*
X258557738Y-175323511D01*
X259433928Y-174980654D02*
X259052976Y-174980654D01*
X259014880Y-175361607D01*
X259052976Y-175323511D01*
X259129166Y-175285416D01*
X259319642Y-175285416D01*
X259395833Y-175323511D01*
X259433928Y-175361607D01*
X259472023Y-175437797D01*
X259472023Y-175628273D01*
X259433928Y-175704464D01*
X259395833Y-175742559D01*
X259319642Y-175780654D01*
X259129166Y-175780654D01*
X259052976Y-175742559D01*
X259014880Y-175704464D01*
%TO.C,D89*%
X257491071Y-171018154D02*
X257491071Y-170218154D01*
X257681547Y-170218154D01*
X257795833Y-170256250D01*
X257872023Y-170332440D01*
X257910119Y-170408630D01*
X257948214Y-170561011D01*
X257948214Y-170675297D01*
X257910119Y-170827678D01*
X257872023Y-170903869D01*
X257795833Y-170980059D01*
X257681547Y-171018154D01*
X257491071Y-171018154D01*
X258405357Y-170561011D02*
X258329166Y-170522916D01*
X258291071Y-170484821D01*
X258252976Y-170408630D01*
X258252976Y-170370535D01*
X258291071Y-170294345D01*
X258329166Y-170256250D01*
X258405357Y-170218154D01*
X258557738Y-170218154D01*
X258633928Y-170256250D01*
X258672023Y-170294345D01*
X258710119Y-170370535D01*
X258710119Y-170408630D01*
X258672023Y-170484821D01*
X258633928Y-170522916D01*
X258557738Y-170561011D01*
X258405357Y-170561011D01*
X258329166Y-170599107D01*
X258291071Y-170637202D01*
X258252976Y-170713392D01*
X258252976Y-170865773D01*
X258291071Y-170941964D01*
X258329166Y-170980059D01*
X258405357Y-171018154D01*
X258557738Y-171018154D01*
X258633928Y-170980059D01*
X258672023Y-170941964D01*
X258710119Y-170865773D01*
X258710119Y-170713392D01*
X258672023Y-170637202D01*
X258633928Y-170599107D01*
X258557738Y-170561011D01*
X259091071Y-171018154D02*
X259243452Y-171018154D01*
X259319642Y-170980059D01*
X259357738Y-170941964D01*
X259433928Y-170827678D01*
X259472023Y-170675297D01*
X259472023Y-170370535D01*
X259433928Y-170294345D01*
X259395833Y-170256250D01*
X259319642Y-170218154D01*
X259167261Y-170218154D01*
X259091071Y-170256250D01*
X259052976Y-170294345D01*
X259014880Y-170370535D01*
X259014880Y-170561011D01*
X259052976Y-170637202D01*
X259091071Y-170675297D01*
X259167261Y-170713392D01*
X259319642Y-170713392D01*
X259395833Y-170675297D01*
X259433928Y-170637202D01*
X259472023Y-170561011D01*
%TO.C,D37*%
X205703571Y-171018154D02*
X205703571Y-170218154D01*
X205894047Y-170218154D01*
X206008333Y-170256250D01*
X206084523Y-170332440D01*
X206122619Y-170408630D01*
X206160714Y-170561011D01*
X206160714Y-170675297D01*
X206122619Y-170827678D01*
X206084523Y-170903869D01*
X206008333Y-170980059D01*
X205894047Y-171018154D01*
X205703571Y-171018154D01*
X206427380Y-170218154D02*
X206922619Y-170218154D01*
X206655952Y-170522916D01*
X206770238Y-170522916D01*
X206846428Y-170561011D01*
X206884523Y-170599107D01*
X206922619Y-170675297D01*
X206922619Y-170865773D01*
X206884523Y-170941964D01*
X206846428Y-170980059D01*
X206770238Y-171018154D01*
X206541666Y-171018154D01*
X206465476Y-170980059D01*
X206427380Y-170941964D01*
X207189285Y-170218154D02*
X207722619Y-170218154D01*
X207379761Y-171018154D01*
%TO.C,D61*%
X205703571Y-180543154D02*
X205703571Y-179743154D01*
X205894047Y-179743154D01*
X206008333Y-179781250D01*
X206084523Y-179857440D01*
X206122619Y-179933630D01*
X206160714Y-180086011D01*
X206160714Y-180200297D01*
X206122619Y-180352678D01*
X206084523Y-180428869D01*
X206008333Y-180505059D01*
X205894047Y-180543154D01*
X205703571Y-180543154D01*
X206846428Y-179743154D02*
X206694047Y-179743154D01*
X206617857Y-179781250D01*
X206579761Y-179819345D01*
X206503571Y-179933630D01*
X206465476Y-180086011D01*
X206465476Y-180390773D01*
X206503571Y-180466964D01*
X206541666Y-180505059D01*
X206617857Y-180543154D01*
X206770238Y-180543154D01*
X206846428Y-180505059D01*
X206884523Y-180466964D01*
X206922619Y-180390773D01*
X206922619Y-180200297D01*
X206884523Y-180124107D01*
X206846428Y-180086011D01*
X206770238Y-180047916D01*
X206617857Y-180047916D01*
X206541666Y-180086011D01*
X206503571Y-180124107D01*
X206465476Y-180200297D01*
X207684523Y-180543154D02*
X207227380Y-180543154D01*
X207455952Y-180543154D02*
X207455952Y-179743154D01*
X207379761Y-179857440D01*
X207303571Y-179933630D01*
X207227380Y-179971726D01*
%TO.C,D13*%
X139222321Y-173399404D02*
X139222321Y-172599404D01*
X139412797Y-172599404D01*
X139527083Y-172637500D01*
X139603273Y-172713690D01*
X139641369Y-172789880D01*
X139679464Y-172942261D01*
X139679464Y-173056547D01*
X139641369Y-173208928D01*
X139603273Y-173285119D01*
X139527083Y-173361309D01*
X139412797Y-173399404D01*
X139222321Y-173399404D01*
X140441369Y-173399404D02*
X139984226Y-173399404D01*
X140212797Y-173399404D02*
X140212797Y-172599404D01*
X140136607Y-172713690D01*
X140060416Y-172789880D01*
X139984226Y-172827976D01*
X140708035Y-172599404D02*
X141203273Y-172599404D01*
X140936607Y-172904166D01*
X141050892Y-172904166D01*
X141127083Y-172942261D01*
X141165178Y-172980357D01*
X141203273Y-173056547D01*
X141203273Y-173247023D01*
X141165178Y-173323214D01*
X141127083Y-173361309D01*
X141050892Y-173399404D01*
X140822321Y-173399404D01*
X140746130Y-173361309D01*
X140708035Y-173323214D01*
%TO.C,D67*%
X205703571Y-173399404D02*
X205703571Y-172599404D01*
X205894047Y-172599404D01*
X206008333Y-172637500D01*
X206084523Y-172713690D01*
X206122619Y-172789880D01*
X206160714Y-172942261D01*
X206160714Y-173056547D01*
X206122619Y-173208928D01*
X206084523Y-173285119D01*
X206008333Y-173361309D01*
X205894047Y-173399404D01*
X205703571Y-173399404D01*
X206846428Y-172599404D02*
X206694047Y-172599404D01*
X206617857Y-172637500D01*
X206579761Y-172675595D01*
X206503571Y-172789880D01*
X206465476Y-172942261D01*
X206465476Y-173247023D01*
X206503571Y-173323214D01*
X206541666Y-173361309D01*
X206617857Y-173399404D01*
X206770238Y-173399404D01*
X206846428Y-173361309D01*
X206884523Y-173323214D01*
X206922619Y-173247023D01*
X206922619Y-173056547D01*
X206884523Y-172980357D01*
X206846428Y-172942261D01*
X206770238Y-172904166D01*
X206617857Y-172904166D01*
X206541666Y-172942261D01*
X206503571Y-172980357D01*
X206465476Y-173056547D01*
X207189285Y-172599404D02*
X207722619Y-172599404D01*
X207379761Y-173399404D01*
%TO.C,D104*%
X288520000Y-182562500D02*
X287870000Y-182562500D01*
X282980000Y-182562500D02*
X283630000Y-182562500D01*
X287030000Y-183682500D02*
X287030000Y-181442500D01*
X287270000Y-183682500D02*
X287270000Y-181442500D01*
X283630000Y-183682500D02*
X287870000Y-183682500D01*
X283630000Y-181442500D02*
X283630000Y-183682500D01*
X287870000Y-181442500D02*
X283630000Y-181442500D01*
X287870000Y-183682500D02*
X287870000Y-181442500D01*
X287150000Y-183682500D02*
X287150000Y-181442500D01*
%TO.C,D14*%
X123292500Y-183823750D02*
X123292500Y-186063750D01*
X123292500Y-186063750D02*
X127532500Y-186063750D01*
X123892500Y-183823750D02*
X123892500Y-186063750D01*
X127532500Y-183823750D02*
X123292500Y-183823750D01*
X122642500Y-184943750D02*
X123292500Y-184943750D01*
X127532500Y-186063750D02*
X127532500Y-183823750D01*
X124012500Y-183823750D02*
X124012500Y-186063750D01*
X124132500Y-183823750D02*
X124132500Y-186063750D01*
X128182500Y-184943750D02*
X127532500Y-184943750D01*
%TO.C,D79*%
X260882500Y-183682500D02*
X260882500Y-181442500D01*
X260882500Y-181442500D02*
X256642500Y-181442500D01*
X256642500Y-181442500D02*
X256642500Y-183682500D01*
X260162500Y-183682500D02*
X260162500Y-181442500D01*
X260042500Y-183682500D02*
X260042500Y-181442500D01*
X256642500Y-183682500D02*
X260882500Y-183682500D01*
X261532500Y-182562500D02*
X260882500Y-182562500D01*
X255992500Y-182562500D02*
X256642500Y-182562500D01*
X260282500Y-183682500D02*
X260282500Y-181442500D01*
%TO.C,D75*%
X350351250Y-179061250D02*
X350351250Y-181301250D01*
X348861250Y-180181250D02*
X349511250Y-180181250D01*
X353751250Y-179061250D02*
X349511250Y-179061250D01*
X354401250Y-180181250D02*
X353751250Y-180181250D01*
X350111250Y-179061250D02*
X350111250Y-181301250D01*
X353751250Y-181301250D02*
X353751250Y-179061250D01*
X349511250Y-179061250D02*
X349511250Y-181301250D01*
X350231250Y-179061250D02*
X350231250Y-181301250D01*
X349511250Y-181301250D02*
X353751250Y-181301250D01*
%TO.C,D62*%
X222856250Y-183682500D02*
X222856250Y-181442500D01*
X224226250Y-182562500D02*
X223576250Y-182562500D01*
X222736250Y-183682500D02*
X222736250Y-181442500D01*
X218686250Y-182562500D02*
X219336250Y-182562500D01*
X219336250Y-183682500D02*
X223576250Y-183682500D01*
X223576250Y-181442500D02*
X219336250Y-181442500D01*
X222976250Y-183682500D02*
X222976250Y-181442500D01*
X219336250Y-181442500D02*
X219336250Y-183682500D01*
X223576250Y-183682500D02*
X223576250Y-181442500D01*
%TO.C,D30*%
X151120000Y-174298750D02*
X151120000Y-176538750D01*
X151000000Y-174298750D02*
X151000000Y-176538750D01*
X154520000Y-174298750D02*
X150280000Y-174298750D01*
X154520000Y-176538750D02*
X154520000Y-174298750D01*
X149630000Y-175418750D02*
X150280000Y-175418750D01*
X155170000Y-175418750D02*
X154520000Y-175418750D01*
X150880000Y-174298750D02*
X150880000Y-176538750D01*
X150280000Y-174298750D02*
X150280000Y-176538750D01*
X150280000Y-176538750D02*
X154520000Y-176538750D01*
%TO.C,D22*%
X314857500Y-186063750D02*
X314857500Y-183823750D01*
X314137500Y-186063750D02*
X314137500Y-183823750D01*
X314017500Y-186063750D02*
X314017500Y-183823750D01*
X314857500Y-183823750D02*
X310617500Y-183823750D01*
X310617500Y-186063750D02*
X314857500Y-186063750D01*
X310617500Y-183823750D02*
X310617500Y-186063750D01*
X314257500Y-186063750D02*
X314257500Y-183823750D01*
X309967500Y-184943750D02*
X310617500Y-184943750D01*
X315507500Y-184943750D02*
X314857500Y-184943750D01*
%TO.C,D31*%
X168881250Y-176538750D02*
X168881250Y-174298750D01*
X169001250Y-176538750D02*
X169001250Y-174298750D01*
X168761250Y-176538750D02*
X168761250Y-174298750D01*
X170251250Y-175418750D02*
X169601250Y-175418750D01*
X169601250Y-176538750D02*
X169601250Y-174298750D01*
X169601250Y-174298750D02*
X165361250Y-174298750D01*
X165361250Y-176538750D02*
X169601250Y-176538750D01*
X164711250Y-175418750D02*
X165361250Y-175418750D01*
X165361250Y-174298750D02*
X165361250Y-176538750D01*
%TO.C,R5*%
X299705000Y-130048750D02*
X299705000Y-131888750D01*
X299705000Y-131888750D02*
X303545000Y-131888750D01*
X304495000Y-130968750D02*
X303545000Y-130968750D01*
X303545000Y-130048750D02*
X299705000Y-130048750D01*
X298755000Y-130968750D02*
X299705000Y-130968750D01*
X303545000Y-131888750D02*
X303545000Y-130048750D01*
%TO.C,D102*%
X287270000Y-181301250D02*
X287270000Y-179061250D01*
X283630000Y-179061250D02*
X283630000Y-181301250D01*
X288520000Y-180181250D02*
X287870000Y-180181250D01*
X282980000Y-180181250D02*
X283630000Y-180181250D01*
X283630000Y-181301250D02*
X287870000Y-181301250D01*
X287030000Y-181301250D02*
X287030000Y-179061250D01*
X287870000Y-181301250D02*
X287870000Y-179061250D01*
X287870000Y-179061250D02*
X283630000Y-179061250D01*
X287150000Y-181301250D02*
X287150000Y-179061250D01*
%TO.C,D72*%
X224226250Y-170656250D02*
X223576250Y-170656250D01*
X223576250Y-169536250D02*
X219336250Y-169536250D01*
X222856250Y-171776250D02*
X222856250Y-169536250D01*
X219336250Y-171776250D02*
X223576250Y-171776250D01*
X219336250Y-169536250D02*
X219336250Y-171776250D01*
X222736250Y-171776250D02*
X222736250Y-169536250D01*
X223576250Y-171776250D02*
X223576250Y-169536250D01*
X218686250Y-170656250D02*
X219336250Y-170656250D01*
X222976250Y-171776250D02*
X222976250Y-169536250D01*
%TO.C,D27*%
X165361250Y-179061250D02*
X165361250Y-181301250D01*
X170251250Y-180181250D02*
X169601250Y-180181250D01*
X169601250Y-181301250D02*
X169601250Y-179061250D01*
X165361250Y-181301250D02*
X169601250Y-181301250D01*
X164711250Y-180181250D02*
X165361250Y-180181250D01*
X168881250Y-181301250D02*
X168881250Y-179061250D01*
X169001250Y-181301250D02*
X169001250Y-179061250D01*
X169601250Y-179061250D02*
X165361250Y-179061250D01*
X168761250Y-181301250D02*
X168761250Y-179061250D01*
%TO.C,D1*%
X141893750Y-171776250D02*
X141893750Y-169536250D01*
X138373750Y-169536250D02*
X138373750Y-171776250D01*
X137723750Y-170656250D02*
X138373750Y-170656250D01*
X138373750Y-171776250D02*
X142613750Y-171776250D01*
X141773750Y-171776250D02*
X141773750Y-169536250D01*
X142013750Y-171776250D02*
X142013750Y-169536250D01*
X142613750Y-169536250D02*
X138373750Y-169536250D01*
X142613750Y-171776250D02*
X142613750Y-169536250D01*
X143263750Y-170656250D02*
X142613750Y-170656250D01*
%TO.C,D84*%
X231962500Y-183823750D02*
X231962500Y-186063750D01*
X232082500Y-183823750D02*
X232082500Y-186063750D01*
X231242500Y-183823750D02*
X231242500Y-186063750D01*
X235482500Y-186063750D02*
X235482500Y-183823750D01*
X235482500Y-183823750D02*
X231242500Y-183823750D01*
X231842500Y-183823750D02*
X231842500Y-186063750D01*
X236132500Y-184943750D02*
X235482500Y-184943750D01*
X230592500Y-184943750D02*
X231242500Y-184943750D01*
X231242500Y-186063750D02*
X235482500Y-186063750D01*
%TO.C,D107*%
X283630000Y-171917500D02*
X283630000Y-174157500D01*
X288520000Y-173037500D02*
X287870000Y-173037500D01*
X283630000Y-174157500D02*
X287870000Y-174157500D01*
X287870000Y-171917500D02*
X283630000Y-171917500D01*
X287150000Y-174157500D02*
X287150000Y-171917500D01*
X282980000Y-173037500D02*
X283630000Y-173037500D01*
X287870000Y-174157500D02*
X287870000Y-171917500D01*
X287030000Y-174157500D02*
X287030000Y-171917500D01*
X287270000Y-174157500D02*
X287270000Y-171917500D01*
%TO.C,D3*%
X142613750Y-183823750D02*
X138373750Y-183823750D01*
X137723750Y-184943750D02*
X138373750Y-184943750D01*
X138373750Y-186063750D02*
X142613750Y-186063750D01*
X143263750Y-184943750D02*
X142613750Y-184943750D01*
X141773750Y-186063750D02*
X141773750Y-183823750D01*
X142013750Y-186063750D02*
X142013750Y-183823750D01*
X142613750Y-186063750D02*
X142613750Y-183823750D01*
X138373750Y-183823750D02*
X138373750Y-186063750D01*
X141893750Y-186063750D02*
X141893750Y-183823750D01*
%TO.C,D32*%
X154520000Y-176680000D02*
X150280000Y-176680000D01*
X150280000Y-176680000D02*
X150280000Y-178920000D01*
X151000000Y-176680000D02*
X151000000Y-178920000D01*
X155170000Y-177800000D02*
X154520000Y-177800000D01*
X150280000Y-178920000D02*
X154520000Y-178920000D01*
X150880000Y-176680000D02*
X150880000Y-178920000D01*
X154520000Y-178920000D02*
X154520000Y-176680000D01*
X149630000Y-177800000D02*
X150280000Y-177800000D01*
X151120000Y-176680000D02*
X151120000Y-178920000D01*
%TO.C,R3*%
X281907500Y-130636250D02*
X280067500Y-130636250D01*
X280067500Y-134476250D02*
X281907500Y-134476250D01*
X281907500Y-134476250D02*
X281907500Y-130636250D01*
X280067500Y-130636250D02*
X280067500Y-134476250D01*
X280987500Y-135426250D02*
X280987500Y-134476250D01*
X280987500Y-129686250D02*
X280987500Y-130636250D01*
%TO.C,D57*%
X341245000Y-181301250D02*
X341245000Y-179061250D01*
X341845000Y-181301250D02*
X341845000Y-179061250D01*
X337605000Y-181301250D02*
X341845000Y-181301250D01*
X341005000Y-181301250D02*
X341005000Y-179061250D01*
X336955000Y-180181250D02*
X337605000Y-180181250D01*
X341125000Y-181301250D02*
X341125000Y-179061250D01*
X337605000Y-179061250D02*
X337605000Y-181301250D01*
X341845000Y-179061250D02*
X337605000Y-179061250D01*
X342495000Y-180181250D02*
X341845000Y-180181250D01*
%TO.C,D103*%
X269388750Y-176680000D02*
X269388750Y-178920000D01*
X267898750Y-177800000D02*
X268548750Y-177800000D01*
X272788750Y-176680000D02*
X268548750Y-176680000D01*
X268548750Y-178920000D02*
X272788750Y-178920000D01*
X269268750Y-176680000D02*
X269268750Y-178920000D01*
X269148750Y-176680000D02*
X269148750Y-178920000D01*
X273438750Y-177800000D02*
X272788750Y-177800000D01*
X268548750Y-176680000D02*
X268548750Y-178920000D01*
X272788750Y-178920000D02*
X272788750Y-176680000D01*
%TO.C,Y1*%
X366231250Y-141322500D02*
X366231250Y-134922500D01*
X371281250Y-141322500D02*
X371281250Y-134922500D01*
X371281250Y-134922500D02*
G75*
G03*
X366231250Y-134922500I-2525000J0D01*
G01*
X366231250Y-141322500D02*
G75*
G03*
X371281250Y-141322500I2525000J0D01*
G01*
%TO.C,D91*%
X368112500Y-178920000D02*
X368112500Y-176680000D01*
X368832500Y-176680000D02*
X364592500Y-176680000D01*
X367992500Y-178920000D02*
X367992500Y-176680000D01*
X369482500Y-177800000D02*
X368832500Y-177800000D01*
X364592500Y-176680000D02*
X364592500Y-178920000D01*
X364592500Y-178920000D02*
X368832500Y-178920000D01*
X368832500Y-178920000D02*
X368832500Y-176680000D01*
X363942500Y-177800000D02*
X364592500Y-177800000D01*
X368232500Y-178920000D02*
X368232500Y-176680000D01*
%TO.C,D82*%
X235482500Y-181442500D02*
X231242500Y-181442500D01*
X231842500Y-181442500D02*
X231842500Y-183682500D01*
X235482500Y-183682500D02*
X235482500Y-181442500D01*
X230592500Y-182562500D02*
X231242500Y-182562500D01*
X236132500Y-182562500D02*
X235482500Y-182562500D01*
X231242500Y-181442500D02*
X231242500Y-183682500D01*
X231962500Y-181442500D02*
X231962500Y-183682500D01*
X232082500Y-181442500D02*
X232082500Y-183682500D01*
X231242500Y-183682500D02*
X235482500Y-183682500D01*
%TO.C,D12*%
X128182500Y-182562500D02*
X127532500Y-182562500D01*
X122642500Y-182562500D02*
X123292500Y-182562500D01*
X127532500Y-183682500D02*
X127532500Y-181442500D01*
X123292500Y-183682500D02*
X127532500Y-183682500D01*
X127532500Y-181442500D02*
X123292500Y-181442500D01*
X123892500Y-181442500D02*
X123892500Y-183682500D01*
X124132500Y-181442500D02*
X124132500Y-183682500D01*
X123292500Y-181442500D02*
X123292500Y-183682500D01*
X124012500Y-181442500D02*
X124012500Y-183682500D01*
%TO.C,D93*%
X368832500Y-183682500D02*
X368832500Y-181442500D01*
X364592500Y-181442500D02*
X364592500Y-183682500D01*
X368112500Y-183682500D02*
X368112500Y-181442500D01*
X367992500Y-183682500D02*
X367992500Y-181442500D01*
X364592500Y-183682500D02*
X368832500Y-183682500D01*
X368832500Y-181442500D02*
X364592500Y-181442500D01*
X369482500Y-182562500D02*
X368832500Y-182562500D01*
X363942500Y-182562500D02*
X364592500Y-182562500D01*
X368232500Y-183682500D02*
X368232500Y-181442500D01*
%TO.C,SW124*%
X259231250Y-131012500D02*
X259231250Y-132512500D01*
X264981250Y-128512500D02*
X260481250Y-128512500D01*
X260481250Y-135012500D02*
X264981250Y-135012500D01*
X266231250Y-132512500D02*
X266231250Y-131012500D01*
%TO.C,D63*%
X204855000Y-181442500D02*
X204855000Y-183682500D01*
X204255000Y-183682500D02*
X208495000Y-183682500D01*
X204255000Y-181442500D02*
X204255000Y-183682500D01*
X205095000Y-181442500D02*
X205095000Y-183682500D01*
X203605000Y-182562500D02*
X204255000Y-182562500D01*
X208495000Y-183682500D02*
X208495000Y-181442500D01*
X209145000Y-182562500D02*
X208495000Y-182562500D01*
X204975000Y-181442500D02*
X204975000Y-183682500D01*
X208495000Y-181442500D02*
X204255000Y-181442500D01*
%TO.C,D86*%
X232082500Y-171917500D02*
X232082500Y-174157500D01*
X231242500Y-171917500D02*
X231242500Y-174157500D01*
X231242500Y-174157500D02*
X235482500Y-174157500D01*
X231842500Y-171917500D02*
X231842500Y-174157500D01*
X236132500Y-173037500D02*
X235482500Y-173037500D01*
X235482500Y-171917500D02*
X231242500Y-171917500D01*
X235482500Y-174157500D02*
X235482500Y-171917500D01*
X231962500Y-171917500D02*
X231962500Y-174157500D01*
X230592500Y-173037500D02*
X231242500Y-173037500D01*
%TO.C,D36*%
X155170000Y-182562500D02*
X154520000Y-182562500D01*
X151120000Y-181442500D02*
X151120000Y-183682500D01*
X150880000Y-181442500D02*
X150880000Y-183682500D01*
X151000000Y-181442500D02*
X151000000Y-183682500D01*
X150280000Y-183682500D02*
X154520000Y-183682500D01*
X154520000Y-183682500D02*
X154520000Y-181442500D01*
X149630000Y-182562500D02*
X150280000Y-182562500D01*
X150280000Y-181442500D02*
X150280000Y-183682500D01*
X154520000Y-181442500D02*
X150280000Y-181442500D01*
%TO.C,D8*%
X123292500Y-176680000D02*
X123292500Y-178920000D01*
X127532500Y-178920000D02*
X127532500Y-176680000D01*
X124132500Y-176680000D02*
X124132500Y-178920000D01*
X124012500Y-176680000D02*
X124012500Y-178920000D01*
X127532500Y-176680000D02*
X123292500Y-176680000D01*
X123292500Y-178920000D02*
X127532500Y-178920000D01*
X123892500Y-176680000D02*
X123892500Y-178920000D01*
X122642500Y-177800000D02*
X123292500Y-177800000D01*
X128182500Y-177800000D02*
X127532500Y-177800000D01*
%TO.C,D21*%
X314017500Y-183682500D02*
X314017500Y-181442500D01*
X315507500Y-182562500D02*
X314857500Y-182562500D01*
X314137500Y-183682500D02*
X314137500Y-181442500D01*
X310617500Y-181442500D02*
X310617500Y-183682500D01*
X310617500Y-183682500D02*
X314857500Y-183682500D01*
X314857500Y-181442500D02*
X310617500Y-181442500D01*
X314257500Y-183682500D02*
X314257500Y-181442500D01*
X314857500Y-183682500D02*
X314857500Y-181442500D01*
X309967500Y-182562500D02*
X310617500Y-182562500D01*
%TO.C,D80*%
X231962500Y-179061250D02*
X231962500Y-181301250D01*
X230592500Y-180181250D02*
X231242500Y-180181250D01*
X231242500Y-181301250D02*
X235482500Y-181301250D01*
X236132500Y-180181250D02*
X235482500Y-180181250D01*
X235482500Y-181301250D02*
X235482500Y-179061250D01*
X235482500Y-179061250D02*
X231242500Y-179061250D01*
X231842500Y-179061250D02*
X231842500Y-181301250D01*
X232082500Y-179061250D02*
X232082500Y-181301250D01*
X231242500Y-179061250D02*
X231242500Y-181301250D01*
%TO.C,D78*%
X232082500Y-176680000D02*
X232082500Y-178920000D01*
X230592500Y-177800000D02*
X231242500Y-177800000D01*
X236132500Y-177800000D02*
X235482500Y-177800000D01*
X231242500Y-178920000D02*
X235482500Y-178920000D01*
X235482500Y-178920000D02*
X235482500Y-176680000D01*
X231962500Y-176680000D02*
X231962500Y-178920000D01*
X235482500Y-176680000D02*
X231242500Y-176680000D01*
X231842500Y-176680000D02*
X231842500Y-178920000D01*
X231242500Y-176680000D02*
X231242500Y-178920000D01*
%TO.C,D96*%
X287030000Y-186063750D02*
X287030000Y-183823750D01*
X288520000Y-184943750D02*
X287870000Y-184943750D01*
X287270000Y-186063750D02*
X287270000Y-183823750D01*
X283630000Y-186063750D02*
X287870000Y-186063750D01*
X283630000Y-183823750D02*
X283630000Y-186063750D01*
X282980000Y-184943750D02*
X283630000Y-184943750D01*
X287870000Y-183823750D02*
X283630000Y-183823750D01*
X287870000Y-186063750D02*
X287870000Y-183823750D01*
X287150000Y-186063750D02*
X287150000Y-183823750D01*
%TO.C,D73*%
X349511250Y-183823750D02*
X349511250Y-186063750D01*
X349511250Y-186063750D02*
X353751250Y-186063750D01*
X354401250Y-184943750D02*
X353751250Y-184943750D01*
X350111250Y-183823750D02*
X350111250Y-186063750D01*
X353751250Y-186063750D02*
X353751250Y-183823750D01*
X350351250Y-183823750D02*
X350351250Y-186063750D01*
X350231250Y-183823750D02*
X350231250Y-186063750D01*
X348861250Y-184943750D02*
X349511250Y-184943750D01*
X353751250Y-183823750D02*
X349511250Y-183823750D01*
%TO.C,D88*%
X231842500Y-174298750D02*
X231842500Y-176538750D01*
X231242500Y-176538750D02*
X235482500Y-176538750D01*
X235482500Y-176538750D02*
X235482500Y-174298750D01*
X232082500Y-174298750D02*
X232082500Y-176538750D01*
X231962500Y-174298750D02*
X231962500Y-176538750D01*
X231242500Y-174298750D02*
X231242500Y-176538750D01*
X236132500Y-175418750D02*
X235482500Y-175418750D01*
X230592500Y-175418750D02*
X231242500Y-175418750D01*
X235482500Y-174298750D02*
X231242500Y-174298750D01*
%TO.C,D50*%
X192348750Y-176538750D02*
X196588750Y-176538750D01*
X196588750Y-176538750D02*
X196588750Y-174298750D01*
X195748750Y-176538750D02*
X195748750Y-174298750D01*
X196588750Y-174298750D02*
X192348750Y-174298750D01*
X192348750Y-174298750D02*
X192348750Y-176538750D01*
X195868750Y-176538750D02*
X195868750Y-174298750D01*
X197238750Y-175418750D02*
X196588750Y-175418750D01*
X191698750Y-175418750D02*
X192348750Y-175418750D01*
X195988750Y-176538750D02*
X195988750Y-174298750D01*
%TO.C,J2*%
X378926250Y-134257500D02*
X381526250Y-134257500D01*
X376326250Y-136857500D02*
X378926250Y-136857500D01*
X381526250Y-134257500D02*
X381526250Y-141997500D01*
X376326250Y-135587500D02*
X376326250Y-134257500D01*
X376326250Y-136857500D02*
X376326250Y-141997500D01*
X376326250Y-141997500D02*
X381526250Y-141997500D01*
X378926250Y-136857500D02*
X378926250Y-134257500D01*
X376326250Y-134257500D02*
X377656250Y-134257500D01*
%TO.C,D83*%
X260882500Y-176680000D02*
X256642500Y-176680000D01*
X260162500Y-178920000D02*
X260162500Y-176680000D01*
X256642500Y-178920000D02*
X260882500Y-178920000D01*
X256642500Y-176680000D02*
X256642500Y-178920000D01*
X261532500Y-177800000D02*
X260882500Y-177800000D01*
X260882500Y-178920000D02*
X260882500Y-176680000D01*
X255992500Y-177800000D02*
X256642500Y-177800000D01*
X260042500Y-178920000D02*
X260042500Y-176680000D01*
X260282500Y-178920000D02*
X260282500Y-176680000D01*
%TO.C,D9*%
X143263750Y-177800000D02*
X142613750Y-177800000D01*
X141893750Y-178920000D02*
X141893750Y-176680000D01*
X138373750Y-176680000D02*
X138373750Y-178920000D01*
X142613750Y-178920000D02*
X142613750Y-176680000D01*
X142613750Y-176680000D02*
X138373750Y-176680000D01*
X137723750Y-177800000D02*
X138373750Y-177800000D01*
X138373750Y-178920000D02*
X142613750Y-178920000D01*
X141773750Y-178920000D02*
X141773750Y-176680000D01*
X142013750Y-178920000D02*
X142013750Y-176680000D01*
%TO.C,D47*%
X178107500Y-169536250D02*
X178107500Y-171776250D01*
X182157500Y-170656250D02*
X181507500Y-170656250D01*
X177867500Y-169536250D02*
X177867500Y-171776250D01*
X177267500Y-171776250D02*
X181507500Y-171776250D01*
X176617500Y-170656250D02*
X177267500Y-170656250D01*
X177267500Y-169536250D02*
X177267500Y-171776250D01*
X181507500Y-171776250D02*
X181507500Y-169536250D01*
X181507500Y-169536250D02*
X177267500Y-169536250D01*
X177987500Y-169536250D02*
X177987500Y-171776250D01*
%TO.C,C4*%
X373982500Y-141916500D02*
X373982500Y-140658500D01*
X372142500Y-141916500D02*
X372142500Y-140658500D01*
%TO.C,U1*%
X313466250Y-131647500D02*
X313466250Y-144567500D01*
X364386250Y-137107500D02*
X364386250Y-131647500D01*
X313466250Y-144567500D02*
X364386250Y-144567500D01*
X364386250Y-131647500D02*
X313466250Y-131647500D01*
X364386250Y-144567500D02*
X364386250Y-139107500D01*
X364386250Y-137107500D02*
G75*
G03*
X364386250Y-139107500I0J-1000000D01*
G01*
%TO.C,D74*%
X348861250Y-182562500D02*
X349511250Y-182562500D01*
X353751250Y-181442500D02*
X349511250Y-181442500D01*
X349511250Y-183682500D02*
X353751250Y-183682500D01*
X353751250Y-183682500D02*
X353751250Y-181442500D01*
X349511250Y-181442500D02*
X349511250Y-183682500D01*
X350231250Y-181442500D02*
X350231250Y-183682500D01*
X350111250Y-181442500D02*
X350111250Y-183682500D01*
X354401250Y-182562500D02*
X353751250Y-182562500D01*
X350351250Y-181442500D02*
X350351250Y-183682500D01*
%TO.C,D4*%
X123292500Y-174157500D02*
X127532500Y-174157500D01*
X127532500Y-171917500D02*
X123292500Y-171917500D01*
X124012500Y-171917500D02*
X124012500Y-174157500D01*
X127532500Y-174157500D02*
X127532500Y-171917500D01*
X128182500Y-173037500D02*
X127532500Y-173037500D01*
X122642500Y-173037500D02*
X123292500Y-173037500D01*
X123292500Y-171917500D02*
X123292500Y-174157500D01*
X124132500Y-171917500D02*
X124132500Y-174157500D01*
X123892500Y-171917500D02*
X123892500Y-174157500D01*
%TO.C,D100*%
X283630000Y-176680000D02*
X283630000Y-178920000D01*
X287870000Y-178920000D02*
X287870000Y-176680000D01*
X287150000Y-178920000D02*
X287150000Y-176680000D01*
X287270000Y-178920000D02*
X287270000Y-176680000D01*
X283630000Y-178920000D02*
X287870000Y-178920000D01*
X282980000Y-177800000D02*
X283630000Y-177800000D01*
X287870000Y-176680000D02*
X283630000Y-176680000D01*
X288520000Y-177800000D02*
X287870000Y-177800000D01*
X287030000Y-178920000D02*
X287030000Y-176680000D01*
%TO.C,D65*%
X204975000Y-183823750D02*
X204975000Y-186063750D01*
X203605000Y-184943750D02*
X204255000Y-184943750D01*
X204255000Y-186063750D02*
X208495000Y-186063750D01*
X205095000Y-183823750D02*
X205095000Y-186063750D01*
X208495000Y-183823750D02*
X204255000Y-183823750D01*
X208495000Y-186063750D02*
X208495000Y-183823750D01*
X209145000Y-184943750D02*
X208495000Y-184943750D01*
X204855000Y-183823750D02*
X204855000Y-186063750D01*
X204255000Y-183823750D02*
X204255000Y-186063750D01*
%TO.C,D70*%
X218686250Y-173037500D02*
X219336250Y-173037500D01*
X222976250Y-174157500D02*
X222976250Y-171917500D01*
X224226250Y-173037500D02*
X223576250Y-173037500D01*
X219336250Y-174157500D02*
X223576250Y-174157500D01*
X223576250Y-174157500D02*
X223576250Y-171917500D01*
X219336250Y-171917500D02*
X219336250Y-174157500D01*
X222856250Y-174157500D02*
X222856250Y-171917500D01*
X223576250Y-171917500D02*
X219336250Y-171917500D01*
X222736250Y-174157500D02*
X222736250Y-171917500D01*
%TO.C,D109*%
X290851250Y-138788750D02*
X285411250Y-138788750D01*
X289951250Y-138788750D02*
X289951250Y-135848750D01*
X290851250Y-138658750D02*
X290851250Y-138788750D01*
X285411250Y-135848750D02*
X285411250Y-135978750D01*
X290071250Y-138788750D02*
X290071250Y-135848750D01*
X289831250Y-138788750D02*
X289831250Y-135848750D01*
X290851250Y-135848750D02*
X285411250Y-135848750D01*
X285411250Y-138788750D02*
X285411250Y-138658750D01*
X290851250Y-135978750D02*
X290851250Y-135848750D01*
%TO.C,R4*%
X298755000Y-134143750D02*
X299705000Y-134143750D01*
X303545000Y-133223750D02*
X299705000Y-133223750D01*
X304495000Y-134143750D02*
X303545000Y-134143750D01*
X299705000Y-133223750D02*
X299705000Y-135063750D01*
X299705000Y-135063750D02*
X303545000Y-135063750D01*
X303545000Y-135063750D02*
X303545000Y-133223750D01*
%TO.C,D28*%
X154520000Y-174157500D02*
X154520000Y-171917500D01*
X150280000Y-171917500D02*
X150280000Y-174157500D01*
X154520000Y-171917500D02*
X150280000Y-171917500D01*
X151000000Y-171917500D02*
X151000000Y-174157500D01*
X151120000Y-171917500D02*
X151120000Y-174157500D01*
X150280000Y-174157500D02*
X154520000Y-174157500D01*
X155170000Y-173037500D02*
X154520000Y-173037500D01*
X150880000Y-171917500D02*
X150880000Y-174157500D01*
X149630000Y-173037500D02*
X150280000Y-173037500D01*
%TO.C,D71*%
X204255000Y-178920000D02*
X208495000Y-178920000D01*
X209145000Y-177800000D02*
X208495000Y-177800000D01*
X203605000Y-177800000D02*
X204255000Y-177800000D01*
X208495000Y-178920000D02*
X208495000Y-176680000D01*
X204255000Y-176680000D02*
X204255000Y-178920000D01*
X204975000Y-176680000D02*
X204975000Y-178920000D01*
X208495000Y-176680000D02*
X204255000Y-176680000D01*
X204855000Y-176680000D02*
X204855000Y-178920000D01*
X205095000Y-176680000D02*
X205095000Y-178920000D01*
%TO.C,C3*%
X331538129Y-148940000D02*
X331538129Y-148925000D01*
X336078129Y-148940000D02*
X331538129Y-148940000D01*
X336078129Y-146800000D02*
X331538129Y-146800000D01*
X331538129Y-146815000D02*
X331538129Y-146800000D01*
X336078129Y-148940000D02*
X336078129Y-148925000D01*
X336078129Y-146815000D02*
X336078129Y-146800000D01*
%TO.C,D77*%
X260882500Y-186063750D02*
X260882500Y-183823750D01*
X261532500Y-184943750D02*
X260882500Y-184943750D01*
X256642500Y-186063750D02*
X260882500Y-186063750D01*
X256642500Y-183823750D02*
X256642500Y-186063750D01*
X260042500Y-186063750D02*
X260042500Y-183823750D01*
X255992500Y-184943750D02*
X256642500Y-184943750D01*
X260282500Y-186063750D02*
X260282500Y-183823750D01*
X260162500Y-186063750D02*
X260162500Y-183823750D01*
X260882500Y-183823750D02*
X256642500Y-183823750D01*
%TO.C,D40*%
X326763750Y-179061250D02*
X322523750Y-179061250D01*
X323363750Y-179061250D02*
X323363750Y-181301250D01*
X322523750Y-179061250D02*
X322523750Y-181301250D01*
X322523750Y-181301250D02*
X326763750Y-181301250D01*
X327413750Y-180181250D02*
X326763750Y-180181250D01*
X323123750Y-179061250D02*
X323123750Y-181301250D01*
X321873750Y-180181250D02*
X322523750Y-180181250D01*
X323243750Y-179061250D02*
X323243750Y-181301250D01*
X326763750Y-181301250D02*
X326763750Y-179061250D01*
%TO.C,D5*%
X142013750Y-183682500D02*
X142013750Y-181442500D01*
X141773750Y-183682500D02*
X141773750Y-181442500D01*
X142613750Y-181442500D02*
X138373750Y-181442500D01*
X142613750Y-183682500D02*
X142613750Y-181442500D01*
X137723750Y-182562500D02*
X138373750Y-182562500D01*
X143263750Y-182562500D02*
X142613750Y-182562500D01*
X141893750Y-183682500D02*
X141893750Y-181442500D01*
X138373750Y-181442500D02*
X138373750Y-183682500D01*
X138373750Y-183682500D02*
X142613750Y-183682500D01*
%TO.C,D48*%
X195988750Y-178920000D02*
X195988750Y-176680000D01*
X196588750Y-176680000D02*
X192348750Y-176680000D01*
X195748750Y-178920000D02*
X195748750Y-176680000D01*
X197238750Y-177800000D02*
X196588750Y-177800000D01*
X192348750Y-178920000D02*
X196588750Y-178920000D01*
X195868750Y-178920000D02*
X195868750Y-176680000D01*
X192348750Y-176680000D02*
X192348750Y-178920000D01*
X196588750Y-178920000D02*
X196588750Y-176680000D01*
X191698750Y-177800000D02*
X192348750Y-177800000D01*
%TO.C,D6*%
X127532500Y-174298750D02*
X123292500Y-174298750D01*
X124012500Y-174298750D02*
X124012500Y-176538750D01*
X123292500Y-174298750D02*
X123292500Y-176538750D01*
X123292500Y-176538750D02*
X127532500Y-176538750D01*
X122642500Y-175418750D02*
X123292500Y-175418750D01*
X128182500Y-175418750D02*
X127532500Y-175418750D01*
X124132500Y-174298750D02*
X124132500Y-176538750D01*
X127532500Y-176538750D02*
X127532500Y-174298750D01*
X123892500Y-174298750D02*
X123892500Y-176538750D01*
%TO.C,D25*%
X169601250Y-183682500D02*
X169601250Y-181442500D01*
X165361250Y-181442500D02*
X165361250Y-183682500D01*
X165361250Y-183682500D02*
X169601250Y-183682500D01*
X170251250Y-182562500D02*
X169601250Y-182562500D01*
X164711250Y-182562500D02*
X165361250Y-182562500D01*
X169601250Y-181442500D02*
X165361250Y-181442500D01*
X168881250Y-183682500D02*
X168881250Y-181442500D01*
X168761250Y-183682500D02*
X168761250Y-181442500D01*
X169001250Y-183682500D02*
X169001250Y-181442500D01*
%TO.C,D26*%
X154520000Y-169536250D02*
X150280000Y-169536250D01*
X155170000Y-170656250D02*
X154520000Y-170656250D01*
X154520000Y-171776250D02*
X154520000Y-169536250D01*
X150280000Y-171776250D02*
X154520000Y-171776250D01*
X150880000Y-169536250D02*
X150880000Y-171776250D01*
X149630000Y-170656250D02*
X150280000Y-170656250D01*
X150280000Y-169536250D02*
X150280000Y-171776250D01*
X151120000Y-169536250D02*
X151120000Y-171776250D01*
X151000000Y-169536250D02*
X151000000Y-171776250D01*
%TO.C,D56*%
X341845000Y-178920000D02*
X341845000Y-176680000D01*
X341125000Y-178920000D02*
X341125000Y-176680000D01*
X336955000Y-177800000D02*
X337605000Y-177800000D01*
X341005000Y-178920000D02*
X341005000Y-176680000D01*
X337605000Y-178920000D02*
X341845000Y-178920000D01*
X341845000Y-176680000D02*
X337605000Y-176680000D01*
X337605000Y-176680000D02*
X337605000Y-178920000D01*
X342495000Y-177800000D02*
X341845000Y-177800000D01*
X341245000Y-178920000D02*
X341245000Y-176680000D01*
%TO.C,R1*%
X294355000Y-130636250D02*
X294355000Y-134476250D01*
X295275000Y-135426250D02*
X295275000Y-134476250D01*
X295275000Y-129686250D02*
X295275000Y-130636250D01*
X294355000Y-134476250D02*
X296195000Y-134476250D01*
X296195000Y-134476250D02*
X296195000Y-130636250D01*
X296195000Y-130636250D02*
X294355000Y-130636250D01*
%TO.C,D87*%
X260162500Y-174157500D02*
X260162500Y-171917500D01*
X256642500Y-174157500D02*
X260882500Y-174157500D01*
X260882500Y-171917500D02*
X256642500Y-171917500D01*
X256642500Y-171917500D02*
X256642500Y-174157500D01*
X260882500Y-174157500D02*
X260882500Y-171917500D01*
X260282500Y-174157500D02*
X260282500Y-171917500D01*
X255992500Y-173037500D02*
X256642500Y-173037500D01*
X261532500Y-173037500D02*
X260882500Y-173037500D01*
X260042500Y-174157500D02*
X260042500Y-171917500D01*
%TO.C,R6*%
X272717500Y-130048750D02*
X272717500Y-131888750D01*
X272717500Y-131888750D02*
X276557500Y-131888750D01*
X271767500Y-130968750D02*
X272717500Y-130968750D01*
X276557500Y-130048750D02*
X272717500Y-130048750D01*
X276557500Y-131888750D02*
X276557500Y-130048750D01*
X277507500Y-130968750D02*
X276557500Y-130968750D01*
%TO.C,D11*%
X143263750Y-175418750D02*
X142613750Y-175418750D01*
X142613750Y-176538750D02*
X142613750Y-174298750D01*
X142613750Y-174298750D02*
X138373750Y-174298750D01*
X138373750Y-174298750D02*
X138373750Y-176538750D01*
X142013750Y-176538750D02*
X142013750Y-174298750D01*
X137723750Y-175418750D02*
X138373750Y-175418750D01*
X141773750Y-176538750D02*
X141773750Y-174298750D01*
X141893750Y-176538750D02*
X141893750Y-174298750D01*
X138373750Y-176538750D02*
X142613750Y-176538750D01*
%TO.C,D29*%
X169001250Y-178920000D02*
X169001250Y-176680000D01*
X169601250Y-178920000D02*
X169601250Y-176680000D01*
X165361250Y-178920000D02*
X169601250Y-178920000D01*
X168881250Y-178920000D02*
X168881250Y-176680000D01*
X168761250Y-178920000D02*
X168761250Y-176680000D01*
X169601250Y-176680000D02*
X165361250Y-176680000D01*
X170251250Y-177800000D02*
X169601250Y-177800000D01*
X164711250Y-177800000D02*
X165361250Y-177800000D01*
X165361250Y-176680000D02*
X165361250Y-178920000D01*
%TO.C,SW123*%
X259231250Y-138950000D02*
X259231250Y-140450000D01*
X266231250Y-140450000D02*
X266231250Y-138950000D01*
X260481250Y-142950000D02*
X264981250Y-142950000D01*
X264981250Y-136450000D02*
X260481250Y-136450000D01*
%TO.C,D92*%
X368232500Y-181301250D02*
X368232500Y-179061250D01*
X367992500Y-181301250D02*
X367992500Y-179061250D01*
X364592500Y-181301250D02*
X368832500Y-181301250D01*
X368832500Y-179061250D02*
X364592500Y-179061250D01*
X363942500Y-180181250D02*
X364592500Y-180181250D01*
X368832500Y-181301250D02*
X368832500Y-179061250D01*
X369482500Y-180181250D02*
X368832500Y-180181250D01*
X368112500Y-181301250D02*
X368112500Y-179061250D01*
X364592500Y-179061250D02*
X364592500Y-181301250D01*
%TO.C,D33*%
X168761250Y-174157500D02*
X168761250Y-171917500D01*
X164711250Y-173037500D02*
X165361250Y-173037500D01*
X165361250Y-174157500D02*
X169601250Y-174157500D01*
X170251250Y-173037500D02*
X169601250Y-173037500D01*
X169601250Y-174157500D02*
X169601250Y-171917500D01*
X169601250Y-171917500D02*
X165361250Y-171917500D01*
X169001250Y-174157500D02*
X169001250Y-171917500D01*
X168881250Y-174157500D02*
X168881250Y-171917500D01*
X165361250Y-171917500D02*
X165361250Y-174157500D01*
%TO.C,D81*%
X260042500Y-181301250D02*
X260042500Y-179061250D01*
X255992500Y-180181250D02*
X256642500Y-180181250D01*
X260282500Y-181301250D02*
X260282500Y-179061250D01*
X260882500Y-181301250D02*
X260882500Y-179061250D01*
X256642500Y-181301250D02*
X260882500Y-181301250D01*
X260162500Y-181301250D02*
X260162500Y-179061250D01*
X261532500Y-180181250D02*
X260882500Y-180181250D01*
X260882500Y-179061250D02*
X256642500Y-179061250D01*
X256642500Y-179061250D02*
X256642500Y-181301250D01*
%TO.C,D46*%
X196588750Y-179061250D02*
X192348750Y-179061250D01*
X191698750Y-180181250D02*
X192348750Y-180181250D01*
X196588750Y-181301250D02*
X196588750Y-179061250D01*
X195748750Y-181301250D02*
X195748750Y-179061250D01*
X192348750Y-179061250D02*
X192348750Y-181301250D01*
X192348750Y-181301250D02*
X196588750Y-181301250D01*
X195988750Y-181301250D02*
X195988750Y-179061250D01*
X197238750Y-180181250D02*
X196588750Y-180181250D01*
X195868750Y-181301250D02*
X195868750Y-179061250D01*
%TO.C,D97*%
X268548750Y-181442500D02*
X268548750Y-183682500D01*
X269268750Y-181442500D02*
X269268750Y-183682500D01*
X269148750Y-181442500D02*
X269148750Y-183682500D01*
X268548750Y-183682500D02*
X272788750Y-183682500D01*
X269388750Y-181442500D02*
X269388750Y-183682500D01*
X267898750Y-182562500D02*
X268548750Y-182562500D01*
X272788750Y-181442500D02*
X268548750Y-181442500D01*
X273438750Y-182562500D02*
X272788750Y-182562500D01*
X272788750Y-183682500D02*
X272788750Y-181442500D01*
%TO.C,F1*%
X269687500Y-140162500D02*
X269687500Y-136062500D01*
X279587500Y-136062500D02*
X269687500Y-136062500D01*
X279587500Y-140162500D02*
X269687500Y-140162500D01*
X279587500Y-140162500D02*
X279587500Y-136062500D01*
%TO.C,C2*%
X339042500Y-146800000D02*
X339042500Y-146815000D01*
X343582500Y-146800000D02*
X343582500Y-146815000D01*
X339042500Y-148925000D02*
X339042500Y-148940000D01*
X343582500Y-148925000D02*
X343582500Y-148940000D01*
X339042500Y-148940000D02*
X343582500Y-148940000D01*
X339042500Y-146800000D02*
X343582500Y-146800000D01*
%TO.C,D17*%
X296376250Y-181442500D02*
X296376250Y-183682500D01*
X295536250Y-181442500D02*
X295536250Y-183682500D01*
X295536250Y-183682500D02*
X299776250Y-183682500D01*
X299776250Y-181442500D02*
X295536250Y-181442500D01*
X296256250Y-181442500D02*
X296256250Y-183682500D01*
X296136250Y-181442500D02*
X296136250Y-183682500D01*
X294886250Y-182562500D02*
X295536250Y-182562500D01*
X299776250Y-183682500D02*
X299776250Y-181442500D01*
X300426250Y-182562500D02*
X299776250Y-182562500D01*
%TO.C,D98*%
X272788750Y-179061250D02*
X268548750Y-179061250D01*
X272788750Y-181301250D02*
X272788750Y-179061250D01*
X273438750Y-180181250D02*
X272788750Y-180181250D01*
X267898750Y-180181250D02*
X268548750Y-180181250D01*
X268548750Y-179061250D02*
X268548750Y-181301250D01*
X269388750Y-179061250D02*
X269388750Y-181301250D01*
X269148750Y-179061250D02*
X269148750Y-181301250D01*
X268548750Y-181301250D02*
X272788750Y-181301250D01*
X269268750Y-179061250D02*
X269268750Y-181301250D01*
%TO.C,D15*%
X296136250Y-176680000D02*
X296136250Y-178920000D01*
X296376250Y-176680000D02*
X296376250Y-178920000D01*
X296256250Y-176680000D02*
X296256250Y-178920000D01*
X300426250Y-177800000D02*
X299776250Y-177800000D01*
X295536250Y-176680000D02*
X295536250Y-178920000D01*
X299776250Y-178920000D02*
X299776250Y-176680000D01*
X299776250Y-176680000D02*
X295536250Y-176680000D01*
X294886250Y-177800000D02*
X295536250Y-177800000D01*
X295536250Y-178920000D02*
X299776250Y-178920000D01*
%TO.C,D54*%
X197238750Y-170656250D02*
X196588750Y-170656250D01*
X196588750Y-171776250D02*
X196588750Y-169536250D01*
X195988750Y-171776250D02*
X195988750Y-169536250D01*
X191698750Y-170656250D02*
X192348750Y-170656250D01*
X195748750Y-171776250D02*
X195748750Y-169536250D01*
X192348750Y-171776250D02*
X196588750Y-171776250D01*
X195868750Y-171776250D02*
X195868750Y-169536250D01*
X196588750Y-169536250D02*
X192348750Y-169536250D01*
X192348750Y-169536250D02*
X192348750Y-171776250D01*
%TO.C,D51*%
X181507500Y-176538750D02*
X181507500Y-174298750D01*
X177267500Y-176538750D02*
X181507500Y-176538750D01*
X181507500Y-174298750D02*
X177267500Y-174298750D01*
X177987500Y-174298750D02*
X177987500Y-176538750D01*
X177267500Y-174298750D02*
X177267500Y-176538750D01*
X182157500Y-175418750D02*
X181507500Y-175418750D01*
X176617500Y-175418750D02*
X177267500Y-175418750D01*
X178107500Y-174298750D02*
X178107500Y-176538750D01*
X177867500Y-174298750D02*
X177867500Y-176538750D01*
%TO.C,D68*%
X224226250Y-175418750D02*
X223576250Y-175418750D01*
X222856250Y-176538750D02*
X222856250Y-174298750D01*
X222736250Y-176538750D02*
X222736250Y-174298750D01*
X219336250Y-176538750D02*
X223576250Y-176538750D01*
X223576250Y-174298750D02*
X219336250Y-174298750D01*
X223576250Y-176538750D02*
X223576250Y-174298750D01*
X222976250Y-176538750D02*
X222976250Y-174298750D01*
X219336250Y-174298750D02*
X219336250Y-176538750D01*
X218686250Y-175418750D02*
X219336250Y-175418750D01*
%TO.C,D99*%
X273438750Y-173037500D02*
X272788750Y-173037500D01*
X267898750Y-173037500D02*
X268548750Y-173037500D01*
X268548750Y-171917500D02*
X268548750Y-174157500D01*
X268548750Y-174157500D02*
X272788750Y-174157500D01*
X269388750Y-171917500D02*
X269388750Y-174157500D01*
X272788750Y-171917500D02*
X268548750Y-171917500D01*
X269148750Y-171917500D02*
X269148750Y-174157500D01*
X272788750Y-174157500D02*
X272788750Y-171917500D01*
X269268750Y-171917500D02*
X269268750Y-174157500D01*
%TO.C,D90*%
X231962500Y-169536250D02*
X231962500Y-171776250D01*
X235482500Y-171776250D02*
X235482500Y-169536250D01*
X230592500Y-170656250D02*
X231242500Y-170656250D01*
X236132500Y-170656250D02*
X235482500Y-170656250D01*
X232082500Y-169536250D02*
X232082500Y-171776250D01*
X231842500Y-169536250D02*
X231842500Y-171776250D01*
X231242500Y-171776250D02*
X235482500Y-171776250D01*
X235482500Y-169536250D02*
X231242500Y-169536250D01*
X231242500Y-169536250D02*
X231242500Y-171776250D01*
%TO.C,D94*%
X369482500Y-184943750D02*
X368832500Y-184943750D01*
X368832500Y-183823750D02*
X364592500Y-183823750D01*
X364592500Y-186063750D02*
X368832500Y-186063750D01*
X363942500Y-184943750D02*
X364592500Y-184943750D01*
X367992500Y-186063750D02*
X367992500Y-183823750D01*
X364592500Y-183823750D02*
X364592500Y-186063750D01*
X368232500Y-186063750D02*
X368232500Y-183823750D01*
X368832500Y-186063750D02*
X368832500Y-183823750D01*
X368112500Y-186063750D02*
X368112500Y-183823750D01*
%TO.C,D19*%
X314857500Y-178920000D02*
X314857500Y-176680000D01*
X314137500Y-178920000D02*
X314137500Y-176680000D01*
X314257500Y-178920000D02*
X314257500Y-176680000D01*
X314857500Y-176680000D02*
X310617500Y-176680000D01*
X310617500Y-178920000D02*
X314857500Y-178920000D01*
X315507500Y-177800000D02*
X314857500Y-177800000D01*
X310617500Y-176680000D02*
X310617500Y-178920000D01*
X314017500Y-178920000D02*
X314017500Y-176680000D01*
X309967500Y-177800000D02*
X310617500Y-177800000D01*
%TO.C,D95*%
X273438750Y-184943750D02*
X272788750Y-184943750D01*
X269268750Y-183823750D02*
X269268750Y-186063750D01*
X267898750Y-184943750D02*
X268548750Y-184943750D01*
X269148750Y-183823750D02*
X269148750Y-186063750D01*
X268548750Y-183823750D02*
X268548750Y-186063750D01*
X268548750Y-186063750D02*
X272788750Y-186063750D01*
X272788750Y-186063750D02*
X272788750Y-183823750D01*
X272788750Y-183823750D02*
X268548750Y-183823750D01*
X269388750Y-183823750D02*
X269388750Y-186063750D01*
%TO.C,D69*%
X204255000Y-174298750D02*
X204255000Y-176538750D01*
X209145000Y-175418750D02*
X208495000Y-175418750D01*
X205095000Y-174298750D02*
X205095000Y-176538750D01*
X204255000Y-176538750D02*
X208495000Y-176538750D01*
X204855000Y-174298750D02*
X204855000Y-176538750D01*
X208495000Y-176538750D02*
X208495000Y-174298750D01*
X203605000Y-175418750D02*
X204255000Y-175418750D01*
X208495000Y-174298750D02*
X204255000Y-174298750D01*
X204975000Y-174298750D02*
X204975000Y-176538750D01*
%TO.C,D23*%
X168881250Y-186063750D02*
X168881250Y-183823750D01*
X164711250Y-184943750D02*
X165361250Y-184943750D01*
X165361250Y-183823750D02*
X165361250Y-186063750D01*
X165361250Y-186063750D02*
X169601250Y-186063750D01*
X169601250Y-186063750D02*
X169601250Y-183823750D01*
X170251250Y-184943750D02*
X169601250Y-184943750D01*
X168761250Y-186063750D02*
X168761250Y-183823750D01*
X169001250Y-186063750D02*
X169001250Y-183823750D01*
X169601250Y-183823750D02*
X165361250Y-183823750D01*
%TO.C,D16*%
X300426250Y-180181250D02*
X299776250Y-180181250D01*
X295536250Y-179061250D02*
X295536250Y-181301250D01*
X299776250Y-181301250D02*
X299776250Y-179061250D01*
X294886250Y-180181250D02*
X295536250Y-180181250D01*
X299776250Y-179061250D02*
X295536250Y-179061250D01*
X296136250Y-179061250D02*
X296136250Y-181301250D01*
X295536250Y-181301250D02*
X299776250Y-181301250D01*
X296376250Y-179061250D02*
X296376250Y-181301250D01*
X296256250Y-179061250D02*
X296256250Y-181301250D01*
%TO.C,D35*%
X168761250Y-171776250D02*
X168761250Y-169536250D01*
X169601250Y-169536250D02*
X165361250Y-169536250D01*
X169001250Y-171776250D02*
X169001250Y-169536250D01*
X165361250Y-169536250D02*
X165361250Y-171776250D01*
X168881250Y-171776250D02*
X168881250Y-169536250D01*
X164711250Y-170656250D02*
X165361250Y-170656250D01*
X170251250Y-170656250D02*
X169601250Y-170656250D01*
X169601250Y-171776250D02*
X169601250Y-169536250D01*
X165361250Y-171776250D02*
X169601250Y-171776250D01*
%TO.C,D64*%
X223576250Y-181301250D02*
X223576250Y-179061250D01*
X224226250Y-180181250D02*
X223576250Y-180181250D01*
X222856250Y-181301250D02*
X222856250Y-179061250D01*
X219336250Y-181301250D02*
X223576250Y-181301250D01*
X222736250Y-181301250D02*
X222736250Y-179061250D01*
X218686250Y-180181250D02*
X219336250Y-180181250D01*
X223576250Y-179061250D02*
X219336250Y-179061250D01*
X219336250Y-179061250D02*
X219336250Y-181301250D01*
X222976250Y-181301250D02*
X222976250Y-179061250D01*
%TO.C,D66*%
X223576250Y-176680000D02*
X219336250Y-176680000D01*
X224226250Y-177800000D02*
X223576250Y-177800000D01*
X219336250Y-176680000D02*
X219336250Y-178920000D01*
X218686250Y-177800000D02*
X219336250Y-177800000D01*
X219336250Y-178920000D02*
X223576250Y-178920000D01*
X222856250Y-178920000D02*
X222856250Y-176680000D01*
X222736250Y-178920000D02*
X222736250Y-176680000D01*
X223576250Y-178920000D02*
X223576250Y-176680000D01*
X222976250Y-178920000D02*
X222976250Y-176680000D01*
%TO.C,D105*%
X283630000Y-174298750D02*
X283630000Y-176538750D01*
X287270000Y-176538750D02*
X287270000Y-174298750D01*
X287150000Y-176538750D02*
X287150000Y-174298750D01*
X282980000Y-175418750D02*
X283630000Y-175418750D01*
X287870000Y-176538750D02*
X287870000Y-174298750D01*
X283630000Y-176538750D02*
X287870000Y-176538750D01*
X287030000Y-176538750D02*
X287030000Y-174298750D01*
X287870000Y-174298750D02*
X283630000Y-174298750D01*
X288520000Y-175418750D02*
X287870000Y-175418750D01*
%TO.C,D49*%
X177987500Y-171917500D02*
X177987500Y-174157500D01*
X177267500Y-174157500D02*
X181507500Y-174157500D01*
X181507500Y-174157500D02*
X181507500Y-171917500D01*
X177267500Y-171917500D02*
X177267500Y-174157500D01*
X181507500Y-171917500D02*
X177267500Y-171917500D01*
X182157500Y-173037500D02*
X181507500Y-173037500D01*
X177867500Y-171917500D02*
X177867500Y-174157500D01*
X178107500Y-171917500D02*
X178107500Y-174157500D01*
X176617500Y-173037500D02*
X177267500Y-173037500D01*
%TO.C,D43*%
X181507500Y-186063750D02*
X181507500Y-183823750D01*
X178107500Y-183823750D02*
X178107500Y-186063750D01*
X177987500Y-183823750D02*
X177987500Y-186063750D01*
X176617500Y-184943750D02*
X177267500Y-184943750D01*
X177267500Y-186063750D02*
X181507500Y-186063750D01*
X182157500Y-184943750D02*
X181507500Y-184943750D01*
X177867500Y-183823750D02*
X177867500Y-186063750D01*
X177267500Y-183823750D02*
X177267500Y-186063750D01*
X181507500Y-183823750D02*
X177267500Y-183823750D01*
%TO.C,D58*%
X342495000Y-182562500D02*
X341845000Y-182562500D01*
X337605000Y-183682500D02*
X341845000Y-183682500D01*
X341245000Y-183682500D02*
X341245000Y-181442500D01*
X341125000Y-183682500D02*
X341125000Y-181442500D01*
X341845000Y-183682500D02*
X341845000Y-181442500D01*
X341005000Y-183682500D02*
X341005000Y-181442500D01*
X341845000Y-181442500D02*
X337605000Y-181442500D01*
X337605000Y-181442500D02*
X337605000Y-183682500D01*
X336955000Y-182562500D02*
X337605000Y-182562500D01*
%TO.C,D108*%
X290851250Y-139817500D02*
X285411250Y-139817500D01*
X290071250Y-142757500D02*
X290071250Y-139817500D01*
X289831250Y-142757500D02*
X289831250Y-139817500D01*
X290851250Y-142757500D02*
X285411250Y-142757500D01*
X290851250Y-142627500D02*
X290851250Y-142757500D01*
X290851250Y-139947500D02*
X290851250Y-139817500D01*
X289951250Y-142757500D02*
X289951250Y-139817500D01*
X285411250Y-142757500D02*
X285411250Y-142627500D01*
X285411250Y-139817500D02*
X285411250Y-139947500D01*
%TO.C,D7*%
X137723750Y-180181250D02*
X138373750Y-180181250D01*
X141773750Y-181301250D02*
X141773750Y-179061250D01*
X138373750Y-179061250D02*
X138373750Y-181301250D01*
X138373750Y-181301250D02*
X142613750Y-181301250D01*
X142013750Y-181301250D02*
X142013750Y-179061250D01*
X142613750Y-179061250D02*
X138373750Y-179061250D01*
X141893750Y-181301250D02*
X141893750Y-179061250D01*
X143263750Y-180181250D02*
X142613750Y-180181250D01*
X142613750Y-181301250D02*
X142613750Y-179061250D01*
%TO.C,D45*%
X176617500Y-182562500D02*
X177267500Y-182562500D01*
X178107500Y-181442500D02*
X178107500Y-183682500D01*
X177267500Y-183682500D02*
X181507500Y-183682500D01*
X182157500Y-182562500D02*
X181507500Y-182562500D01*
X177867500Y-181442500D02*
X177867500Y-183682500D01*
X177987500Y-181442500D02*
X177987500Y-183682500D01*
X181507500Y-181442500D02*
X177267500Y-181442500D01*
X181507500Y-183682500D02*
X181507500Y-181442500D01*
X177267500Y-181442500D02*
X177267500Y-183682500D01*
%TO.C,D42*%
X195748750Y-183682500D02*
X195748750Y-181442500D01*
X196588750Y-181442500D02*
X192348750Y-181442500D01*
X192348750Y-181442500D02*
X192348750Y-183682500D01*
X197238750Y-182562500D02*
X196588750Y-182562500D01*
X195988750Y-183682500D02*
X195988750Y-181442500D01*
X196588750Y-183682500D02*
X196588750Y-181442500D01*
X195868750Y-183682500D02*
X195868750Y-181442500D01*
X191698750Y-182562500D02*
X192348750Y-182562500D01*
X192348750Y-183682500D02*
X196588750Y-183682500D01*
%TO.C,D38*%
X321873750Y-184943750D02*
X322523750Y-184943750D01*
X323363750Y-183823750D02*
X323363750Y-186063750D01*
X327413750Y-184943750D02*
X326763750Y-184943750D01*
X322523750Y-183823750D02*
X322523750Y-186063750D01*
X323123750Y-183823750D02*
X323123750Y-186063750D01*
X322523750Y-186063750D02*
X326763750Y-186063750D01*
X326763750Y-186063750D02*
X326763750Y-183823750D01*
X323243750Y-183823750D02*
X323243750Y-186063750D01*
X326763750Y-183823750D02*
X322523750Y-183823750D01*
%TO.C,D59*%
X341245000Y-186063750D02*
X341245000Y-183823750D01*
X336955000Y-184943750D02*
X337605000Y-184943750D01*
X341125000Y-186063750D02*
X341125000Y-183823750D01*
X341845000Y-186063750D02*
X341845000Y-183823750D01*
X341005000Y-186063750D02*
X341005000Y-183823750D01*
X337605000Y-186063750D02*
X341845000Y-186063750D01*
X342495000Y-184943750D02*
X341845000Y-184943750D01*
X337605000Y-183823750D02*
X337605000Y-186063750D01*
X341845000Y-183823750D02*
X337605000Y-183823750D01*
%TO.C,D55*%
X177267500Y-181301250D02*
X181507500Y-181301250D01*
X182157500Y-180181250D02*
X181507500Y-180181250D01*
X176617500Y-180181250D02*
X177267500Y-180181250D01*
X177867500Y-179061250D02*
X177867500Y-181301250D01*
X177987500Y-179061250D02*
X177987500Y-181301250D01*
X181507500Y-179061250D02*
X177267500Y-179061250D01*
X181507500Y-181301250D02*
X181507500Y-179061250D01*
X178107500Y-179061250D02*
X178107500Y-181301250D01*
X177267500Y-179061250D02*
X177267500Y-181301250D01*
%TO.C,D10*%
X122642500Y-180181250D02*
X123292500Y-180181250D01*
X128182500Y-180181250D02*
X127532500Y-180181250D01*
X124012500Y-179061250D02*
X124012500Y-181301250D01*
X123292500Y-179061250D02*
X123292500Y-181301250D01*
X127532500Y-181301250D02*
X127532500Y-179061250D01*
X127532500Y-179061250D02*
X123292500Y-179061250D01*
X124132500Y-179061250D02*
X124132500Y-181301250D01*
X123892500Y-179061250D02*
X123892500Y-181301250D01*
X123292500Y-181301250D02*
X127532500Y-181301250D01*
%TO.C,D101*%
X269148750Y-174298750D02*
X269148750Y-176538750D01*
X268548750Y-176538750D02*
X272788750Y-176538750D01*
X273438750Y-175418750D02*
X272788750Y-175418750D01*
X269268750Y-174298750D02*
X269268750Y-176538750D01*
X272788750Y-174298750D02*
X268548750Y-174298750D01*
X272788750Y-176538750D02*
X272788750Y-174298750D01*
X269388750Y-174298750D02*
X269388750Y-176538750D01*
X268548750Y-174298750D02*
X268548750Y-176538750D01*
X267898750Y-175418750D02*
X268548750Y-175418750D01*
%TO.C,D52*%
X192348750Y-174157500D02*
X196588750Y-174157500D01*
X196588750Y-174157500D02*
X196588750Y-171917500D01*
X196588750Y-171917500D02*
X192348750Y-171917500D01*
X191698750Y-173037500D02*
X192348750Y-173037500D01*
X192348750Y-171917500D02*
X192348750Y-174157500D01*
X195988750Y-174157500D02*
X195988750Y-171917500D01*
X195748750Y-174157500D02*
X195748750Y-171917500D01*
X197238750Y-173037500D02*
X196588750Y-173037500D01*
X195868750Y-174157500D02*
X195868750Y-171917500D01*
%TO.C,D20*%
X314857500Y-181301250D02*
X314857500Y-179061250D01*
X309967500Y-180181250D02*
X310617500Y-180181250D01*
X314137500Y-181301250D02*
X314137500Y-179061250D01*
X314857500Y-179061250D02*
X310617500Y-179061250D01*
X315507500Y-180181250D02*
X314857500Y-180181250D01*
X310617500Y-181301250D02*
X314857500Y-181301250D01*
X314257500Y-181301250D02*
X314257500Y-179061250D01*
X314017500Y-181301250D02*
X314017500Y-179061250D01*
X310617500Y-179061250D02*
X310617500Y-181301250D01*
%TO.C,D53*%
X181507500Y-178920000D02*
X181507500Y-176680000D01*
X178107500Y-176680000D02*
X178107500Y-178920000D01*
X177267500Y-178920000D02*
X181507500Y-178920000D01*
X181507500Y-176680000D02*
X177267500Y-176680000D01*
X182157500Y-177800000D02*
X181507500Y-177800000D01*
X176617500Y-177800000D02*
X177267500Y-177800000D01*
X177867500Y-176680000D02*
X177867500Y-178920000D01*
X177267500Y-176680000D02*
X177267500Y-178920000D01*
X177987500Y-176680000D02*
X177987500Y-178920000D01*
%TO.C,D106*%
X269148750Y-169536250D02*
X269148750Y-171776250D01*
X269388750Y-169536250D02*
X269388750Y-171776250D01*
X269268750Y-169536250D02*
X269268750Y-171776250D01*
X267898750Y-170656250D02*
X268548750Y-170656250D01*
X272788750Y-171776250D02*
X272788750Y-169536250D01*
X272788750Y-169536250D02*
X268548750Y-169536250D01*
X268548750Y-171776250D02*
X272788750Y-171776250D01*
X273438750Y-170656250D02*
X272788750Y-170656250D01*
X268548750Y-169536250D02*
X268548750Y-171776250D01*
%TO.C,D34*%
X155170000Y-180181250D02*
X154520000Y-180181250D01*
X151120000Y-179061250D02*
X151120000Y-181301250D01*
X154520000Y-181301250D02*
X154520000Y-179061250D01*
X150280000Y-179061250D02*
X150280000Y-181301250D01*
X150880000Y-179061250D02*
X150880000Y-181301250D01*
X149630000Y-180181250D02*
X150280000Y-180181250D01*
X150280000Y-181301250D02*
X154520000Y-181301250D01*
X154520000Y-179061250D02*
X150280000Y-179061250D01*
X151000000Y-179061250D02*
X151000000Y-181301250D01*
%TO.C,C5*%
X372142500Y-134308500D02*
X372142500Y-135566500D01*
X373982500Y-134308500D02*
X373982500Y-135566500D01*
%TO.C,D60*%
X218686250Y-184943750D02*
X219336250Y-184943750D01*
X222736250Y-186063750D02*
X222736250Y-183823750D01*
X222976250Y-186063750D02*
X222976250Y-183823750D01*
X223576250Y-183823750D02*
X219336250Y-183823750D01*
X219336250Y-183823750D02*
X219336250Y-186063750D01*
X223576250Y-186063750D02*
X223576250Y-183823750D01*
X224226250Y-184943750D02*
X223576250Y-184943750D01*
X219336250Y-186063750D02*
X223576250Y-186063750D01*
X222856250Y-186063750D02*
X222856250Y-183823750D01*
%TO.C,D18*%
X296136250Y-183823750D02*
X296136250Y-186063750D01*
X295536250Y-186063750D02*
X299776250Y-186063750D01*
X299776250Y-186063750D02*
X299776250Y-183823750D01*
X299776250Y-183823750D02*
X295536250Y-183823750D01*
X296376250Y-183823750D02*
X296376250Y-186063750D01*
X294886250Y-184943750D02*
X295536250Y-184943750D01*
X296256250Y-183823750D02*
X296256250Y-186063750D01*
X295536250Y-183823750D02*
X295536250Y-186063750D01*
X300426250Y-184943750D02*
X299776250Y-184943750D01*
%TO.C,D76*%
X350351250Y-176680000D02*
X350351250Y-178920000D01*
X353751250Y-178920000D02*
X353751250Y-176680000D01*
X354401250Y-177800000D02*
X353751250Y-177800000D01*
X349511250Y-178920000D02*
X353751250Y-178920000D01*
X350111250Y-176680000D02*
X350111250Y-178920000D01*
X348861250Y-177800000D02*
X349511250Y-177800000D01*
X350231250Y-176680000D02*
X350231250Y-178920000D01*
X353751250Y-176680000D02*
X349511250Y-176680000D01*
X349511250Y-176680000D02*
X349511250Y-178920000D01*
%TO.C,D24*%
X149630000Y-184943750D02*
X150280000Y-184943750D01*
X150880000Y-183823750D02*
X150880000Y-186063750D01*
X154520000Y-183823750D02*
X150280000Y-183823750D01*
X151000000Y-183823750D02*
X151000000Y-186063750D01*
X154520000Y-186063750D02*
X154520000Y-183823750D01*
X150280000Y-186063750D02*
X154520000Y-186063750D01*
X155170000Y-184943750D02*
X154520000Y-184943750D01*
X150280000Y-183823750D02*
X150280000Y-186063750D01*
X151120000Y-183823750D02*
X151120000Y-186063750D01*
%TO.C,C1*%
X303745000Y-138156250D02*
G75*
G03*
X303745000Y-138156250I-2120000J0D01*
G01*
%TO.C,D41*%
X327413750Y-177800000D02*
X326763750Y-177800000D01*
X322523750Y-176680000D02*
X322523750Y-178920000D01*
X322523750Y-178920000D02*
X326763750Y-178920000D01*
X323363750Y-176680000D02*
X323363750Y-178920000D01*
X323123750Y-176680000D02*
X323123750Y-178920000D01*
X326763750Y-178920000D02*
X326763750Y-176680000D01*
X323243750Y-176680000D02*
X323243750Y-178920000D01*
X326763750Y-176680000D02*
X322523750Y-176680000D01*
X321873750Y-177800000D02*
X322523750Y-177800000D01*
%TO.C,D39*%
X321873750Y-182562500D02*
X322523750Y-182562500D01*
X326763750Y-181442500D02*
X322523750Y-181442500D01*
X327413750Y-182562500D02*
X326763750Y-182562500D01*
X322523750Y-183682500D02*
X326763750Y-183682500D01*
X323363750Y-181442500D02*
X323363750Y-183682500D01*
X326763750Y-183682500D02*
X326763750Y-181442500D01*
X323243750Y-181442500D02*
X323243750Y-183682500D01*
X322523750Y-181442500D02*
X322523750Y-183682500D01*
X323123750Y-181442500D02*
X323123750Y-183682500D01*
%TO.C,D44*%
X195988750Y-186063750D02*
X195988750Y-183823750D01*
X195868750Y-186063750D02*
X195868750Y-183823750D01*
X192348750Y-183823750D02*
X192348750Y-186063750D01*
X196588750Y-183823750D02*
X192348750Y-183823750D01*
X195748750Y-186063750D02*
X195748750Y-183823750D01*
X196588750Y-186063750D02*
X196588750Y-183823750D01*
X192348750Y-186063750D02*
X196588750Y-186063750D01*
X197238750Y-184943750D02*
X196588750Y-184943750D01*
X191698750Y-184943750D02*
X192348750Y-184943750D01*
%TO.C,R2*%
X271767500Y-134143750D02*
X272717500Y-134143750D01*
X272717500Y-133223750D02*
X272717500Y-135063750D01*
X276557500Y-135063750D02*
X276557500Y-133223750D01*
X277507500Y-134143750D02*
X276557500Y-134143750D01*
X276557500Y-133223750D02*
X272717500Y-133223750D01*
X272717500Y-135063750D02*
X276557500Y-135063750D01*
%TO.C,D2*%
X127532500Y-171776250D02*
X127532500Y-169536250D01*
X123292500Y-171776250D02*
X127532500Y-171776250D01*
X128182500Y-170656250D02*
X127532500Y-170656250D01*
X127532500Y-169536250D02*
X123292500Y-169536250D01*
X123892500Y-169536250D02*
X123892500Y-171776250D01*
X123292500Y-169536250D02*
X123292500Y-171776250D01*
X124132500Y-169536250D02*
X124132500Y-171776250D01*
X122642500Y-170656250D02*
X123292500Y-170656250D01*
X124012500Y-169536250D02*
X124012500Y-171776250D01*
%TO.C,D85*%
X260042500Y-176538750D02*
X260042500Y-174298750D01*
X260282500Y-176538750D02*
X260282500Y-174298750D01*
X256642500Y-174298750D02*
X256642500Y-176538750D01*
X260882500Y-174298750D02*
X256642500Y-174298750D01*
X260162500Y-176538750D02*
X260162500Y-174298750D01*
X255992500Y-175418750D02*
X256642500Y-175418750D01*
X261532500Y-175418750D02*
X260882500Y-175418750D01*
X260882500Y-176538750D02*
X260882500Y-174298750D01*
X256642500Y-176538750D02*
X260882500Y-176538750D01*
%TO.C,D89*%
X260882500Y-169536250D02*
X256642500Y-169536250D01*
X256642500Y-171776250D02*
X260882500Y-171776250D01*
X256642500Y-169536250D02*
X256642500Y-171776250D01*
X261532500Y-170656250D02*
X260882500Y-170656250D01*
X255992500Y-170656250D02*
X256642500Y-170656250D01*
X260282500Y-171776250D02*
X260282500Y-169536250D01*
X260162500Y-171776250D02*
X260162500Y-169536250D01*
X260042500Y-171776250D02*
X260042500Y-169536250D01*
X260882500Y-171776250D02*
X260882500Y-169536250D01*
%TO.C,D37*%
X209145000Y-170656250D02*
X208495000Y-170656250D01*
X204975000Y-169536250D02*
X204975000Y-171776250D01*
X204255000Y-171776250D02*
X208495000Y-171776250D01*
X203605000Y-170656250D02*
X204255000Y-170656250D01*
X204855000Y-169536250D02*
X204855000Y-171776250D01*
X205095000Y-169536250D02*
X205095000Y-171776250D01*
X208495000Y-169536250D02*
X204255000Y-169536250D01*
X208495000Y-171776250D02*
X208495000Y-169536250D01*
X204255000Y-169536250D02*
X204255000Y-171776250D01*
%TO.C,D61*%
X208495000Y-181301250D02*
X208495000Y-179061250D01*
X208495000Y-179061250D02*
X204255000Y-179061250D01*
X203605000Y-180181250D02*
X204255000Y-180181250D01*
X204975000Y-179061250D02*
X204975000Y-181301250D01*
X204855000Y-179061250D02*
X204855000Y-181301250D01*
X204255000Y-181301250D02*
X208495000Y-181301250D01*
X209145000Y-180181250D02*
X208495000Y-180181250D01*
X205095000Y-179061250D02*
X205095000Y-181301250D01*
X204255000Y-179061250D02*
X204255000Y-181301250D01*
%TO.C,D13*%
X142013750Y-174157500D02*
X142013750Y-171917500D01*
X143263750Y-173037500D02*
X142613750Y-173037500D01*
X142613750Y-174157500D02*
X142613750Y-171917500D01*
X142613750Y-171917500D02*
X138373750Y-171917500D01*
X137723750Y-173037500D02*
X138373750Y-173037500D01*
X141773750Y-174157500D02*
X141773750Y-171917500D01*
X141893750Y-174157500D02*
X141893750Y-171917500D01*
X138373750Y-171917500D02*
X138373750Y-174157500D01*
X138373750Y-174157500D02*
X142613750Y-174157500D01*
%TO.C,D67*%
X204855000Y-171917500D02*
X204855000Y-174157500D01*
X204975000Y-171917500D02*
X204975000Y-174157500D01*
X209145000Y-173037500D02*
X208495000Y-173037500D01*
X203605000Y-173037500D02*
X204255000Y-173037500D01*
X205095000Y-171917500D02*
X205095000Y-174157500D01*
X204255000Y-174157500D02*
X208495000Y-174157500D01*
X208495000Y-174157500D02*
X208495000Y-171917500D01*
X208495000Y-171917500D02*
X204255000Y-171917500D01*
X204255000Y-171917500D02*
X204255000Y-174157500D01*
%TD*%
M02*
