M48
; DRILL file {KiCad (6.0.0)} date Wed Mar  2 09:47:06 2022
; FORMAT={-:-/ absolute / metric / decimal}
; #@! TF.CreationDate,2022-03-02T09:47:06+01:00
; #@! TF.GenerationSoftware,Kicad,Pcbnew,(6.0.0)
; #@! TF.FileFunction,Plated,1,2,PTH
FMAT,2
METRIC
; #@! TA.AperFunction,Plated,PTH,ViaDrill
T1C0.400
; #@! TA.AperFunction,Plated,PTH,ComponentDrill
T2C0.400
; #@! TA.AperFunction,Plated,PTH,ComponentDrill
T3C0.600
; #@! TA.AperFunction,Plated,PTH,ComponentDrill
T4C0.700
; #@! TA.AperFunction,Plated,PTH,ComponentDrill
T5C0.800
; #@! TA.AperFunction,Plated,PTH,ComponentDrill
T6C0.850
; #@! TA.AperFunction,Plated,PTH,ComponentDrill
T7C1.000
; #@! TA.AperFunction,Plated,PTH,ComponentDrill
T8C1.100
; #@! TA.AperFunction,Plated,PTH,ComponentDrill
T9C1.470
; #@! TA.AperFunction,Plated,PTH,ComponentDrill
T10C2.200
%
G90
G05
T1
X108.902Y-160.496
X127.0Y-139.7
X128.498Y-165.894
X137.319Y-169.069
X139.065Y-168.266
X144.463Y-164.897
X145.256Y-161.201
X149.225Y-207.169
X162.719Y-188.119
X162.719Y-238.849
X163.299Y-194.697
X163.512Y-187.325
X164.396Y-186.531
X166.688Y-200.025
X167.481Y-200.819
X181.769Y-207.169
X182.562Y-164.448
X182.562Y-206.375
X183.356Y-161.201
X183.356Y-207.169
X184.15Y-206.375
X184.973Y-207.169
X185.737Y-206.375
X186.531Y-207.169
X187.325Y-206.375
X188.119Y-207.169
X188.912Y-206.375
X189.706Y-207.169
X190.5Y-206.375
X196.056Y-203.686
X196.85Y-200.888
X200.819Y-239.299
X203.2Y-222.319
X203.2Y-225.117
X225.425Y-163.998
X226.219Y-227.424
X227.012Y-226.63
X227.806Y-227.424
X228.6Y-139.7
X228.6Y-226.63
X229.394Y-200.819
X229.394Y-203.2
X229.394Y-227.424
X230.188Y-226.63
X230.601Y-238.919
X230.601Y-239.918
X230.604Y-240.919
X230.981Y-227.424
X231.115Y-261.572
X231.775Y-226.63
X232.569Y-227.424
X233.362Y-226.63
X236.22Y-229.87
X241.3Y-222.319
X241.3Y-224.667
X244.853Y-186.473
X245.11Y-232.41
X246.062Y-241.369
X246.062Y-243.717
X247.65Y-179.167
X248.444Y-246.856
X248.51Y-181.621
X249.237Y-169.862
X249.237Y-246.062
X250.031Y-245.269
X250.825Y-238.125
X250.856Y-236.506
X251.282Y-231.255
X251.46Y-219.71
X256.381Y-245.269
X256.54Y-227.33
X257.175Y-246.062
X257.969Y-245.269
X258.762Y-246.062
X258.762Y-255.587
X259.08Y-232.41
X259.556Y-245.269
X259.556Y-256.381
X260.35Y-240.03
X260.35Y-246.062
X260.35Y-257.175
X261.144Y-257.969
X262.731Y-163.549
X267.494Y-258.038
X267.494Y-259.937
X269.875Y-168.275
X274.753Y-186.647
X275.431Y-261.144
X275.59Y-167.64
X276.225Y-261.938
X277.019Y-262.731
X277.812Y-263.525
X278.13Y-171.45
X279.4Y-175.26
X279.4Y-202.787
X279.4Y-224.218
X279.4Y-273.05
X280.194Y-272.256
X280.988Y-271.462
X284.162Y-188.119
X284.162Y-241.369
X284.162Y-243.268
X284.956Y-187.325
X285.75Y-170.18
X285.75Y-186.531
X288.131Y-262.731
X288.925Y-261.938
X289.719Y-261.144
X293.723Y-129.813
X297.18Y-170.18
X300.99Y-142.24
X304.764Y-140.457
X305.594Y-139.706
X306.387Y-140.494
X306.387Y-163.099
X307.181Y-161.201
X307.21Y-139.734
X307.975Y-140.494
X310.203Y-132.766
X310.31Y-146.89
X310.356Y-202.337
X312.42Y-144.78
X312.42Y-146.452
X315.119Y-259.487
X317.5Y-223.768
X319.087Y-172.341
X319.087Y-177.006
X319.645Y-150.376
X320.04Y-164.941
X321.879Y-149.711
X322.262Y-241.369
X322.262Y-242.818
X322.58Y-166.37
X323.003Y-149.711
X323.85Y-164.306
X323.965Y-169.184
X324.232Y-149.711
X324.644Y-165.1
X324.644Y-168.275
X325.438Y-165.894
X325.55Y-149.711
X326.231Y-166.688
X327.45Y-149.711
X328.93Y-137.16
X329.052Y-150.374
X330.98Y-150.835
X333.36Y-150.835
X340.207Y-132.744
X340.36Y-173.99
X343.694Y-161.131
X344.499Y-162.649
X345.281Y-161.201
X346.075Y-147.637
X346.075Y-158.75
X346.869Y-148.431
X346.869Y-157.956
X346.869Y-163.512
X347.662Y-164.306
X347.98Y-142.24
X351.631Y-132.556
X359.569Y-165.169
X375.169Y-137.536
X376.133Y-130.964
X441.175Y-280.907
T2
X285.156Y-131.262
X285.156Y-132.612
X286.006Y-131.262
X286.006Y-132.612
X286.856Y-131.262
X286.856Y-132.612
X287.706Y-131.262
X287.706Y-132.612
X288.556Y-131.262
X288.556Y-132.612
X289.406Y-131.262
X289.406Y-132.612
X290.256Y-131.262
X290.256Y-132.612
X291.106Y-131.262
X291.106Y-132.612
T3
X301.625Y-137.406
X301.625Y-138.906
T4
X270.827Y-130.969
X270.827Y-134.144
X278.447Y-130.969
X278.447Y-134.144
X280.988Y-128.746
X280.988Y-136.366
X295.275Y-128.746
X295.275Y-136.366
X297.815Y-130.969
X297.815Y-134.144
X305.435Y-130.969
X305.435Y-134.144
T5
X121.602Y-170.656
X121.602Y-173.037
X121.602Y-175.419
X121.602Y-177.8
X121.602Y-180.181
X121.602Y-182.562
X121.602Y-184.944
X129.222Y-170.656
X129.222Y-173.037
X129.222Y-175.419
X129.222Y-177.8
X129.222Y-180.181
X129.222Y-182.562
X129.222Y-184.944
X136.684Y-170.656
X136.684Y-173.037
X136.684Y-175.419
X136.684Y-177.8
X136.684Y-180.181
X136.684Y-182.562
X136.684Y-184.944
X144.304Y-170.656
X144.304Y-173.037
X144.304Y-175.419
X144.304Y-177.8
X144.304Y-180.181
X144.304Y-182.562
X144.304Y-184.944
X148.59Y-170.656
X148.59Y-173.037
X148.59Y-175.419
X148.59Y-177.8
X148.59Y-180.181
X148.59Y-182.562
X148.59Y-184.944
X156.21Y-170.656
X156.21Y-173.037
X156.21Y-175.419
X156.21Y-177.8
X156.21Y-180.181
X156.21Y-182.562
X156.21Y-184.944
X163.671Y-170.656
X163.671Y-173.037
X163.671Y-175.419
X163.671Y-177.8
X163.671Y-180.181
X163.671Y-182.562
X163.671Y-184.944
X171.291Y-170.656
X171.291Y-173.037
X171.291Y-175.419
X171.291Y-177.8
X171.291Y-180.181
X171.291Y-182.562
X171.291Y-184.944
X175.577Y-170.656
X175.577Y-173.037
X175.577Y-175.419
X175.577Y-177.8
X175.577Y-180.181
X175.577Y-182.562
X175.577Y-184.944
X183.197Y-170.656
X183.197Y-173.037
X183.197Y-175.419
X183.197Y-177.8
X183.197Y-180.181
X183.197Y-182.562
X183.197Y-184.944
X190.659Y-170.656
X190.659Y-173.037
X190.659Y-175.419
X190.659Y-177.8
X190.659Y-180.181
X190.659Y-182.562
X190.659Y-184.944
X198.279Y-170.656
X198.279Y-173.037
X198.279Y-175.419
X198.279Y-177.8
X198.279Y-180.181
X198.279Y-182.562
X198.279Y-184.944
X202.565Y-170.656
X202.565Y-173.037
X202.565Y-175.419
X202.565Y-177.8
X202.565Y-180.181
X202.565Y-182.562
X202.565Y-184.944
X210.185Y-170.656
X210.185Y-173.037
X210.185Y-175.419
X210.185Y-177.8
X210.185Y-180.181
X210.185Y-182.562
X210.185Y-184.944
X217.646Y-170.656
X217.646Y-173.037
X217.646Y-175.419
X217.646Y-177.8
X217.646Y-180.181
X217.646Y-182.562
X217.646Y-184.944
X225.266Y-170.656
X225.266Y-173.037
X225.266Y-175.419
X225.266Y-177.8
X225.266Y-180.181
X225.266Y-182.562
X225.266Y-184.944
X229.552Y-170.656
X229.552Y-173.037
X229.552Y-175.419
X229.552Y-177.8
X229.552Y-180.181
X229.552Y-182.562
X229.552Y-184.944
X237.172Y-170.656
X237.172Y-173.037
X237.172Y-175.419
X237.172Y-177.8
X237.172Y-180.181
X237.172Y-182.562
X237.172Y-184.944
X254.952Y-170.656
X254.952Y-173.037
X254.952Y-175.419
X254.952Y-177.8
X254.952Y-180.181
X254.952Y-182.562
X254.952Y-184.944
X262.572Y-170.656
X262.572Y-173.037
X262.572Y-175.419
X262.572Y-177.8
X262.572Y-180.181
X262.572Y-182.562
X262.572Y-184.944
X266.859Y-170.656
X266.859Y-173.037
X266.859Y-175.419
X266.859Y-177.8
X266.859Y-180.181
X266.859Y-182.562
X266.859Y-184.944
X274.479Y-170.656
X274.479Y-173.037
X274.479Y-175.419
X274.479Y-177.8
X274.479Y-180.181
X274.479Y-182.562
X274.479Y-184.944
X281.94Y-173.037
X281.94Y-175.419
X281.94Y-177.8
X281.94Y-180.181
X281.94Y-182.562
X281.94Y-184.944
X289.56Y-173.037
X289.56Y-175.419
X289.56Y-177.8
X289.56Y-180.181
X289.56Y-182.562
X289.56Y-184.944
X293.846Y-177.8
X293.846Y-180.181
X293.846Y-182.562
X293.846Y-184.944
X301.466Y-177.8
X301.466Y-180.181
X301.466Y-182.562
X301.466Y-184.944
X308.928Y-177.8
X308.928Y-180.181
X308.928Y-182.562
X308.928Y-184.944
X314.796Y-130.487
X314.796Y-145.727
X316.548Y-177.8
X316.548Y-180.181
X316.548Y-182.562
X316.548Y-184.944
X317.336Y-130.487
X317.336Y-145.727
X319.876Y-130.487
X319.876Y-145.727
X320.834Y-177.8
X320.834Y-180.181
X320.834Y-182.562
X320.834Y-184.944
X322.416Y-130.487
X322.416Y-145.727
X324.956Y-130.487
X324.956Y-145.727
X327.496Y-130.487
X327.496Y-145.727
X328.454Y-177.8
X328.454Y-180.181
X328.454Y-182.562
X328.454Y-184.944
X330.036Y-130.487
X330.036Y-145.727
X331.308Y-147.637
X332.576Y-130.487
X332.576Y-145.727
X335.116Y-130.487
X335.116Y-145.727
X335.915Y-177.8
X335.915Y-180.181
X335.915Y-182.562
X335.915Y-184.944
X336.308Y-147.637
X337.656Y-130.487
X337.656Y-145.727
X338.812Y-147.637
X340.196Y-130.487
X340.196Y-145.727
X342.736Y-130.487
X342.736Y-145.727
X343.535Y-177.8
X343.535Y-180.181
X343.535Y-182.562
X343.535Y-184.944
X343.812Y-147.637
X345.276Y-130.487
X345.276Y-145.727
X347.816Y-130.487
X347.816Y-145.727
X347.821Y-177.8
X347.821Y-180.181
X347.821Y-182.562
X347.821Y-184.944
X350.356Y-130.487
X350.356Y-145.727
X352.896Y-130.487
X352.896Y-145.727
X355.436Y-130.487
X355.436Y-145.727
X355.441Y-177.8
X355.441Y-180.181
X355.441Y-182.562
X355.441Y-184.944
X357.976Y-130.487
X357.976Y-145.727
X360.516Y-130.487
X360.516Y-145.727
X362.902Y-177.8
X362.902Y-180.181
X362.902Y-182.562
X362.902Y-184.944
X363.056Y-130.487
X363.056Y-145.727
X368.756Y-135.683
X368.756Y-140.562
X370.522Y-177.8
X370.522Y-180.181
X370.522Y-182.562
X370.522Y-184.944
X373.062Y-133.688
X373.062Y-136.188
X373.062Y-140.037
X373.062Y-142.537
T6
X272.087Y-137.213
X277.188Y-139.012
T7
X377.656Y-135.588
X377.656Y-138.127
X377.656Y-140.667
X380.196Y-135.588
X380.196Y-138.127
X380.196Y-140.667
T8
X259.481Y-129.512
X259.481Y-134.012
X259.481Y-137.45
X259.481Y-141.95
X265.981Y-129.512
X265.981Y-134.012
X265.981Y-137.45
X265.981Y-141.95
X284.321Y-137.319
X284.321Y-141.287
X291.941Y-137.319
X291.941Y-141.287
T9
X108.902Y-156.21
X108.902Y-194.31
X111.284Y-232.41
X111.284Y-251.46
X111.284Y-270.51
X113.665Y-213.36
X113.665Y-270.51
X115.252Y-153.67
X115.252Y-191.77
X116.046Y-232.41
X117.634Y-229.87
X117.634Y-248.92
X117.634Y-267.97
X120.015Y-210.82
X120.015Y-267.97
X120.809Y-251.46
X122.396Y-229.87
X127.159Y-248.92
X127.953Y-194.31
X132.715Y-156.21
X132.715Y-251.46
X134.302Y-191.77
X135.096Y-270.51
X137.477Y-213.36
X137.477Y-270.51
X139.065Y-153.67
X139.065Y-248.92
X141.446Y-267.97
X142.24Y-232.41
X142.24Y-270.51
X143.827Y-210.82
X143.827Y-267.97
X147.002Y-194.31
X148.59Y-229.87
X148.59Y-267.97
X151.765Y-156.21
X151.765Y-251.46
X153.352Y-191.77
X156.528Y-213.36
X158.115Y-153.67
X158.115Y-248.92
X158.909Y-270.51
X161.29Y-232.41
X161.29Y-270.51
X162.877Y-210.82
X165.259Y-267.97
X166.052Y-194.31
X167.64Y-229.87
X167.64Y-267.97
X170.815Y-156.21
X170.815Y-251.46
X172.403Y-191.77
X175.577Y-213.36
X177.165Y-153.67
X177.165Y-248.92
X180.34Y-232.41
X181.927Y-210.82
X185.102Y-194.31
X186.69Y-229.87
X189.865Y-156.21
X189.865Y-251.46
X191.452Y-191.77
X194.627Y-213.36
X196.215Y-153.67
X196.215Y-248.92
X199.39Y-232.41
X200.977Y-210.82
X204.153Y-194.31
X205.74Y-229.87
X208.915Y-251.46
X210.502Y-191.77
X213.677Y-156.21
X213.677Y-213.36
X215.265Y-248.92
X218.44Y-232.41
X220.028Y-153.67
X220.028Y-210.82
X223.202Y-194.31
X223.202Y-270.51
X224.79Y-229.87
X227.965Y-251.46
X229.552Y-191.77
X229.552Y-267.97
X230.346Y-270.51
X232.727Y-156.21
X232.727Y-213.36
X232.727Y-270.51
X234.315Y-248.92
X236.696Y-267.97
X237.49Y-232.41
X239.077Y-153.67
X239.077Y-210.82
X239.077Y-267.97
X242.252Y-194.31
X243.84Y-229.87
X247.015Y-251.46
X248.602Y-191.77
X251.777Y-156.21
X251.777Y-213.36
X253.365Y-248.92
X256.54Y-232.41
X258.127Y-153.67
X258.127Y-210.82
X261.303Y-194.31
X262.89Y-229.87
X266.065Y-251.46
X267.652Y-191.77
X270.827Y-156.21
X270.827Y-213.36
X272.415Y-248.92
X275.59Y-232.41
X277.178Y-153.67
X277.178Y-210.82
X280.352Y-194.31
X281.94Y-229.87
X285.115Y-251.46
X286.702Y-191.77
X289.877Y-213.36
X291.465Y-248.92
X294.64Y-156.21
X294.64Y-232.41
X296.227Y-210.82
X299.402Y-194.31
X299.402Y-270.51
X300.99Y-153.67
X300.99Y-229.87
X304.165Y-251.46
X304.165Y-270.51
X305.752Y-191.77
X305.752Y-267.97
X308.928Y-213.36
X310.515Y-248.92
X310.515Y-267.97
X313.69Y-156.21
X313.69Y-232.41
X315.277Y-210.82
X318.452Y-194.31
X318.452Y-270.51
X320.04Y-153.67
X320.04Y-229.87
X323.215Y-251.46
X324.803Y-191.77
X324.803Y-267.97
X327.977Y-213.36
X329.565Y-248.92
X332.74Y-156.21
X332.74Y-232.41
X332.74Y-270.51
X334.327Y-210.82
X337.502Y-194.31
X337.502Y-270.51
X339.09Y-153.67
X339.09Y-229.87
X339.09Y-267.97
X343.852Y-191.77
X343.852Y-267.97
X347.027Y-213.36
X349.409Y-251.46
X351.79Y-156.21
X351.79Y-232.41
X353.377Y-210.82
X355.759Y-248.92
X356.553Y-194.31
X358.14Y-153.67
X358.14Y-229.87
X361.315Y-275.272
X362.902Y-191.77
X363.696Y-232.41
X366.077Y-194.31
X367.665Y-272.733
X370.046Y-229.87
X370.84Y-213.36
X372.428Y-191.77
X373.221Y-222.885
X375.602Y-156.21
X375.602Y-194.31
X377.19Y-210.82
X379.571Y-220.345
X380.365Y-256.222
X380.365Y-275.272
X381.952Y-153.67
X381.952Y-191.77
X386.715Y-253.682
X386.715Y-272.733
X399.415Y-275.272
X404.178Y-156.21
X404.178Y-175.26
X404.178Y-194.31
X404.178Y-213.36
X404.178Y-232.41
X404.178Y-251.46
X405.765Y-272.733
X410.527Y-153.67
X410.527Y-172.72
X410.527Y-191.77
X410.527Y-210.82
X410.527Y-229.87
X410.527Y-248.92
X423.227Y-156.21
X423.227Y-175.26
X423.227Y-194.31
X423.227Y-213.36
X423.227Y-232.41
X423.227Y-251.46
X423.227Y-270.51
X429.577Y-153.67
X429.577Y-172.72
X429.577Y-191.77
X429.577Y-210.82
X429.577Y-229.87
X429.577Y-248.92
X429.577Y-267.97
X442.277Y-156.21
X442.277Y-175.26
X442.277Y-194.31
X442.277Y-213.36
X442.277Y-232.41
X442.277Y-251.46
X442.277Y-270.51
X448.627Y-153.67
X448.627Y-172.72
X448.627Y-191.77
X448.627Y-210.82
X448.627Y-229.87
X448.627Y-248.92
X448.627Y-267.97
X461.327Y-156.21
X461.327Y-175.26
X461.327Y-194.31
X461.327Y-213.36
X461.327Y-222.885
X461.327Y-232.41
X461.327Y-251.46
X461.327Y-260.985
X461.327Y-270.51
X467.677Y-153.67
X467.677Y-172.72
X467.677Y-191.77
X467.677Y-210.82
X467.677Y-220.345
X467.677Y-229.87
X467.677Y-248.92
X467.677Y-258.445
X467.677Y-267.97
T10
X107.156Y-133.35
X107.156Y-144.463
X107.156Y-172.244
X107.156Y-183.356
X129.381Y-215.9
X146.05Y-254.0
X192.881Y-133.35
X192.881Y-144.463
X246.062Y-172.244
X246.062Y-183.356
X259.556Y-273.05
X336.55Y-254.0
X384.969Y-133.35
X384.969Y-144.463
X384.969Y-172.244
X384.969Y-183.356
X436.562Y-215.9
X436.562Y-254.0
X455.612Y-177.8
X470.694Y-133.35
X470.694Y-144.463
T3
G00X283.806Y-128.653
M15
G01X283.806Y-127.852
M16
G05
G00X283.806Y-132.382
M15
G01X283.806Y-130.882
M16
G05
G00X292.456Y-128.653
M15
G01X292.456Y-127.852
M16
G05
G00X292.456Y-132.382
M15
G01X292.456Y-130.882
M16
G05
T0
M30
