M48
; DRILL file {KiCad (6.0.0)} date Fri Apr 22 09:20:31 2022
; FORMAT={-:-/ absolute / metric / decimal}
; #@! TF.CreationDate,2022-04-22T09:20:31+02:00
; #@! TF.GenerationSoftware,Kicad,Pcbnew,(6.0.0)
; #@! TF.FileFunction,Plated,1,2,PTH
FMAT,2
METRIC
; #@! TA.AperFunction,Plated,PTH,ViaDrill
T1C0.400
; #@! TA.AperFunction,Plated,PTH,ComponentDrill
T2C0.400
; #@! TA.AperFunction,Plated,PTH,ComponentDrill
T3C0.600
; #@! TA.AperFunction,Plated,PTH,ComponentDrill
T4C0.700
; #@! TA.AperFunction,Plated,PTH,ComponentDrill
T5C0.800
; #@! TA.AperFunction,Plated,PTH,ComponentDrill
T6C0.850
; #@! TA.AperFunction,Plated,PTH,ComponentDrill
T7C1.000
; #@! TA.AperFunction,Plated,PTH,ComponentDrill
T8C1.100
; #@! TA.AperFunction,Plated,PTH,ComponentDrill
T9C1.500
; #@! TA.AperFunction,Plated,PTH,ComponentDrill
T10C2.200
%
G90
G05
T1
X128.498Y-165.894
X137.319Y-169.069
X139.065Y-168.266
X144.462Y-164.122
X146.89Y-156.21
X149.225Y-207.169
X161.92Y-240.11
X162.719Y-188.119
X163.299Y-194.697
X163.512Y-187.325
X164.396Y-186.531
X167.44Y-199.28
X167.456Y-200.281
X170.15Y-164.1
X180.883Y-208.543
X182.43Y-208.02
X182.56Y-164.122
X183.33Y-208.61
X184.131Y-208.013
X184.94Y-208.6
X185.74Y-208.001
X186.54Y-208.6
X186.88Y-156.21
X187.335Y-207.994
X188.13Y-208.6
X188.9Y-207.963
X189.67Y-208.6
X190.403Y-207.92
X192.51Y-205.037
X198.104Y-199.446
X200.02Y-239.114
X203.53Y-220.413
X211.01Y-217.31
X211.64Y-164.14
X225.52Y-164.122
X225.98Y-227.45
X226.704Y-226.599
X227.429Y-227.45
X228.153Y-226.641
X228.17Y-205.486
X228.878Y-227.46
X229.602Y-226.66
X230.39Y-227.48
X230.4Y-239.11
X230.4Y-240.11
X230.438Y-241.108
X231.114Y-226.65
X231.115Y-261.572
X231.839Y-227.45
X232.68Y-226.63
X232.76Y-200.888
X235.42Y-220.44
X236.22Y-229.87
X241.31Y-220.413
X242.422Y-217.32
X244.853Y-186.473
X245.11Y-232.41
X247.65Y-179.167
X248.374Y-246.88
X248.51Y-181.621
X249.237Y-169.862
X249.237Y-246.062
X250.031Y-245.269
X250.599Y-230.981
X250.605Y-240.045
X254.089Y-245.144
X254.814Y-245.86
X255.538Y-245.156
X256.263Y-245.85
X256.54Y-227.33
X256.63Y-164.61
X257.026Y-245.204
X257.78Y-245.86
X258.762Y-255.587
X259.08Y-232.41
X259.556Y-256.381
X260.35Y-240.03
X260.35Y-257.27
X261.144Y-258.11
X268.16Y-164.122
X269.875Y-168.275
X272.58Y-220.77
X274.753Y-186.647
X275.31Y-261.07
X275.6Y-168.13
X276.006Y-261.787
X276.707Y-262.5
X277.366Y-263.251
X278.08Y-220.413
X278.13Y-171.45
X279.4Y-175.26
X279.4Y-273.05
X280.194Y-272.256
X280.35Y-205.936
X280.988Y-271.462
X282.68Y-133.95
X284.16Y-240.5
X284.162Y-188.119
X284.18Y-242.853
X284.956Y-187.325
X285.75Y-170.18
X285.75Y-186.531
X288.131Y-262.731
X288.925Y-261.938
X289.719Y-261.144
X290.15Y-135.35
X293.723Y-129.813
X294.1Y-131.96
X294.52Y-242.87
X297.18Y-170.18
X298.12Y-164.57
X299.52Y-175.77
X302.08Y-220.77
X304.93Y-206.385
X306.35Y-164.216
X307.37Y-165.27
X310.26Y-147.7
X310.356Y-140.494
X310.46Y-156.21
X311.15Y-139.7
X311.46Y-145.73
X311.907Y-140.457
X312.738Y-139.7
X313.531Y-140.494
X315.12Y-258.424
X317.91Y-220.413
X319.087Y-172.341
X319.087Y-177.006
X319.65Y-151.09
X320.04Y-169.64
X321.879Y-151.09
X322.23Y-167.79
X323.003Y-151.09
X323.53Y-169.61
X323.85Y-166.19
X324.23Y-151.09
X324.377Y-170.377
X324.64Y-166.94
X325.441Y-167.72
X325.72Y-151.09
X326.166Y-168.464
X326.89Y-151.09
X328.33Y-151.09
X330.72Y-151.09
X332.581Y-135.731
X333.1Y-151.09
X340.207Y-132.744
X340.36Y-173.99
X341.38Y-176.67
X342.9Y-153.987
X343.694Y-161.131
X344.29Y-164.665
X345.281Y-161.201
X346.075Y-158.75
X346.869Y-157.956
X347.81Y-147.96
X347.98Y-142.24
X349.035Y-148.565
X351.631Y-132.556
X352.91Y-165.587
X354.51Y-165.587
X360.03Y-165.587
X375.169Y-137.536
X376.133Y-130.964
X441.175Y-280.907
T2
X285.156Y-131.262
X285.156Y-132.612
X286.006Y-131.262
X286.006Y-132.612
X286.856Y-131.262
X286.856Y-132.612
X287.706Y-131.262
X287.706Y-132.612
X288.556Y-131.262
X288.556Y-132.612
X289.406Y-131.262
X289.406Y-132.612
X290.256Y-131.262
X290.256Y-132.612
X291.106Y-131.262
X291.106Y-132.612
T3
X295.275Y-143.669
X296.775Y-143.669
T4
X270.827Y-130.969
X270.827Y-134.144
X278.447Y-130.969
X278.447Y-134.144
X280.988Y-128.746
X280.988Y-136.366
X295.275Y-128.746
X295.275Y-136.366
X297.815Y-130.969
X297.815Y-134.144
X305.435Y-130.969
X305.435Y-134.144
T5
X121.602Y-170.656
X121.602Y-173.037
X121.602Y-175.419
X121.602Y-177.8
X121.602Y-180.181
X121.602Y-182.562
X121.602Y-184.944
X129.222Y-170.656
X129.222Y-173.037
X129.222Y-175.419
X129.222Y-177.8
X129.222Y-180.181
X129.222Y-182.562
X129.222Y-184.944
X136.684Y-170.656
X136.684Y-173.037
X136.684Y-175.419
X136.684Y-177.8
X136.684Y-180.181
X136.684Y-182.562
X136.684Y-184.944
X144.304Y-170.656
X144.304Y-173.037
X144.304Y-175.419
X144.304Y-177.8
X144.304Y-180.181
X144.304Y-182.562
X144.304Y-184.944
X148.59Y-170.656
X148.59Y-173.037
X148.59Y-175.419
X148.59Y-177.8
X148.59Y-180.181
X148.59Y-182.562
X148.59Y-184.944
X156.21Y-170.656
X156.21Y-173.037
X156.21Y-175.419
X156.21Y-177.8
X156.21Y-180.181
X156.21Y-182.562
X156.21Y-184.944
X163.671Y-170.656
X163.671Y-173.037
X163.671Y-175.419
X163.671Y-177.8
X163.671Y-180.181
X163.671Y-182.562
X163.671Y-184.944
X171.291Y-170.656
X171.291Y-173.037
X171.291Y-175.419
X171.291Y-177.8
X171.291Y-180.181
X171.291Y-182.562
X171.291Y-184.944
X175.577Y-170.656
X175.577Y-173.037
X175.577Y-175.419
X175.577Y-177.8
X175.577Y-180.181
X175.577Y-182.562
X175.577Y-184.944
X183.197Y-170.656
X183.197Y-173.037
X183.197Y-175.419
X183.197Y-177.8
X183.197Y-180.181
X183.197Y-182.562
X183.197Y-184.944
X190.659Y-170.656
X190.659Y-173.037
X190.659Y-175.419
X190.659Y-177.8
X190.659Y-180.181
X190.659Y-182.562
X190.659Y-184.944
X198.279Y-170.656
X198.279Y-173.037
X198.279Y-175.419
X198.279Y-177.8
X198.279Y-180.181
X198.279Y-182.562
X198.279Y-184.944
X202.565Y-170.656
X202.565Y-173.037
X202.565Y-175.419
X202.565Y-177.8
X202.565Y-180.181
X202.565Y-182.562
X202.565Y-184.944
X210.185Y-170.656
X210.185Y-173.037
X210.185Y-175.419
X210.185Y-177.8
X210.185Y-180.181
X210.185Y-182.562
X210.185Y-184.944
X217.646Y-170.656
X217.646Y-173.037
X217.646Y-175.419
X217.646Y-177.8
X217.646Y-180.181
X217.646Y-182.562
X217.646Y-184.944
X225.266Y-170.656
X225.266Y-173.037
X225.266Y-175.419
X225.266Y-177.8
X225.266Y-180.181
X225.266Y-182.562
X225.266Y-184.944
X229.552Y-170.656
X229.552Y-173.037
X229.552Y-175.419
X229.552Y-177.8
X229.552Y-180.181
X229.552Y-182.562
X229.552Y-184.944
X237.172Y-170.656
X237.172Y-173.037
X237.172Y-175.419
X237.172Y-177.8
X237.172Y-180.181
X237.172Y-182.562
X237.172Y-184.944
X254.952Y-170.656
X254.952Y-173.037
X254.952Y-175.419
X254.952Y-177.8
X254.952Y-180.181
X254.952Y-182.562
X254.952Y-184.944
X262.572Y-170.656
X262.572Y-173.037
X262.572Y-175.419
X262.572Y-177.8
X262.572Y-180.181
X262.572Y-182.562
X262.572Y-184.944
X266.859Y-170.656
X266.859Y-173.037
X266.859Y-175.419
X266.859Y-177.8
X266.859Y-180.181
X266.859Y-182.562
X266.859Y-184.944
X274.479Y-170.656
X274.479Y-173.037
X274.479Y-175.419
X274.479Y-177.8
X274.479Y-180.181
X274.479Y-182.562
X274.479Y-184.944
X281.94Y-173.037
X281.94Y-175.419
X281.94Y-177.8
X281.94Y-180.181
X281.94Y-182.562
X281.94Y-184.944
X289.56Y-173.037
X289.56Y-175.419
X289.56Y-177.8
X289.56Y-180.181
X289.56Y-182.562
X289.56Y-184.944
X293.846Y-177.8
X293.846Y-180.181
X293.846Y-182.562
X293.846Y-184.944
X299.125Y-138.112
X299.125Y-141.287
X301.466Y-177.8
X301.466Y-180.181
X301.466Y-182.562
X301.466Y-184.944
X304.125Y-138.112
X304.125Y-141.287
X308.928Y-177.8
X308.928Y-180.181
X308.928Y-182.562
X308.928Y-184.944
X314.796Y-130.487
X314.796Y-145.727
X316.548Y-177.8
X316.548Y-180.181
X316.548Y-182.562
X316.548Y-184.944
X317.336Y-130.487
X317.336Y-145.727
X319.876Y-130.487
X319.876Y-145.727
X320.834Y-177.8
X320.834Y-180.181
X320.834Y-182.562
X320.834Y-184.944
X322.416Y-130.487
X322.416Y-145.727
X324.956Y-130.487
X324.956Y-145.727
X327.496Y-130.487
X327.496Y-145.727
X328.454Y-177.8
X328.454Y-180.181
X328.454Y-182.562
X328.454Y-184.944
X330.036Y-130.487
X330.036Y-145.727
X332.576Y-130.487
X332.576Y-145.727
X335.116Y-130.487
X335.116Y-145.727
X335.915Y-177.8
X335.915Y-180.181
X335.915Y-182.562
X335.915Y-184.944
X337.656Y-130.487
X337.656Y-145.727
X340.196Y-130.487
X340.196Y-145.727
X342.736Y-130.487
X342.736Y-145.727
X343.535Y-177.8
X343.535Y-180.181
X343.535Y-182.562
X343.535Y-184.944
X345.276Y-130.487
X345.276Y-145.727
X347.816Y-130.487
X347.816Y-145.727
X347.821Y-177.8
X347.821Y-180.181
X347.821Y-182.562
X347.821Y-184.944
X350.356Y-130.487
X350.356Y-145.727
X352.896Y-130.487
X352.896Y-145.727
X355.436Y-130.487
X355.436Y-145.727
X355.441Y-177.8
X355.441Y-180.181
X355.441Y-182.562
X355.441Y-184.944
X357.976Y-130.487
X357.976Y-145.727
X360.516Y-130.487
X360.516Y-145.727
X362.902Y-177.8
X362.902Y-180.181
X362.902Y-182.562
X362.902Y-184.944
X363.056Y-130.487
X363.056Y-145.727
X368.756Y-135.683
X368.756Y-140.562
X370.522Y-177.8
X370.522Y-180.181
X370.522Y-182.562
X370.522Y-184.944
X373.062Y-133.688
X373.062Y-136.188
X373.062Y-140.037
X373.062Y-142.537
T6
X272.087Y-137.213
X277.188Y-139.012
T7
X377.656Y-135.588
X377.656Y-138.127
X377.656Y-140.667
X380.196Y-135.588
X380.196Y-138.127
X380.196Y-140.667
T8
X259.481Y-129.512
X259.481Y-134.012
X259.481Y-137.45
X259.481Y-141.95
X265.981Y-129.512
X265.981Y-134.012
X265.981Y-137.45
X265.981Y-141.95
X284.321Y-137.319
X284.321Y-141.287
X291.941Y-137.319
X291.941Y-141.287
T9
X108.902Y-156.21
X108.902Y-194.31
X111.284Y-232.41
X111.284Y-251.46
X111.284Y-270.51
X113.665Y-213.36
X113.665Y-270.51
X115.252Y-153.67
X115.252Y-191.77
X116.046Y-232.41
X117.634Y-229.87
X117.634Y-248.92
X117.634Y-267.97
X120.015Y-210.82
X120.015Y-267.97
X120.809Y-251.46
X122.396Y-229.87
X127.159Y-248.92
X127.953Y-194.31
X132.715Y-156.21
X132.715Y-251.46
X134.302Y-191.77
X135.096Y-270.51
X137.477Y-213.36
X137.477Y-270.51
X139.065Y-153.67
X139.065Y-248.92
X141.446Y-267.97
X142.24Y-232.41
X142.24Y-270.51
X143.827Y-210.82
X143.827Y-267.97
X147.002Y-194.31
X148.59Y-229.87
X148.59Y-267.97
X151.765Y-156.21
X151.765Y-251.46
X153.352Y-191.77
X156.528Y-213.36
X158.115Y-153.67
X158.115Y-248.92
X158.909Y-270.51
X161.29Y-232.41
X161.29Y-270.51
X162.877Y-210.82
X165.259Y-267.97
X166.052Y-194.31
X167.64Y-229.87
X167.64Y-267.97
X170.815Y-156.21
X170.815Y-251.46
X172.403Y-191.77
X175.577Y-213.36
X177.165Y-153.67
X177.165Y-248.92
X180.34Y-232.41
X181.927Y-210.82
X185.102Y-194.31
X186.69Y-229.87
X189.865Y-156.21
X189.865Y-251.46
X191.452Y-191.77
X194.627Y-213.36
X196.215Y-153.67
X196.215Y-248.92
X199.39Y-232.41
X200.977Y-210.82
X204.153Y-194.31
X205.74Y-229.87
X208.915Y-251.46
X210.502Y-191.77
X213.677Y-156.21
X213.677Y-213.36
X215.265Y-248.92
X218.44Y-232.41
X220.028Y-153.67
X220.028Y-210.82
X223.202Y-194.31
X223.202Y-270.51
X224.79Y-229.87
X227.965Y-251.46
X229.552Y-191.77
X229.552Y-267.97
X230.346Y-270.51
X232.727Y-156.21
X232.727Y-213.36
X232.727Y-270.51
X234.315Y-248.92
X236.696Y-267.97
X237.49Y-232.41
X239.077Y-153.67
X239.077Y-210.82
X239.077Y-267.97
X242.252Y-194.31
X243.84Y-229.87
X247.015Y-251.46
X248.602Y-191.77
X251.777Y-156.21
X251.777Y-213.36
X253.365Y-248.92
X256.54Y-232.41
X258.127Y-153.67
X258.127Y-210.82
X261.303Y-194.31
X262.89Y-229.87
X266.065Y-251.46
X267.652Y-191.77
X270.827Y-156.21
X270.827Y-213.36
X272.415Y-248.92
X275.59Y-232.41
X277.178Y-153.67
X277.178Y-210.82
X280.352Y-194.31
X281.94Y-229.87
X285.115Y-251.46
X286.702Y-191.77
X289.877Y-213.36
X291.465Y-248.92
X294.64Y-156.21
X294.64Y-232.41
X296.227Y-210.82
X299.402Y-194.31
X299.402Y-270.51
X300.99Y-153.67
X300.99Y-229.87
X304.165Y-251.46
X304.165Y-270.51
X305.752Y-191.77
X305.752Y-267.97
X308.928Y-213.36
X310.515Y-248.92
X310.515Y-267.97
X313.69Y-156.21
X313.69Y-232.41
X315.277Y-210.82
X318.452Y-194.31
X318.452Y-270.51
X320.04Y-153.67
X320.04Y-229.87
X323.215Y-251.46
X324.803Y-191.77
X324.803Y-267.97
X327.977Y-213.36
X329.565Y-248.92
X332.74Y-156.21
X332.74Y-232.41
X332.74Y-270.51
X334.327Y-210.82
X337.502Y-194.31
X337.502Y-270.51
X339.09Y-153.67
X339.09Y-229.87
X339.09Y-267.97
X343.852Y-191.77
X343.852Y-267.97
X347.027Y-213.36
X349.409Y-251.46
X351.79Y-156.21
X351.79Y-232.41
X353.377Y-210.82
X355.759Y-248.92
X356.553Y-194.31
X358.14Y-153.67
X358.14Y-229.87
X361.315Y-275.272
X362.902Y-191.77
X363.696Y-232.41
X366.077Y-194.31
X367.665Y-272.733
X370.046Y-229.87
X370.84Y-213.36
X372.428Y-191.77
X375.602Y-156.21
X375.602Y-194.31
X377.19Y-210.82
X379.571Y-221.615
X380.365Y-256.222
X380.365Y-275.272
X381.952Y-153.67
X381.952Y-191.77
X382.111Y-227.965
X386.715Y-253.682
X386.715Y-272.733
X399.415Y-275.272
X404.178Y-156.21
X404.178Y-175.26
X404.178Y-194.31
X404.178Y-213.36
X404.178Y-232.41
X404.178Y-251.46
X405.765Y-272.733
X410.527Y-153.67
X410.527Y-172.72
X410.527Y-191.77
X410.527Y-210.82
X410.527Y-229.87
X410.527Y-248.92
X423.227Y-156.21
X423.227Y-175.26
X423.227Y-194.31
X423.227Y-213.36
X423.227Y-232.41
X423.227Y-251.46
X423.227Y-270.51
X429.577Y-153.67
X429.577Y-172.72
X429.577Y-191.77
X429.577Y-210.82
X429.577Y-229.87
X429.577Y-248.92
X429.577Y-267.97
X442.277Y-156.21
X442.277Y-175.26
X442.277Y-194.31
X442.277Y-213.36
X442.277Y-232.41
X442.277Y-251.46
X442.277Y-270.51
X448.627Y-153.67
X448.627Y-172.72
X448.627Y-191.77
X448.627Y-210.82
X448.627Y-229.87
X448.627Y-248.92
X448.627Y-267.97
X460.058Y-222.885
X460.058Y-260.985
X461.327Y-156.21
X461.327Y-175.26
X461.327Y-194.31
X461.327Y-213.36
X461.327Y-232.41
X461.327Y-251.46
X461.327Y-270.51
X462.597Y-229.235
X462.597Y-267.335
X467.677Y-153.67
X467.677Y-172.72
X467.677Y-191.77
X467.677Y-210.82
X467.677Y-229.87
X467.677Y-248.92
X467.677Y-267.97
T10
X107.156Y-130.969
X107.156Y-142.875
X107.156Y-172.244
X107.156Y-183.356
X129.381Y-215.9
X146.05Y-254.0
X192.881Y-130.969
X192.881Y-142.875
X246.062Y-172.244
X246.062Y-183.356
X259.556Y-273.05
X336.55Y-254.0
X384.969Y-130.969
X384.969Y-142.875
X384.969Y-172.244
X384.969Y-183.356
X436.562Y-215.9
X436.562Y-254.0
X455.612Y-177.8
X470.694Y-130.969
X470.694Y-142.875
T3
G00X283.806Y-128.653
M15
G01X283.806Y-127.852
M16
G05
G00X283.806Y-132.382
M15
G01X283.806Y-130.882
M16
G05
G00X292.456Y-128.653
M15
G01X292.456Y-127.852
M16
G05
G00X292.456Y-132.382
M15
G01X292.456Y-130.882
M16
G05
T0
M30
