%TF.GenerationSoftware,KiCad,Pcbnew,(6.0.0)*%
%TF.CreationDate,2022-03-02T09:47:07+01:00*%
%TF.ProjectId,pcb,7063622e-6b69-4636-9164-5f7063625858,rev?*%
%TF.SameCoordinates,Original*%
%TF.FileFunction,Soldermask,Top*%
%TF.FilePolarity,Negative*%
%FSLAX46Y46*%
G04 Gerber Fmt 4.6, Leading zero omitted, Abs format (unit mm)*
G04 Created by KiCad (PCBNEW (6.0.0)) date 2022-03-02 09:47:07*
%MOMM*%
%LPD*%
G01*
G04 APERTURE LIST*
%ADD10C,1.000000*%
%ADD11C,0.400000*%
%ADD12C,0.200000*%
%ADD13R,1.600000X1.600000*%
%ADD14O,1.600000X1.600000*%
%ADD15C,3.987800*%
%ADD16C,1.750000*%
%ADD17C,3.500001*%
%ADD18C,3.048000*%
%ADD19C,1.400000*%
%ADD20O,1.400000X1.400000*%
%ADD21C,1.500000*%
%ADD22C,2.000000*%
%ADD23R,1.700000X1.700000*%
%ADD24O,1.700000X1.700000*%
%ADD25C,1.600000*%
%ADD26R,2.200000X2.200000*%
%ADD27O,2.200000X2.200000*%
%ADD28C,0.700000*%
%ADD29O,0.900000X1.700000*%
%ADD30O,0.900000X2.400000*%
%ADD31C,1.200000*%
G04 APERTURE END LIST*
D10*
X467518750Y-146050000D02*
X388143750Y-146050000D01*
X254793750Y-144462500D02*
X197643750Y-144462500D01*
X388143750Y-131762500D02*
X467518750Y-131762500D01*
X388143750Y-134937500D02*
X467518750Y-134937500D01*
X254793750Y-133350000D02*
X197643750Y-133350000D01*
X465931250Y-133350000D02*
X389731250Y-133350000D01*
X196056250Y-134937500D02*
X256381250Y-134937500D01*
X465931250Y-144462500D02*
X389731250Y-144462500D01*
X188118750Y-133350000D02*
X111918750Y-133350000D01*
X110331250Y-131762500D02*
X189706250Y-131762500D01*
X388143750Y-142875000D02*
X467518750Y-142875000D01*
X189706250Y-146050000D02*
X110331250Y-146050000D01*
X196056250Y-146050000D02*
X256381250Y-146050000D01*
X110331250Y-134937500D02*
X189706250Y-134937500D01*
X256381250Y-142875000D02*
X196056250Y-142875000D01*
X256381250Y-131762500D02*
X196056250Y-131762500D01*
X188118750Y-144462500D02*
X111918750Y-144462500D01*
X110331250Y-142875000D02*
X189706250Y-142875000D01*
D11*
X191902857Y-270525892D02*
X191236190Y-270525892D01*
X191236190Y-271573511D02*
X191236190Y-269573511D01*
X192188571Y-269573511D01*
X192950476Y-271573511D02*
X192950476Y-270240178D01*
X192950476Y-269573511D02*
X192855238Y-269668750D01*
X192950476Y-269763988D01*
X193045714Y-269668750D01*
X192950476Y-269573511D01*
X192950476Y-269763988D01*
X193902857Y-271573511D02*
X193902857Y-270240178D01*
X193902857Y-270621130D02*
X193998095Y-270430654D01*
X194093333Y-270335416D01*
X194283809Y-270240178D01*
X194474285Y-270240178D01*
X195902857Y-271478273D02*
X195712380Y-271573511D01*
X195331428Y-271573511D01*
X195140952Y-271478273D01*
X195045714Y-271287797D01*
X195045714Y-270525892D01*
X195140952Y-270335416D01*
X195331428Y-270240178D01*
X195712380Y-270240178D01*
X195902857Y-270335416D01*
X195998095Y-270525892D01*
X195998095Y-270716369D01*
X195045714Y-270906845D01*
X196569523Y-270240178D02*
X197331428Y-270240178D01*
X196855238Y-269573511D02*
X196855238Y-271287797D01*
X196950476Y-271478273D01*
X197140952Y-271573511D01*
X197331428Y-271573511D01*
X197998095Y-271573511D02*
X197998095Y-270240178D01*
X197998095Y-270621130D02*
X198093333Y-270430654D01*
X198188571Y-270335416D01*
X198379047Y-270240178D01*
X198569523Y-270240178D01*
X200093333Y-270240178D02*
X200093333Y-271573511D01*
X199236190Y-270240178D02*
X199236190Y-271287797D01*
X199331428Y-271478273D01*
X199521904Y-271573511D01*
X199807619Y-271573511D01*
X199998095Y-271478273D01*
X200093333Y-271383035D01*
X201902857Y-271478273D02*
X201712380Y-271573511D01*
X201331428Y-271573511D01*
X201140952Y-271478273D01*
X201045714Y-271383035D01*
X200950476Y-271192559D01*
X200950476Y-270621130D01*
X201045714Y-270430654D01*
X201140952Y-270335416D01*
X201331428Y-270240178D01*
X201712380Y-270240178D01*
X201902857Y-270335416D01*
X202760000Y-271573511D02*
X202760000Y-269573511D01*
X202950476Y-270811607D02*
X203521904Y-271573511D01*
X203521904Y-270240178D02*
X202760000Y-271002083D01*
D12*
X190971666Y-274143833D02*
X191146666Y-272743833D01*
X191480000Y-272743833D01*
X191671666Y-272810500D01*
X191788333Y-272943833D01*
X191838333Y-273077166D01*
X191871666Y-273343833D01*
X191846666Y-273543833D01*
X191746666Y-273810500D01*
X191663333Y-273943833D01*
X191513333Y-274077166D01*
X191305000Y-274143833D01*
X190971666Y-274143833D01*
X192913333Y-274077166D02*
X192771666Y-274143833D01*
X192505000Y-274143833D01*
X192380000Y-274077166D01*
X192330000Y-273943833D01*
X192396666Y-273410500D01*
X192480000Y-273277166D01*
X192621666Y-273210500D01*
X192888333Y-273210500D01*
X193013333Y-273277166D01*
X193063333Y-273410500D01*
X193046666Y-273543833D01*
X192363333Y-273677166D01*
X193513333Y-274077166D02*
X193638333Y-274143833D01*
X193905000Y-274143833D01*
X194046666Y-274077166D01*
X194130000Y-273943833D01*
X194138333Y-273877166D01*
X194088333Y-273743833D01*
X193963333Y-273677166D01*
X193763333Y-273677166D01*
X193638333Y-273610500D01*
X193588333Y-273477166D01*
X193596666Y-273410500D01*
X193680000Y-273277166D01*
X193821666Y-273210500D01*
X194021666Y-273210500D01*
X194146666Y-273277166D01*
X194705000Y-274143833D02*
X194821666Y-273210500D01*
X194880000Y-272743833D02*
X194805000Y-272810500D01*
X194863333Y-272877166D01*
X194938333Y-272810500D01*
X194880000Y-272743833D01*
X194863333Y-272877166D01*
X196088333Y-273210500D02*
X195946666Y-274343833D01*
X195863333Y-274477166D01*
X195788333Y-274543833D01*
X195646666Y-274610500D01*
X195446666Y-274610500D01*
X195321666Y-274543833D01*
X195980000Y-274077166D02*
X195838333Y-274143833D01*
X195571666Y-274143833D01*
X195446666Y-274077166D01*
X195388333Y-274010500D01*
X195338333Y-273877166D01*
X195388333Y-273477166D01*
X195471666Y-273343833D01*
X195546666Y-273277166D01*
X195688333Y-273210500D01*
X195955000Y-273210500D01*
X196080000Y-273277166D01*
X196755000Y-273210500D02*
X196638333Y-274143833D01*
X196738333Y-273343833D02*
X196813333Y-273277166D01*
X196955000Y-273210500D01*
X197155000Y-273210500D01*
X197280000Y-273277166D01*
X197330000Y-273410500D01*
X197238333Y-274143833D01*
X198446666Y-274077166D02*
X198305000Y-274143833D01*
X198038333Y-274143833D01*
X197913333Y-274077166D01*
X197863333Y-273943833D01*
X197930000Y-273410500D01*
X198013333Y-273277166D01*
X198155000Y-273210500D01*
X198421666Y-273210500D01*
X198546666Y-273277166D01*
X198596666Y-273410500D01*
X198580000Y-273543833D01*
X197896666Y-273677166D01*
X199705000Y-274143833D02*
X199880000Y-272743833D01*
X199713333Y-274077166D02*
X199571666Y-274143833D01*
X199305000Y-274143833D01*
X199180000Y-274077166D01*
X199121666Y-274010500D01*
X199071666Y-273877166D01*
X199121666Y-273477166D01*
X199205000Y-273343833D01*
X199280000Y-273277166D01*
X199421666Y-273210500D01*
X199688333Y-273210500D01*
X199813333Y-273277166D01*
X201438333Y-274143833D02*
X201613333Y-272743833D01*
X201546666Y-273277166D02*
X201688333Y-273210500D01*
X201955000Y-273210500D01*
X202080000Y-273277166D01*
X202138333Y-273343833D01*
X202188333Y-273477166D01*
X202138333Y-273877166D01*
X202055000Y-274010500D01*
X201980000Y-274077166D01*
X201838333Y-274143833D01*
X201571666Y-274143833D01*
X201446666Y-274077166D01*
X202688333Y-273210500D02*
X202905000Y-274143833D01*
X203355000Y-273210500D02*
X202905000Y-274143833D01*
X202730000Y-274477166D01*
X202655000Y-274543833D01*
X202513333Y-274610500D01*
X190971666Y-276397833D02*
X191146666Y-274997833D01*
X191555000Y-275464500D02*
X192088333Y-275464500D01*
X191813333Y-274997833D02*
X191663333Y-276197833D01*
X191713333Y-276331166D01*
X191838333Y-276397833D01*
X191971666Y-276397833D01*
X192380000Y-276331166D02*
X192505000Y-276397833D01*
X192771666Y-276397833D01*
X192913333Y-276331166D01*
X192996666Y-276197833D01*
X193005000Y-276131166D01*
X192955000Y-275997833D01*
X192830000Y-275931166D01*
X192630000Y-275931166D01*
X192505000Y-275864500D01*
X192455000Y-275731166D01*
X192463333Y-275664500D01*
X192546666Y-275531166D01*
X192688333Y-275464500D01*
X192888333Y-275464500D01*
X193013333Y-275531166D01*
X194130000Y-275664500D02*
X193663333Y-275664500D01*
X193571666Y-276397833D02*
X193746666Y-274997833D01*
X194413333Y-274997833D01*
X194771666Y-276397833D02*
X194888333Y-275464500D01*
X194946666Y-274997833D02*
X194871666Y-275064500D01*
X194930000Y-275131166D01*
X195005000Y-275064500D01*
X194946666Y-274997833D01*
X194930000Y-275131166D01*
X195438333Y-276397833D02*
X195555000Y-275464500D01*
X195521666Y-275731166D02*
X195605000Y-275597833D01*
X195680000Y-275531166D01*
X195821666Y-275464500D01*
X195955000Y-275464500D01*
X196846666Y-276331166D02*
X196705000Y-276397833D01*
X196438333Y-276397833D01*
X196313333Y-276331166D01*
X196263333Y-276197833D01*
X196330000Y-275664500D01*
X196413333Y-275531166D01*
X196555000Y-275464500D01*
X196821666Y-275464500D01*
X196946666Y-275531166D01*
X196996666Y-275664500D01*
X196980000Y-275797833D01*
X196296666Y-275931166D01*
X197505000Y-276397833D02*
X197621666Y-275464500D01*
X197605000Y-275597833D02*
X197680000Y-275531166D01*
X197821666Y-275464500D01*
X198021666Y-275464500D01*
X198146666Y-275531166D01*
X198196666Y-275664500D01*
X198105000Y-276397833D01*
X198196666Y-275664500D02*
X198280000Y-275531166D01*
X198421666Y-275464500D01*
X198621666Y-275464500D01*
X198746666Y-275531166D01*
X198796666Y-275664500D01*
X198705000Y-276397833D01*
X199971666Y-276397833D02*
X200063333Y-275664500D01*
X200013333Y-275531166D01*
X199888333Y-275464500D01*
X199621666Y-275464500D01*
X199480000Y-275531166D01*
X199980000Y-276331166D02*
X199838333Y-276397833D01*
X199505000Y-276397833D01*
X199380000Y-276331166D01*
X199330000Y-276197833D01*
X199346666Y-276064500D01*
X199430000Y-275931166D01*
X199571666Y-275864500D01*
X199905000Y-275864500D01*
X200046666Y-275797833D01*
X200755000Y-275464500D02*
X200638333Y-276397833D01*
X200738333Y-275597833D02*
X200813333Y-275531166D01*
X200955000Y-275464500D01*
X201155000Y-275464500D01*
X201280000Y-275531166D01*
X201330000Y-275664500D01*
X201238333Y-276397833D01*
X201846666Y-276331166D02*
X202038333Y-276397833D01*
X202371666Y-276397833D01*
X202513333Y-276331166D01*
X202588333Y-276264500D01*
X202671666Y-276131166D01*
X202688333Y-275997833D01*
X202638333Y-275864500D01*
X202580000Y-275797833D01*
X202455000Y-275731166D01*
X202196666Y-275664500D01*
X202071666Y-275597833D01*
X202013333Y-275531166D01*
X201963333Y-275397833D01*
X201980000Y-275264500D01*
X202063333Y-275131166D01*
X202138333Y-275064500D01*
X202280000Y-274997833D01*
X202613333Y-274997833D01*
X202805000Y-275064500D01*
X203838333Y-276397833D02*
X203930000Y-275664500D01*
X203880000Y-275531166D01*
X203755000Y-275464500D01*
X203488333Y-275464500D01*
X203346666Y-275531166D01*
X203846666Y-276331166D02*
X203705000Y-276397833D01*
X203371666Y-276397833D01*
X203246666Y-276331166D01*
X203196666Y-276197833D01*
X203213333Y-276064500D01*
X203296666Y-275931166D01*
X203438333Y-275864500D01*
X203771666Y-275864500D01*
X203913333Y-275797833D01*
X204505000Y-276397833D02*
X204621666Y-275464500D01*
X204605000Y-275597833D02*
X204680000Y-275531166D01*
X204821666Y-275464500D01*
X205021666Y-275464500D01*
X205146666Y-275531166D01*
X205196666Y-275664500D01*
X205105000Y-276397833D01*
X205196666Y-275664500D02*
X205280000Y-275531166D01*
X205421666Y-275464500D01*
X205621666Y-275464500D01*
X205746666Y-275531166D01*
X205796666Y-275664500D01*
X205705000Y-276397833D01*
D13*
%TO.C,D104*%
X289560000Y-182562500D03*
D14*
X281940000Y-182562500D03*
%TD*%
D15*
%TO.C,SW22*%
X465137500Y-177800000D03*
D16*
X460057500Y-177800000D03*
X470217500Y-177800000D03*
%TD*%
D17*
%TO.C,MH2*%
X259556250Y-273050000D03*
%TD*%
D15*
%TO.C,SW106*%
X303212500Y-273050000D03*
D16*
X298132500Y-273050000D03*
X308292500Y-273050000D03*
%TD*%
D15*
%TO.C,SW122*%
X236537500Y-273050000D03*
D18*
X284162500Y-280035000D03*
X188912500Y-280035000D03*
D15*
X188912500Y-264795000D03*
D16*
X241617500Y-273050000D03*
D15*
X284162500Y-264795000D03*
D16*
X231457500Y-273050000D03*
%TD*%
D13*
%TO.C,D14*%
X121602500Y-184943750D03*
D14*
X129222500Y-184943750D03*
%TD*%
D13*
%TO.C,D79*%
X262572500Y-182562500D03*
D14*
X254952500Y-182562500D03*
%TD*%
D13*
%TO.C,D75*%
X347821250Y-180181250D03*
D14*
X355441250Y-180181250D03*
%TD*%
D13*
%TO.C,D62*%
X225266250Y-182562500D03*
D14*
X217646250Y-182562500D03*
%TD*%
D16*
%TO.C,SW48*%
X212407500Y-215900000D03*
X222567500Y-215900000D03*
D15*
X217487500Y-215900000D03*
%TD*%
D17*
%TO.C,MH2*%
X246062500Y-183356250D03*
%TD*%
D13*
%TO.C,D30*%
X148590000Y-175418750D03*
D14*
X156210000Y-175418750D03*
%TD*%
D13*
%TO.C,D22*%
X316547500Y-184943750D03*
D14*
X308927500Y-184943750D03*
%TD*%
D17*
%TO.C,MH2*%
X470693750Y-144462500D03*
%TD*%
D13*
%TO.C,D31*%
X171291250Y-175418750D03*
D14*
X163671250Y-175418750D03*
%TD*%
D17*
%TO.C,MH2*%
X107156250Y-183356250D03*
%TD*%
D15*
%TO.C,SW82*%
X136525000Y-245745000D03*
X112712500Y-245745000D03*
D16*
X129698750Y-254000000D03*
D15*
X124618750Y-254000000D03*
D18*
X136525000Y-260985000D03*
D16*
X119538750Y-254000000D03*
D18*
X112712500Y-260985000D03*
%TD*%
D16*
%TO.C,SW47*%
X193357500Y-215900000D03*
D15*
X198437500Y-215900000D03*
D16*
X203517500Y-215900000D03*
%TD*%
D19*
%TO.C,R5*%
X297815000Y-130968750D03*
D20*
X305435000Y-130968750D03*
%TD*%
D16*
%TO.C,SW49*%
X241617500Y-215900000D03*
X231457500Y-215900000D03*
D15*
X236537500Y-215900000D03*
%TD*%
D17*
%TO.C,MH2*%
X384968750Y-172243750D03*
%TD*%
D13*
%TO.C,D102*%
X289560000Y-180181250D03*
D14*
X281940000Y-180181250D03*
%TD*%
D16*
%TO.C,SW108*%
X346392500Y-273050000D03*
D15*
X341312500Y-273050000D03*
D16*
X336232500Y-273050000D03*
%TD*%
%TO.C,SW7*%
X231457500Y-158750000D03*
X241617500Y-158750000D03*
D15*
X236537500Y-158750000D03*
%TD*%
D16*
%TO.C,SW102*%
X120173750Y-273050000D03*
D15*
X115093750Y-273050000D03*
D16*
X110013750Y-273050000D03*
%TD*%
D13*
%TO.C,D72*%
X225266250Y-170656250D03*
D14*
X217646250Y-170656250D03*
%TD*%
D13*
%TO.C,D27*%
X171291250Y-180181250D03*
D14*
X163671250Y-180181250D03*
%TD*%
D13*
%TO.C,D1*%
X144303750Y-170656250D03*
D14*
X136683750Y-170656250D03*
%TD*%
D15*
%TO.C,SW58*%
X427037500Y-215900000D03*
D16*
X432117500Y-215900000D03*
X421957500Y-215900000D03*
%TD*%
D13*
%TO.C,D84*%
X229552500Y-184943750D03*
D14*
X237172500Y-184943750D03*
%TD*%
D15*
%TO.C,SW113*%
X446087500Y-273050000D03*
D16*
X441007500Y-273050000D03*
X451167500Y-273050000D03*
%TD*%
D13*
%TO.C,D107*%
X289560000Y-173037500D03*
D14*
X281940000Y-173037500D03*
%TD*%
D15*
%TO.C,SW61*%
X456882500Y-237363000D03*
D16*
X460057500Y-225425000D03*
D15*
X465137500Y-225425000D03*
D18*
X472122500Y-213487000D03*
D16*
X470217500Y-225425000D03*
D18*
X472122500Y-237363000D03*
D15*
X456882500Y-213487000D03*
%TD*%
D16*
%TO.C,SW5*%
X198755000Y-158750000D03*
D15*
X193675000Y-158750000D03*
D16*
X188595000Y-158750000D03*
%TD*%
D13*
%TO.C,D3*%
X144303750Y-184943750D03*
D14*
X136683750Y-184943750D03*
%TD*%
D15*
%TO.C,SW111*%
X403225000Y-277812500D03*
D16*
X398145000Y-277812500D03*
X408305000Y-277812500D03*
%TD*%
D13*
%TO.C,D32*%
X148590000Y-177800000D03*
D14*
X156210000Y-177800000D03*
%TD*%
D16*
%TO.C,SW38*%
X384492500Y-196850000D03*
D15*
X379412500Y-196850000D03*
D16*
X374332500Y-196850000D03*
%TD*%
%TO.C,SW87*%
X217805000Y-254000000D03*
X207645000Y-254000000D03*
D15*
X212725000Y-254000000D03*
%TD*%
D16*
%TO.C,SW78*%
X441007500Y-234950000D03*
D15*
X446087500Y-234950000D03*
D16*
X451167500Y-234950000D03*
%TD*%
%TO.C,SW97*%
X421957500Y-254000000D03*
X432117500Y-254000000D03*
D15*
X427037500Y-254000000D03*
%TD*%
D19*
%TO.C,R3*%
X280987500Y-136366250D03*
D20*
X280987500Y-128746250D03*
%TD*%
D17*
%TO.C,MH2*%
X107156250Y-133350000D03*
%TD*%
D13*
%TO.C,D57*%
X343535000Y-180181250D03*
D14*
X335915000Y-180181250D03*
%TD*%
D13*
%TO.C,D103*%
X266858750Y-177800000D03*
D14*
X274478750Y-177800000D03*
%TD*%
D21*
%TO.C,Y1*%
X368756250Y-140562500D03*
X368756250Y-135682500D03*
%TD*%
D16*
%TO.C,SW32*%
X270192500Y-196850000D03*
X260032500Y-196850000D03*
D15*
X265112500Y-196850000D03*
%TD*%
D16*
%TO.C,SW86*%
X188595000Y-254000000D03*
D15*
X193675000Y-254000000D03*
D16*
X198755000Y-254000000D03*
%TD*%
D13*
%TO.C,D91*%
X370522500Y-177800000D03*
D14*
X362902500Y-177800000D03*
%TD*%
D16*
%TO.C,SW34*%
X298132500Y-196850000D03*
X308292500Y-196850000D03*
D15*
X303212500Y-196850000D03*
%TD*%
%TO.C,SW52*%
X293687500Y-215900000D03*
D16*
X288607500Y-215900000D03*
X298767500Y-215900000D03*
%TD*%
%TO.C,SW54*%
X336867500Y-215900000D03*
D15*
X331787500Y-215900000D03*
D16*
X326707500Y-215900000D03*
%TD*%
D13*
%TO.C,D82*%
X229552500Y-182562500D03*
D14*
X237172500Y-182562500D03*
%TD*%
D15*
%TO.C,SW20*%
X427037500Y-177800000D03*
D16*
X432117500Y-177800000D03*
X421957500Y-177800000D03*
%TD*%
%TO.C,SW15*%
X402907500Y-158750000D03*
X413067500Y-158750000D03*
D15*
X407987500Y-158750000D03*
%TD*%
D13*
%TO.C,D12*%
X121602500Y-182562500D03*
D14*
X129222500Y-182562500D03*
%TD*%
D16*
%TO.C,SW37*%
X364807500Y-196850000D03*
D15*
X369887500Y-196850000D03*
D16*
X374967500Y-196850000D03*
D15*
X357981250Y-205105000D03*
D18*
X357981250Y-189865000D03*
X381793750Y-189865000D03*
D15*
X381793750Y-205105000D03*
%TD*%
D13*
%TO.C,D93*%
X370522500Y-182562500D03*
D14*
X362902500Y-182562500D03*
%TD*%
D22*
%TO.C,SW124*%
X265981250Y-134012500D03*
X259481250Y-134012500D03*
X265981250Y-129512500D03*
X259481250Y-129512500D03*
%TD*%
D15*
%TO.C,SW3*%
X155575000Y-158750000D03*
D16*
X160655000Y-158750000D03*
X150495000Y-158750000D03*
%TD*%
D13*
%TO.C,D63*%
X202565000Y-182562500D03*
D14*
X210185000Y-182562500D03*
%TD*%
D13*
%TO.C,D86*%
X229552500Y-173037500D03*
D14*
X237172500Y-173037500D03*
%TD*%
D15*
%TO.C,SW30*%
X227012500Y-196850000D03*
D16*
X221932500Y-196850000D03*
X232092500Y-196850000D03*
%TD*%
D13*
%TO.C,D36*%
X148590000Y-182562500D03*
D14*
X156210000Y-182562500D03*
%TD*%
D15*
%TO.C,SW31*%
X246062500Y-196850000D03*
D16*
X240982500Y-196850000D03*
X251142500Y-196850000D03*
%TD*%
D13*
%TO.C,D8*%
X121602500Y-177800000D03*
D14*
X129222500Y-177800000D03*
%TD*%
D16*
%TO.C,SW69*%
X236220000Y-234950000D03*
X246380000Y-234950000D03*
D15*
X241300000Y-234950000D03*
%TD*%
D13*
%TO.C,D21*%
X316547500Y-182562500D03*
D14*
X308927500Y-182562500D03*
%TD*%
D13*
%TO.C,D80*%
X229552500Y-180181250D03*
D14*
X237172500Y-180181250D03*
%TD*%
D13*
%TO.C,D78*%
X229552500Y-177800000D03*
D14*
X237172500Y-177800000D03*
%TD*%
D15*
%TO.C,SW94*%
X353218750Y-254000000D03*
D16*
X358298750Y-254000000D03*
X348138750Y-254000000D03*
%TD*%
%TO.C,SW11*%
X322580000Y-158750000D03*
D15*
X317500000Y-158750000D03*
D16*
X312420000Y-158750000D03*
%TD*%
%TO.C,SW107*%
X327342500Y-273050000D03*
X317182500Y-273050000D03*
D15*
X322262500Y-273050000D03*
%TD*%
D13*
%TO.C,D96*%
X289560000Y-184943750D03*
D14*
X281940000Y-184943750D03*
%TD*%
D16*
%TO.C,SW116*%
X146367500Y-273050000D03*
X136207500Y-273050000D03*
D15*
X141287500Y-273050000D03*
%TD*%
%TO.C,SW95*%
X384175000Y-258762500D03*
D16*
X389255000Y-258762500D03*
X379095000Y-258762500D03*
%TD*%
%TO.C,SW51*%
X269557500Y-215900000D03*
D15*
X274637500Y-215900000D03*
D16*
X279717500Y-215900000D03*
%TD*%
%TO.C,SW45*%
X155257500Y-215900000D03*
D15*
X160337500Y-215900000D03*
D16*
X165417500Y-215900000D03*
%TD*%
D17*
%TO.C,MH2*%
X192881250Y-133350000D03*
%TD*%
D13*
%TO.C,D73*%
X347821250Y-184943750D03*
D14*
X355441250Y-184943750D03*
%TD*%
D17*
%TO.C,MH2*%
X436562500Y-215900000D03*
%TD*%
D16*
%TO.C,SW14*%
X384492500Y-158750000D03*
D15*
X379412500Y-158750000D03*
D16*
X374332500Y-158750000D03*
%TD*%
D13*
%TO.C,D88*%
X229552500Y-175418750D03*
D14*
X237172500Y-175418750D03*
%TD*%
D15*
%TO.C,SW35*%
X322262500Y-196850000D03*
D16*
X317182500Y-196850000D03*
X327342500Y-196850000D03*
%TD*%
%TO.C,SW41*%
X451167500Y-196850000D03*
X441007500Y-196850000D03*
D15*
X446087500Y-196850000D03*
%TD*%
D13*
%TO.C,D50*%
X198278750Y-175418750D03*
D14*
X190658750Y-175418750D03*
%TD*%
D15*
%TO.C,SW39*%
X407987500Y-196850000D03*
D16*
X402907500Y-196850000D03*
X413067500Y-196850000D03*
%TD*%
D23*
%TO.C,J2*%
X377656250Y-135587500D03*
D24*
X380196250Y-135587500D03*
X377656250Y-138127500D03*
X380196250Y-138127500D03*
X377656250Y-140667500D03*
X380196250Y-140667500D03*
%TD*%
D15*
%TO.C,SW85*%
X174625000Y-254000000D03*
D16*
X179705000Y-254000000D03*
X169545000Y-254000000D03*
%TD*%
D13*
%TO.C,D83*%
X262572500Y-177800000D03*
D14*
X254952500Y-177800000D03*
%TD*%
D15*
%TO.C,SW21*%
X446087500Y-177800000D03*
D16*
X451167500Y-177800000D03*
X441007500Y-177800000D03*
%TD*%
D13*
%TO.C,D9*%
X144303750Y-177800000D03*
D14*
X136683750Y-177800000D03*
%TD*%
D15*
%TO.C,SW93*%
X327025000Y-254000000D03*
D16*
X321945000Y-254000000D03*
X332105000Y-254000000D03*
%TD*%
%TO.C,SW71*%
X274320000Y-234950000D03*
X284480000Y-234950000D03*
D15*
X279400000Y-234950000D03*
%TD*%
D13*
%TO.C,D47*%
X175577500Y-170656250D03*
D14*
X183197500Y-170656250D03*
%TD*%
D15*
%TO.C,SW121*%
X146050000Y-273050000D03*
D16*
X151130000Y-273050000D03*
X140970000Y-273050000D03*
%TD*%
%TO.C,SW6*%
X222567500Y-158750000D03*
D15*
X217487500Y-158750000D03*
D16*
X212407500Y-158750000D03*
%TD*%
%TO.C,SW33*%
X279082500Y-196850000D03*
D15*
X284162500Y-196850000D03*
D16*
X289242500Y-196850000D03*
%TD*%
D25*
%TO.C,C4*%
X373062500Y-142537500D03*
X373062500Y-140037500D03*
%TD*%
D13*
%TO.C,U1*%
X363056250Y-130487500D03*
D14*
X360516250Y-130487500D03*
X357976250Y-130487500D03*
X355436250Y-130487500D03*
X352896250Y-130487500D03*
X350356250Y-130487500D03*
X347816250Y-130487500D03*
X345276250Y-130487500D03*
X342736250Y-130487500D03*
X340196250Y-130487500D03*
X337656250Y-130487500D03*
X335116250Y-130487500D03*
X332576250Y-130487500D03*
X330036250Y-130487500D03*
X327496250Y-130487500D03*
X324956250Y-130487500D03*
X322416250Y-130487500D03*
X319876250Y-130487500D03*
X317336250Y-130487500D03*
X314796250Y-130487500D03*
X314796250Y-145727500D03*
X317336250Y-145727500D03*
X319876250Y-145727500D03*
X322416250Y-145727500D03*
X324956250Y-145727500D03*
X327496250Y-145727500D03*
X330036250Y-145727500D03*
X332576250Y-145727500D03*
X335116250Y-145727500D03*
X337656250Y-145727500D03*
X340196250Y-145727500D03*
X342736250Y-145727500D03*
X345276250Y-145727500D03*
X347816250Y-145727500D03*
X350356250Y-145727500D03*
X352896250Y-145727500D03*
X355436250Y-145727500D03*
X357976250Y-145727500D03*
X360516250Y-145727500D03*
X363056250Y-145727500D03*
%TD*%
D16*
%TO.C,SW88*%
X226695000Y-254000000D03*
D15*
X231775000Y-254000000D03*
D16*
X236855000Y-254000000D03*
%TD*%
D13*
%TO.C,D74*%
X347821250Y-182562500D03*
D14*
X355441250Y-182562500D03*
%TD*%
D13*
%TO.C,D4*%
X121602500Y-173037500D03*
D14*
X129222500Y-173037500D03*
%TD*%
D15*
%TO.C,SW120*%
X336550000Y-273050000D03*
D16*
X341630000Y-273050000D03*
X331470000Y-273050000D03*
%TD*%
D15*
%TO.C,SW105*%
X184156350Y-264795000D03*
D18*
X284156150Y-280035000D03*
D16*
X229076250Y-273050000D03*
X239236250Y-273050000D03*
D15*
X284156150Y-264795000D03*
X234156250Y-273050000D03*
D18*
X184156350Y-280035000D03*
%TD*%
D16*
%TO.C,SW64*%
X140970000Y-234950000D03*
X151130000Y-234950000D03*
D15*
X146050000Y-234950000D03*
%TD*%
D16*
%TO.C,SW70*%
X255270000Y-234950000D03*
D15*
X260350000Y-234950000D03*
D16*
X265430000Y-234950000D03*
%TD*%
D13*
%TO.C,D100*%
X289560000Y-177800000D03*
D14*
X281940000Y-177800000D03*
%TD*%
D13*
%TO.C,D65*%
X202565000Y-184943750D03*
D14*
X210185000Y-184943750D03*
%TD*%
D15*
%TO.C,SW59*%
X446087500Y-215900000D03*
D16*
X441007500Y-215900000D03*
X451167500Y-215900000D03*
%TD*%
D15*
%TO.C,SW8*%
X255587500Y-158750000D03*
D16*
X250507500Y-158750000D03*
X260667500Y-158750000D03*
%TD*%
D17*
%TO.C,MH2*%
X146050000Y-254000000D03*
%TD*%
D16*
%TO.C,SW68*%
X217170000Y-234950000D03*
D15*
X222250000Y-234950000D03*
D16*
X227330000Y-234950000D03*
%TD*%
D13*
%TO.C,D70*%
X225266250Y-173037500D03*
D14*
X217646250Y-173037500D03*
%TD*%
D16*
%TO.C,SW73*%
X312420000Y-234950000D03*
D15*
X317500000Y-234950000D03*
D16*
X322580000Y-234950000D03*
%TD*%
D26*
%TO.C,D109*%
X291941250Y-137318750D03*
D27*
X284321250Y-137318750D03*
%TD*%
D16*
%TO.C,SW110*%
X389255000Y-277812500D03*
X379095000Y-277812500D03*
D15*
X384175000Y-277812500D03*
%TD*%
D19*
%TO.C,R4*%
X297815000Y-134143750D03*
D20*
X305435000Y-134143750D03*
%TD*%
D13*
%TO.C,D28*%
X148590000Y-173037500D03*
D14*
X156210000Y-173037500D03*
%TD*%
D15*
%TO.C,SW119*%
X307975000Y-273050000D03*
D16*
X302895000Y-273050000D03*
X313055000Y-273050000D03*
%TD*%
%TO.C,SW66*%
X179070000Y-234950000D03*
X189230000Y-234950000D03*
D15*
X184150000Y-234950000D03*
%TD*%
D13*
%TO.C,D71*%
X202565000Y-177800000D03*
D14*
X210185000Y-177800000D03*
%TD*%
D16*
%TO.C,SW53*%
X317817500Y-215900000D03*
D15*
X312737500Y-215900000D03*
D16*
X307657500Y-215900000D03*
%TD*%
D15*
%TO.C,SW80*%
X115093750Y-234950000D03*
D16*
X120173750Y-234950000D03*
X110013750Y-234950000D03*
%TD*%
D25*
%TO.C,C3*%
X336308129Y-147637500D03*
X331308129Y-147637500D03*
%TD*%
D16*
%TO.C,SW42*%
X460057500Y-196850000D03*
X470217500Y-196850000D03*
D15*
X465137500Y-196850000D03*
%TD*%
D13*
%TO.C,D77*%
X262572500Y-184943750D03*
D14*
X254952500Y-184943750D03*
%TD*%
D16*
%TO.C,SW18*%
X470217500Y-158750000D03*
D15*
X465137500Y-158750000D03*
D16*
X460057500Y-158750000D03*
%TD*%
D13*
%TO.C,D40*%
X320833750Y-180181250D03*
D14*
X328453750Y-180181250D03*
%TD*%
D16*
%TO.C,SW98*%
X441007500Y-254000000D03*
X451167500Y-254000000D03*
D15*
X446087500Y-254000000D03*
%TD*%
D28*
%TO.C,J1*%
X291106250Y-132612500D03*
X290256250Y-132612500D03*
X289406250Y-132612500D03*
X288556250Y-132612500D03*
X287706250Y-132612500D03*
X286856250Y-132612500D03*
X286006250Y-132612500D03*
X285156250Y-132612500D03*
X285156250Y-131262500D03*
X286006250Y-131262500D03*
X286856250Y-131262500D03*
X287706250Y-131262500D03*
X288556250Y-131262500D03*
X289406250Y-131262500D03*
X290256250Y-131262500D03*
X291106250Y-131262500D03*
D29*
X283806250Y-128252500D03*
D30*
X283806250Y-131632500D03*
X292456250Y-131632500D03*
D29*
X292456250Y-128252500D03*
%TD*%
D16*
%TO.C,SW77*%
X421957500Y-234950000D03*
X432117500Y-234950000D03*
D15*
X427037500Y-234950000D03*
%TD*%
D16*
%TO.C,SW76*%
X413067500Y-234950000D03*
X402907500Y-234950000D03*
D15*
X407987500Y-234950000D03*
%TD*%
D13*
%TO.C,D5*%
X144303750Y-182562500D03*
D14*
X136683750Y-182562500D03*
%TD*%
D15*
%TO.C,SW81*%
X355600000Y-234950000D03*
D16*
X350520000Y-234950000D03*
X360680000Y-234950000D03*
%TD*%
D17*
%TO.C,MH2*%
X384968750Y-183356250D03*
%TD*%
D16*
%TO.C,SW103*%
X143986250Y-273050000D03*
D15*
X138906250Y-273050000D03*
D16*
X133826250Y-273050000D03*
%TD*%
D13*
%TO.C,D48*%
X198278750Y-177800000D03*
D14*
X190658750Y-177800000D03*
%TD*%
D17*
%TO.C,MH2*%
X107156250Y-172243750D03*
%TD*%
D15*
%TO.C,SW27*%
X169862500Y-196850000D03*
D16*
X174942500Y-196850000D03*
X164782500Y-196850000D03*
%TD*%
%TO.C,SW13*%
X350520000Y-158750000D03*
D15*
X355600000Y-158750000D03*
D16*
X360680000Y-158750000D03*
%TD*%
%TO.C,SW60*%
X460057500Y-215900000D03*
X470217500Y-215900000D03*
D15*
X465137500Y-215900000D03*
%TD*%
D13*
%TO.C,D6*%
X121602500Y-175418750D03*
D14*
X129222500Y-175418750D03*
%TD*%
D13*
%TO.C,D25*%
X171291250Y-182562500D03*
D14*
X163671250Y-182562500D03*
%TD*%
D13*
%TO.C,D26*%
X148590000Y-170656250D03*
D14*
X156210000Y-170656250D03*
%TD*%
D16*
%TO.C,SW79*%
X470217500Y-234950000D03*
X460057500Y-234950000D03*
D15*
X465137500Y-234950000D03*
%TD*%
%TO.C,SW40*%
X427037500Y-196850000D03*
D16*
X421957500Y-196850000D03*
X432117500Y-196850000D03*
%TD*%
D13*
%TO.C,D56*%
X343535000Y-177800000D03*
D14*
X335915000Y-177800000D03*
%TD*%
D16*
%TO.C,SW92*%
X302895000Y-254000000D03*
D15*
X307975000Y-254000000D03*
D16*
X313055000Y-254000000D03*
%TD*%
D15*
%TO.C,SW83*%
X136525000Y-254000000D03*
D16*
X141605000Y-254000000D03*
X131445000Y-254000000D03*
%TD*%
%TO.C,SW36*%
X336232500Y-196850000D03*
D15*
X341312500Y-196850000D03*
D16*
X346392500Y-196850000D03*
%TD*%
D15*
%TO.C,SW1*%
X112712500Y-158750000D03*
D16*
X107632500Y-158750000D03*
X117792500Y-158750000D03*
%TD*%
%TO.C,SW10*%
X293370000Y-158750000D03*
X303530000Y-158750000D03*
D15*
X298450000Y-158750000D03*
%TD*%
D19*
%TO.C,R1*%
X295275000Y-128746250D03*
D20*
X295275000Y-136366250D03*
%TD*%
D13*
%TO.C,D87*%
X262572500Y-173037500D03*
D14*
X254952500Y-173037500D03*
%TD*%
D19*
%TO.C,R6*%
X270827500Y-130968750D03*
D20*
X278447500Y-130968750D03*
%TD*%
D13*
%TO.C,D11*%
X144303750Y-175418750D03*
D14*
X136683750Y-175418750D03*
%TD*%
D16*
%TO.C,SW2*%
X141605000Y-158750000D03*
X131445000Y-158750000D03*
D15*
X136525000Y-158750000D03*
%TD*%
D13*
%TO.C,D29*%
X171291250Y-177800000D03*
D14*
X163671250Y-177800000D03*
%TD*%
D22*
%TO.C,SW123*%
X259481250Y-141950000D03*
X265981250Y-141950000D03*
X259481250Y-137450000D03*
X265981250Y-137450000D03*
%TD*%
D13*
%TO.C,D92*%
X370522500Y-180181250D03*
D14*
X362902500Y-180181250D03*
%TD*%
D15*
%TO.C,SW74*%
X336550000Y-234950000D03*
D16*
X341630000Y-234950000D03*
X331470000Y-234950000D03*
%TD*%
D13*
%TO.C,D33*%
X171291250Y-173037500D03*
D14*
X163671250Y-173037500D03*
%TD*%
D13*
%TO.C,D81*%
X262572500Y-180181250D03*
D14*
X254952500Y-180181250D03*
%TD*%
D13*
%TO.C,D46*%
X198278750Y-180181250D03*
D14*
X190658750Y-180181250D03*
%TD*%
D15*
%TO.C,SW62*%
X377031250Y-225425000D03*
D18*
X384016250Y-237363000D03*
D16*
X371951250Y-225425000D03*
D18*
X384016250Y-213487000D03*
D15*
X368776250Y-237363000D03*
D16*
X382111250Y-225425000D03*
D15*
X368776250Y-213487000D03*
%TD*%
D16*
%TO.C,SW28*%
X183832500Y-196850000D03*
X193992500Y-196850000D03*
D15*
X188912500Y-196850000D03*
%TD*%
D17*
%TO.C,MH2*%
X470693750Y-133350000D03*
%TD*%
D13*
%TO.C,D97*%
X266858750Y-182562500D03*
D14*
X274478750Y-182562500D03*
%TD*%
D16*
%TO.C,SW115*%
X112395000Y-273050000D03*
X122555000Y-273050000D03*
D15*
X117475000Y-273050000D03*
%TD*%
D16*
%TO.C,SW12*%
X331470000Y-158750000D03*
X341630000Y-158750000D03*
D15*
X336550000Y-158750000D03*
%TD*%
%TO.C,SW104*%
X162718750Y-273050000D03*
D16*
X167798750Y-273050000D03*
X157638750Y-273050000D03*
%TD*%
D19*
%TO.C,F1*%
X277187500Y-139012500D03*
X272087500Y-137212500D03*
%TD*%
D25*
%TO.C,C2*%
X338812500Y-147637500D03*
X343812500Y-147637500D03*
%TD*%
D13*
%TO.C,D17*%
X293846250Y-182562500D03*
D14*
X301466250Y-182562500D03*
%TD*%
D15*
%TO.C,SW43*%
X117475000Y-215900000D03*
D16*
X112395000Y-215900000D03*
X122555000Y-215900000D03*
%TD*%
%TO.C,SW101*%
X470217500Y-263525000D03*
D15*
X456882500Y-275463000D03*
D16*
X460057500Y-263525000D03*
D15*
X465137500Y-263525000D03*
D18*
X472122500Y-251587000D03*
X472122500Y-275463000D03*
D15*
X456882500Y-251587000D03*
%TD*%
D13*
%TO.C,D98*%
X266858750Y-180181250D03*
D14*
X274478750Y-180181250D03*
%TD*%
D13*
%TO.C,D15*%
X293846250Y-177800000D03*
D14*
X301466250Y-177800000D03*
%TD*%
D15*
%TO.C,SW44*%
X141287500Y-215900000D03*
D16*
X136207500Y-215900000D03*
X146367500Y-215900000D03*
%TD*%
%TO.C,SW24*%
X107632500Y-196850000D03*
D15*
X112712500Y-196850000D03*
D16*
X117792500Y-196850000D03*
%TD*%
D15*
%TO.C,SW117*%
X165100000Y-273050000D03*
D16*
X160020000Y-273050000D03*
X170180000Y-273050000D03*
%TD*%
D17*
%TO.C,MH2*%
X384968750Y-133350000D03*
%TD*%
%TO.C,MH2*%
X384968750Y-144462500D03*
%TD*%
D13*
%TO.C,D54*%
X198278750Y-170656250D03*
D14*
X190658750Y-170656250D03*
%TD*%
D16*
%TO.C,SW89*%
X255905000Y-254000000D03*
D15*
X250825000Y-254000000D03*
D16*
X245745000Y-254000000D03*
%TD*%
%TO.C,SW67*%
X208280000Y-234950000D03*
D15*
X203200000Y-234950000D03*
D16*
X198120000Y-234950000D03*
%TD*%
%TO.C,SW17*%
X451167500Y-158750000D03*
X441007500Y-158750000D03*
D15*
X446087500Y-158750000D03*
%TD*%
D13*
%TO.C,D51*%
X175577500Y-175418750D03*
D14*
X183197500Y-175418750D03*
%TD*%
D16*
%TO.C,SW26*%
X155892500Y-196850000D03*
X145732500Y-196850000D03*
D15*
X150812500Y-196850000D03*
%TD*%
D13*
%TO.C,D68*%
X225266250Y-175418750D03*
D14*
X217646250Y-175418750D03*
%TD*%
D15*
%TO.C,SW56*%
X374650000Y-215900000D03*
D16*
X369570000Y-215900000D03*
X379730000Y-215900000D03*
%TD*%
D13*
%TO.C,D99*%
X266858750Y-173037500D03*
D14*
X274478750Y-173037500D03*
%TD*%
D13*
%TO.C,D90*%
X229552500Y-170656250D03*
D14*
X237172500Y-170656250D03*
%TD*%
D17*
%TO.C,MH2*%
X455612500Y-177800000D03*
%TD*%
D13*
%TO.C,D94*%
X370522500Y-184943750D03*
D14*
X362902500Y-184943750D03*
%TD*%
D15*
%TO.C,SW90*%
X269875000Y-254000000D03*
D16*
X264795000Y-254000000D03*
X274955000Y-254000000D03*
%TD*%
%TO.C,SW63*%
X124936250Y-234950000D03*
X114776250Y-234950000D03*
D15*
X119856250Y-234950000D03*
%TD*%
D13*
%TO.C,D19*%
X316547500Y-177800000D03*
D14*
X308927500Y-177800000D03*
%TD*%
D16*
%TO.C,SW19*%
X402907500Y-177800000D03*
D15*
X407987500Y-177800000D03*
D16*
X413067500Y-177800000D03*
%TD*%
D13*
%TO.C,D95*%
X266858750Y-184943750D03*
D14*
X274478750Y-184943750D03*
%TD*%
D15*
%TO.C,SW50*%
X255587500Y-215900000D03*
D16*
X260667500Y-215900000D03*
X250507500Y-215900000D03*
%TD*%
D17*
%TO.C,MH2*%
X436562500Y-254000000D03*
%TD*%
D13*
%TO.C,D69*%
X202565000Y-175418750D03*
D14*
X210185000Y-175418750D03*
%TD*%
D13*
%TO.C,D23*%
X171291250Y-184943750D03*
D14*
X163671250Y-184943750D03*
%TD*%
D16*
%TO.C,SW25*%
X126682500Y-196850000D03*
D15*
X131762500Y-196850000D03*
D16*
X136842500Y-196850000D03*
%TD*%
%TO.C,SW57*%
X413067500Y-215900000D03*
D15*
X407987500Y-215900000D03*
D16*
X402907500Y-215900000D03*
%TD*%
D13*
%TO.C,D16*%
X293846250Y-180181250D03*
D14*
X301466250Y-180181250D03*
%TD*%
D13*
%TO.C,D35*%
X171291250Y-170656250D03*
D14*
X163671250Y-170656250D03*
%TD*%
D13*
%TO.C,D64*%
X225266250Y-180181250D03*
D14*
X217646250Y-180181250D03*
%TD*%
D13*
%TO.C,D66*%
X225266250Y-177800000D03*
D14*
X217646250Y-177800000D03*
%TD*%
D13*
%TO.C,D105*%
X289560000Y-175418750D03*
D14*
X281940000Y-175418750D03*
%TD*%
D18*
%TO.C,SW75*%
X379412500Y-241935000D03*
D16*
X372586250Y-234950000D03*
D18*
X355600000Y-241935000D03*
D16*
X362426250Y-234950000D03*
D15*
X379412500Y-226695000D03*
X367506250Y-234950000D03*
X355600000Y-226695000D03*
%TD*%
D16*
%TO.C,SW100*%
X120173750Y-254000000D03*
D15*
X115093750Y-254000000D03*
D16*
X110013750Y-254000000D03*
%TD*%
D13*
%TO.C,D49*%
X175577500Y-173037500D03*
D14*
X183197500Y-173037500D03*
%TD*%
D13*
%TO.C,D43*%
X175577500Y-184943750D03*
D14*
X183197500Y-184943750D03*
%TD*%
D13*
%TO.C,D58*%
X343535000Y-182562500D03*
D14*
X335915000Y-182562500D03*
%TD*%
D26*
%TO.C,D108*%
X291941250Y-141287500D03*
D27*
X284321250Y-141287500D03*
%TD*%
D17*
%TO.C,MH2*%
X192881250Y-144462500D03*
%TD*%
D13*
%TO.C,D7*%
X144303750Y-180181250D03*
D14*
X136683750Y-180181250D03*
%TD*%
D13*
%TO.C,D45*%
X175577500Y-182562500D03*
D14*
X183197500Y-182562500D03*
%TD*%
D13*
%TO.C,D42*%
X198278750Y-182562500D03*
D14*
X190658750Y-182562500D03*
%TD*%
D13*
%TO.C,D38*%
X320833750Y-184943750D03*
D14*
X328453750Y-184943750D03*
%TD*%
D13*
%TO.C,D59*%
X343535000Y-184943750D03*
D14*
X335915000Y-184943750D03*
%TD*%
D18*
%TO.C,SW118*%
X284162500Y-280035000D03*
D15*
X227012500Y-273050000D03*
X169862500Y-264795000D03*
X284162500Y-264795000D03*
D16*
X232092500Y-273050000D03*
X221932500Y-273050000D03*
D18*
X169862500Y-280035000D03*
%TD*%
D13*
%TO.C,D55*%
X175577500Y-180181250D03*
D14*
X183197500Y-180181250D03*
%TD*%
D16*
%TO.C,SW16*%
X421957500Y-158750000D03*
D15*
X427037500Y-158750000D03*
D16*
X432117500Y-158750000D03*
%TD*%
%TO.C,SW4*%
X169545000Y-158750000D03*
X179705000Y-158750000D03*
D15*
X174625000Y-158750000D03*
%TD*%
%TO.C,SW91*%
X288925000Y-254000000D03*
D16*
X283845000Y-254000000D03*
X294005000Y-254000000D03*
%TD*%
D17*
%TO.C,MH2*%
X336550000Y-254000000D03*
%TD*%
D16*
%TO.C,SW65*%
X160020000Y-234950000D03*
X170180000Y-234950000D03*
D15*
X165100000Y-234950000D03*
%TD*%
D17*
%TO.C,MH2*%
X246062500Y-172243750D03*
%TD*%
D13*
%TO.C,D10*%
X121602500Y-180181250D03*
D14*
X129222500Y-180181250D03*
%TD*%
D17*
%TO.C,MH2*%
X129381250Y-215900000D03*
%TD*%
D13*
%TO.C,D101*%
X266858750Y-175418750D03*
D14*
X274478750Y-175418750D03*
%TD*%
D16*
%TO.C,SW112*%
X432117500Y-273050000D03*
D15*
X427037500Y-273050000D03*
D16*
X421957500Y-273050000D03*
%TD*%
%TO.C,SW46*%
X174307500Y-215900000D03*
D15*
X179387500Y-215900000D03*
D16*
X184467500Y-215900000D03*
%TD*%
%TO.C,SW114*%
X460057500Y-273050000D03*
D15*
X465137500Y-273050000D03*
D16*
X470217500Y-273050000D03*
%TD*%
%TO.C,SW72*%
X293370000Y-234950000D03*
X303530000Y-234950000D03*
D15*
X298450000Y-234950000D03*
%TD*%
D13*
%TO.C,D52*%
X198278750Y-173037500D03*
D14*
X190658750Y-173037500D03*
%TD*%
D15*
%TO.C,SW9*%
X274637500Y-158750000D03*
D16*
X279717500Y-158750000D03*
X269557500Y-158750000D03*
%TD*%
D13*
%TO.C,D20*%
X316547500Y-180181250D03*
D14*
X308927500Y-180181250D03*
%TD*%
D13*
%TO.C,D53*%
X175577500Y-177800000D03*
D14*
X183197500Y-177800000D03*
%TD*%
D13*
%TO.C,D106*%
X266858750Y-170656250D03*
D14*
X274478750Y-170656250D03*
%TD*%
D13*
%TO.C,D34*%
X148590000Y-180181250D03*
D14*
X156210000Y-180181250D03*
%TD*%
D25*
%TO.C,C5*%
X373062500Y-133687500D03*
X373062500Y-136187500D03*
%TD*%
D13*
%TO.C,D60*%
X225266250Y-184943750D03*
D14*
X217646250Y-184943750D03*
%TD*%
D13*
%TO.C,D18*%
X293846250Y-184943750D03*
D14*
X301466250Y-184943750D03*
%TD*%
D15*
%TO.C,SW23*%
X360362500Y-196850000D03*
D16*
X365442500Y-196850000D03*
X355282500Y-196850000D03*
%TD*%
D13*
%TO.C,D76*%
X347821250Y-177800000D03*
D14*
X355441250Y-177800000D03*
%TD*%
D13*
%TO.C,D24*%
X148590000Y-184943750D03*
D14*
X156210000Y-184943750D03*
%TD*%
D31*
%TO.C,C1*%
X301625000Y-138906250D03*
X301625000Y-137406250D03*
%TD*%
D13*
%TO.C,D41*%
X320833750Y-177800000D03*
D14*
X328453750Y-177800000D03*
%TD*%
D13*
%TO.C,D39*%
X320833750Y-182562500D03*
D14*
X328453750Y-182562500D03*
%TD*%
D15*
%TO.C,SW109*%
X365125000Y-277812500D03*
D16*
X370205000Y-277812500D03*
X360045000Y-277812500D03*
%TD*%
D13*
%TO.C,D44*%
X198278750Y-184943750D03*
D14*
X190658750Y-184943750D03*
%TD*%
D19*
%TO.C,R2*%
X270827500Y-134143750D03*
D20*
X278447500Y-134143750D03*
%TD*%
D16*
%TO.C,SW55*%
X355917500Y-215900000D03*
X345757500Y-215900000D03*
D15*
X350837500Y-215900000D03*
%TD*%
D17*
%TO.C,MH2*%
X107156250Y-144462500D03*
%TD*%
D13*
%TO.C,D2*%
X121602500Y-170656250D03*
D14*
X129222500Y-170656250D03*
%TD*%
D13*
%TO.C,D85*%
X262572500Y-175418750D03*
D14*
X254952500Y-175418750D03*
%TD*%
D16*
%TO.C,SW96*%
X413067500Y-254000000D03*
D15*
X407987500Y-254000000D03*
D16*
X402907500Y-254000000D03*
%TD*%
%TO.C,SW29*%
X202882500Y-196850000D03*
D15*
X207962500Y-196850000D03*
D16*
X213042500Y-196850000D03*
%TD*%
D13*
%TO.C,D89*%
X262572500Y-170656250D03*
D14*
X254952500Y-170656250D03*
%TD*%
D16*
%TO.C,SW99*%
X460057500Y-254000000D03*
D15*
X465137500Y-254000000D03*
D16*
X470217500Y-254000000D03*
%TD*%
D13*
%TO.C,D37*%
X202565000Y-170656250D03*
D14*
X210185000Y-170656250D03*
%TD*%
D13*
%TO.C,D61*%
X202565000Y-180181250D03*
D14*
X210185000Y-180181250D03*
%TD*%
D16*
%TO.C,SW84*%
X150495000Y-254000000D03*
D15*
X155575000Y-254000000D03*
D16*
X160655000Y-254000000D03*
%TD*%
D13*
%TO.C,D13*%
X144303750Y-173037500D03*
D14*
X136683750Y-173037500D03*
%TD*%
D13*
%TO.C,D67*%
X202565000Y-173037500D03*
D14*
X210185000Y-173037500D03*
%TD*%
M02*
