%TF.GenerationSoftware,KiCad,Pcbnew,(6.0.0)*%
%TF.CreationDate,2022-02-26T22:27:28+01:00*%
%TF.ProjectId,pcb,7063622e-6b69-4636-9164-5f7063625858,rev?*%
%TF.SameCoordinates,Original*%
%TF.FileFunction,Soldermask,Top*%
%TF.FilePolarity,Negative*%
%FSLAX46Y46*%
G04 Gerber Fmt 4.6, Leading zero omitted, Abs format (unit mm)*
G04 Created by KiCad (PCBNEW (6.0.0)) date 2022-02-26 22:27:28*
%MOMM*%
%LPD*%
G01*
G04 APERTURE LIST*
%ADD10C,3.500001*%
%ADD11C,2.000000*%
%ADD12C,1.400000*%
%ADD13C,1.750000*%
%ADD14C,3.987800*%
%ADD15R,1.600000X1.600000*%
%ADD16O,1.600000X1.600000*%
%ADD17C,3.048000*%
%ADD18O,1.400000X1.400000*%
%ADD19C,1.500000*%
%ADD20R,1.700000X1.700000*%
%ADD21O,1.700000X1.700000*%
%ADD22C,1.600000*%
%ADD23R,2.200000X2.200000*%
%ADD24O,2.200000X2.200000*%
%ADD25C,0.700000*%
%ADD26O,0.900000X1.700000*%
%ADD27O,0.900000X2.400000*%
%ADD28R,1.200000X1.200000*%
%ADD29C,1.200000*%
G04 APERTURE END LIST*
D10*
%TO.C,MH2*%
X436562500Y-254000000D03*
%TD*%
%TO.C,MH2*%
X336550000Y-254000000D03*
%TD*%
%TO.C,MH2*%
X259556250Y-273050000D03*
%TD*%
%TO.C,MH2*%
X436562500Y-215900000D03*
%TD*%
%TO.C,MH2*%
X455612500Y-177800000D03*
%TD*%
%TO.C,MH2*%
X362743750Y-215900000D03*
%TD*%
%TO.C,MH2*%
X284162500Y-215900000D03*
%TD*%
%TO.C,MH2*%
X207962500Y-215900000D03*
%TD*%
%TO.C,MH2*%
X146050000Y-254000000D03*
%TD*%
%TO.C,MH2*%
X129381250Y-215900000D03*
%TD*%
%TO.C,MH2*%
X470693750Y-133350000D03*
%TD*%
%TO.C,MH2*%
X470693750Y-144462500D03*
%TD*%
%TO.C,MH2*%
X192881250Y-133350000D03*
%TD*%
%TO.C,MH2*%
X192881250Y-144462500D03*
%TD*%
%TO.C,MH2*%
X384968750Y-144462500D03*
%TD*%
%TO.C,MH2*%
X384968750Y-133350000D03*
%TD*%
%TO.C,MH2*%
X107156250Y-133350000D03*
%TD*%
%TO.C,MH2*%
X107156250Y-144462500D03*
%TD*%
D11*
%TO.C,SW124*%
X259481250Y-129512500D03*
X265981250Y-129512500D03*
X259481250Y-134012500D03*
X265981250Y-134012500D03*
%TD*%
D12*
%TO.C,F1*%
X272087500Y-137212500D03*
X277187500Y-139012500D03*
%TD*%
D13*
%TO.C,SW13*%
X350520000Y-158750000D03*
D14*
X355600000Y-158750000D03*
D13*
X360680000Y-158750000D03*
%TD*%
D15*
%TO.C,D106*%
X266858750Y-170656250D03*
D16*
X274478750Y-170656250D03*
%TD*%
D15*
%TO.C,D104*%
X289560000Y-182562500D03*
D16*
X281940000Y-182562500D03*
%TD*%
D14*
%TO.C,SW22*%
X465137500Y-177800000D03*
D13*
X460057500Y-177800000D03*
X470217500Y-177800000D03*
%TD*%
D14*
%TO.C,SW106*%
X303212500Y-273050000D03*
D13*
X298132500Y-273050000D03*
X308292500Y-273050000D03*
%TD*%
D14*
%TO.C,SW122*%
X246062500Y-273050000D03*
X284162500Y-264795000D03*
X188912500Y-264795000D03*
D13*
X240982500Y-273050000D03*
D17*
X188912500Y-280035000D03*
D13*
X251142500Y-273050000D03*
D17*
X284162500Y-280035000D03*
%TD*%
D15*
%TO.C,D14*%
X121602500Y-184943750D03*
D16*
X129222500Y-184943750D03*
%TD*%
D15*
%TO.C,D79*%
X262572500Y-182562500D03*
D16*
X254952500Y-182562500D03*
%TD*%
D15*
%TO.C,D75*%
X347821250Y-180181250D03*
D16*
X355441250Y-180181250D03*
%TD*%
D15*
%TO.C,D62*%
X225266250Y-182562500D03*
D16*
X217646250Y-182562500D03*
%TD*%
D13*
%TO.C,SW48*%
X212407500Y-215900000D03*
X222567500Y-215900000D03*
D14*
X217487500Y-215900000D03*
%TD*%
D10*
%TO.C,MH2*%
X246062500Y-183356250D03*
%TD*%
D15*
%TO.C,D30*%
X148590000Y-175418750D03*
D16*
X156210000Y-175418750D03*
%TD*%
D15*
%TO.C,D22*%
X316547500Y-184943750D03*
D16*
X308927500Y-184943750D03*
%TD*%
D15*
%TO.C,D31*%
X171291250Y-175418750D03*
D16*
X163671250Y-175418750D03*
%TD*%
D10*
%TO.C,MH2*%
X107156250Y-183356250D03*
%TD*%
D14*
%TO.C,SW82*%
X136525000Y-245745000D03*
X112712500Y-245745000D03*
D13*
X129698750Y-254000000D03*
D14*
X124618750Y-254000000D03*
D17*
X136525000Y-260985000D03*
D13*
X119538750Y-254000000D03*
D17*
X112712500Y-260985000D03*
%TD*%
D13*
%TO.C,SW47*%
X193357500Y-215900000D03*
D14*
X198437500Y-215900000D03*
D13*
X203517500Y-215900000D03*
%TD*%
D12*
%TO.C,R5*%
X297815000Y-130968750D03*
D18*
X305435000Y-130968750D03*
%TD*%
D13*
%TO.C,SW49*%
X241617500Y-215900000D03*
X231457500Y-215900000D03*
D14*
X236537500Y-215900000D03*
%TD*%
D10*
%TO.C,MH2*%
X384968750Y-172243750D03*
%TD*%
D15*
%TO.C,D102*%
X289560000Y-180181250D03*
D16*
X281940000Y-180181250D03*
%TD*%
D13*
%TO.C,SW108*%
X346392500Y-273050000D03*
D14*
X341312500Y-273050000D03*
D13*
X336232500Y-273050000D03*
%TD*%
%TO.C,SW7*%
X231457500Y-158750000D03*
X241617500Y-158750000D03*
D14*
X236537500Y-158750000D03*
%TD*%
D13*
%TO.C,SW102*%
X120173750Y-273050000D03*
D14*
X115093750Y-273050000D03*
D13*
X110013750Y-273050000D03*
%TD*%
D15*
%TO.C,D72*%
X225266250Y-170656250D03*
D16*
X217646250Y-170656250D03*
%TD*%
D15*
%TO.C,D27*%
X171291250Y-180181250D03*
D16*
X163671250Y-180181250D03*
%TD*%
D15*
%TO.C,D1*%
X144303750Y-170656250D03*
D16*
X136683750Y-170656250D03*
%TD*%
D14*
%TO.C,SW58*%
X427037500Y-215900000D03*
D13*
X432117500Y-215900000D03*
X421957500Y-215900000D03*
%TD*%
D15*
%TO.C,D84*%
X229552500Y-184943750D03*
D16*
X237172500Y-184943750D03*
%TD*%
D14*
%TO.C,SW113*%
X446087500Y-273050000D03*
D13*
X441007500Y-273050000D03*
X451167500Y-273050000D03*
%TD*%
D15*
%TO.C,D107*%
X289560000Y-173037500D03*
D16*
X281940000Y-173037500D03*
%TD*%
D14*
%TO.C,SW61*%
X456882500Y-237363000D03*
D13*
X460057500Y-225425000D03*
D14*
X465137500Y-225425000D03*
D17*
X472122500Y-213487000D03*
D13*
X470217500Y-225425000D03*
D17*
X472122500Y-237363000D03*
D14*
X456882500Y-213487000D03*
%TD*%
D13*
%TO.C,SW5*%
X198755000Y-158750000D03*
D14*
X193675000Y-158750000D03*
D13*
X188595000Y-158750000D03*
%TD*%
D15*
%TO.C,D3*%
X144303750Y-184943750D03*
D16*
X136683750Y-184943750D03*
%TD*%
D14*
%TO.C,SW111*%
X403225000Y-277812500D03*
D13*
X398145000Y-277812500D03*
X408305000Y-277812500D03*
%TD*%
D15*
%TO.C,D32*%
X148590000Y-177800000D03*
D16*
X156210000Y-177800000D03*
%TD*%
D13*
%TO.C,SW38*%
X384492500Y-196850000D03*
D14*
X379412500Y-196850000D03*
D13*
X374332500Y-196850000D03*
%TD*%
%TO.C,SW87*%
X217805000Y-254000000D03*
X207645000Y-254000000D03*
D14*
X212725000Y-254000000D03*
%TD*%
D13*
%TO.C,SW78*%
X441007500Y-234950000D03*
D14*
X446087500Y-234950000D03*
D13*
X451167500Y-234950000D03*
%TD*%
%TO.C,SW97*%
X421957500Y-254000000D03*
X432117500Y-254000000D03*
D14*
X427037500Y-254000000D03*
%TD*%
D12*
%TO.C,R3*%
X280987500Y-136366250D03*
D18*
X280987500Y-128746250D03*
%TD*%
D15*
%TO.C,D57*%
X343535000Y-180181250D03*
D16*
X335915000Y-180181250D03*
%TD*%
D15*
%TO.C,D103*%
X266858750Y-177800000D03*
D16*
X274478750Y-177800000D03*
%TD*%
D19*
%TO.C,Y1*%
X368756250Y-140562500D03*
X368756250Y-135682500D03*
%TD*%
D13*
%TO.C,SW32*%
X270192500Y-196850000D03*
X260032500Y-196850000D03*
D14*
X265112500Y-196850000D03*
%TD*%
D13*
%TO.C,SW86*%
X188595000Y-254000000D03*
D14*
X193675000Y-254000000D03*
D13*
X198755000Y-254000000D03*
%TD*%
D15*
%TO.C,D91*%
X370522500Y-177800000D03*
D16*
X362902500Y-177800000D03*
%TD*%
D13*
%TO.C,SW34*%
X298132500Y-196850000D03*
X308292500Y-196850000D03*
D14*
X303212500Y-196850000D03*
%TD*%
%TO.C,SW52*%
X293687500Y-215900000D03*
D13*
X288607500Y-215900000D03*
X298767500Y-215900000D03*
%TD*%
%TO.C,SW54*%
X336867500Y-215900000D03*
D14*
X331787500Y-215900000D03*
D13*
X326707500Y-215900000D03*
%TD*%
D15*
%TO.C,D82*%
X229552500Y-182562500D03*
D16*
X237172500Y-182562500D03*
%TD*%
D14*
%TO.C,SW20*%
X427037500Y-177800000D03*
D13*
X432117500Y-177800000D03*
X421957500Y-177800000D03*
%TD*%
%TO.C,SW15*%
X402907500Y-158750000D03*
X413067500Y-158750000D03*
D14*
X407987500Y-158750000D03*
%TD*%
D15*
%TO.C,D12*%
X121602500Y-182562500D03*
D16*
X129222500Y-182562500D03*
%TD*%
D13*
%TO.C,SW37*%
X364807500Y-196850000D03*
D14*
X369887500Y-196850000D03*
D13*
X374967500Y-196850000D03*
D14*
X357981250Y-205105000D03*
D17*
X357981250Y-189865000D03*
X381793750Y-189865000D03*
D14*
X381793750Y-205105000D03*
%TD*%
D15*
%TO.C,D93*%
X370522500Y-182562500D03*
D16*
X362902500Y-182562500D03*
%TD*%
D14*
%TO.C,SW3*%
X155575000Y-158750000D03*
D13*
X160655000Y-158750000D03*
X150495000Y-158750000D03*
%TD*%
D15*
%TO.C,D63*%
X202565000Y-182562500D03*
D16*
X210185000Y-182562500D03*
%TD*%
D15*
%TO.C,D86*%
X229552500Y-173037500D03*
D16*
X237172500Y-173037500D03*
%TD*%
D14*
%TO.C,SW30*%
X227012500Y-196850000D03*
D13*
X221932500Y-196850000D03*
X232092500Y-196850000D03*
%TD*%
D15*
%TO.C,D36*%
X148590000Y-182562500D03*
D16*
X156210000Y-182562500D03*
%TD*%
D14*
%TO.C,SW31*%
X246062500Y-196850000D03*
D13*
X240982500Y-196850000D03*
X251142500Y-196850000D03*
%TD*%
D15*
%TO.C,D8*%
X121602500Y-177800000D03*
D16*
X129222500Y-177800000D03*
%TD*%
D13*
%TO.C,SW69*%
X236220000Y-234950000D03*
X246380000Y-234950000D03*
D14*
X241300000Y-234950000D03*
%TD*%
D15*
%TO.C,D21*%
X316547500Y-182562500D03*
D16*
X308927500Y-182562500D03*
%TD*%
D15*
%TO.C,D80*%
X229552500Y-180181250D03*
D16*
X237172500Y-180181250D03*
%TD*%
D15*
%TO.C,D78*%
X229552500Y-177800000D03*
D16*
X237172500Y-177800000D03*
%TD*%
D14*
%TO.C,SW94*%
X353218750Y-254000000D03*
D13*
X358298750Y-254000000D03*
X348138750Y-254000000D03*
%TD*%
%TO.C,SW11*%
X322580000Y-158750000D03*
D14*
X317500000Y-158750000D03*
D13*
X312420000Y-158750000D03*
%TD*%
%TO.C,SW107*%
X327342500Y-273050000D03*
X317182500Y-273050000D03*
D14*
X322262500Y-273050000D03*
%TD*%
D15*
%TO.C,D96*%
X289560000Y-184943750D03*
D16*
X281940000Y-184943750D03*
%TD*%
D13*
%TO.C,SW116*%
X146367500Y-273050000D03*
X136207500Y-273050000D03*
D14*
X141287500Y-273050000D03*
%TD*%
%TO.C,SW95*%
X384175000Y-258762500D03*
D13*
X389255000Y-258762500D03*
X379095000Y-258762500D03*
%TD*%
%TO.C,SW51*%
X269557500Y-215900000D03*
D14*
X274637500Y-215900000D03*
D13*
X279717500Y-215900000D03*
%TD*%
%TO.C,SW45*%
X155257500Y-215900000D03*
D14*
X160337500Y-215900000D03*
D13*
X165417500Y-215900000D03*
%TD*%
D15*
%TO.C,D73*%
X347821250Y-184943750D03*
D16*
X355441250Y-184943750D03*
%TD*%
D13*
%TO.C,SW14*%
X384492500Y-158750000D03*
D14*
X379412500Y-158750000D03*
D13*
X374332500Y-158750000D03*
%TD*%
D15*
%TO.C,D88*%
X229552500Y-175418750D03*
D16*
X237172500Y-175418750D03*
%TD*%
D14*
%TO.C,SW35*%
X322262500Y-196850000D03*
D13*
X317182500Y-196850000D03*
X327342500Y-196850000D03*
%TD*%
%TO.C,SW41*%
X451167500Y-196850000D03*
X441007500Y-196850000D03*
D14*
X446087500Y-196850000D03*
%TD*%
D15*
%TO.C,D50*%
X198278750Y-175418750D03*
D16*
X190658750Y-175418750D03*
%TD*%
D14*
%TO.C,SW39*%
X407987500Y-196850000D03*
D13*
X402907500Y-196850000D03*
X413067500Y-196850000D03*
%TD*%
D20*
%TO.C,J2*%
X377656250Y-135587500D03*
D21*
X380196250Y-135587500D03*
X377656250Y-138127500D03*
X380196250Y-138127500D03*
X377656250Y-140667500D03*
X380196250Y-140667500D03*
%TD*%
D14*
%TO.C,SW85*%
X174625000Y-254000000D03*
D13*
X179705000Y-254000000D03*
X169545000Y-254000000D03*
%TD*%
D15*
%TO.C,D83*%
X262572500Y-177800000D03*
D16*
X254952500Y-177800000D03*
%TD*%
D14*
%TO.C,SW21*%
X446087500Y-177800000D03*
D13*
X451167500Y-177800000D03*
X441007500Y-177800000D03*
%TD*%
D15*
%TO.C,D9*%
X144303750Y-177800000D03*
D16*
X136683750Y-177800000D03*
%TD*%
D14*
%TO.C,SW93*%
X327025000Y-254000000D03*
D13*
X321945000Y-254000000D03*
X332105000Y-254000000D03*
%TD*%
%TO.C,SW71*%
X274320000Y-234950000D03*
X284480000Y-234950000D03*
D14*
X279400000Y-234950000D03*
%TD*%
D15*
%TO.C,D47*%
X175577500Y-170656250D03*
D16*
X183197500Y-170656250D03*
%TD*%
D14*
%TO.C,SW121*%
X146050000Y-273050000D03*
D13*
X151130000Y-273050000D03*
X140970000Y-273050000D03*
%TD*%
%TO.C,SW6*%
X222567500Y-158750000D03*
D14*
X217487500Y-158750000D03*
D13*
X212407500Y-158750000D03*
%TD*%
%TO.C,SW33*%
X279082500Y-196850000D03*
D14*
X284162500Y-196850000D03*
D13*
X289242500Y-196850000D03*
%TD*%
D22*
%TO.C,C4*%
X373062500Y-142537500D03*
X373062500Y-140037500D03*
%TD*%
D15*
%TO.C,U1*%
X363056250Y-130487500D03*
D16*
X360516250Y-130487500D03*
X357976250Y-130487500D03*
X355436250Y-130487500D03*
X352896250Y-130487500D03*
X350356250Y-130487500D03*
X347816250Y-130487500D03*
X345276250Y-130487500D03*
X342736250Y-130487500D03*
X340196250Y-130487500D03*
X337656250Y-130487500D03*
X335116250Y-130487500D03*
X332576250Y-130487500D03*
X330036250Y-130487500D03*
X327496250Y-130487500D03*
X324956250Y-130487500D03*
X322416250Y-130487500D03*
X319876250Y-130487500D03*
X317336250Y-130487500D03*
X314796250Y-130487500D03*
X314796250Y-145727500D03*
X317336250Y-145727500D03*
X319876250Y-145727500D03*
X322416250Y-145727500D03*
X324956250Y-145727500D03*
X327496250Y-145727500D03*
X330036250Y-145727500D03*
X332576250Y-145727500D03*
X335116250Y-145727500D03*
X337656250Y-145727500D03*
X340196250Y-145727500D03*
X342736250Y-145727500D03*
X345276250Y-145727500D03*
X347816250Y-145727500D03*
X350356250Y-145727500D03*
X352896250Y-145727500D03*
X355436250Y-145727500D03*
X357976250Y-145727500D03*
X360516250Y-145727500D03*
X363056250Y-145727500D03*
%TD*%
D13*
%TO.C,SW88*%
X226695000Y-254000000D03*
D14*
X231775000Y-254000000D03*
D13*
X236855000Y-254000000D03*
%TD*%
D15*
%TO.C,D74*%
X347821250Y-182562500D03*
D16*
X355441250Y-182562500D03*
%TD*%
D15*
%TO.C,D4*%
X121602500Y-173037500D03*
D16*
X129222500Y-173037500D03*
%TD*%
D14*
%TO.C,SW120*%
X336550000Y-273050000D03*
D13*
X341630000Y-273050000D03*
X331470000Y-273050000D03*
%TD*%
D14*
%TO.C,SW105*%
X184156350Y-264795000D03*
D17*
X284156150Y-280035000D03*
D13*
X229076250Y-273050000D03*
X239236250Y-273050000D03*
D14*
X284156150Y-264795000D03*
X234156250Y-273050000D03*
D17*
X184156350Y-280035000D03*
%TD*%
D13*
%TO.C,SW64*%
X140970000Y-234950000D03*
X151130000Y-234950000D03*
D14*
X146050000Y-234950000D03*
%TD*%
D13*
%TO.C,SW70*%
X255270000Y-234950000D03*
D14*
X260350000Y-234950000D03*
D13*
X265430000Y-234950000D03*
%TD*%
D15*
%TO.C,D100*%
X289560000Y-177800000D03*
D16*
X281940000Y-177800000D03*
%TD*%
D15*
%TO.C,D65*%
X202565000Y-184943750D03*
D16*
X210185000Y-184943750D03*
%TD*%
D14*
%TO.C,SW59*%
X446087500Y-215900000D03*
D13*
X441007500Y-215900000D03*
X451167500Y-215900000D03*
%TD*%
D14*
%TO.C,SW8*%
X255587500Y-158750000D03*
D13*
X250507500Y-158750000D03*
X260667500Y-158750000D03*
%TD*%
%TO.C,SW68*%
X217170000Y-234950000D03*
D14*
X222250000Y-234950000D03*
D13*
X227330000Y-234950000D03*
%TD*%
D15*
%TO.C,D70*%
X225266250Y-173037500D03*
D16*
X217646250Y-173037500D03*
%TD*%
D13*
%TO.C,SW73*%
X312420000Y-234950000D03*
D14*
X317500000Y-234950000D03*
D13*
X322580000Y-234950000D03*
%TD*%
D23*
%TO.C,D109*%
X291941250Y-137318750D03*
D24*
X284321250Y-137318750D03*
%TD*%
D13*
%TO.C,SW110*%
X389255000Y-277812500D03*
X379095000Y-277812500D03*
D14*
X384175000Y-277812500D03*
%TD*%
D12*
%TO.C,R4*%
X297815000Y-134143750D03*
D18*
X305435000Y-134143750D03*
%TD*%
D15*
%TO.C,D28*%
X148590000Y-173037500D03*
D16*
X156210000Y-173037500D03*
%TD*%
D14*
%TO.C,SW119*%
X307975000Y-273050000D03*
D13*
X302895000Y-273050000D03*
X313055000Y-273050000D03*
%TD*%
%TO.C,SW66*%
X179070000Y-234950000D03*
X189230000Y-234950000D03*
D14*
X184150000Y-234950000D03*
%TD*%
D15*
%TO.C,D71*%
X202565000Y-177800000D03*
D16*
X210185000Y-177800000D03*
%TD*%
D13*
%TO.C,SW53*%
X317817500Y-215900000D03*
D14*
X312737500Y-215900000D03*
D13*
X307657500Y-215900000D03*
%TD*%
D14*
%TO.C,SW80*%
X115093750Y-234950000D03*
D13*
X120173750Y-234950000D03*
X110013750Y-234950000D03*
%TD*%
D22*
%TO.C,C3*%
X331308129Y-147637500D03*
X336308129Y-147637500D03*
%TD*%
D13*
%TO.C,SW42*%
X460057500Y-196850000D03*
X470217500Y-196850000D03*
D14*
X465137500Y-196850000D03*
%TD*%
D15*
%TO.C,D77*%
X262572500Y-184943750D03*
D16*
X254952500Y-184943750D03*
%TD*%
D13*
%TO.C,SW18*%
X470217500Y-158750000D03*
D14*
X465137500Y-158750000D03*
D13*
X460057500Y-158750000D03*
%TD*%
D15*
%TO.C,D40*%
X320833750Y-180181250D03*
D16*
X328453750Y-180181250D03*
%TD*%
D13*
%TO.C,SW98*%
X441007500Y-254000000D03*
X451167500Y-254000000D03*
D14*
X446087500Y-254000000D03*
%TD*%
D25*
%TO.C,J1*%
X291106250Y-132612500D03*
X290256250Y-132612500D03*
X289406250Y-132612500D03*
X288556250Y-132612500D03*
X287706250Y-132612500D03*
X286856250Y-132612500D03*
X286006250Y-132612500D03*
X285156250Y-132612500D03*
X285156250Y-131262500D03*
X286006250Y-131262500D03*
X286856250Y-131262500D03*
X287706250Y-131262500D03*
X288556250Y-131262500D03*
X289406250Y-131262500D03*
X290256250Y-131262500D03*
X291106250Y-131262500D03*
D26*
X283806250Y-128252500D03*
D27*
X283806250Y-131632500D03*
X292456250Y-131632500D03*
D26*
X292456250Y-128252500D03*
%TD*%
D13*
%TO.C,SW77*%
X421957500Y-234950000D03*
X432117500Y-234950000D03*
D14*
X427037500Y-234950000D03*
%TD*%
D13*
%TO.C,SW76*%
X413067500Y-234950000D03*
X402907500Y-234950000D03*
D14*
X407987500Y-234950000D03*
%TD*%
D15*
%TO.C,D5*%
X144303750Y-182562500D03*
D16*
X136683750Y-182562500D03*
%TD*%
D14*
%TO.C,SW81*%
X355600000Y-234950000D03*
D13*
X350520000Y-234950000D03*
X360680000Y-234950000D03*
%TD*%
D10*
%TO.C,MH2*%
X384968750Y-183356250D03*
%TD*%
D13*
%TO.C,SW103*%
X143986250Y-273050000D03*
D14*
X138906250Y-273050000D03*
D13*
X133826250Y-273050000D03*
%TD*%
D15*
%TO.C,D48*%
X198278750Y-177800000D03*
D16*
X190658750Y-177800000D03*
%TD*%
D10*
%TO.C,MH2*%
X107156250Y-172243750D03*
%TD*%
D14*
%TO.C,SW27*%
X169862500Y-196850000D03*
D13*
X174942500Y-196850000D03*
X164782500Y-196850000D03*
%TD*%
%TO.C,SW60*%
X460057500Y-215900000D03*
X470217500Y-215900000D03*
D14*
X465137500Y-215900000D03*
%TD*%
D15*
%TO.C,D6*%
X121602500Y-175418750D03*
D16*
X129222500Y-175418750D03*
%TD*%
D15*
%TO.C,D25*%
X171291250Y-182562500D03*
D16*
X163671250Y-182562500D03*
%TD*%
D15*
%TO.C,D26*%
X148590000Y-170656250D03*
D16*
X156210000Y-170656250D03*
%TD*%
D13*
%TO.C,SW79*%
X470217500Y-234950000D03*
X460057500Y-234950000D03*
D14*
X465137500Y-234950000D03*
%TD*%
%TO.C,SW40*%
X427037500Y-196850000D03*
D13*
X421957500Y-196850000D03*
X432117500Y-196850000D03*
%TD*%
D15*
%TO.C,D56*%
X343535000Y-177800000D03*
D16*
X335915000Y-177800000D03*
%TD*%
D13*
%TO.C,SW92*%
X302895000Y-254000000D03*
D14*
X307975000Y-254000000D03*
D13*
X313055000Y-254000000D03*
%TD*%
D14*
%TO.C,SW83*%
X136525000Y-254000000D03*
D13*
X141605000Y-254000000D03*
X131445000Y-254000000D03*
%TD*%
%TO.C,SW36*%
X336232500Y-196850000D03*
D14*
X341312500Y-196850000D03*
D13*
X346392500Y-196850000D03*
%TD*%
D14*
%TO.C,SW1*%
X112712500Y-158750000D03*
D13*
X107632500Y-158750000D03*
X117792500Y-158750000D03*
%TD*%
%TO.C,SW10*%
X293370000Y-158750000D03*
X303530000Y-158750000D03*
D14*
X298450000Y-158750000D03*
%TD*%
D12*
%TO.C,R1*%
X295275000Y-128746250D03*
D18*
X295275000Y-136366250D03*
%TD*%
D15*
%TO.C,D87*%
X262572500Y-173037500D03*
D16*
X254952500Y-173037500D03*
%TD*%
D18*
%TO.C,R6*%
X278447500Y-130968750D03*
D12*
X270827500Y-130968750D03*
%TD*%
D15*
%TO.C,D11*%
X144303750Y-175418750D03*
D16*
X136683750Y-175418750D03*
%TD*%
D13*
%TO.C,SW2*%
X141605000Y-158750000D03*
X131445000Y-158750000D03*
D14*
X136525000Y-158750000D03*
%TD*%
D15*
%TO.C,D29*%
X171291250Y-177800000D03*
D16*
X163671250Y-177800000D03*
%TD*%
D11*
%TO.C,SW123*%
X265981250Y-137450000D03*
X259481250Y-137450000D03*
X265981250Y-141950000D03*
X259481250Y-141950000D03*
%TD*%
D15*
%TO.C,D92*%
X370522500Y-180181250D03*
D16*
X362902500Y-180181250D03*
%TD*%
D14*
%TO.C,SW74*%
X336550000Y-234950000D03*
D13*
X341630000Y-234950000D03*
X331470000Y-234950000D03*
%TD*%
D15*
%TO.C,D33*%
X171291250Y-173037500D03*
D16*
X163671250Y-173037500D03*
%TD*%
D15*
%TO.C,D81*%
X262572500Y-180181250D03*
D16*
X254952500Y-180181250D03*
%TD*%
D15*
%TO.C,D46*%
X198278750Y-180181250D03*
D16*
X190658750Y-180181250D03*
%TD*%
D14*
%TO.C,SW62*%
X377031250Y-225425000D03*
D17*
X384016250Y-237363000D03*
D13*
X371951250Y-225425000D03*
D17*
X384016250Y-213487000D03*
D14*
X368776250Y-237363000D03*
D13*
X382111250Y-225425000D03*
D14*
X368776250Y-213487000D03*
%TD*%
D13*
%TO.C,SW28*%
X183832500Y-196850000D03*
X193992500Y-196850000D03*
D14*
X188912500Y-196850000D03*
%TD*%
D15*
%TO.C,D97*%
X266858750Y-182562500D03*
D16*
X274478750Y-182562500D03*
%TD*%
D13*
%TO.C,SW115*%
X112395000Y-273050000D03*
X122555000Y-273050000D03*
D14*
X117475000Y-273050000D03*
%TD*%
D13*
%TO.C,SW12*%
X331470000Y-158750000D03*
X341630000Y-158750000D03*
D14*
X336550000Y-158750000D03*
%TD*%
%TO.C,SW104*%
X162718750Y-273050000D03*
D13*
X167798750Y-273050000D03*
X157638750Y-273050000D03*
%TD*%
D22*
%TO.C,C2*%
X338812500Y-147637500D03*
X343812500Y-147637500D03*
%TD*%
D15*
%TO.C,D17*%
X293846250Y-182562500D03*
D16*
X301466250Y-182562500D03*
%TD*%
D14*
%TO.C,SW43*%
X117475000Y-215900000D03*
D13*
X112395000Y-215900000D03*
X122555000Y-215900000D03*
%TD*%
%TO.C,SW101*%
X470217500Y-263525000D03*
D14*
X456882500Y-275463000D03*
D13*
X460057500Y-263525000D03*
D14*
X465137500Y-263525000D03*
D17*
X472122500Y-251587000D03*
X472122500Y-275463000D03*
D14*
X456882500Y-251587000D03*
%TD*%
D15*
%TO.C,D98*%
X266858750Y-180181250D03*
D16*
X274478750Y-180181250D03*
%TD*%
D15*
%TO.C,D15*%
X293846250Y-177800000D03*
D16*
X301466250Y-177800000D03*
%TD*%
D14*
%TO.C,SW44*%
X141287500Y-215900000D03*
D13*
X136207500Y-215900000D03*
X146367500Y-215900000D03*
%TD*%
%TO.C,SW24*%
X107632500Y-196850000D03*
D14*
X112712500Y-196850000D03*
D13*
X117792500Y-196850000D03*
%TD*%
D14*
%TO.C,SW117*%
X165100000Y-273050000D03*
D13*
X160020000Y-273050000D03*
X170180000Y-273050000D03*
%TD*%
D15*
%TO.C,D54*%
X198278750Y-170656250D03*
D16*
X190658750Y-170656250D03*
%TD*%
D13*
%TO.C,SW89*%
X255905000Y-254000000D03*
D14*
X250825000Y-254000000D03*
D13*
X245745000Y-254000000D03*
%TD*%
%TO.C,SW67*%
X208280000Y-234950000D03*
D14*
X203200000Y-234950000D03*
D13*
X198120000Y-234950000D03*
%TD*%
%TO.C,SW17*%
X451167500Y-158750000D03*
X441007500Y-158750000D03*
D14*
X446087500Y-158750000D03*
%TD*%
D15*
%TO.C,D51*%
X175577500Y-175418750D03*
D16*
X183197500Y-175418750D03*
%TD*%
D13*
%TO.C,SW26*%
X155892500Y-196850000D03*
X145732500Y-196850000D03*
D14*
X150812500Y-196850000D03*
%TD*%
D15*
%TO.C,D68*%
X225266250Y-175418750D03*
D16*
X217646250Y-175418750D03*
%TD*%
D14*
%TO.C,SW56*%
X374650000Y-215900000D03*
D13*
X369570000Y-215900000D03*
X379730000Y-215900000D03*
%TD*%
D15*
%TO.C,D99*%
X266858750Y-173037500D03*
D16*
X274478750Y-173037500D03*
%TD*%
D15*
%TO.C,D90*%
X229552500Y-170656250D03*
D16*
X237172500Y-170656250D03*
%TD*%
D15*
%TO.C,D94*%
X370522500Y-184943750D03*
D16*
X362902500Y-184943750D03*
%TD*%
D14*
%TO.C,SW90*%
X269875000Y-254000000D03*
D13*
X264795000Y-254000000D03*
X274955000Y-254000000D03*
%TD*%
%TO.C,SW63*%
X124936250Y-234950000D03*
X114776250Y-234950000D03*
D14*
X119856250Y-234950000D03*
%TD*%
D15*
%TO.C,D19*%
X316547500Y-177800000D03*
D16*
X308927500Y-177800000D03*
%TD*%
D13*
%TO.C,SW19*%
X402907500Y-177800000D03*
D14*
X407987500Y-177800000D03*
D13*
X413067500Y-177800000D03*
%TD*%
D15*
%TO.C,D95*%
X266858750Y-184943750D03*
D16*
X274478750Y-184943750D03*
%TD*%
D14*
%TO.C,SW50*%
X255587500Y-215900000D03*
D13*
X260667500Y-215900000D03*
X250507500Y-215900000D03*
%TD*%
D15*
%TO.C,D69*%
X202565000Y-175418750D03*
D16*
X210185000Y-175418750D03*
%TD*%
D15*
%TO.C,D23*%
X171291250Y-184943750D03*
D16*
X163671250Y-184943750D03*
%TD*%
D13*
%TO.C,SW25*%
X126682500Y-196850000D03*
D14*
X131762500Y-196850000D03*
D13*
X136842500Y-196850000D03*
%TD*%
%TO.C,SW57*%
X413067500Y-215900000D03*
D14*
X407987500Y-215900000D03*
D13*
X402907500Y-215900000D03*
%TD*%
D15*
%TO.C,D16*%
X293846250Y-180181250D03*
D16*
X301466250Y-180181250D03*
%TD*%
D15*
%TO.C,D35*%
X171291250Y-170656250D03*
D16*
X163671250Y-170656250D03*
%TD*%
D15*
%TO.C,D64*%
X225266250Y-180181250D03*
D16*
X217646250Y-180181250D03*
%TD*%
D15*
%TO.C,D66*%
X225266250Y-177800000D03*
D16*
X217646250Y-177800000D03*
%TD*%
D15*
%TO.C,D105*%
X289560000Y-175418750D03*
D16*
X281940000Y-175418750D03*
%TD*%
D17*
%TO.C,SW75*%
X379412500Y-241935000D03*
D13*
X372586250Y-234950000D03*
D17*
X355600000Y-241935000D03*
D13*
X362426250Y-234950000D03*
D14*
X379412500Y-226695000D03*
X367506250Y-234950000D03*
X355600000Y-226695000D03*
%TD*%
D13*
%TO.C,SW100*%
X120173750Y-254000000D03*
D14*
X115093750Y-254000000D03*
D13*
X110013750Y-254000000D03*
%TD*%
D15*
%TO.C,D49*%
X175577500Y-173037500D03*
D16*
X183197500Y-173037500D03*
%TD*%
D15*
%TO.C,D43*%
X175577500Y-184943750D03*
D16*
X183197500Y-184943750D03*
%TD*%
D15*
%TO.C,D58*%
X343535000Y-182562500D03*
D16*
X335915000Y-182562500D03*
%TD*%
D23*
%TO.C,D108*%
X291941250Y-141287500D03*
D24*
X284321250Y-141287500D03*
%TD*%
D15*
%TO.C,D7*%
X144303750Y-180181250D03*
D16*
X136683750Y-180181250D03*
%TD*%
D15*
%TO.C,D45*%
X175577500Y-182562500D03*
D16*
X183197500Y-182562500D03*
%TD*%
D15*
%TO.C,D42*%
X198278750Y-182562500D03*
D16*
X190658750Y-182562500D03*
%TD*%
D15*
%TO.C,D38*%
X320833750Y-184943750D03*
D16*
X328453750Y-184943750D03*
%TD*%
D15*
%TO.C,D59*%
X343535000Y-184943750D03*
D16*
X335915000Y-184943750D03*
%TD*%
D17*
%TO.C,SW118*%
X284162500Y-280035000D03*
D14*
X227012500Y-273050000D03*
X169862500Y-264795000D03*
X284162500Y-264795000D03*
D13*
X232092500Y-273050000D03*
X221932500Y-273050000D03*
D17*
X169862500Y-280035000D03*
%TD*%
D15*
%TO.C,D55*%
X175577500Y-180181250D03*
D16*
X183197500Y-180181250D03*
%TD*%
D13*
%TO.C,SW16*%
X421957500Y-158750000D03*
D14*
X427037500Y-158750000D03*
D13*
X432117500Y-158750000D03*
%TD*%
%TO.C,SW4*%
X169545000Y-158750000D03*
X179705000Y-158750000D03*
D14*
X174625000Y-158750000D03*
%TD*%
%TO.C,SW91*%
X288925000Y-254000000D03*
D13*
X283845000Y-254000000D03*
X294005000Y-254000000D03*
%TD*%
%TO.C,SW65*%
X160020000Y-234950000D03*
X170180000Y-234950000D03*
D14*
X165100000Y-234950000D03*
%TD*%
D10*
%TO.C,MH2*%
X246062500Y-172243750D03*
%TD*%
D15*
%TO.C,D10*%
X121602500Y-180181250D03*
D16*
X129222500Y-180181250D03*
%TD*%
D15*
%TO.C,D101*%
X266858750Y-175418750D03*
D16*
X274478750Y-175418750D03*
%TD*%
D13*
%TO.C,SW112*%
X432117500Y-273050000D03*
D14*
X427037500Y-273050000D03*
D13*
X421957500Y-273050000D03*
%TD*%
%TO.C,SW46*%
X174307500Y-215900000D03*
D14*
X179387500Y-215900000D03*
D13*
X184467500Y-215900000D03*
%TD*%
%TO.C,SW114*%
X460057500Y-273050000D03*
D14*
X465137500Y-273050000D03*
D13*
X470217500Y-273050000D03*
%TD*%
%TO.C,SW72*%
X293370000Y-234950000D03*
X303530000Y-234950000D03*
D14*
X298450000Y-234950000D03*
%TD*%
D15*
%TO.C,D52*%
X198278750Y-173037500D03*
D16*
X190658750Y-173037500D03*
%TD*%
D14*
%TO.C,SW9*%
X274637500Y-158750000D03*
D13*
X279717500Y-158750000D03*
X269557500Y-158750000D03*
%TD*%
D15*
%TO.C,D20*%
X316547500Y-180181250D03*
D16*
X308927500Y-180181250D03*
%TD*%
D15*
%TO.C,D53*%
X175577500Y-177800000D03*
D16*
X183197500Y-177800000D03*
%TD*%
D15*
%TO.C,D34*%
X148590000Y-180181250D03*
D16*
X156210000Y-180181250D03*
%TD*%
D22*
%TO.C,C5*%
X373062500Y-133687500D03*
X373062500Y-136187500D03*
%TD*%
D15*
%TO.C,D60*%
X225266250Y-184943750D03*
D16*
X217646250Y-184943750D03*
%TD*%
D15*
%TO.C,D18*%
X293846250Y-184943750D03*
D16*
X301466250Y-184943750D03*
%TD*%
D14*
%TO.C,SW23*%
X360362500Y-196850000D03*
D13*
X365442500Y-196850000D03*
X355282500Y-196850000D03*
%TD*%
D15*
%TO.C,D76*%
X347821250Y-177800000D03*
D16*
X355441250Y-177800000D03*
%TD*%
D15*
%TO.C,D24*%
X148590000Y-184943750D03*
D16*
X156210000Y-184943750D03*
%TD*%
D28*
%TO.C,C1*%
X301625000Y-138906250D03*
D29*
X301625000Y-137406250D03*
%TD*%
D15*
%TO.C,D41*%
X320833750Y-177800000D03*
D16*
X328453750Y-177800000D03*
%TD*%
D15*
%TO.C,D39*%
X320833750Y-182562500D03*
D16*
X328453750Y-182562500D03*
%TD*%
D14*
%TO.C,SW109*%
X365125000Y-277812500D03*
D13*
X370205000Y-277812500D03*
X360045000Y-277812500D03*
%TD*%
D15*
%TO.C,D44*%
X198278750Y-184943750D03*
D16*
X190658750Y-184943750D03*
%TD*%
D12*
%TO.C,R2*%
X270827500Y-134143750D03*
D18*
X278447500Y-134143750D03*
%TD*%
D13*
%TO.C,SW55*%
X355917500Y-215900000D03*
X345757500Y-215900000D03*
D14*
X350837500Y-215900000D03*
%TD*%
D15*
%TO.C,D2*%
X121602500Y-170656250D03*
D16*
X129222500Y-170656250D03*
%TD*%
D15*
%TO.C,D85*%
X262572500Y-175418750D03*
D16*
X254952500Y-175418750D03*
%TD*%
D13*
%TO.C,SW96*%
X413067500Y-254000000D03*
D14*
X407987500Y-254000000D03*
D13*
X402907500Y-254000000D03*
%TD*%
%TO.C,SW29*%
X202882500Y-196850000D03*
D14*
X207962500Y-196850000D03*
D13*
X213042500Y-196850000D03*
%TD*%
D15*
%TO.C,D89*%
X262572500Y-170656250D03*
D16*
X254952500Y-170656250D03*
%TD*%
D13*
%TO.C,SW99*%
X460057500Y-254000000D03*
D14*
X465137500Y-254000000D03*
D13*
X470217500Y-254000000D03*
%TD*%
D15*
%TO.C,D37*%
X202565000Y-170656250D03*
D16*
X210185000Y-170656250D03*
%TD*%
D15*
%TO.C,D61*%
X202565000Y-180181250D03*
D16*
X210185000Y-180181250D03*
%TD*%
D13*
%TO.C,SW84*%
X150495000Y-254000000D03*
D14*
X155575000Y-254000000D03*
D13*
X160655000Y-254000000D03*
%TD*%
D15*
%TO.C,D13*%
X144303750Y-173037500D03*
D16*
X136683750Y-173037500D03*
%TD*%
D15*
%TO.C,D67*%
X202565000Y-173037500D03*
D16*
X210185000Y-173037500D03*
%TD*%
M02*
